<svg width="233" height="60" viewBox="0 0 233 60" xmlns="http://www.w3.org/2000/svg"><title>Imported Layers 4</title><g fill="none"><path d="M61.684 20.172l2.332.58c-1.455 3.822-2.182 7.202-2.182 10.136 0 3.405.727 6.985 2.182 10.74l-2.332.605c-1.488-3.673-2.232-7.404-2.232-11.194 0-3.808.744-7.43 2.232-10.868m14.126 11.446l5.944 7.773h-6.12l-4.64-7.295h-.05v7.295h-4.914v-18.967h7.348c1.972 0 3.56.486 4.765 1.46 1.204.972 1.805 2.43 1.805 4.376 0 1.357-.363 2.53-1.09 3.52-.728.99-1.744 1.603-3.048 1.838zm-4.865-7.42v4.728h.476c2.274 0 3.41-.788 3.41-2.365 0-1.576-1.136-2.364-3.41-2.364h-.475zm15.815 6.843c0 3.79-.743 7.52-2.23 11.193l-2.333-.604c1.455-3.757 2.182-7.338 2.182-10.742 0-2.934-.728-6.314-2.183-10.137l2.332-.578c1.487 3.438 2.23 7.06 2.23 10.867" fill="#A6A6A6"/><path d="M99.906 24.6h-5.843v3.168h5.542v4.176h-5.542v3.27h5.843v4.176h-10.758v-18.967h10.758v4.177m6.101-4.177l4.564 11.52 4.59-11.52h5.342l-8.075 18.967h-3.812l-7.95-18.967h5.34m18.759.591c1.588-.813 3.294-1.22 5.116-1.22 1.823 0 3.528.407 5.117 1.22 1.588.813 2.875 1.974 3.862 3.484.985 1.51 1.478 3.195 1.478 5.056 0 3.07-.982 5.58-2.946 7.534-1.965 1.954-4.468 2.93-7.51 2.93s-5.547-.976-7.512-2.93c-1.965-1.953-2.946-4.465-2.946-7.534 0-1.862.493-3.547 1.48-5.056.986-1.51 2.273-2.67 3.862-3.484zm8.878 5.07c-1.053-1.007-2.307-1.51-3.762-1.51-1.453 0-2.707.503-3.76 1.51-1.053 1.005-1.58 2.17-1.58 3.496 0 1.61.518 2.956 1.555 4.037 1.036 1.082 2.298 1.623 3.787 1.623 1.488 0 2.75-.54 3.787-1.623 1.035-1.082 1.554-2.427 1.554-4.037 0-1.325-.526-2.49-1.58-3.497zm13.065-5.661v14.79h5.893v4.177h-10.807v-18.967h4.915m18.333 0h4.915v10.667c0 1.542-.12 2.837-.364 3.885-.242 1.048-.782 1.984-1.618 2.805-1.42 1.41-3.51 2.113-6.27 2.113-2.758 0-4.847-.704-6.268-2.113-.836-.82-1.375-1.757-1.618-2.805-.243-1.048-.365-2.343-.365-3.886v-10.667h4.915v9.987c0 .604.013 1.107.038 1.51.025.4.1.854.226 1.357.125.503.3.906.527 1.207.226.302.557.558.99.767.435.21.954.315 1.556.315s1.12-.104 1.555-.314c.435-.21.766-.464.992-.766.226-.302.4-.704.527-1.207.124-.503.2-.956.225-1.358.025-.403.038-.907.038-1.51v-9.987m14.993 4.177v14.79h-4.915v-14.79h-4.062v-4.177h13.04v4.177h-4.063m5.204-4.177h4.914v18.967h-4.915v-18.967zm11.685.591c1.588-.813 3.293-1.22 5.116-1.22 1.823 0 3.528.407 5.117 1.22 1.588.813 2.875 1.974 3.862 3.484.985 1.51 1.48 3.195 1.48 5.056 0 3.07-.983 5.58-2.947 7.534-1.965 1.954-4.468 2.93-7.51 2.93s-5.547-.976-7.512-2.93c-1.964-1.953-2.946-4.465-2.946-7.534 0-1.862.493-3.547 1.48-5.056.986-1.51 2.273-2.67 3.862-3.484zm8.877 5.07c-1.053-1.007-2.307-1.51-3.762-1.51-1.454 0-2.708.503-3.762 1.51-1.053 1.005-1.58 2.17-1.58 3.496 0 1.61.518 2.956 1.555 4.037 1.036 1.082 2.3 1.623 3.787 1.623s2.75-.54 3.787-1.623c1.036-1.082 1.555-2.427 1.555-4.037 0-1.325-.527-2.49-1.58-3.497zm13.038-5.821v11.622h.05l9.002-11.622h4.915v18.967h-4.915v-11.597h-.05l-9.002 11.597h-4.916v-18.967h4.915m-162.727 8.83l-21.665-6.09-.55-22.767-12.34 19.142-21.587-6.07 14.06 17.557-12.7 19.188 20.93-8.17 13.67 17.844-.78-22.87 20.96-7.767" fill="#fff"/></g></svg>