<svg width="166" height="341" xmlns="http://www.w3.org/2000/svg" viewBox="0 0 225.7 407.4" enable-background="new 0 0 225.7 407.4"><path fill="#E5EAD8" stroke="#364A1E" stroke-width="2.061" stroke-miterlimit="10" d="M110.2 212c.1 6.6 1.3 37.2-4.2 90.3-1.6 15.8-2.3 31.4 3.4 33.2 4.1 1.3 8.6-4.8 9.8-20.1 3.1-39.7-.1-84.2-1.4-101.8"/><path opacity=".6" fill="#B6C495" d="M117.5 218.3s4.3 56 2.4 84c-1.9 27.9-6.3 35.2-11.1 32.7 1.8 0 7.2-1 8.8-40.6 1.5-35.1-2.7-76.8-2.7-76.8l2.6.7z"/><path stroke="#364A1E" stroke-width=".713" stroke-miterlimit="10" d="M104.8 321.8s4.9 4.9 13.3 1.4" fill="none"/><path stroke="#364A1E" stroke-width=".736" stroke-miterlimit="10" d="M106.5 300.4s5.3 5 13.5 1.2" fill="none"/><path stroke="#364A1E" stroke-width=".606" stroke-miterlimit="10" d="M108 277.8s4.1 4.7 12.5 1.3" fill="none"/><path stroke="#364A1E" stroke-width=".494" stroke-miterlimit="10" d="M109.6 256s3.6 3.6 10.2.4" fill="none"/><path stroke="#364A1E" stroke-width=".398" stroke-miterlimit="10" d="M110.7 235s3.1 2.7 8.2-.1" fill="none"/><path stroke="#364A1E" stroke-width="2.061" stroke-miterlimit="10" d="M110.3 212c.1 6.6 1.3 37.2-4.2 90.3-1.6 15.8-2.3 31.4 3.4 33.2 4.1 1.3 8.6-4.8 9.8-20.1 3.1-39.7-.1-84.2-1.4-101.8" fill="none"/><path fill="#E5EAD8" stroke="#364A1E" stroke-width="2.061" stroke-miterlimit="10" d="M96.7 209.5s-2.2 33.9-17.4 88.7c-4.2 15.3-5.9 30.9-.8 33.5 3.9 1.9 9.2-3.6 12.5-18.6 8.7-38.9 11.1-80.5 12.3-100.5"/><path opacity=".6" fill="#B6C495" d="M103 216.8s-3.6 56.1-9.4 83.5c-5.8 27.4-11.2 34-15.6 30.8 1.7.3 7.3 0 14.4-39 6.4-34.6 8.1-76.4 8.1-76.4l2.5 1.1z"/><path stroke="#364A1E" stroke-width="2.061" stroke-miterlimit="10" d="M96.7 209.5s-2.2 33.9-17.4 88.7c-4.2 15.3-5.9 30.9-.8 33.5 3.9 1.9 9.2-3.6 12.5-18.6 8.7-38.9 11.1-80.5 12.3-100.5" fill="none"/><path stroke="#364A1E" stroke-width=".713" stroke-miterlimit="10" d="M75.7 316.2s3.4 7.7 13 4.9" fill="none"/><path stroke="#364A1E" stroke-width=".736" stroke-miterlimit="10" d="M79.8 295.3s3.8 7.7 13.9 4.8" fill="none"/><path stroke="#364A1E" stroke-width=".606" stroke-miterlimit="10" d="M85.3 274.3s3.5 5.2 12.2 3" fill="none"/><path stroke="#364A1E" stroke-width=".494" stroke-miterlimit="10" d="M89.9 253s3.1 4.1 10.1 1.9" fill="none"/><path stroke="#364A1E" stroke-width=".398" stroke-miterlimit="10" d="M93.9 232.3s2.6 3.1 8.2 1" fill="none"/><path fill="#E5EAD8" stroke="#364A1E" stroke-width="2.061" stroke-miterlimit="10" d="M133.2 211.4c.6 6.5 2.8 37.1 14 89.3 3.3 15.5 5.7 31 .2 33.4-3.9 1.8-9-3.8-11.9-19-7.4-39.2-9-83.7-9.7-101.3"/><path opacity=".6" fill="#B6C495" d="M126.7 218.5s1.8 56.2 6.7 83.7c4.9 27.6 10.1 34.3 14.6 31.3-1.7.2-7.3-.2-13.2-39.4-5.3-34.8-5.6-76.6-5.6-76.6l-2.5 1z"/><path stroke="#364A1E" stroke-width=".713" stroke-miterlimit="10" d="M150.5 320s-4.3 5.4-13.1 2.8" fill="none"/><path stroke="#364A1E" stroke-width=".736" stroke-miterlimit="10" d="M146.5 298.9s-4.8 5.5-13.3 2.6" fill="none"/><path stroke="#364A1E" stroke-width=".606" stroke-miterlimit="10" d="M142.6 276.6s-3.6 5.1-12.3 2.6" fill="none"/><path stroke="#364A1E" stroke-width=".494" stroke-miterlimit="10" d="M138.6 255.1s-3.2 4-10.1 1.5" fill="none"/><path stroke="#364A1E" stroke-width=".398" stroke-miterlimit="10" d="M135.3 234.3s-2.7 3-8.2.8" fill="none"/><path stroke="#364A1E" stroke-width="2.061" stroke-miterlimit="10" d="M133.1 211.5c.6 6.5 2.8 37.1 14 89.3 3.3 15.5 5.7 31 .2 33.4-3.9 1.8-9-3.8-11.9-19-7.4-39.2-9-83.7-9.7-101.3" fill="none"/><path fill="#E5EAD8" stroke="#364A1E" stroke-width="2.061" stroke-miterlimit="10" d="M146.4 207.4s5.9 33.5 26.8 86.3c5.9 14.8 9.2 30.1 4.4 33.2-3.6 2.3-9.5-2.6-14.4-17.1-12.8-37.8-19.7-78.8-23-98.6"/><path opacity=".6" fill="#B6C495" d="M140.9 215.3s9.6 55.4 18.3 82c8.7 26.6 14.8 32.6 18.8 28.9-1.7.5-7.2.8-18.6-37.2-10.1-33.7-16.2-75.1-16.2-75.1l-2.3 1.4z"/><path stroke="#364A1E" stroke-width="2.061" stroke-miterlimit="10" d="M146.4 207.4s5.9 33.5 26.8 86.3c5.9 14.8 9.2 30.1 4.4 33.2-3.6 2.3-9.5-2.6-14.4-17.1-12.8-37.8-19.7-78.8-23-98.6" fill="none"/><path stroke="#364A1E" stroke-width=".713" stroke-miterlimit="10" d="M178.8 311.3s-2.6 8-12.4 6.3" fill="none"/><path stroke="#364A1E" stroke-width=".736" stroke-miterlimit="10" d="M172.4 290.9s-2.9 8-13.3 6.3" fill="none"/><path stroke="#364A1E" stroke-width=".606" stroke-miterlimit="10" d="M164.7 270.7s-2.9 5.6-11.8 4.3" fill="none"/><path stroke="#364A1E" stroke-width=".494" stroke-miterlimit="10" d="M157.8 249.9s-2.6 4.4-9.8 2.9" fill="none"/><path stroke="#364A1E" stroke-width=".398" stroke-miterlimit="10" d="M151.6 229.8s-2.3 3.4-8 1.9" fill="none"/><path fill="#4C6031" stroke="#364A1E" stroke-width="2.14" stroke-miterlimit="10" d="M170.5 225c-.3.1-40.9 3.8-92.1 6.4h-.5c-14.1.7-14.2-4.2-15-19-.4-8.4-9.8-160.6-9.9-163.8-.5-13 4.4-14.9 13.1-16.4 5.1-.9 89-9 95.7-5.4 6.6 3.5 6.1 14.2 6.7 25.1 1.3 21.9 10.5 152.2 10.6 153.9.8 13.3 1.4 17.9-8.6 19.2z"/><path fill="#B6C495" stroke="#364A1E" stroke-width="2.061" stroke-miterlimit="10" d="M169.8 206.4l-97.4 5.4c-2.9.2-5.3-2-5.5-4.9l-9.4-156.7c-.2-2.9 2-5.3 4.9-5.5l95.9-6.7c2.9-.2 5.4 2 5.6 4.9l10.9 158c.1 2.8-2.1 5.3-5 5.5z"/><path fill="#6C774E" stroke="#364A1E" stroke-width="1.861" stroke-miterlimit="10" d="M128.5 221.7l-13 .9c-2 .1-3.7-.6-3.9-3.4-.1-2 .5-3.7 3.4-3.9l13-.9c2.6-.2 3.8 1.4 3.9 3.4.2 2-.2 3.7-3.4 3.9z"/><path fill="#364A1E" d="M96.2 35.6c-.1-1.3 29.1-3.2 29.1-2.1.2 1.2-29 3.6-29.1 2.1z"/><path d="M52.7 107.5c.3-.1.4-.5.1-.7-4.3-2.9-26.6-17.6-33.7-10.2-6.7 6.8 7.5 18.5 33.6 10.9zm.1.1c.1-.2 0-.4-.2-.4-3.5-.2-24.6-1-26.4 6.9-1.5 7.2 12.6 9.2 26.6-6.5zm122.8-7.3c-.3-.1-.5-.5-.2-.7 3.8-3.5 23.8-21.2 32-14.8 7.5 5.8-4.9 19.4-31.8 15.5zm-.1.1c-.2-.1-.1-.4.1-.4 3.5-.7 24.2-4.4 27.1 3.2 2.5 6.8-11.1 10.7-27.2-2.8z" fill="#E5EAD8" stroke="#364A1E" stroke-width="1.64" stroke-miterlimit="10"/><radialGradient id="a" cx="200.545" cy="135.206" r="34.174" gradientTransform="matrix(.997 -.081 .081 .997 -94.487 -2.572)" gradientUnits="userSpaceOnUse"><stop offset=".455" stop-color="#89A559"/><stop offset=".715" stop-color="#87A358"/><stop offset=".808" stop-color="#819C54"/><stop offset=".875" stop-color="#76904C"/><stop offset=".929" stop-color="#688043"/><stop offset=".974" stop-color="#576D38"/><stop offset="1" stop-color="#4C6031"/></radialGradient><circle fill="url(#a)" stroke="#364A1E" stroke-width="1.783" stroke-miterlimit="10" cx="116.3" cy="116" r="34.2"/><path fill="#364A1E" d="M93.9 110.9s.1-.2.2-.7c.1-.2.2-.5.3-.8.1-.3.3-.6.5-1s.4-.8.7-1.2c.3-.4.5-.8.9-1.2.4-.4.7-.8 1.2-1.1.4-.4.9-.7 1.4-1l1.5-.9c.5-.3 1-.5 1.6-.6.5-.1 1.1-.2 1.6-.1.5 0 1 .1 1.4.1.4.1.8.2 1.1.3.3.1.6.3.8.4.4.2.7.5.7.5l-.1.3s-.3.1-.7.3c-.5.2-1.1.3-1.8.6l-1.1.3-1.2.3-1.3.2c-.5.1-.9.2-1.4.4-.5.1-.9.4-1.3.6l-1.2.7c-.4.2-.7.6-1 .8l-.8.8-.7.8c-.2.3-.3.5-.5.7-.3.4-.4.6-.4.6l-.4-.1zm43.5-3.4l-.5-.5-.6-.6c-.2-.3-.5-.4-.8-.7-.3-.2-.6-.5-1-.7l-1.1-.7c-.4-.2-.8-.4-1.3-.5-.4-.2-.9-.3-1.4-.4-.5-.1-.9-.1-1.4-.1h-1.3l-1.3-.1-1.2-.1c-.7-.1-1.4-.2-1.9-.3-.5-.1-.8-.1-.8-.1l-.1-.3s.2-.3.6-.6c.2-.2.5-.3.8-.5.3-.2.7-.4 1.1-.5.4-.2.9-.3 1.3-.4.5-.1 1-.1 1.6-.1.5.1 1.1.1 1.6.3l1.6.6c.5.2 1 .5 1.5.8.5.2.9.6 1.3.9.4.3.8.7 1.1 1l.9 1c.2.3.5.6.6.9.2.3.3.5.4.7l.3.6v.4zm-29.7 24.1s11.1 6 21-1.7c0 0-2.1 7.1-9.9 8.3-3.1.4-8.7-2-11.1-6.6zm-11.5-15.9s7.6 3.3 15.5-1.3c-.3 2.8-8.5 11.1-15.5 1.3zm40.4-3.2s-7 4.5-15.5 1.3c.7 2.6 10.1 9.4 15.5-1.3z"/><linearGradient id="b" gradientUnits="userSpaceOnUse" x1="200.545" y1="118.232" x2="200.545" y2="103.212" gradientTransform="matrix(.997 -.081 .081 .997 -94.487 -2.572)"><stop offset="0" stop-color="#B6C495" stop-opacity="0"/><stop offset=".245" stop-color="#AEBF8B" stop-opacity=".245"/><stop offset=".677" stop-color="#9AB070" stop-opacity=".677"/><stop offset="1" stop-color="#89A559"/></linearGradient><path opacity=".49" fill="url(#b)" d="M130.6 91.3c.4 4.7-6.7 7.1-15.7 7.8s-16.3-.5-16.7-5.2c-.4-4.7 6.6-9.1 15.5-9.8s16.5 2.5 16.9 7.2z"/><path opacity=".22" fill="#E5EAD8" d="M63.5 152.5l50.9-111.5 35.7-2.5-83.7 162.3zm22.9 58.5s77.4-160.7 77.6-165.7c.2-5.3-2.8-8-5.2-7.5l-88.5 173.6s-1 1.1 16.1-.4z"/><path stroke="#364A1E" stroke-width="2.061" stroke-miterlimit="10" d="M169.8 206.4l-97.4 5.4c-2.9.2-5.3-2-5.5-4.9l-9.4-156.7c-.2-2.9 2-5.3 4.9-5.5l95.9-6.7c2.9-.2 5.4 2 5.6 4.9l10.9 158c.1 2.8-2.1 5.3-5 5.5z" fill="none"/><ellipse opacity=".26" fill="#364A1E" cx="128.9" cy="381.4" rx="67" ry="11.7"/></svg>