<svg width="132" height="328" viewBox="0 0 132 328" xmlns="http://www.w3.org/2000/svg"><title>Imported Layers</title><g fill="none"><path d="M72.43 307.507c-32.153 0-58.22 4.55-58.22 10.16 0 5.612 26.067 10.16 58.22 10.16 32.156 0 58.222-4.548 58.222-10.16 0-5.61-26.066-10.16-58.22-10.16" fill="#64864C"/><path d="M42.096 151.052c-.284 5.388-1.01 30.563-8.45 73.724-2.22 12.867-3.655 25.584.93 27.413 3.286 1.31 7.28-3.463 9.116-15.963 4.757-32.384 4.54-68.95 4.485-83.445l-6.08-1.73" fill="#DBE3CB"/><path d="M41.25 151.007c-.142 2.71-.393 10.318-1.538 22.663-1.145 12.343-3.184 29.404-6.902 50.962-1.15 6.687-2.1 13.34-2.1 18.533 0 2.417.2 4.518.72 6.206.26.845.6 1.59 1.064 2.21.46.618 1.055 1.112 1.768 1.395.442.177.91.27 1.38.27 1 0 1.978-.417 2.854-1.154 1.32-1.11 2.49-2.93 3.517-5.527 1.023-2.597 1.892-5.976 2.515-10.213 4.1-27.924 4.512-58.89 4.513-76.245 0-2.83-.01-5.296-.017-7.327l-1.692.007c.008 2.03.02 4.496.02 7.32 0 17.324-.416 48.232-4.495 76-.81 5.52-2.05 9.483-3.407 11.996-.676 1.258-1.38 2.146-2.038 2.694-.66.55-1.244.757-1.767.76-.252-.002-.498-.05-.754-.15-.393-.16-.728-.42-1.04-.838-.468-.62-.848-1.594-1.09-2.858-.245-1.263-.36-2.804-.36-4.543 0-4.994.93-11.596 2.078-18.246 3.725-21.603 5.77-38.71 6.92-51.093 1.148-12.378 1.402-20.053 1.543-22.73l-1.69-.09" fill="#2B3F22"/><path d="M45.85 174.557c-.072 12.418-.537 29.175-2.194 44.357-2.886 26.43-6.42 31.643-8.4 32.6.128.026.257.038.387.04.523-.003 1.107-.21 1.767-.76.657-.548 1.362-1.436 2.038-2.693 1.357-2.512 2.597-6.476 3.407-11.996 3.103-21.127 4.086-44.074 4.378-61.47l-1.384-.077" fill="#BAC9A2"/><path d="M47.233 174.634c-.292 17.396-1.275 40.343-4.378 61.47-.81 5.52-2.05 9.484-3.407 11.997-.676 1.258-1.38 2.146-2.038 2.694-.66.55-1.244.757-1.767.76-.13-.002-.26-.014-.388-.04-.336.16-.627.2-.863.2l-.214-.01c.52.324 1.04.497 1.563.497 3.314 0 6.663-6.95 9.337-26.634 1.845-13.578 2.437-35.45 2.615-50.91l-.46-.022" fill="#6B7F55"/><path d="M31.4 240.9c.027.032 2.364 2.683 6.83 2.685 1.265 0 2.698-.214 4.29-.76l-.19-.552c-1.535.524-2.9.726-4.1.726-2.112 0-3.71-.628-4.786-1.253-.537-.313-.942-.625-1.21-.857l-.3-.278-.074-.075-.02-.022-.44.386m2.576-17.42c.028.028 2.506 2.663 6.873 2.667 1.32 0 2.806-.243 4.438-.868l-.216-.566c-1.567.6-2.978.828-4.223.828-2.057 0-3.668-.623-4.767-1.246-.55-.31-.97-.623-1.25-.854l-.316-.278-.078-.075-.023-.024-.44.414m2.49-18.488c.022.033 1.99 2.55 6.24 2.55 1.214.002 2.61-.204 4.193-.727l-.156-.472c-1.537.508-2.88.704-4.036.704-2.023 0-3.485-.597-4.445-1.19-.48-.296-.835-.592-1.067-.812l-.257-.263-.062-.072-.017-.02-.393.304m2.548-17.796c.02.024 1.573 1.79 4.7 1.79 1.1 0 2.394-.22 3.876-.807l-.15-.377c-1.44.57-2.68.78-3.726.78-1.484 0-2.584-.42-3.315-.835-.366-.208-.638-.416-.818-.57l-.2-.184-.063-.064-.305.267m2.076-17.173c.016.017 1.216 1.237 3.493 1.237.964 0 2.118-.22 3.448-.836l-.137-.296c-1.29.598-2.395.806-3.31.806-1.078 0-1.895-.29-2.443-.576-.274-.143-.48-.286-.617-.392l-.153-.127-.046-.045-.233.228M41.36 151.02c-.142 2.71-.393 10.316-1.54 22.662-1.144 12.342-3.184 29.404-6.9 50.962-1.152 6.687-2.1 13.34-2.102 18.533.002 2.416.202 4.518.72 6.206.26.843.602 1.587 1.065 2.208.46.62 1.056 1.114 1.768 1.397.444.176.91.27 1.382.27 1 0 1.977-.417 2.854-1.154 1.32-1.11 2.488-2.933 3.516-5.528 1.024-2.597 1.892-5.976 2.516-10.214 4.1-27.92 4.512-58.88 4.512-76.238 0-2.832-.01-5.3-.018-7.332l-1.692.006c.007 2.033.018 4.5.018 7.326 0 17.324-.415 48.23-4.495 75.994-.81 5.52-2.05 9.484-3.406 11.996-.676 1.257-1.38 2.146-2.037 2.693-.662.55-1.245.758-1.768.76-.25 0-.498-.048-.754-.15-.392-.158-.727-.42-1.04-.837-.467-.62-.847-1.595-1.09-2.86-.244-1.26-.358-2.803-.358-4.54 0-4.995.93-11.598 2.077-18.247 3.725-21.602 5.77-38.708 6.92-51.09 1.148-12.38 1.402-20.054 1.543-22.732l-1.69-.088" fill="#2B3F22"/><path d="M75.72 151.388c.868 5.325 4.337 30.27 16.44 72.362 3.61 12.55 6.42 25.034 2.064 27.35-3.124 1.664-7.614-2.647-10.802-14.87-8.26-31.674-12.034-68.046-13.56-82.46l5.858-2.382" fill="#DBE3CB"/><path d="M74.884 151.524c.432 2.647 1.522 10.248 4.014 22.427 2.493 12.184 6.39 28.966 12.45 50.034 1.147 3.99 2.212 7.97 2.988 11.6.776 3.63 1.26 6.916 1.258 9.48 0 1.452-.158 2.67-.47 3.56-.315.898-.744 1.435-1.297 1.73-.312.165-.618.24-.948.243-.52 0-1.135-.202-1.843-.726-1.06-.78-2.27-2.28-3.445-4.574-1.178-2.292-2.33-5.367-3.35-9.28-8.24-31.587-12.014-67.928-13.538-82.335l-1.682.18c1.527 14.42 5.3 50.823 13.58 82.582 1.396 5.34 3.036 9.22 4.76 11.822.863 1.3 1.75 2.285 2.667 2.966.912.68 1.88 1.058 2.85 1.06.607 0 1.203-.154 1.742-.44 1.025-.545 1.703-1.516 2.1-2.67.403-1.163.562-2.545.564-4.117-.002-2.77-.508-6.137-1.296-9.83-.788-3.693-1.863-7.704-3.017-11.717-6.046-21.024-9.933-37.76-12.417-49.904-2.486-12.148-3.565-19.682-4-22.36l-1.67.272h-.002" fill="#2B3F22"/><path d="M73.287 176.2c2.193 17.16 5.647 39.472 10.954 59.815 1.022 3.914 2.174 6.99 3.352 9.28 1.175 2.294 2.385 3.795 3.445 4.576.708.525 1.323.727 1.842.727.204 0 .4-.03.594-.093-2.074-.735-6.155-5.534-11.904-31.49-3.21-14.492-5.464-30.588-6.896-42.806l-1.387-.007" fill="#BAC9A2"/><path d="M73.002 175.285l-.005.915h-.177c1.868 15.297 4.8 36.498 8.062 49.582 4.68 18.776 8.68 25.473 11.928 25.473.612 0 1.198-.238 1.756-.677-.12.023-.262.045-.426.045-.19 0-.414-.03-.666-.12-.194.063-.39.093-.595.094-.52 0-1.135-.202-1.843-.726-1.06-.78-2.27-2.28-3.445-4.574-1.178-2.292-2.33-5.367-3.35-9.28-5.308-20.344-8.762-42.657-10.955-59.815h-.29l.005-.915" fill="#6B7F55"/><path d="M95.67 239.2l-.022.03c-.252.33-2.542 3.202-7.274 3.2-.89 0-1.87-.1-2.94-.34l-.127.57c1.11.25 2.132.356 3.067.356 5.323-.002 7.753-3.446 7.776-3.48l-.48-.337m-4.464-17.064l-.024.03c-.27.335-2.7 3.198-7.246 3.195-.95 0-1.998-.125-3.142-.425l-.153.585c1.192.313 2.292.445 3.296.445 5.142-.005 7.73-3.435 7.753-3.466l-.484-.364m-4.43-18.003l-.018.027c-.21.31-2.127 3.014-6.73 3.016-.868 0-1.83-.096-2.897-.323l-.102.487c1.097.233 2.095.333 3 .333 5.14 0 7.154-3.246 7.172-3.282l-.424-.258m-4.383-17.384l-.015.02c-.17.22-1.705 2.15-5.084 2.15-.84 0-1.798-.12-2.88-.416l-.107.39c1.112.307 2.107.433 2.986.433 3.784 0 5.414-2.318 5.43-2.345l-.332-.23v-.002m-3.858-16.813l-.05.06c-.26.282-1.46 1.464-3.758 1.464-.768 0-1.662-.133-2.687-.478l-.105.31c1.055.355 1.985.494 2.79.494 2.763 0 4.05-1.63 4.066-1.65l-.256-.2M74.777 151.548c.432 2.646 1.52 10.247 4.014 22.427 2.493 12.183 6.39 28.964 12.45 50.032 1.148 3.992 2.213 7.972 2.988 11.602.777 3.628 1.26 6.913 1.258 9.476.002 1.454-.157 2.67-.47 3.562-.315.898-.744 1.434-1.297 1.73-.313.165-.618.24-.948.242-.52 0-1.135-.2-1.843-.726-1.06-.78-2.27-2.28-3.445-4.574-1.178-2.292-2.33-5.367-3.352-9.282-8.24-31.586-12.012-67.926-13.535-82.333l-1.683.178c1.526 14.42 5.3 50.824 13.58 82.582 1.396 5.342 3.035 9.22 4.76 11.822.863 1.3 1.75 2.286 2.666 2.967.915.68 1.882 1.058 2.852 1.058.608 0 1.204-.153 1.742-.44 1.025-.544 1.704-1.514 2.1-2.67.403-1.16.563-2.544.564-4.116 0-2.768-.507-6.136-1.295-9.83-.79-3.692-1.863-7.704-3.017-11.717-6.046-21.024-9.933-37.762-12.418-49.905-2.485-12.147-3.564-19.68-4-22.36l-1.67.273" fill="#2B3F22"/><path d="M63.707 155.518c.034 5.396-.407 30.577 5.028 74.036 1.62 12.957 2.464 25.727-2.2 27.34-3.344 1.16-7.112-3.795-8.367-16.366-3.252-32.57-1.343-69.088-.616-83.564l6.155-1.446" fill="#DBE3CB"/><path d="M62.86 155.523l.003 1.12v.857c0 8.2.09 32.645 5.032 72.16.717 5.732 1.28 11.42 1.278 16.07.003 2.914-.224 5.423-.737 7.235-.255.905-.58 1.63-.95 2.146-.374.52-.77.825-1.228.986-.23.08-.45.116-.672.116-.527-.002-1.098-.21-1.74-.77-.957-.834-1.985-2.466-2.844-4.955-.862-2.487-1.57-5.82-1.992-10.044-1.385-13.872-1.833-28.48-1.833-41.79 0-17.848.804-33.355 1.22-41.647l-1.69-.084c-.416 8.293-1.222 23.835-1.222 41.73 0 13.35.448 28.007 1.84 41.96.58 5.763 1.67 9.976 3.064 12.826.7 1.424 1.474 2.513 2.34 3.275.86.76 1.845 1.193 2.856 1.19.415 0 .828-.07 1.225-.208.84-.29 1.53-.864 2.052-1.6.787-1.107 1.263-2.574 1.572-4.323.306-1.75.432-3.79.432-6.04 0-4.784-.57-10.52-1.292-16.283-4.93-39.437-5.02-63.783-5.02-71.95v-1.986l-1.693.01" fill="#2B3F22"/><path d="M57.59 175.476c-.234 6.864-.413 14.76-.413 23.177 0 13.31.448 27.918 1.833 41.79.42 4.224 1.13 7.557 1.992 10.044.86 2.49 1.887 4.12 2.844 4.955.642.56 1.213.768 1.74.77l.3-.023c-1.934-1.048-5.222-6.42-6.88-32.955-1.04-16.616-.575-35.038.004-47.657l-1.42-.102" fill="#BAC9A2"/><path d="M57.147 175.444c-.59 15.483-1.176 39.687.13 54.37 1.78 20.005 4.85 27.042 8.204 27.042.487 0 .98-.148 1.474-.425l-.11.003c-.252 0-.58-.04-.957-.244l-.3.022c-.528-.002-1.1-.21-1.74-.77-.958-.834-1.986-2.466-2.845-4.955-.862-2.487-1.57-5.82-1.992-10.044-1.385-13.872-1.833-28.48-1.833-41.79 0-8.416.18-16.313.412-23.177l-.443-.032" fill="#6B7F55"/><path d="M69.808 245.36l-.02.02c-.227.223-2.333 2.18-5.993 2.178-1.314 0-2.832-.25-4.546-.928l-.216.545c1.778.702 3.372.968 4.76.968 4.14-.002 6.408-2.348 6.436-2.376l-.422-.407m-1.765-17.55l-.02.02c-.244.225-2.47 2.17-6.054 2.167-1.358 0-2.914-.276-4.646-1.033l-.242.554c1.804.79 3.448 1.084 4.888 1.084 4.065-.003 6.467-2.33 6.495-2.357l-.42-.434m-1.587-18.473l-.017.02c-.194.21-1.984 2.075-5.47 2.075-1.26 0-2.745-.243-4.464-.9l-.178.464c1.77.677 3.317.934 4.64.933 3.922 0 5.843-2.24 5.867-2.27l-.38-.32v-.002m-1.634-17.852l-.058.056c-.295.27-1.665 1.4-4.05 1.4-1.12 0-2.47-.25-4.044-.96l-.167.37c1.623.732 3.03.996 4.21.995 2.88 0 4.383-1.56 4.403-1.58l-.292-.28m-1.209-17.21l-.044.038c-.224.184-1.262.955-2.99.955-.968 0-2.154-.24-3.545-.965l-.15.29c1.43.746 2.672 1.002 3.694 1.002 2.09 0 3.24-1.065 3.256-1.08l-.223-.24M62.75 155.53l.003 1.12v.856c0 8.202.09 32.646 5.033 72.16.717 5.733 1.278 11.42 1.278 16.072.002 2.913-.225 5.422-.738 7.233-.254.906-.58 1.632-.95 2.148-.373.518-.77.824-1.228.985-.23.08-.45.115-.67.116-.53-.003-1.1-.212-1.74-.772-.96-.833-1.986-2.465-2.845-4.953-.863-2.488-1.572-5.82-1.993-10.045-1.385-13.872-1.832-28.48-1.832-41.79 0-17.848.803-33.355 1.22-41.646l-1.69-.085c-.417 8.29-1.222 23.834-1.222 41.73 0 13.347.447 28.006 1.84 41.96.578 5.762 1.67 9.975 3.063 12.825.7 1.424 1.475 2.513 2.34 3.275.86.76 1.845 1.193 2.857 1.19.414 0 .828-.07 1.225-.21.838-.287 1.527-.862 2.05-1.598.788-1.108 1.264-2.575 1.573-4.324.305-1.75.43-3.79.43-6.04 0-4.783-.57-10.518-1.29-16.282-4.932-39.437-5.02-63.782-5.02-71.95v-.855l-.002-1.13-1.692.01" fill="#2B3F22"/><path d="M108.608 85.42c-.24-.007-.368-.293-.21-.474 2.345-2.677 14.666-16.23 20.697-12.52 5.593 3.443-1.838 13.627-20.487 12.995" fill="#DBE3CB"/><path d="M108.608 85.42l.028-.824-.018.538.397-.362c-.086-.1-.237-.173-.38-.176l-.017.538.397-.362-.393.358h.53c0-.14-.048-.26-.137-.358l-.393.358h.53-.546l.408.365c.09-.1.142-.246.14-.365h-.548l.408.365.006-.006c1.016-1.163 3.966-4.43 7.43-7.38 1.73-1.475 3.588-2.87 5.376-3.88 1.786-1.015 3.5-1.624 4.875-1.618.747.002 1.387.164 1.962.517.513.315.862.675 1.09 1.06.225.384.336.8.337 1.267.002.804-.353 1.786-1.154 2.814-1.196 1.543-3.372 3.148-6.5 4.347-3.128 1.202-7.202 2.007-12.182 2.006-.53 0-1.07-.01-1.62-.027l-.053 1.65c.568.018 1.126.028 1.674.028 6.877-.002 12.178-1.478 15.807-3.54 1.815-1.032 3.214-2.21 4.178-3.45.96-1.236 1.5-2.544 1.5-3.827.003-.74-.187-1.466-.566-2.107-.378-.64-.938-1.192-1.645-1.626-.86-.532-1.834-.763-2.826-.762-1.84.007-3.76.748-5.686 1.832-2.884 1.633-5.784 4.084-8.18 6.353-2.392 2.27-4.27 4.357-5.056 5.255l.006-.006c-.19.21-.283.486-.28.734 0 .286.105.547.292.754.184.206.475.353.784.36l.028-.823" fill="#2B3F22"/><path d="M108.555 85.51c-.117-.077-.095-.258.038-.3 2.32-.723 16.21-4.815 18.696.116 2.278 4.518-6.74 8.195-18.735.184" fill="#DBE3CB"/><path d="M108.555 85.51l.46-.685-.365.543h.654c.004-.194-.103-.42-.29-.543l-.364.543h.654-.657l.54.37c.082-.118.116-.245.117-.37h-.657l.54.37-.548-.376.19.64c.14-.042.28-.144.358-.263l-.55-.378.192.64.01-.004c1.433-.453 7.563-2.25 12.3-2.243 1.352 0 2.583.148 3.52.478.946.334 1.56.807 1.893 1.464.19.376.265.71.265 1.01-.002.334-.09.634-.283.935-.286.45-.833.894-1.66 1.222-.824.328-1.915.534-3.22.533-3.182.003-7.626-1.22-12.642-4.573l-.917 1.372c5.238 3.496 9.963 4.85 13.56 4.85 1.967 0 3.604-.4 4.814-1.137.604-.37 1.1-.83 1.452-1.375.352-.543.547-1.175.546-1.828 0-.586-.153-1.18-.442-1.753-.574-1.14-1.624-1.865-2.82-2.28-1.206-.418-2.597-.568-4.067-.57-5.112.008-11.278 1.852-12.792 2.32l.245.787-.236-.79c-.217.063-.412.21-.53.385-.12.175-.173.37-.173.563-.005.302.15.636.442.828l.46-.686" fill="#2B3F22"/><path d="M23.47 81.968c.24 0 .38-.28.228-.467-2.236-2.767-14.007-16.8-20.18-13.333-5.726 3.216 1.292 13.69 19.952 13.8" fill="#DBE3CB"/><path d="M23.47 81.968v.825c.316.002.617-.14.81-.348.193-.207.304-.474.305-.768.002-.236-.08-.493-.246-.695-1.013-1.25-3.92-4.745-7.414-7.955-1.75-1.604-3.644-3.14-5.545-4.292-1.903-1.146-3.815-1.934-5.668-1.94-.903-.002-1.794.198-2.6.653-.75.422-1.35.976-1.756 1.635-.406.657-.606 1.413-.606 2.187.003 1.324.56 2.688 1.564 3.99 1.512 1.955 4.053 3.805 7.587 5.195 3.535 1.387 8.065 2.305 13.565 2.338h.005v-.825l.005-.825c-7.095-.042-12.432-1.61-15.95-3.647-1.76-1.016-3.06-2.15-3.904-3.243-.847-1.096-1.223-2.14-1.22-2.983.002-.497.12-.93.362-1.323.242-.392.613-.753 1.16-1.06.538-.302 1.122-.44 1.79-.443 1.36-.007 3.054.632 4.814 1.703 2.645 1.598 5.426 4.113 7.71 6.454 2.286 2.342 4.084 4.508 4.82 5.42l.425-.343h-.545c-.002.115.043.25.12.343l.426-.343h-.545.53l-.385-.365c-.092.1-.143.22-.145.365h.53l-.385-.365.39.368v-.537c-.145-.003-.3.07-.39.17l.39.367v-.537h.005l-.005.825" fill="#2B3F22"/><path d="M23.52 82.06c.12-.073.105-.255-.027-.3-2.29-.817-16.005-5.46-18.686-.632-2.457 4.423 6.408 8.457 18.713.932" fill="#DBE3CB"/><path d="M23.52 82.06l.432.702c.314-.19.478-.537.474-.85 0-.186-.052-.375-.164-.546-.11-.17-.292-.317-.498-.387h.006c-.78-.277-2.838-.983-5.35-1.622-2.512-.64-5.47-1.217-8.105-1.22-1.314.003-2.552.143-3.637.53-1.08.38-2.03 1.042-2.592 2.06-.336.602-.515 1.238-.515 1.867 0 .672.208 1.323.58 1.88.558.84 1.45 1.484 2.575 1.924 1.126.44 2.496.68 4.07.68 3.52 0 8.07-1.208 13.155-4.317h.002l-.432-.703-.43-.704c-4.873 2.98-9.154 4.077-12.295 4.075-1.873.003-3.335-.392-4.264-.953-.465-.28-.796-.596-1.004-.91-.21-.32-.303-.632-.305-.972.002-.317.088-.67.308-1.066.33-.59.88-1.01 1.705-1.31.82-.294 1.89-.432 3.082-.43 2.395-.003 5.262.544 7.7 1.166 2.437.622 4.453 1.313 5.2 1.58l.007.002.22-.63-.557.367c.074.116.2.217.337.263l.22-.63-.557.367.548-.362h-.657c0 .122.033.246.11.362l.547-.362h-.657.653l-.343-.556c-.204.124-.316.356-.31.556h.652l-.343-.556h.002l.43.703" fill="#2B3F22"/><path d="M73.002 175.285c17.137.104 18.264-.152 22.776-27.37 4.443-26.793 12-100.545 7.826-131.606-1.544-11.502-21.367-13.636-31.36-14.249l-2.1-.128c-10.234-.626-30.478-.25-32.905 10.94-6.8 31.368-9.405 103.814-8.27 130.95 1.155 27.564 3.09 29.2 19.264 29.944 0 0 14.66 1.456 24.768 1.52" fill="#405533"/><path d="M73.002 175.285l-.005.915c.87.004 1.7.01 2.49.01 3.71-.004 6.61-.09 9.017-.672 1.804-.434 3.342-1.174 4.613-2.366 1.913-1.796 3.172-4.478 4.284-8.47 1.11-4 2.075-9.362 3.28-16.636 3.545-21.387 9.052-72.428 9.055-108.136 0-9.172-.363-17.33-1.224-23.744-.416-3.136-2.11-5.652-4.473-7.578-3.55-2.895-8.594-4.605-13.696-5.697-5.103-1.085-10.273-1.531-14.043-1.761l-2.1-.13c-1.763-.108-3.816-.186-6.026-.186-5.38.002-11.678.457-16.982 2.123-2.65.835-5.062 1.974-6.977 3.557-1.913 1.576-3.324 3.627-3.87 6.165-2.908 13.417-5.037 34.165-6.45 55.716-1.408 21.545-2.095 43.875-2.095 60.385 0 5.854.087 10.975.258 15.08.29 6.9.627 12.192 1.232 16.298.455 3.08 1.06 5.495 1.94 7.43.66 1.448 1.487 2.627 2.513 3.557 1.54 1.4 3.486 2.203 5.847 2.692 2.367.49 5.18.685 8.605.843l.042-.914-.09.91c.014 0 14.672 1.46 24.853 1.524l.005-.915.006-.916c-5.015-.03-11.195-.41-16.112-.78-2.46-.186-4.603-.37-6.132-.507l-2.44-.228-.025-.002h-.024c-4.03-.184-7.135-.432-9.468-1.085-1.754-.49-3.057-1.183-4.105-2.233-.786-.79-1.44-1.8-2-3.143-1.683-4.02-2.34-11.002-2.818-22.61-.17-4.066-.256-9.167-.256-15 0-16.464.686-38.766 2.093-60.27 1.407-21.498 3.54-42.216 6.41-55.445.46-2.104 1.588-3.765 3.25-5.144 2.487-2.065 6.203-3.412 10.295-4.205 4.09-.797 8.543-1.056 12.497-1.055 2.167 0 4.184.077 5.913.183l2.1.13c4.965.3 12.363.99 18.625 2.997 3.13 1 5.966 2.33 8.065 4.052 2.1 1.728 3.464 3.792 3.82 6.405.843 6.28 1.207 14.38 1.207 23.5.003 35.528-5.504 86.586-9.03 107.837-1.07 6.453-1.948 11.38-2.884 15.104-.7 2.795-1.435 4.91-2.278 6.48-.632 1.178-1.318 2.048-2.102 2.714-1.175.995-2.607 1.57-4.578 1.908-1.965.335-4.442.408-7.544.406-.786 0-1.612-.004-2.48-.01l-.006.917" fill="#2B3F22"/><path d="M95.038 6.872s9.396 23.076 3.307 70.737c-3.505 27.43-21.042 30.058-25.307 30.29-3.147.427-12.58-.4-15.412-.87 0 0-22.2-1.75-22.346-33.287-.222-48.047 11.922-69.802 11.922-69.802 13.295-5.103 44.366-.745 47.836 2.932" fill="#A5B98C"/><path d="M95.038 6.872l-.816.332.01.03c.278.702 5.284 13.758 5.284 39.778 0 8.703-.56 18.857-2.045 30.486-1.738 13.54-6.875 20.787-12.03 24.757-5.16 3.967-10.428 4.656-12.45 4.765h-.035l-.035.006c-.54.074-1.367.11-2.336.11-4.027.003-10.62-.61-12.814-.975l-.035-.004-.04-.004h-.005c-.237-.02-5.613-.56-10.89-4.833-2.64-2.138-5.27-5.205-7.26-9.648-1.99-4.444-3.343-10.273-3.378-17.933l-.004-1.297c0-23.497 2.97-40.544 5.933-51.704 1.48-5.58 2.96-9.688 4.064-12.393.553-1.353 1.01-2.354 1.33-3.014.158-.33.282-.575.366-.735l.094-.177.027-.05-.768-.43.316.823c4.16-1.603 10.34-2.272 16.84-2.268 6.693 0 13.74.692 19.376 1.687 2.817.498 5.282 1.072 7.16 1.664.937.296 1.727.597 2.33.885.6.284 1.014.57 1.173.747l.64-.605-.815.332.816-.332.64-.605c-.423-.443-.986-.784-1.695-1.127-1.24-.59-2.94-1.14-5.01-1.66-6.2-1.544-15.673-2.745-24.616-2.746-6.625.004-12.94.65-17.474 2.384l-.298.113-.156.28c-.068.12-12.038 21.643-12.036 68.933l.003 1.305c.036 7.986 1.47 14.14 3.632 18.867 3.24 7.096 8.114 10.948 12.165 12.985 4.054 2.042 7.284 2.302 7.36 2.31l.07-.88-.145.87c2.368.39 8.905.997 13.102 1 1.015-.002 1.888-.035 2.57-.126l-.116-.874.047.88c2.243-.123 7.877-.865 13.43-5.127 5.554-4.26 10.938-12.04 12.704-25.932 1.494-11.7 2.06-21.93 2.06-30.708 0-27.094-5.385-40.375-5.425-40.472l-.063-.153-.113-.12-.642.605" fill="#2B3F22"/><path d="M86.946 79.754l-40.73-2.496c-3.445-.21-6.067-3.176-5.856-6.62l1.84-30.028c.212-3.444 3.176-6.066 6.62-5.855l40.73 2.497c3.447.21 6.068 3.175 5.857 6.62l-1.84 30.028c-.212 3.444-3.176 6.066-6.62 5.854" fill="#DBE3CB"/><path d="M86.946 79.754l.056-.913-40.73-2.496c-2.83-.172-5.01-2.524-5.01-5.32l.01-.328v-.003l1.842-30.026c.172-2.83 2.524-5.01 5.32-5.01l.326.01.005.002 40.73 2.495c2.83.172 5.01 2.525 5.01 5.32l-.01.334-1.842 30.022c-.172 2.83-2.524 5.01-5.32 5.01l-.336-.01h.005l-.056.912-.052.914.44.013c3.76 0 6.91-2.925 7.146-6.725l1.84-30.026.014-.446c0-3.76-2.926-6.91-6.727-7.145l-40.73-2.498h.006l-.45-.014c-3.76 0-6.912 2.926-7.146 6.727l-1.84 30.026v-.002l-.014.447c0 3.76 2.926 6.912 6.727 7.146l40.73 2.498h.004l.052-.914m-35.846-63.188s.54-.32 1.543-.768c.498-.232 1.116-.48 1.83-.76.72-.25 1.528-.57 2.44-.815l1.414-.41 1.536-.357c1.054-.26 2.188-.416 3.356-.61 1.178-.1 2.393-.308 3.64-.32 1.246-.033 2.513-.086 3.78 0l1.895.12 1.87.247c1.246.114 2.437.443 3.594.708 1.168.223 2.245.64 3.273.993.512.182 1.015.344 1.49.526l1.34.633c.85.41 1.643.76 2.303 1.15l1.675 1.065c.92.6 1.43.953 1.43.953l-1.6-.63-1.8-.753c-.7-.277-1.527-.497-2.393-.806l-1.36-.455-1.486-.376c-1.02-.255-2.082-.556-3.216-.726-1.125-.21-2.283-.422-3.48-.53l-1.796-.207-1.823-.083c-1.215-.106-2.435-.074-3.636-.063-1.202.004-2.383.107-3.53.154-1.135.147-2.25.185-3.292.353-1.045.142-2.036.276-2.945.444-1.823.31-3.335.646-4.392.9-1.06.247-1.66.426-1.66.426" fill="#2B3F22"/><path d="M65.28 99.728c-6.9.277-8.102-8.284-.205-7.95 6.433.274 8.762 7.606.205 7.95" fill="#7A9C5E"/><path d="M65.28 99.728l-.035-.877-.29.007c-1.517-.002-2.626-.483-3.364-1.14-.737-.66-1.098-1.505-1.097-2.28.006-.698.272-1.34.896-1.864.624-.52 1.662-.927 3.24-.928l.403.01h.005c1.563.066 2.82.596 3.666 1.295.852.7 1.262 1.554 1.257 2.25-.01.592-.24 1.13-.94 1.645-.703.508-1.927.934-3.775 1.006l.07 1.754c2.075-.085 3.63-.552 4.726-1.333 1.098-.77 1.685-1.918 1.675-3.07-.005-1.36-.734-2.644-1.894-3.603-1.163-.96-2.788-1.613-4.708-1.695h.005l-.487-.01c-1.873 0-3.343.486-4.36 1.33-1.022.84-1.537 2.034-1.53 3.216 0 1.316.602 2.62 1.68 3.586 1.08.967 2.64 1.59 4.534 1.587l.36-.006-.034-.876" fill="#2B3F22"/><path d="M84.437 97.144c-6.294 3.413-11.004-2.778-4.18-6.766 6.976-4.075 11.708 2.683 4.18 6.766" fill="#7A9C5E"/><path d="M84.437 97.144l-.418-.772c-1.168.633-2.238.884-3.138.884-.997 0-1.783-.306-2.305-.748-.52-.447-.792-1.008-.796-1.663 0-.51.173-1.098.626-1.74.452-.64 1.19-1.326 2.294-1.97 1.407-.822 2.67-1.142 3.69-1.14.992 0 1.75.296 2.245.72.495.426.75.963.755 1.61 0 .55-.2 1.2-.725 1.908-.525.704-1.38 1.453-2.647 2.14l.837 1.54c1.442-.782 2.503-1.676 3.216-2.63.713-.954 1.075-1.976 1.074-2.96.005-1.152-.51-2.22-1.372-2.945-.86-.73-2.04-1.14-3.382-1.138-1.385 0-2.946.43-4.575 1.38-1.273.745-2.21 1.58-2.84 2.47-.63.89-.95 1.84-.948 2.755-.004 1.18.537 2.264 1.417 3.002.88.744 2.083 1.164 3.438 1.163 1.228 0 2.583-.342 3.973-1.095l-.418-.77" fill="#2B3F22"/><path d="M47.152 94.858c5.83 4.157 11.26-1.413 4.974-6.204-6.425-4.897-11.947 1.232-4.974 6.204" fill="#7A9C5E"/><path d="M47.152 94.858l-.51.714c1.563 1.114 3.15 1.62 4.58 1.62 1.26 0 2.402-.4 3.24-1.126.838-.723 1.352-1.788 1.347-2.96 0-.85-.26-1.74-.782-2.61-.522-.872-1.304-1.727-2.37-2.54-1.787-1.36-3.57-1.976-5.144-1.977-1.246-.002-2.365.39-3.18 1.112-.817.715-1.302 1.766-1.297 2.912 0 .917.298 1.884.893 2.826.597.944 1.49 1.87 2.713 2.742l.51-.714.508-.714c-1.073-.766-1.8-1.54-2.247-2.25-.45-.713-.622-1.354-.622-1.89.006-.67.255-1.193.706-1.597.452-.4 1.134-.673 2.018-.674 1.11 0 2.536.442 4.08 1.618.924.705 1.546 1.406 1.93 2.047.383.642.53 1.218.53 1.71-.003.674-.266 1.214-.743 1.634-.477.418-1.192.698-2.09.7-1.01 0-2.247-.36-3.56-1.296l-.508.714" fill="#2B3F22"/><path d="M63.942 121.556c-6.9.277-8.102-8.284-.205-7.95 6.433.274 8.762 7.606.205 7.95" fill="#7A9C5E"/><path d="M63.942 121.556l-.035-.876-.29.006c-1.517-.002-2.627-.484-3.364-1.14-.738-.662-1.1-1.506-1.098-2.28.005-.698.272-1.34.896-1.865.627-.52 1.664-.925 3.242-.926l.402.01h.006c1.563.065 2.82.595 3.666 1.294.852.702 1.262 1.554 1.257 2.25-.01.593-.24 1.13-.942 1.646-.7.508-1.925.933-3.773 1.006l.07 1.753c2.075-.086 3.63-.553 4.726-1.333 1.097-.772 1.684-1.92 1.674-3.07-.005-1.36-.734-2.646-1.894-3.605-1.165-.96-2.79-1.613-4.71-1.695h.006l-.488-.01c-1.873 0-3.343.487-4.36 1.33-1.022.84-1.537 2.034-1.53 3.217 0 1.316.602 2.62 1.68 3.585 1.08.968 2.64 1.59 4.534 1.588l.36-.007-.034-.877" fill="#2B3F22"/><path d="M81.153 122.61c-6.9.278-8.102-8.283-.205-7.948 6.433.273 8.762 7.606.205 7.95" fill="#7A9C5E"/><path d="M81.153 122.61l-.035-.875-.29.006c-1.517-.002-2.627-.483-3.364-1.14-.738-.66-1.1-1.505-1.098-2.28.005-.697.272-1.34.896-1.864.625-.52 1.663-.927 3.24-.928l.405.01h.004c1.564.066 2.82.596 3.667 1.295.852.702 1.262 1.554 1.257 2.25-.01.592-.24 1.13-.942 1.646-.703.507-1.926.932-3.774 1.005l.07 1.753c2.075-.086 3.63-.553 4.726-1.333 1.097-.772 1.684-1.92 1.674-3.07-.005-1.36-.734-2.646-1.894-3.605-1.165-.96-2.79-1.613-4.71-1.695h.005l-.487-.01c-1.873 0-3.343.486-4.36 1.33-1.022.84-1.537 2.034-1.53 3.216 0 1.318.602 2.62 1.68 3.587 1.08.968 2.64 1.59 4.534 1.588l.36-.007-.034-.877" fill="#2B3F22"/><path d="M45.705 120.438c6.814 1.118 9.053-7.232 1.174-7.864-6.42-.515-9.626 6.478-1.175 7.864" fill="#7A9C5E"/><path d="M45.705 120.438l-.142.866c.472.077.928.114 1.366.114 1.73.002 3.19-.584 4.21-1.503 1.02-.917 1.61-2.165 1.612-3.45.005-1.15-.495-2.32-1.488-3.182-.992-.867-2.433-1.433-4.315-1.584-.25-.02-.497-.03-.74-.03-1.833 0-3.422.557-4.58 1.443-1.152.882-1.905 2.122-1.91 3.478-.006 1.086.52 2.173 1.51 2.985.99.82 2.414 1.412 4.333 1.73l.284-1.732c-1.71-.28-2.838-.798-3.495-1.347-.658-.557-.87-1.095-.877-1.635-.004-.67.395-1.45 1.22-2.085.822-.63 2.04-1.082 3.515-1.082.195 0 .395.008.6.025 1.61.13 2.666.6 3.3 1.155.63.56.883 1.196.888 1.862 0 .74-.345 1.53-1.03 2.145-.683.613-1.697 1.052-3.04 1.054-.34 0-.7-.03-1.08-.09l-.143.864" fill="#2B3F22"/><path d="M62.518 135.233c6.814 1.118 9.053-7.233 1.175-7.865-6.42-.515-9.626 6.48-1.175 7.865" fill="#7A9C5E"/><path d="M62.518 135.233l-.142.866c.472.076.928.112 1.366.112 1.732.002 3.192-.584 4.212-1.503 1.02-.917 1.61-2.166 1.61-3.45.006-1.15-.494-2.32-1.487-3.182-.992-.867-2.433-1.433-4.314-1.584-.25-.02-.497-.03-.74-.03-1.833 0-3.422.557-4.58 1.443-1.152.883-1.905 2.123-1.91 3.48-.006 1.083.52 2.17 1.51 2.982.99.82 2.414 1.412 4.333 1.728l.284-1.73c-1.708-.28-2.838-.798-3.495-1.347-.657-.557-.87-1.095-.877-1.634-.004-.67.395-1.452 1.222-2.086.82-.63 2.037-1.083 3.514-1.082.194 0 .394.008.598.024 1.61.13 2.667.6 3.3 1.156.632.56.884 1.196.89 1.86 0 .74-.346 1.53-1.03 2.146-.684.613-1.698 1.053-3.04 1.054-.34 0-.7-.028-1.082-.09l-.142.865" fill="#2B3F22"/><path d="M79.73 136.288c6.813 1.118 9.052-7.232 1.173-7.864-6.418-.516-9.625 6.478-1.174 7.864" fill="#7A9C5E"/><path d="M79.73 136.288l-.143.866c.472.077.928.114 1.366.114 1.732 0 3.19-.585 4.212-1.504 1.02-.916 1.61-2.165 1.61-3.45.006-1.15-.494-2.32-1.487-3.182-.992-.866-2.433-1.432-4.315-1.583-.25-.02-.495-.03-.74-.03-1.832 0-3.422.556-4.58 1.442-1.15.883-1.904 2.123-1.908 3.48-.007 1.083.52 2.17 1.51 2.982.99.82 2.413 1.413 4.332 1.73l.284-1.73c-1.707-.28-2.837-.8-3.494-1.35-.658-.556-.87-1.094-.877-1.633-.005-.67.394-1.45 1.22-2.085.82-.63 2.038-1.083 3.514-1.082.194 0 .394.008.6.025 1.61.128 2.666.6 3.3 1.155.63.56.882 1.196.888 1.86 0 .74-.345 1.53-1.03 2.146-.683.612-1.697 1.052-3.04 1.053-.34 0-.7-.028-1.08-.09l-.143.865" fill="#2B3F22"/><path d="M45.448 134.187c-6.9.277-8.102-8.284-.205-7.95 6.433.274 8.762 7.606.205 7.95" fill="#7A9C5E"/><path d="M45.448 134.187l-.035-.877-.29.006c-1.518-.002-2.627-.483-3.364-1.14-.74-.66-1.1-1.505-1.1-2.28.006-.698.272-1.34.897-1.865.625-.52 1.663-.925 3.24-.926l.403.01h.005c1.564.066 2.82.596 3.667 1.295.85.7 1.262 1.553 1.257 2.25-.01.59-.24 1.127-.943 1.644-.703.508-1.926.934-3.775 1.006l.07 1.753c2.076-.086 3.63-.552 4.727-1.333 1.095-.772 1.683-1.92 1.673-3.07-.005-1.36-.735-2.645-1.894-3.604-1.166-.96-2.79-1.613-4.71-1.695h.005l-.487-.01c-1.873 0-3.343.487-4.362 1.332-1.02.84-1.535 2.032-1.53 3.215 0 1.316.604 2.62 1.683 3.585 1.078.968 2.638 1.59 4.532 1.588l.36-.007-.034-.876" fill="#2B3F22"/><path d="M62.26 148.982c-6.898.277-8.1-8.285-.204-7.95 6.433.273 8.762 7.606.205 7.95" fill="#7A9C5E"/><path d="M62.26 148.982l-.034-.877-.29.006c-1.517 0-2.627-.482-3.364-1.14-.738-.66-1.1-1.504-1.098-2.278.005-.7.272-1.34.896-1.866.625-.52 1.663-.926 3.24-.927l.403.01h.006c1.562.065 2.82.595 3.665 1.294.852.7 1.262 1.554 1.257 2.25-.01.592-.24 1.128-.942 1.645-.703.507-1.926.933-3.774 1.005l.07 1.753c2.075-.086 3.63-.552 4.726-1.333 1.097-.772 1.684-1.92 1.674-3.07-.005-1.36-.734-2.646-1.894-3.604-1.165-.96-2.79-1.613-4.71-1.694h.006l-.487-.01c-1.873-.002-3.342.486-4.36 1.33-1.02.84-1.536 2.033-1.53 3.216 0 1.316.603 2.62 1.682 3.585 1.08.968 2.64 1.59 4.533 1.588l.36-.007-.034-.876" fill="#2B3F22"/><path d="M79.472 150.037c-6.9.277-8.102-8.285-.205-7.95 6.433.273 8.762 7.606.205 7.95" fill="#7A9C5E"/><path d="M79.472 150.037l-.035-.877-.29.006c-1.517-.002-2.627-.483-3.364-1.14-.738-.66-1.1-1.505-1.098-2.28.005-.698.27-1.34.896-1.865.626-.52 1.664-.925 3.242-.926l.402.01h.006c1.563.066 2.82.595 3.666 1.295.852.7 1.262 1.552 1.257 2.25-.01.59-.24 1.127-.942 1.644-.702.508-1.925.934-3.774 1.006l.07 1.753c2.076-.086 3.632-.552 4.727-1.333 1.096-.772 1.684-1.92 1.674-3.07-.005-1.36-.735-2.646-1.894-3.604-1.165-.96-2.79-1.614-4.71-1.695h.006l-.488-.01c-1.873 0-3.343.487-4.362 1.33-1.02.84-1.535 2.034-1.53 3.217 0 1.316.604 2.62 1.683 3.585 1.08.968 2.64 1.59 4.533 1.588l.36-.007-.034-.876" fill="#2B3F22"/><path d="M44.024 147.864c6.814 1.117 9.053-7.233 1.174-7.865-6.418-.516-9.625 6.477-1.174 7.864" fill="#7A9C5E"/><path d="M44.024 147.864l-.142.865c.47.076.927.113 1.366.113 1.732.002 3.19-.584 4.212-1.503 1.02-.917 1.61-2.165 1.61-3.45.006-1.15-.494-2.32-1.487-3.182-.992-.866-2.433-1.433-4.315-1.584-.25-.02-.496-.03-.74-.03-1.832 0-3.42.558-4.58 1.444-1.15.882-1.904 2.123-1.908 3.478-.007 1.085.52 2.172 1.51 2.984.99.82 2.413 1.412 4.332 1.73l.284-1.732c-1.71-.28-2.838-.798-3.495-1.347-.657-.556-.87-1.094-.876-1.634-.005-.67.395-1.45 1.22-2.085.822-.63 2.04-1.082 3.515-1.08.194 0 .393.007.598.023 1.61.13 2.667.6 3.3 1.156.63.558.883 1.195.89 1.86 0 .74-.347 1.53-1.03 2.145-.685.613-1.698 1.052-3.04 1.054-.34 0-.7-.03-1.082-.092l-.142.866" fill="#2B3F22"/><path d="M60.837 162.66c6.814 1.116 9.053-7.234 1.175-7.866-6.42-.515-9.626 6.478-1.175 7.865" fill="#7A9C5E"/><path d="M60.837 162.66l-.142.864c.47.077.928.114 1.366.114 1.733.002 3.192-.584 4.213-1.503 1.02-.917 1.61-2.165 1.61-3.45.006-1.15-.494-2.32-1.487-3.182-.992-.866-2.433-1.433-4.315-1.584-.248-.02-.495-.03-.738-.03-1.833 0-3.422.557-4.58 1.443-1.152.882-1.905 2.123-1.91 3.478-.006 1.086.52 2.173 1.51 2.985.99.82 2.414 1.412 4.333 1.73l.284-1.732c-1.71-.28-2.84-.798-3.496-1.347-.658-.557-.87-1.095-.877-1.635-.004-.67.395-1.45 1.222-2.085.82-.63 2.036-1.082 3.512-1.08.195 0 .395.007.6.023 1.61.13 2.666.6 3.3 1.155.63.56.883 1.196.888 1.862 0 .74-.345 1.53-1.03 2.145-.683.613-1.697 1.052-3.04 1.054-.34 0-.7-.03-1.08-.09l-.143.865" fill="#2B3F22"/><path d="M78.048 163.714c6.814 1.117 9.053-7.233 1.174-7.865-6.418-.516-9.625 6.477-1.174 7.864" fill="#7A9C5E"/><path d="M78.048 163.714l-.142.865c.47.076.928.113 1.366.113 1.732.002 3.19-.584 4.212-1.503 1.02-.917 1.61-2.165 1.61-3.45.006-1.15-.494-2.32-1.487-3.182-.992-.866-2.433-1.433-4.315-1.584-.25-.02-.496-.03-.74-.03-1.832 0-3.42.558-4.58 1.444-1.15.882-1.904 2.123-1.908 3.478-.007 1.085.52 2.172 1.51 2.984.99.82 2.413 1.412 4.332 1.73l.284-1.732c-1.71-.28-2.838-.798-3.495-1.347-.658-.556-.87-1.094-.877-1.634-.005-.67.395-1.45 1.22-2.086.822-.63 2.04-1.082 3.515-1.08.195 0 .394.006.6.023 1.61.13 2.666.6 3.3 1.155.63.56.882 1.196.888 1.862.002.74-.345 1.53-1.03 2.145-.683.613-1.696 1.052-3.038 1.054-.34 0-.7-.03-1.082-.092l-.142.866" fill="#2B3F22"/><path d="M43.767 161.612c-6.9.277-8.103-8.284-.205-7.95 6.433.274 8.762 7.607.205 7.95" fill="#7A9C5E"/><path d="M43.767 161.612l-.035-.876-.29.005c-1.518 0-2.627-.482-3.364-1.14-.738-.66-1.1-1.504-1.1-2.278.007-.698.273-1.34.898-1.865.625-.52 1.663-.927 3.24-.927l.405.01h.004c1.564.065 2.82.595 3.667 1.294.853.702 1.263 1.554 1.258 2.25-.01.592-.24 1.13-.942 1.646-.703.508-1.926.933-3.775 1.006l.072 1.753c2.075-.087 3.63-.554 4.726-1.334 1.096-.772 1.684-1.92 1.674-3.07-.005-1.36-.735-2.646-1.894-3.605-1.165-.96-2.79-1.612-4.71-1.694h.004l-.485-.01c-1.873 0-3.343.486-4.362 1.33-1.02.84-1.535 2.034-1.53 3.216 0 1.317.604 2.62 1.683 3.586 1.08.968 2.64 1.59 4.533 1.588l.362-.007-.035-.878" fill="#2B3F22"/><path d="M60.796 53.494c.035-.58.247-1.045.636-1.397.39-.352.856-.512 1.402-.48.545.035.984.25 1.32.646.334.397.483.885.448 1.464-.036.58-.244 1.045-.625 1.397-.38.353-.843.513-1.388.48-.546-.034-.99-.25-1.333-.646-.344-.397-.497-.885-.46-1.464zm-.536 8.735c.036-.58.247-1.045.637-1.397.39-.352.856-.512 1.4-.48.546.035.986.25 1.32.646.335.396.485.884.45 1.462-.036.58-.244 1.046-.625 1.398-.38.352-.843.512-1.388.48-.545-.035-.99-.25-1.332-.646-.344-.397-.497-.886-.462-1.465zm8.34-12.669l5.62.346c.92.056 1.76.193 2.526.41.764.218 1.414.55 1.95.992.538.443.948 1.002 1.232 1.678.283.675.395 1.498.335 2.47-.056.918-.267 1.71-.632 2.37s-.846 1.2-1.444 1.617c-.598.416-1.292.707-2.08.872-.787.166-1.633.22-2.535.165l-2.655-.163-.376 6.13-2.964-.18 1.023-16.707zm4.887 8.53c2.452.15 3.74-.787 3.865-2.814.065-1.055-.198-1.802-.786-2.24-.59-.437-1.496-.694-2.722-.77l-2.426-.148-.357 5.824 2.427.15z" fill="#7A9C5E"/><path d="M61.286 22.91h-.01c-.217 0-.4.168-.413.388v.026c-.002.212.163.394.378.41l.037.002c.213 0 .395-.165.41-.38l.002-.033c0-.217-.17-.4-.39-.413h-.014M61.24 23.735c-.214-.017-.38-.2-.378-.41v-.028c.014-.22.197-.39.413-.388h.026c.22.014.39.196.39.413l-.002.032c-.016.216-.198.382-.41.38h-.037m.035-1.68c-.667 0-1.224.517-1.266 1.19l-.004.08c0 .665.52 1.222 1.192 1.265h.014l.065.002c.666 0 1.223-.518 1.265-1.19v-.007l.002-.072c0-.662-.51-1.216-1.176-1.265h-.015l-.078-.004m8.837 1.397h-.01c-.216 0-.4.17-.413.39v.01l-.002.015c0 .215.17.4.39.412h.025c.216 0 .4-.168.412-.388v-.027c.002-.215-.168-.4-.387-.41l-.015-.003M70.078 24.277c-.22-.012-.39-.197-.39-.412v-.016l.002-.01c.012-.22.197-.39.412-.39h.01l.017.002h-.002c.22.012.39.196.388.41v.027c-.013.22-.197.388-.413.388h-.025m.024-1.683c-.667 0-1.224.52-1.266 1.19l-.003.08c0 .666.52 1.223 1.19 1.266h.016l.063.003c.666 0 1.224-.518 1.266-1.19v-.007l.002-.073c0-.666-.52-1.223-1.192-1.265l-.078-.003m8.841 1.396h-.012c-.215 0-.4.17-.412.39v.026c0 .213.164.394.38.412h.034c.216 0 .4-.168.412-.387v-.026c0-.215-.168-.4-.387-.41l-.006-.002h-.01M78.895 24.818c-.215-.018-.38-.2-.38-.412v-.026c.014-.22.198-.39.413-.39h.012l.01.002h.005c.22.013.388.197.388.412v.027c-.014.22-.197.39-.413.388h-.035m.033-1.682c-.662 0-1.217.513-1.264 1.18v.012l-.003.078c0 .667.518 1.224 1.192 1.266h.014l.064.002c.666 0 1.224-.518 1.266-1.19v-.008l.002-.072c0-.66-.51-1.215-1.176-1.264h-.015l-.08-.004" fill="#5D7149"/></g></svg>