<svg xmlns="http://www.w3.org/2000/svg" viewBox="0 0 850 604" enable-background="new 0 0 850 604"><g><path fill="#E5EAD8" d="M357.7 599.3h-.9c-15-.3-66.2-7-152.3-19.8l-.8-.1c-15.1-2.3-24.3-10-27.3-23-2.2-9.8-.5-21.3 1.4-34.5.7-4.9 2-13.6 3.8-26.4-19.2-3.9-35.6-11.8-48.8-23.5-33.6-9.3-55-28.1-65-38.6-19.7-20.9-32.1-49.2-34.9-79.6-2.5-27.2 3.1-53.9 15-71.5 16.6-24.6 39.1-41.9 66.9-51.7 26.1-9.1 53-10.2 71-10.2 8 0 15.8.2 22.7.4l2.3.1c3.4.1 6.7.1 10.2.1 3.1-2.3 5.8-4.5 8.3-6.6 22.2-18.6 33.4-42.4 31.5-67-1.9-24.5-17.1-47.1-41.6-61.8-17.5-10.5-29.2-20.7-35.6-30.9-7.6-12.1-8.1-24.6-1.4-36.3 5.6-9.8 16.2-15.2 29.7-15.2 2 0 4.2.1 6.4.4 18.5 2.1 39.2 12.7 56.9 29.1 19.6 18.3 34.3 42.1 42.5 69 10.4 34.3 8.8 65.5-5.1 94.5 15.1-11.8 22.4-27.4 29.5-42.6 7.8-16.7 16-34 34.9-39.2 2.8-.8 5.7-1.2 8.6-1.2 12.4 0 23.7 7.4 30.1 19.9 7.1 13.8 7.9 31.3 2.1 49.3-6.3 19.6-20.1 38.6-39.8 54.8-44.8 36.8-97 41.8-142.2 41.8h-3.8l-4.6 3c-31.3 20.2-83.6 54.1-79 114.1.8 10 3.5 18.4 8.4 25.5 7.1 1.2 14.3 1.8 21.5 1.8 4.7 0 9.4-.3 13.8-.8 3.4-24.2 6.2-44.2 6.9-49 2.8-18.5 5.4-35.9 20.2-44 5.6-3 11.5-4.6 18.8-4.8h2.5c9.3 0 21.1 1.6 40.6 4.4l.9.1c5.4.8 11.5 1.6 18.1 2.5 21.5 2.9 38.2 4.9 51.6 6.6 16.2 2 25.9 3.2 31.9 4.4l1.3.3c5.9 1.2 13.3 2.6 19.6 10.7 7.1 9.1 8.9 22.6 5.9 43.7-1.7 12.2-4.4 32.5-7.9 60.3 6.6 8.6 20.7 21.1 40.9 24.3 2.9.5 5.9.7 8.8.7 31.4 0 63-25.6 90.8-48.2 4.4-3.5 8.5-6.9 12.6-10.1 24.6-19.4 46.1-36.3 67-49.2 9.4-36.5 23.9-77.4 67.8-109.2 20.6-14.9 42.7-23.2 63.7-23.8h2.9c17.6 0 33.2 5.3 43.8 14.9 12.5 11.3 15.7 27.1 8.2 40.2-9.5 16.5-28.6 19.9-47 23.2-20.4 3.6-41.4 7.4-58.3 25.8-1.2 1.3-2.3 2.7-3.5 4.1 14.5.2 29.1 3.1 44.5 8.9 25 9.4 45.7 25.4 60 46.1 11.9 17.4 18.8 37.8 18.9 56 .1 19.2-7.7 33.7-20.7 38.7-2.8 1.1-5.7 1.8-8.4 2.3-1.7.2-3.3.4-5 .4-23.1 0-34.8-22.9-45.2-43.1-4.4-8.5-8.9-17.2-13.7-23.3-9.3-11.7-26.8-24.3-48.1-24.3-4.2 0-8.4.5-12.6 1.4-1.6 5.4-3 10.8-4.3 16.3-4.6 20.2-11 47.9-25.1 73.9-17 31.4-41.7 53.3-73.5 65.1-17.5 6.5-35.6 10.4-53.8 11.6-3.9.3-7.9.4-11.9.4-16.2 0-32.2-2.2-47.8-6.4-23.5-6.4-44.8-17.5-61.8-31.9-.1.7-.2 1.3-.2 1.8-.3 2.2-.5 4.8-.7 7.6-.7 8.4-1.5 18.8-5 27.7-6.3 15.9-18.2 19.7-27 20-.2-.4-.7-.4-1.1-.4zm-171.8-357.9c-39.5 0-88.9 6-120.5 52.6-9.2 13.6-13.5 35.2-11.5 57.7 2.4 25.7 12.8 49.6 29.3 67.1 8.6 9.1 27.6 25.6 57.5 33.3l2.6.7 2 1.8c12.5 11.8 29.2 19 49.6 21.6l10.6 1.3-1.5 10.6c-2.7 18.9-4.3 30.5-5.2 36.7-4.3 29.4-2.7 32 8.1 33.6l.8.1c111.7 16.6 141.7 19.4 149.7 19.6h1c7.4-.3 10.1-6.9 11.8-28.3.2-3 .5-5.9.8-8.5.4-3.3 1.4-11.8 2.9-23.3l2.2-17.4-13.7-7.8 14.3 3.5.3-2.5 2.7 3.2 55.8 13.5c8.9 2.2 18.4 3.3 28.3 3.3h.3c43.5 0 87.7-38.4 126.7-72.2 8-7 15.6-13.6 23-19.6l25.3-20.8-8.5 31.7c-6.5 24.3-13.5 43-22.8 60.6-15.7 29.8-55 51.8-97.8 54.9l-1 .1c-3.3.2-6.6.3-9.8.3-25.4 0-49.4-6.3-71.4-18.8l-39.4-22.4 4.1 5c15.7 19 39.5 33.6 67 41.1 17.1 4.7 35 6.5 52.7 5.3 16.2-1.1 32.3-4.5 47.9-10.3 62.2-23.1 76.2-83.8 85.4-124 1.8-7.9 4-15.7 6.4-23.4l1.7-5.2 5.2-1.6c8-2.5 16.1-3.8 24.1-3.8 28.8 0 52.3 16.7 64.6 32.3 6.1 7.7 11.1 17.4 15.9 26.7 8 15.6 16.3 31.7 26.5 31.7.6 0 1.2 0 1.9-.1 1.2-.2 2.6-.6 4-1.1 4.4-1.7 7.3-9.3 7.2-19 0-14-5.6-30.1-15.2-44.1-11.8-17.2-29.1-30.5-50-38.4-13.5-5.1-26.1-7.6-38.5-7.6-5.8 0-11.6.6-17.4 1.6l-22.1 4.2 11-19.7c5.6-10.1 11.7-18.7 17.9-25.5 21.7-23.8 48.6-28.5 70.1-32.4 17.2-3.1 28-5.3 32.4-13 3.6-6.2-1.6-12-4-14.1-7.1-6.4-18.8-9.9-32-9.4-16.9.6-34.9 7.4-52.1 19.9-39.9 28.8-51.9 65.9-60.8 101.4l-1.1 4.3-3.8 2.2c-21 12.4-43 29.7-68.5 49.9-4 3.1-8 6.4-12.3 9.9-30.6 24.8-65.3 53-104.1 53-4.1 0-8.1-.3-12.1-.9-28.1-4.4-48.6-22.6-57.5-36.7l-2-3.2.5-3.7c3.8-30 6.7-51.7 8.5-64.6 2.5-17.9.5-25-1.7-27.8-1.3-1.7-1.9-1.9-7-2.9l-1.4-.3c-5.2-1.1-15.2-2.3-30.3-4.1-13.5-1.6-30.3-3.7-51.9-6.6-6.7-.9-12.8-1.8-18.2-2.5l-.9-.1c-18-2.5-29.9-4.2-37.7-4.2h-1.8c-4 .1-6.9.8-9.5 2.3-4.8 2.6-6.9 11.3-9.5 28.7-.8 5.2-4.1 29-8 56.5l-1 7.4-7.3 1.4c-7.7 1.5-16.3 2.3-25.1 2.3-9.2 0-18.5-.8-27.5-2.5l-2-.4-3.7-.7-2.4-3c-8.9-11.1-14.1-24.6-15.3-40.1-2.4-31.5 8-60.8 30.9-86.9 18.7-21.2 42.1-36.4 57.6-46.5 2.4-1.5 4.7-3.1 7-4.6l2.7-1.8h10.2c43.5 0 89.2-4.5 128.7-37 33.6-27.6 41.7-60.3 32.4-78.2-1.6-3.2-5.3-8.5-11.5-8.5-1 0-2 .1-3.1.4-9 2.5-14 12.2-21.3 27.8-9.2 19.6-20.6 44-50.1 59.5-7.7 4.1-16.2 7.6-25.3 10.5l-35.3 11.2 24.1-28.1c28.1-32.7 35.3-67 22.9-107.8-9-29.5-24.9-48.7-36.7-59.7-14.4-13.4-30.8-22-44.9-23.6-1.4-.2-2.7-.2-4-.2-4 0-9.3.8-11.5 4.6-2.2 3.8-8.9 15.5 29.6 38.7 30.5 18.3 49.3 46.8 51.8 78.2 2.5 31.6-11.4 61.7-39 84.8-3.6 3-7.5 6.1-12 9.4l-2.7 2-3.3.1c-4.9.1-9.8.1-14.6-.1l-2.3-.1c-7.1-.2-14.3-.4-22.1-.4zm412.7 221.1c-29.6 25.6-61.9 52.6-96.3 65.2 1.7 0 3.4-.1 5-.2l.8-.1c35.8-2.6 68.3-20.1 80.7-43.7 3.6-6.7 6.8-13.7 9.8-21.2zm-470.1-22.6l-23-16c-11.6-8.1-20.7-18.3-27-30.5-15.9-30.4-18.1-61.3-6.2-86.9 10.8-23.3 32.1-39.6 59.8-45.8 11-2.5 24.1-3.7 41.1-3.8l31.7-.3-25.3 19.2c-26.4 20-54.2 46.7-60.3 92.8-2 15-1.2 30.2 2.3 44.1l6.9 27.2zm13.8-159.7c-1.9.3-3.8.7-5.6 1.1-21.2 4.7-37.3 16.8-45.3 34.1-9.1 19.6-7 43.8 5.7 68.3l.2.4c0-6.1.4-12.2 1.2-18.2 5.2-38.6 23.5-65.6 43.8-85.7z"/><path fill="#36491E" d="M387.7 454.7c3.5 10.5 23.4 33.2 53.2 37.8 39 6.1 75.6-23.6 108-49.8 4.3-3.5 8.4-6.8 12.4-10 67.7-53.3 112.4-88.6 179-63.5 23 8.6 42 23.2 55 42.3 10.8 15.7 17 34 17 50.1 0 14.7-5.2 25.5-14 28.9-2.2.8-4.2 1.4-6.2 1.7-18.8 2.8-29.2-17.5-39.3-37.2-4.6-8.9-9.3-18.2-14.8-25-16-20.2-55.6-45.5-102.6-12-11.9 8.5-25.1 19.9-39.1 32.1-40.5 35.1-86.4 75-133.9 74.8-32.5-.1-60.4-10.9-78.6-30.4"/><path fill="#E5EAD8" d="M386.8 490.9c23.6 25.2 57.6 29.1 75.8 29.2 46.1.2 91.4-39.1 131.3-73.8 14.1-12.2 27.3-23.7 39.4-32.3 20.7-14.7 42.9-20 64.2-15.1 16.8 3.8 32.7 14 43.7 27.8 5.7 7.2 10.5 16.6 15.2 25.7 10.9 21.2 21.2 41.1 40.7 33.7 7.2-2.8 11.5-12.2 11.5-25.2-.1-30.2-21.9-70.8-69.5-88.7-64.6-24.3-108.6 10.4-175.3 62.9-4 3.2-8.1 6.5-12.4 10-31.3 25.4-70.3 57-111 50.6-31.8-5-52.3-28.8-56.3-40.4l2.7 35.6"/><path opacity=".61" fill="#B5C394" d="M386.8 490.9c23.6 25.2 57.6 29.1 75.8 29.2 46.1.2 91.4-39.1 131.3-73.8 14.1-12.2 27.3-23.7 39.4-32.3 20.7-14.7 42.9-20 64.2-15.1 16.8 3.8 32.7 14 43.7 27.8 5.7 7.2 10.5 16.6 15.2 25.7 10.9 21.2 21.2 41.1 40.7 33.7 7.2-2.8-2.5-70.4-59.8-97.3-62.5-29.3-100.7 7.8-167.4 60.3-4 3.2-8.1 6.5-12.4 10-31.3 25.4-76.4 55.3-117.1 48.8-31.8-5-52.3-28.8-56.3-40.4l2.7 23.4"/><path fill="#36491E" d="M213.4 462.5c-15 3.4-28.8 4.7-41.3 4.6-52.8-.5-84.6-27.3-97.3-40.8-18.1-19.2-29.5-45.2-32.1-73.3-2.3-24.9 2.7-49 13.2-64.6 40.7-60.2 107.4-58.2 151.6-56.8l2.3.1c46.8 1.4 77.8-9.4 95.6-18.7 26.3-13.8 36.5-35.5 45.4-54.6 7.5-15.9 13.9-29.6 28.1-33.5 10.7-2.9 20.9 2.2 26.6 13.4 10.9 21 4.5 58.5-35.1 91.2-51 42-112.3 40.3-166.5 38.9-25.9-.7-50.3-1.4-70.3 3.1-24.5 5.5-43.1 19.6-52.6 39.9-10.5 22.6-8.4 50.1 6 77.6 14.8 28.3 43.4 39 64.9 43 31 5.8 59.1-.1 66.2-6.4"/><path stroke="#36491E" stroke-width="1.094" stroke-miterlimit="10" d="M403.5 477.4c3.4 11.1-9.8 25.8-19.5 19M445.3 494.4c7.9 8.5 2.3 27.5-9.4 25.6M489.8 485c10.5-3.4 20.3 23.4 10.2 29.8M538.3 452.7c10.4-6.2 26.4 16.7 18.3 27.1" fill="none"/><path stroke="#36491E" stroke-width="1.069" stroke-miterlimit="10" d="M591.4 412.5c11-4.9 23.2 18.7 13.8 28M664.3 370.1c12-.9 15.3 25.5 3.4 31.1M744.6 373.7c12 6.6 4.2 42.6-17.6 41.2M807.2 441.5c3.2 15.6-21 40.1-44.2 27.8" fill="none"/><path fill="#E5EAD8" d="M219.9 427.6c-9.1 8-38.9 12.8-68.8 7.2-22.3-4.1-52.1-15.3-67.7-45.1-14.9-28.6-17.1-57.4-6-81.2 10-21.5 29.6-36.5 55.4-42.2 20.5-4.6 45.2-3.9 71.3-3.2 53.4 1.4 114 3.1 163.8-37.9 17.7-14.6 30-31.4 35.3-48.6 4.4-14 3.9-27.7-1.2-37.7-4.9-9.5-13.1-13.8-22-11.4-12.4 3.4-18.2 15.7-25.5 31.3-8.8 18.7-19.7 42.1-47.2 56.5-17.5 9.2-47.4 19.8-92.1 19.3l-5.5-.1-2.3-.1c-43.2-1.3-108.6-3.3-148.1 55-10 14.9-14.7 38-12.5 62 2.5 27.2 13.5 52.4 31 70.9 15.3 16.2 60.3 51.9 136 34.8"/><path opacity=".61" fill="#B5C394" d="M219.9 434.8c-9.1 8-38.9 12.8-68.8 7.2-22.3-4.1-48.7-13.1-67.7-40.7-21.9-31.8-23.6-68.1-12.2-91.7 12.7-26.4 35.8-37.3 61.5-43.1 20.5-4.6 45.2-3.9 71.3-3.2 53.4 1.4 114 3.1 163.8-37.9 17.7-14.6 30-31.4 35.3-48.6 4.4-14 3.9-27.7-1.2-37.7-4.9-9.5-9.9 52.8-83.6 91-17.5 9.1-58.6 12.1-103.2 11.6-1.8 0-7.8-.2-7.8-.2-43.2-1.3-106.9-10.5-146.4 47.8-10 14.9-16.4 38.4-14.2 62.4 2.5 27.2 13.5 52.4 31 70.9 15.3 16.2 60.3 51.9 136 34.8"/><path fill="#36491E" d="M209 488.1c-34-.6-60.2-11.3-78.1-32-18.7-21.7-27.2-54.8-22.8-88.5 8.3-62.5 53-92.9 92.5-119.7 12.5-8.5 24.2-16.4 34.6-25.1 24.9-20.8 37.4-47.8 35.2-75.9-2.2-28-19.2-53.5-46.7-70-31.9-19.2-42.8-36.5-33.4-53 4.3-7.6 13.5-11 25.8-9.6 31.5 3.6 74 36.5 90.4 90.7 19.9 65.3-6.6 117.2-85.9 168.5-31.1 20.1-88.9 57.5-83.8 123.7 1.9 25 15.3 43.2 39.7 53.9 18.4 8.1 36.4 8.7 36.5 8.7"/><path stroke="#36491E" stroke-width="1.094" stroke-miterlimit="10" d="M181.6 462.3c-10.4-5.2-11.8-24.9-.2-27.2M120.6 454.2c-7.9-10 .6-27.5 12.3-25.5M74.1 421.7c-4.9-11.8 8.1-26.3 18.8-21.1M45.7 358c5.1-11.7 24.6-12.4 28.3-1.1M61.5 283.8c11.6-5.4 26.7 7 22 17.8M119.2 241.7c10.9.3 17.8 18.7 8.1 28M189.9 233.4c14.1 6.8 6.4 31.8-6.9 32.8M262.5 229.1c14.4 2.2 14.1 32.9 1.1 36.1" fill="none"/><path stroke="#36491E" stroke-width="1.118" stroke-miterlimit="10" d="M323.3 202.9c13.6-4.8 31.7 29.3 18.8 43M357.9 148.1c6-13.1 47.6-2.8 46.8 28.2" fill="none"/><path fill="#E5EAD8" d="M209.9 484.3c-32.8-.5-58-10.8-75.1-30.6-18-20.8-26.1-52.8-21.8-85.3 8-60.7 50.1-89.2 90.8-116.9 12.5-8.5 24.4-16.6 34.9-25.4 25.5-21.4 38.9-50.3 36.7-79.3-2.3-29.3-20-55.9-48.6-73.2-29.6-17.8-41.6-33.7-32.9-47.5 3.3-5.2 12.9-9 23.5-7.8 30.3 3.4 71.3 35.6 87.3 88.1 19.2 63.3-7.7 113.8-85.2 164-31.8 20.6-90.9 58.8-85.6 127.4 2 26.3 16.6 46.1 42.1 57.3 19.1 8.4 37.3 9 38 9l-4.1 20.2z"/><path fill="#36491E" d="M385.9 479.7c29.3 40.4 73.4 61.8 121.1 58.7.3 0 .6 0 .9-.1 39.3-2.8 75.2-22.6 89.3-49.3 15.5-29.4 22.4-59 29.1-87.7 11.1-47.3 21.5-92 69.4-126.6 18.9-13.7 39-21.2 57.9-21.9 15.9-.5 30.2 3.9 39.4 12.1 8.8 7.9 11.1 18.4 6.1 27.2-7.1 12.3-22.2 15-39.7 18.1-21.1 3.7-44.9 8-64.2 29.1-17 18.6-32.1 51.6-40.6 88.2-9.2 39.8-24.5 106.4-92 131.5-16.7 6.2-33.8 9.8-50.9 11-18.9 1.2-37.8-.7-56.2-5.7-32-8.8-59-26.2-76-49.2"/><path fill="#E5EAD8" d="M382.8 481c30.1 41.5 75.5 63.4 124.5 60.2.3 0 .6 0 .9-.1 20.1-1.4 39.5-7.1 56.1-16.3 16.5-9.2 29.1-21.3 36.3-35 15.8-29.9 22.7-59.7 29.5-88.6 10.9-46.5 21.2-90.5 67.9-124.2 42.2-30.4 78.3-22.7 92.4-10 7.5 6.8 9.5 15.1 5.3 22.4-6.2 10.7-19.8 13.1-37 16.2-20.6 3.7-46.2 8.2-66.4 30.3-17.4 19.1-32.9 52.7-41.5 89.9-9 39-24 104.3-89.6 128.7-74.9 27.8-147.9-1.2-178.6-42.6l.2-30.9z"/><path opacity=".61" fill="#B5C394" d="M382.8 495.4c30.1 41.5 75.5 59.4 124.5 56.2.3 0 36.3 1 60.6-14.1 16.1-10 31.9-22.6 44.2-42.9 20.2-33.3 23.6-64.1 30.4-93 10.9-46.6 32.8-82.5 66.9-107.1 42.2-30.4 90.6-12.1 86.4-4.9-6.2 10.7-19.8 13.1-37 16.2-20.6 3.7-46.2 8.2-66.4 30.3-17.4 19.1-32.9 52.7-41.5 89.9-9 39-24 104.3-89.6 128.7-74.9 27.8-147.9-1.2-178.6-42.6l.1-16.7z"/><path stroke="#36491E" stroke-width="1.244" stroke-miterlimit="10" d="M254.1 101.3c-3.1-21.1 25.1-36.4 38.9-25.5" fill="none"/><path stroke="#36491E" stroke-width="1.094" stroke-miterlimit="10" d="M407.9 505c3.4 11.1-9.8 25.8-19.5 19M452.5 532.4c5.9 10-3.7 27.3-14.7 22.9M511.7 539.5c10.6 2.5 11 26.6-.8 27.7" fill="none"/><path stroke="#36491E" stroke-width="1.113" stroke-miterlimit="10" d="M576.4 516.2c10.3-3.7 24.6 16.8 15.3 24.2M614.2 457.2c7.1-8.3 29.7 2.3 25.3 13.4M631 386.6c4.7-11.5 33.5-4 30.4 9.1M667 303.1c10.7-13.2 39.3 10.1 31.6 29.2M749.4 255.2c18.1-2.5 31.9 36.9 14.4 50.7" fill="none"/><path opacity=".61" fill="#B5C394" d="M209.9 484.3c-32.8-.5-58-10.8-75.1-30.6-18-20.8-26.1-52.8-21.8-85.3 8-60.7 50.1-89.2 90.8-116.9 12.5-8.5 24.4-16.6 34.9-25.4 25.5-21.4 38.9-50.3 36.7-79.3-2.3-29.3-20-55.9-48.6-73.2-29.6-17.8-41.6-33.7-32.9-47.5 3.3-5.2 71.5 29.8 89.5 81.7 19.3 55.6 10.2 104.3-72.4 154.8-32.3 19.7-92.1 66.6-86.8 135.2 2 26.3 20.6 53.9 51.8 66.9 17.6 7.4 31.6 5.3 38 5.5l-4.1 14.1z"/><path fill="#fff" d="M210.3 375.8c2.7-18.2 5-30.2 13.9-35 11.4-6.2 24.5-3.1 73.4 3.5 48.9 6.6 73 9.7 82.9 10.8 12.6 1.4 21.4 8.1 16.8 40.7-5 35.7-16.7 130.5-18.7 146.9-2 16.3-.3 45-22.3 44.5-22.1-.5-130.2-16.6-151.5-19.8-21.3-3.2-19.1-18.7-15.4-43.5 3.6-24.8 19.1-136.1 20.9-148.1z"/><path fill="#36491E" d="M357.7 589.1h-1.5c-14.3-.3-66.5-7.1-151-19.7l-.8-.1c-23.2-3.5-20.6-21.1-17-45.6 2-13.8 7.7-54.2 12.7-89.8 4-28.4 7.5-53 8.3-58.3 2.9-19.1 5.3-31.1 14.8-36.3 4.1-2.2 8.5-3.3 14.2-3.5 8.7-.3 21 1.4 41.3 4.2 5.7.8 12 1.7 19 2.6 46.8 6.3 72.5 8.7 82.9 10.8 6 1.2 10.5 1.7 14.6 7.1 5.1 6.6 6.3 17.9 3.8 35.7-5 36.2-17 133.4-18.6 146.8-.3 2.4-.5 5.2-.7 8.1-1.3 15.7-3 37.3-22 38z"/><path opacity=".84" fill="#91AE5E" d="M238.2 338.4c-5.2.2-8.9 1.1-12.6 3.1-8.1 4.4-10.3 15.6-13 33.5-.8 5.3-4.3 29.8-8.3 58.1-5 35.5-10.7 75.7-12.8 89.5-4 26.6-4.9 38.5 13.9 41.2l.8.1c83.3 12.3 136.9 19.3 151 19.6 17 .4 18.5-18.2 19.8-34.5.2-2.9.4-5.7.8-8.2 1.6-13.4 13.7-110.2 18.8-146.3 2.3-16.5 2-26.2-2.4-31.9-2.5-3.3-5.7-5.4-12.9-6.6-10.4-1.8-36.2-4.5-83.2-10.8-7.1-.9-13.4-1.8-19.1-2.6-20.3-2.8-32.5-4.5-40.8-4.2z"/><path fill="#fff" d="M369.6 460.9c-2.4 15.7-3.6 26.1-11.3 30.3-9.9 5.4-15.9 3-58.2-2.4-41.3-5.2-51.3-7.4-65-9.4-13.4-1.9-17.4-10.3-13.3-37.6 1.9-12.7 2.9-27.2 5.2-43 3.8-25.9 5.8-38.9 23.3-37.9 19 1.1 94.4 12 112.7 14.7 18.4 2.7 16.5 16.1 13.3 37.5-3 21.6-5.2 37.5-6.7 47.8z"/><path opacity=".4" fill="#36491E" d="M349.7 503.3c-6 .2-14-.9-28.4-2.9-6.2-.9-13.2-1.8-21.8-2.9-31.6-4.1-46.2-6.5-56.8-8.3-4.2-.7-7.8-1.3-11.8-1.9-6.2-.9-10.4-3.1-13.2-6.9-4.5-6.2-5.3-16.9-2.6-35.9.9-6.5 1.7-13.4 2.4-20.7.9-8.2 1.7-16.6 3-25.6 3.7-26.1 6-41.9 23.4-42.5h3.2c22.9 1.4 118.3 15.8 119.2 16 21.4 3.3 19 19.8 15.7 42.7-1.8 12.7-3.4 23.8-4.6 32.7-1 7.3-1.9 13.6-2.6 18.6l-.3 2.1c-2.4 16.4-4 27.2-12.6 32-4 2.4-7.4 3.3-12.2 3.5z"/><path fill="#36491E" d="M348 495.7c-5.7.3-13.2-.7-26.9-2.5-5.9-.7-12.5-1.6-20.7-2.6-30-3.5-43.8-5.7-53.9-7.2-4-.6-7.4-1.1-11.2-1.7-5.9-.8-9.9-2.8-12.5-6.3-4.3-5.7-5.1-15.7-2.7-33.3.8-6 1.5-12.5 2.2-19.3.8-7.6 1.5-15.5 2.7-23.8 3.4-24.3 5.4-38.9 21.9-39.7h3c21.7 1.1 112.1 13.8 113 13.9 20.3 2.9 18.2 18.2 15.2 39.5-1.6 11.8-3 22.1-4.1 30.4-.9 6.8-1.7 12.7-2.4 17.3l-.3 1.9c-2.1 15.2-3.6 25.3-11.7 29.8-3.8 2.5-7.1 3.4-11.6 3.6z"/><path fill="#E5EAD8" d="M247.4 361.9c-12.8.5-14.9 10.8-18.6 36.1-1.2 8.2-2 15.9-2.8 23.4-.7 6.8-1.4 13.2-2.3 19.3-2.4 16.2-1.9 25.5 1.7 30.3 2 2.7 5.1 4.2 10 4.9 3.8.5 7.2 1.1 11.2 1.7 10.5 1.7 23.6 3.8 53.3 7.5 8.1 1 14.7 1.9 20.5 2.7 13.4 1.8 20.8 2.8 26.1 2.6 3.9-.1 6.6-.9 10-2.8 6.5-3.5 7.9-12.8 10-26.8l.3-1.9c.7-4.6 1.5-10.4 2.5-17.1 1.2-8.2 2.6-18.4 4.3-30.1 3.3-22.7 4.2-32.8-11.7-35.2-18.9-2.8-93.2-13.5-111.7-14.6h-2.8z"/><path fill="#36491E" d="M286.6 511.4c1.6-.2 73.2 8.6 73.2 8.6l-1.6 10.7-14.3-2.1.1-6.3-58-6.6.6-4.3z"/><path stroke="#36491E" stroke-width="1.094" stroke-miterlimit="10" d="M178.1 482.2c-8.5-7.9-4.5-27.2 7.4-26.2M130.6 453c-3.8-11 9-26.1 18.9-19.6M108.3 389.2c1.8-12 23.2-13.3 26.2-1.9" fill="none"/><path stroke="#36491E" stroke-width="1.244" stroke-miterlimit="10" d="M129.8 313.4c10.8-8.6 29.6 6.8 23.3 18.7M184.9 262c12.3-6.1 22.6 16.1 14.7 24.4M239.8 222.3c10.9-8.5 25.4 11.2 19.4 20.9M273.8 163.8c6.7-14.2 36.6-6.5 34.1 8.8" fill="none"/><path stroke="#36491E" stroke-width="1.282" stroke-miterlimit="10" d="M205.4 61.3c-6.5-23.4 17.1-48.1 36.1-36.7" fill="none"/><path fill="#E5EAD8" d="M277.5 39.1c3.8-3.9 21.3 1.5 14.5 14.1"/><path fill="#669138" stroke="#36491E" stroke-width="2.947" stroke-miterlimit="10" d="M290.8 73c-28.6 2.7-35.9 26.9-36 26.8-7.8-9-18.3-17.8-18.3-17.8-.1-.1 10.8-31 40.5-31.8"/><path fill="#E5EAD8" stroke="#36491E" stroke-width="1.965" stroke-miterlimit="10" d="M277.5 47.6c0-.1 6.4-1.1 5.2 5.1"/><path fill="#E5EAD8" d="M268.3 88.7c-2.4 0-4.8-1.2-6.4-3.3-5.8-7.6-12.6-13.9-17.2-17.9-3.3-2.8-3.6-7.7-.7-11.2 3.3-3.9 13.4-11.9 23.6-11.9 1.3 0 2.6.1 3.8.4 8.2 2.3 18.6 15.3 21.5 24.3 1.5 4.7-1.5 6.7-5.5 8.7-3.4 1.8-6.1 3.6-9.2 5.6-1.8 1.2-3.7 2.5-6.1 4-1.1.9-2.4 1.3-3.8 1.3z"/><path fill="#36491E" d="M267.7 45.4c1.2 0 2.4.1 3.6.4 7.5 2.1 17.9 14.6 20.8 23.6 1.2 3.9-.9 5.4-5 7.6-5.5 2.8-8.9 5.6-15.3 9.7-1.1.7-2.2 1-3.3 1-2.1 0-4.2-1.1-5.6-2.9-5.9-7.8-12.9-14.2-17.4-18.1-2.9-2.5-3.1-6.8-.6-9.8 3.5-4.2 13.4-11.5 22.8-11.5m0-2c-10.6 0-21 8.2-24.4 12.2-3.3 3.9-2.9 9.4.8 12.5 4.6 3.9 11.3 10.2 17.1 17.8 1.8 2.3 4.5 3.7 7.2 3.7 1.5 0 3.1-.4 4.4-1.3 2.4-1.5 4.4-2.8 6.1-4 3-2.1 5.7-3.8 9.1-5.6 3.3-1.7 7.9-4 6-9.9-3-9.3-13.8-22.6-22.1-24.9h-.2c-1.3-.3-2.7-.5-4-.5z"/><path fill="#4C6031" d="M268.8 84.9c-1.7 0-3.2-.8-4.5-2.4-5.5-7.1-11.9-13.1-16.4-16.8-2.7-2.3-4.2-4.4-4.3-6.3-.1-1 .3-2 1-2.8 6.3-6.9 16-11.7 23.4-11.7 1.4 0 2.6.2 3.8.5 5.2 1.3 15.7 12.1 19.3 21.3 1.6 4.2-1.4 5.9-4 7.5l-.5.3c-3.1 1.8-5.6 3.5-9 5.8-1.5 1-3.1 2.1-5.1 3.4-1.2.8-2.5 1.2-3.7 1.2z"/><path fill="#36491E" d="M268.1 45.3c1.3 0 2.5.1 3.7.5 5.1 1.3 15.4 12 19 21 1.6 4.1-1.5 5.5-4.4 7.2-4.5 2.6-7.6 4.9-14.1 9.2-1.2.8-2.4 1.2-3.5 1.2-1.5 0-2.9-.7-4.1-2.2-5.6-7.3-12.2-13.3-16.4-16.9-2.8-2.3-5.7-5.7-3.2-8.4 6.1-6.6 15.6-11.6 23-11.6m0-.9c-7.6 0-17.4 4.9-23.8 11.9-.8.9-1.2 2-1.2 3.2.1 2 1.6 4.2 4.5 6.6 4.4 3.7 10.8 9.6 16.3 16.7 1.3 1.7 3 2.6 4.9 2.6 1.3 0 2.7-.5 4.1-1.4 2-1.3 3.6-2.4 5.1-3.4 3.4-2.3 5.9-4 9-5.8l.5-.3c2.7-1.6 6-3.5 4.2-8.1-3.7-9.5-14.2-20.2-19.7-21.6-1.1-.3-2.4-.4-3.9-.4z"/><ellipse fill="#669138" cx="268.4" cy="61.3" rx="10.9" ry="9.3"/><path fill-rule="evenodd" clip-rule="evenodd" fill="#E5EAD8" d="M275.6 60.6l-5.2-1.5-.1-5.4-3 4.6-5.2-1.5 3.4 4.2-3 4.6 5-2 3.3 4.3-.2-5.5 5-1.8z"/><g fill="#4C6031"><path d="M274.4 415.7c-2.3-3.2-5.7-5-10.1-5.4-4.5-.4-8.3.7-11.1 3.3-2.8 2.6-4.5 6.5-4.9 11.5-.3 3.2 0 6.2 1 8.7 1 2.6 2.5 4.7 4.5 6.2 2.1 1.5 4.5 2.4 7.3 2.7.6.1 1.2.1 1.8.1 3.7 0 6.8-1.2 9.3-3.4 2.8-2.6 4.5-6.5 5-11.5s-.5-9.1-2.8-12.2zm-3.5 11.5c-.3 3.6-1.3 6.3-2.9 8-1.5 1.6-3.6 2.3-6.3 2.1-2.7-.3-4.6-1.3-5.8-3.2-1.2-2-1.7-4.8-1.3-8.3.3-3.6 1.3-6.3 2.8-7.9 1.3-1.4 3-2.1 5.2-2.1.3 0 .7 0 1.1.1 2.7.3 4.6 1.3 5.8 3.2 1.3 1.7 1.7 4.5 1.4 8.1zM303.016 454.638l-26.682-2.503.486-5.177 26.682 2.503zM341.8 413.2c-3-4.1-7.5-6.4-13.4-7-6.1-.6-11 .9-14.7 4.3-3.6 3.4-5.8 8.4-6.4 15.1-.6 6.7.5 12.1 3.5 16.1 3 4 7.5 6.4 13.6 6.9.8.1 1.6.1 2.4.1 4.8 0 8.9-1.5 12.1-4.5 3.7-3.5 5.8-8.5 6.5-15 .6-6.6-.6-11.9-3.6-16zm-3 15.3c-.5 5.2-1.9 9-4.3 11.4-2.3 2.4-5.5 3.4-9.6 3-4.1-.4-7-1.9-8.9-4.7-1.9-2.8-2.6-6.8-2.1-12 .5-5.1 1.9-8.8 4.3-11.2 2-2.1 4.7-3 8-3 .5 0 1.1 0 1.7.1 4.1.4 7 1.9 8.9 4.7 1.8 2.6 2.5 6.6 2 11.7z"/></g></g></svg>