<svg xmlns="http://www.w3.org/2000/svg" viewBox="0 0 916 746.2" enable-background="new 0 0 916 746.2"><path opacity=".84" fill="#80A261" d="M-9.3-10.8h931.4v758.4h-931.4z"/><path fill="#B0C096" d="M448.4 207.5s-.5.4-1.6 1.2c-.5.4-1.2.9-1.9 1.4-.8.6-1.6 1.3-2.6 2.1-3.9 3.2-9.7 8.3-16.1 16.1-6.3 7.8-13.1 18.5-18.1 32.5-5 13.9-8.3 31.1-7.7 50.5.3 9.7 1.5 19.9 3.8 30.5 2.4 10.5 5.8 21.4 10.6 32.3 4.8 10.9 10.9 21.8 18.6 32.2 7.7 10.4 16.9 20.4 27.7 29.3 5.4 4.4 11.2 8.6 17.4 12.3 6.2 3.7 12.7 7.2 19.7 9.9 13.8 5.6 29.2 9 45.1 9.8 31.9 1.6 66.4-7 97.2-25.6 7.7-4.6 15.1-9.9 22.2-15.9 7.1-5.9 13.7-12.5 19.8-19.7 6.1-7.2 11.6-15 16.3-23.5 2.3-4.2 4.4-8.6 6.4-13.1 1.9-4.5 3.7-9.1 5.3-13.8 3.2-9.4 5.6-19.2 7.4-29.2 1.7-10 2.8-20.3 3.1-30.7.7-20.8-1.5-42.1-6.9-63.1-2.7-10.5-6.3-20.9-10.7-30.9-4.5-10.1-9.9-19.9-16.2-29.1-6.4-9.2-13.7-17.9-22-25.7-8.3-7.8-17.6-14.8-27.6-20.6-2.5-1.5-5.1-2.9-7.6-4.2-2.7-1.3-5.4-2.7-8-3.9-5.3-2.4-10.8-4.8-16.3-6.9-11.1-4.2-22.7-7.6-34.5-9.8-23.7-4.6-48.7-4.8-73.1.1-24.5 4.8-48.3 14.7-69.9 28.7-21.7 13.9-41.2 31.9-57.7 52.7-16.5 20.9-29.9 44.6-39.1 70.3-2.3 6.4-4.3 13-6 19.6-1.7 6.6-3.1 13.4-4.1 20.2-.6 3.4-1 6.9-1.3 10.2l-.5 5.3-.3 5.2c-.4 6.9-.4 13.9-.1 20.9.6 14 2.6 27.9 6.1 41.6 3.5 13.7 8.4 27.1 14.6 40 12.5 25.8 30.2 49.5 51.5 69.7 10.7 10.1 22.3 19.4 34.7 27.5 6.2 4.1 12.6 7.9 19.2 11.3 6.6 3.4 13.4 6.4 20.4 8.8l5.4 1.8 2.7.9 2.7.8 5.4 1.7c1.8.6 3.6 1.1 5.5 1.6 7.3 2.1 14.7 3.9 22.1 5.6 14.9 3.2 30.1 5.5 45.4 6.5 30.6 2 62-1.3 91.6-11.5 29.6-10 57-26.8 80.2-48.7 11.6-10.9 22.2-23.1 31.6-36.1 9.5-13 17.8-27 25-41.6 7.3-14.6 13.4-29.8 18.4-45.5 2.5-7.8 4.8-15.8 6.8-23.8s3.7-16.2 5.1-24.3c5.6-32.7 6.2-66.5.2-99.6-5.9-33.1-18.5-65.1-36.8-93.9-18.4-28.8-42.4-54.1-70.2-74.9-27.8-20.8-59.2-37.1-92.6-48.4-33.4-11.3-68.7-17.6-104.4-18.4-35.7-.8-71.7 4-106.1 14.8-34.4 10.8-67.2 27.6-96.1 49.8-7.2 5.5-14.3 11.4-21 17.6-6.7 6.2-13.2 12.7-19.5 19.4-12.5 13.5-23.8 28.1-34 43.5-10.2 15.4-19.3 31.7-27.2 48.5-8 16.8-14.9 34.2-20.4 52.1-11 35.7-16.4 73.3-15.3 111 1 37.7 8.4 75.3 21.4 111.1 13 35.8 31.5 69.8 54.3 100.8 22.8 31 49.9 59.1 80.2 83.2 30.4 24.2 64 44.4 100 59.5 36 15.1 74.4 24.8 113.4 27.5 4.9.3 9.8.6 14.7.6 2.4.1 4.9.1 7.3.1l7.4-.1 3.7-.1 3.7-.2 7.3-.3c4.9-.3 9.8-.6 14.7-1.1 4.9-.4 9.8-1.1 14.7-1.6 4.9-.7 9.8-1.3 14.6-2.2 4.9-.8 9.7-1.8 14.5-2.7 4.8-1.1 9.6-2.1 14.4-3.4 19.2-4.8 37.9-11.2 56.2-18.9 18.2-7.8 35.9-16.9 52.7-27.5 33.8-21 64.5-47.1 91.6-76.6 27.1-29.6 50.6-62.5 70.1-97.8 9.7-17.6 18.4-35.9 25.7-54.6l2.7-7 2.6-7.2c1.6-4.7 3.2-9.5 4.7-14.3 3-9.6 5.7-19.4 8-29.2 9.3-39.3 13.2-79.9 11.2-120.4-1.9-40.5-9.8-80.7-23.3-119s-32.7-74.6-56.8-107.5c-24.1-32.8-53.1-62.1-85.7-86.8-32.5-24.7-68.6-44.9-106.5-60.3-38-15.4-77.9-26.2-118.5-32.7-20.3-3.3-40.8-5.5-61.3-6.8-2.6-.2-5.1-.3-7.7-.4l-7.7-.4-3.9-.2-3.8-.1c-2.6-.1-5.2-.1-7.7-.2-10.2-.1-20.5 0-30.7.5-20.5 1-40.9 3.4-60.8 7.7-20 4.2-39.5 10.3-58.3 18.2-9.4 4-18.6 8.4-27.5 13.2-9 4.9-17.7 10.1-26.2 15.8-17 11.3-33.1 24.1-48.3 37.9-30.4 27.6-57.5 59-82.9 91.5-6.4 8.2-12.6 16.4-18.7 24.7-6.2 8.3-12.2 16.6-17.9 25.1-11.3 17-21.4 34.9-30.2 53.4-17.6 37-29.8 76.4-36.9 116.7-7.1 40.3-9.1 81.5-6.7 122.3 2.4 40.8 9.2 81.4 19.8 120.8 10.7 39.4 25.1 77.8 43.6 114 9.2 18.1 19.4 35.7 30.8 52.4 11.3 16.8 23.8 32.7 37.6 47.3 6.9 7.3 14.2 14.2 21.8 20.6l2.9 2.4 2.9 2.3 6.1 4.7 6.1 4.7c2 1.6 4.1 3 6.1 4.5 16.2 12 33.1 23.3 50.4 33.7 34.6 20.8 71.2 38.1 109.2 51.3 37.9 13.2 77.2 22.1 116.9 26.5 39.7 4.4 79.8 4.3 119.2-.3 39.4-4.6 78.3-13.6 115.5-26.6 18.6-6.5 36.9-14 54.7-22.5l3.3-1.6 3.3-1.6 6.6-3.3 13.1-6.8c4.3-2.4 8.6-4.7 12.8-7.2l6.3-3.7 3.2-1.9 3.1-1.9c16.7-10.3 32.8-21.4 48.3-33.3 15.5-11.9 30.2-24.7 44.3-38.2 14-13.5 27.3-27.7 39.6-42.6 3-3.8 6.2-7.5 9.1-11.3l4.4-5.7c1.4-1.8 2.9-3.9 4.3-5.8 5.6-7.7 10.9-15.8 15.9-24 20-32.9 35.5-68.4 47.8-104.7 12.3-36.3 21.2-73.6 27.2-111.2 11.8-75.1 11.5-151.6-2.5-224.8-7-36.6-17.4-72.3-31.5-106.3-14-34-31.5-66.3-52.3-96.1-20.8-29.8-44.8-57.1-71.2-81.5-26.4-24.4-55.2-45.8-85.5-64.3-7.5-4.7-15.2-9.1-23-13.4-7.8-4.2-15.6-8.4-23.5-12.3-15.8-7.9-31.8-15.2-48-21.7l-6.1-2.5-6.1-2.3c-4-1.6-8.2-3-12.3-4.5-8.2-2.9-16.5-5.7-24.8-8.2-16.6-5.2-33.4-9.5-50.2-13.2-67.4-14.6-136.4-17.3-202.6-7.9-66.2 9.2-129.4 30.5-186.6 60.5-28.6 15-55.7 32.1-81.3 50.9-12.8 9.4-25.2 19.1-37.2 29.2-12 10.1-23.6 20.6-34.9 31.3-11.3 10.7-22.1 21.8-32.6 33l-7.8 8.4-3.9 4.3-3.8 4.3c-5 5.8-9.8 11.7-14.5 17.6-18.6 24-34.8 49.4-48.9 75.6-28 52.4-47.2 107.9-59.7 163.1-12.4 55.3-18 110.7-18 164.4.1 53.7 5.7 105.9 16.7 155.3 11 49.4 27.3 95.9 48.8 137.9 10.8 21 22.9 40.8 36.3 59.2 3.3 4.6 6.8 9.1 10.3 13.5 3.5 4.4 7.1 8.7 10.8 12.9 1.8 2.1 3.7 4.2 5.5 6.2l5.7 6.1 5.7 6c1.9 2 3.8 3.9 5.8 5.9 30.9 31 64.3 57 98.3 78.3 34.1 21.4 68.8 38 102.8 51s67.2 22.4 98.9 29.3c31.7 6.9 61.8 11.3 89.9 14.2 28.1 2.8 54.3 4 78.3 4.3 24 .3 45.8-.4 65.2-1.5 39-2.3 68.7-6.2 88.6-9.4 10-1.6 17.5-3 22.5-4s7.6-1.6 7.6-1.6-2.5.6-7.6 1.6c-5 1-12.5 2.5-22.5 4.1-19.9 3.3-49.6 7.4-88.6 9.9-19.5 1.2-41.3 2-65.3 1.8-24-.2-50.2-1.2-78.4-3.9-28.2-2.7-58.4-7-90.2-13.7-31.8-6.8-65.1-16-99.3-28.9-34.1-12.9-69.1-29.4-103.4-50.6-34.3-21.2-68-47.2-99.2-78.3l-5.8-5.9c-1.9-2-3.8-4-5.8-6l-5.7-6.1c-1.9-2.1-3.8-4.1-5.6-6.3-3.7-4.2-7.3-8.6-10.9-13-3.5-4.4-7-8.9-10.4-13.6-13.6-18.5-25.9-38.4-36.9-59.6-22-42.3-38.6-89.1-49.8-138.8-11.2-49.7-17.2-102.2-17.5-156.3-.2-54.1 5.2-109.8 17.4-165.7 12.3-55.8 31.5-111.8 59.6-165 14.1-26.5 30.5-52.3 49.4-76.6 4.7-6.1 9.6-12 14.7-17.9l3.8-4.4 3.8-4.3 7.9-8.6c10.6-11.3 21.4-22.6 32.8-33.4 11.3-10.9 23-21.5 35.1-31.7 12.1-10.2 24.6-20.1 37.5-29.7 25.8-19.1 53.2-36.5 82.1-51.7 28.9-15.3 59.3-28.4 91-38.9 31.6-10.5 64.5-18.3 98.1-23.1 67.2-9.7 137.2-7.3 205.7 7.4 17.1 3.7 34.2 8 51 13.2 8.5 2.5 16.8 5.4 25.2 8.3 4.2 1.5 8.3 3 12.5 4.6l6.2 2.4 6.1 2.5c16.5 6.6 32.8 14 48.8 21.9 8 4 15.9 8.2 23.8 12.5 7.8 4.4 15.7 8.8 23.4 13.6 30.8 18.7 60.2 40.5 87.1 65.3 27 24.7 51.5 52.6 72.8 82.9 21.3 30.4 39.3 63.3 53.6 98 14.4 34.7 25.1 71 32.3 108.3 3.6 18.6 6.3 37.4 8.2 56.4 1.9 19 2.9 38 3.1 57.2.4 38.3-2.4 76.8-8.3 115s-15 76.1-27.4 113.1c-12.5 37-28.2 73.2-48.8 107.1-5.1 8.5-10.6 16.7-16.5 24.8-1.5 2-2.9 3.9-4.4 6l-4.5 5.9c-3 4-6.2 7.7-9.3 11.6-12.6 15.3-26.2 29.8-40.5 43.7-14.3 13.8-29.4 26.9-45.2 39.1-15.8 12.2-32.3 23.6-49.3 34.1l-3.2 2-3.2 1.9-6.5 3.8c-4.3 2.5-8.7 4.9-13.1 7.4-4.4 2.3-8.8 4.7-13.3 7l-6.7 3.4-3.4 1.7-3.4 1.6c-18.2 8.6-36.8 16.4-55.8 23.1-38.1 13.4-77.8 22.6-118.1 27.4-40.4 4.8-81.4 4.9-122 .5-40.6-4.4-80.9-13.5-119.7-26.9-38.8-13.4-76.3-31-111.6-52.2-17.7-10.6-34.8-22-51.5-34.3-2.1-1.5-4.2-3-6.3-4.6l-6.1-4.7-6.1-4.7-3.1-2.5-3-2.5c-8.1-6.8-15.6-14-22.9-21.6-14.4-15.2-27.3-31.7-39-48.9s-22.2-35.3-31.7-53.8c-18.9-37.1-33.7-76.3-44.6-116.5-10.9-40.3-17.8-81.7-20.3-123.5s-.5-84 6.8-125.4c7.2-41.4 19.8-82 37.9-120.1 9.1-19 19.4-37.5 31.1-55.1 5.8-8.9 12-17.3 18.2-25.7 6.2-8.4 12.5-16.7 18.9-25 25.7-33 53.2-64.9 84.5-93.3 15.6-14.1 32.2-27.4 49.9-39.1 8.8-5.9 17.9-11.4 27.3-16.4 9.3-5 18.9-9.7 28.7-13.8 19.6-8.3 40-14.6 60.8-19 20.8-4.4 41.9-6.9 63-8 10.6-.5 21.1-.7 31.7-.5 2.7 0 5.3.1 7.9.2l4 .1 3.9.2c2.6.1 5.2.2 7.9.4 2.6.1 5.2.3 7.9.4 21 1.3 41.9 3.6 62.7 7 41.5 6.7 82.4 17.7 121.4 33.6 39 15.8 76.1 36.6 109.6 62s63.5 55.7 88.4 89.5c24.9 33.9 44.7 71.4 58.7 111 13.9 39.6 22 81.1 24 122.8s-2 83.7-11.7 124.1c-2.4 10.1-5.2 20.1-8.3 30.1-1.5 5-3.2 9.9-4.9 14.8l-2.6 7.2c-1 2.5-1.8 4.9-2.8 7.3-7.6 19.4-16.5 38.1-26.5 56.2-20 36.2-44.2 69.9-72 100.3-27.9 30.3-59.5 57.2-94.4 78.8-17.4 10.9-35.7 20.3-54.5 28.4-18.9 8-38.3 14.6-58.1 19.5-4.9 1.3-9.9 2.3-14.9 3.5-5 1-10 2-15 2.8-5 .9-10.1 1.6-15.1 2.3-5.1.6-10.1 1.2-15.2 1.7s-10.1.8-15.2 1.1c-2.5.1-5.1.2-7.7.3l-3.8.2-3.8.1-7.6.1c-2.5 0-5.1 0-7.6-.1-5.1-.1-10.2-.4-15.3-.7-40.6-2.8-80.4-13-117.5-28.6-37.1-15.6-71.7-36.5-102.9-61.4-31.2-24.9-59-53.8-82.4-85.7-23.4-31.9-42.4-67-55.8-103.9-13.4-37-21-75.9-22-114.9s4.5-78 16-114.8c5.7-18.4 12.9-36.3 21.1-53.6 8.2-17.3 17.6-34 28.1-49.9 10.6-15.9 22.3-31 35.2-44.9 6.5-7 13.2-13.7 20.2-20.1 7-6.4 14.3-12.4 21.8-18.2 15-11.5 31-21.6 47.8-30.2 16.5-9.2 33.9-16.3 51.8-21.8 35.7-11.1 73-16 109.8-15.1 36.8.9 73.2 7.5 107.6 19.2 34.4 11.7 66.8 28.6 95.5 50.2 28.7 21.6 53.5 47.9 72.6 77.8 19 29.9 32 63.3 38.1 97.7 6.2 34.4 5.4 69.4-.4 103.1-1.5 8.5-3.2 16.7-5.3 25-2.1 8.2-4.4 16.4-7 24.4-5.2 16.1-11.6 31.8-19.1 46.8-7.5 15-16.1 29.4-26 42.9-9.8 13.5-20.8 26-32.9 37.4-24.1 22.7-52.8 40.2-83.7 50.5-7.7 2.6-15.5 4.8-23.4 6.5-7.9 1.7-15.9 3.1-23.8 4-8 1-16 1.4-24 1.6-8 .2-15.9 0-23.9-.6-15.8-1-31.4-3.4-46.7-6.8-7.6-1.7-15.2-3.6-22.7-5.8-1.9-.6-3.7-1.1-5.6-1.6l-5.6-1.8-2.8-.9-2.7-.9-5.4-1.9c-7.5-2.6-14.6-5.8-21.5-9.4-6.9-3.6-13.5-7.5-20-11.8-12.8-8.5-24.8-18.1-35.8-28.6-22-20.9-40.2-45.4-53.1-72.2-6.4-13.4-11.5-27.4-15-41.6-3.6-14.2-5.6-28.8-6.2-43.3-.3-7.2-.2-14.5.2-21.7l.4-5.4.5-5.3c.4-3.7.8-7.1 1.4-10.7 1.1-7.1 2.6-14 4.4-20.9 1.8-6.9 3.9-13.6 6.3-20.2 9.5-26.5 23.5-50.9 40.5-72.3s37.2-39.8 59.6-54.1c22.4-14.3 47.1-24.5 72.4-29.4 25.4-4.9 51.2-4.7 75.7.2 12.3 2.4 24.1 5.9 35.6 10.3 5.7 2.1 11.3 4.6 16.8 7.2 2.8 1.3 5.4 2.6 8.1 4 2.8 1.4 5.4 2.9 8 4.4 10.4 6.1 20 13.4 28.7 21.6 8.6 8.2 16.2 17.2 22.8 26.8 6.6 9.6 12.1 19.7 16.7 30.1 4.6 10.4 8.2 21.1 10.9 31.9 5.5 21.6 7.6 43.5 6.9 64.8-.4 10.6-1.5 21.2-3.3 31.4-1.8 10.3-4.4 20.3-7.7 30-1.7 4.8-3.5 9.6-5.5 14.2s-4.2 9.1-6.7 13.5c-4.9 8.8-10.6 16.8-17 24.3-6.3 7.4-13.2 14.2-20.5 20.2-7.3 6.1-15 11.5-22.9 16.2-15.8 9.5-32.6 16.4-49.5 20.7-16.9 4.3-34 6.1-50.4 5.2-16.4-.9-32.2-4.4-46.5-10.3-7.2-2.9-13.9-6.5-20.2-10.4-6.3-3.9-12.2-8.2-17.7-12.9-11-9.2-20.2-19.6-27.9-30.3-7.7-10.8-13.8-21.9-18.5-33.1-4.7-11.1-8.1-22.2-10.3-33-2.2-10.7-3.3-21.1-3.4-30.9-.3-19.7 3.2-37 8.6-50.9 1.3-3.5 2.8-6.8 4.2-9.9l2.3-4.5c.8-1.4 1.5-2.9 2.4-4.2 3.2-5.4 6.6-10 9.8-13.9 6.5-7.8 12.4-12.7 16.4-15.9 1-.8 1.9-1.5 2.7-2.1.8-.6 1.4-1 2-1.4.7-.7 1.2-1.1 1.2-1.1z" opacity=".29"/><path fill="#B0C096" d="M443.3 167.6s-.4.2-1.3.6c-.9.4-2.1 1.1-3.7 1.9-3.3 1.8-8.1 4.5-14 8.9-5.9 4.3-12.9 10.2-20.2 18.2-7.3 8-14.8 18.1-21.4 30.6-6.7 12.5-12.5 27.3-16.3 44.3-3.8 17-5.6 36.1-3.9 56.5 1.6 20.4 6.7 42.2 16.6 63.5 9.8 21.3 24.6 42 44 59.8 19.4 17.8 43.5 32.5 70.6 43.1 6.8 2.7 13.7 5.1 20.9 7.3 7.1 2.2 14.4 4.2 21.8 5.7 14.8 3.1 30.4 4.2 46.1 3 15.8-1.1 31.7-4.6 47.1-10.3 15.4-5.7 30.3-13.7 44.2-23.6 27.9-19.8 51.7-47.3 68.9-79.7 17.2-32.3 27.7-69.7 28.5-108.6.8-38.8-8.4-79.2-29.4-114.6-20.7-35.4-51.3-66.3-88-88.8-18.4-11.2-38.3-20.4-59.4-26.9s-43.2-10.3-65.7-11c-22.5-.7-45.3 1.7-67.6 7.1-22.3 5.5-44.1 14-64.8 25l-7.7 4.2-7.6 4.5c-5 3.1-10.1 6.2-14.8 9.6-9.5 6.8-18.5 14.6-26.9 23.1-16.8 16.9-31.3 36.4-43.3 57.5-12 21.1-21.4 43.9-27.9 67.8-6.5 23.8-10 48.6-10.5 73.7s2 50.4 7.2 75.4c5.2 24.8 13.6 49.3 25 72.4 11.4 23.1 25.7 45.1 42.8 64.9 17 19.8 36.7 37.6 58.6 52.4 21.9 14.8 45.9 26.9 71.3 35.3 1.6.6 3.2 1 4.8 1.5l4.8 1.5c3.2.9 6.4 1.9 9.7 2.7 6.5 1.7 13.1 3.1 19.7 4.4 13.2 2.4 26.7 4 40.2 4.6 13.5.6 27.1.4 40.7-.8l5.1-.4 5.1-.6c3.4-.3 6.8-.9 10.1-1.3 1.7-.2 3.4-.5 5.1-.8l5-.8c3.4-.7 6.8-1.2 10.2-2 13.3-2.8 26.7-6.3 39.8-10.6 13.1-4.3 25.9-9.4 38.5-15.2 12.6-5.8 24.8-12.4 36.6-19.6 11.9-7.2 23.3-15.2 34.2-23.9 5.5-4.3 10.8-8.8 16.1-13.4 5.2-4.7 10.3-9.4 15.3-14.4 5-4.9 9.7-10.1 14.5-15.3 4.6-5.3 9.2-10.6 13.5-16.2 4.4-5.5 8.5-11.2 12.6-16.9 4-5.8 7.9-11.7 11.6-17.7 7.4-12 14.2-24.5 20.1-37.4 12-25.7 21-52.9 27.1-80.9 5.9-28 8.9-56.7 8.8-85.5-.1-14.4-.8-28.8-2.3-43.2-.7-7.2-1.7-14.3-3-21.4-1.3-7.1-2.8-14.1-4.6-21.1-7.2-27.9-19-54.7-34.3-79.4-15.3-24.7-34.2-47.2-55.5-67.3-21.3-20.1-45-37.7-70.3-52.9-25.3-15.2-52.1-27.9-79.9-38.1-27.8-10.2-56.6-17.9-85.9-22.6-29.3-4.7-59.1-6.6-88.8-4.6-7.4.5-14.8 1.2-22.1 2.3-.9.1-1.7.2-2.7.4l-2.8.4c-1.9.3-3.7.6-5.5.9l-5.5.9-5.5 1c-7.3 1.4-14.6 3-21.8 4.9l-10.8 2.8c-3.6 1-7.2 2-10.7 3.1-28.6 8.7-56.3 20.2-82.7 34.3-13.2 7.1-26.1 14.7-38.5 23.1-6.4 4.1-12.5 8.5-18.5 13s-11.9 9.1-17.6 13.9c-23 19.2-43.9 40.9-62 64.7-9.1 11.9-17.3 24.4-24.9 37.3-7.6 12.9-14.2 26.3-20.2 40.1-5.9 13.7-10.9 27.9-15.1 42.2-4.2 14.4-7.5 29-9.9 43.8-2.4 14.8-4 29.7-4.7 44.7l-.3 5.6c-.1.9-.1 1.8-.1 2.8l-.1 2.9-.1 5.7-.1 5.6v5.6l.1 5.6.1 5.6.2 5.6c.9 30.1 4.1 60.1 9.9 89.5 5.7 29.5 13.9 58.5 24.6 86.5 5.4 14 11.3 27.7 17.9 41.2 6.6 13.4 13.9 26.5 21.7 39.2 7.8 12.7 16.3 25 25.4 36.9 9.1 11.8 18.7 23.3 28.9 34.1s21 21.1 32.2 30.9c11.3 9.7 23 18.8 35.2 27.2 12.2 8.5 24.8 16.2 37.9 23.3 13 7.1 26.4 13.5 40 19.1 27.3 11.3 55.8 19.8 84.7 25.2 29 5.4 58.5 8 87.9 8 29.4 0 58.8-2.4 87.7-7.2 57.8-9.6 113.9-28.2 165-55.3 25.5-13.6 49.8-29.4 72.2-47.3 22.4-18 42.8-38.1 60.4-60.3 17.6-22.2 32.5-46.5 43.7-72.3l4.2-9.9 4-9.8c2.6-6.6 5.3-13.2 7.7-19.8 5-13.3 9.6-26.7 13.8-40.2 16.9-53.9 27.5-109.3 30.5-164.6 2.9-55.3-2.2-110.5-16.5-162.7-14.3-52.2-38.1-101.1-70.1-143.1-16-21-33.9-40.3-53.3-57.8-9.7-8.8-19.8-17-30.1-24.8l-3.8-2.9-4-2.9c-2.7-1.9-5.3-3.9-8-5.6-5.3-3.7-10.7-7.2-16.1-10.8-21.7-14-44.4-26.2-67.5-37-23.2-10.7-46.8-19.9-70.8-27.6-24-7.6-48.2-13.9-72.5-18.7-12.2-2.4-24.3-4.4-36.5-6.1-12.2-1.7-24.3-3-36.5-4-48.6-3.8-96.8-2.1-143.2 5.6-23.2 3.8-45.9 9.2-67.8 16.1-11 3.5-21.8 7.3-32.3 11.5-10.6 4.2-20.9 8.8-31 13.9-10.1 5-19.9 10.4-29.4 16.2-9.5 5.8-18.7 12-27.5 18.6l-3.3 2.5c-.6.4-1.1.8-1.6 1.2l-1.6 1.3c-2.2 1.7-4.4 3.4-6.5 5.1-2.1 1.7-4.3 3.4-6.4 5.2-2.1 1.8-4.2 3.5-6.3 5.2-8.4 7-16.6 14.2-24.6 21.6-15.9 14.7-30.9 30.1-44.8 46-14 16-27 32.4-38.7 49.4-23.6 33.9-42.6 69.5-57.2 105.8-14.6 36.3-24.9 73-31.5 109.3-6.7 36.2-9.9 71.9-10.6 106.4-.2 8.6-.2 17.2-.1 25.6.2 8.5.3 16.9.7 25.2l.3 6.2c.1 2.1.2 4.1.4 6.2.2 4.1.5 8.2.8 12.3l1 12.1 1.2 12c1.7 15.9 4 31.4 6.7 46.4 2.8 15.1 6.1 29.7 9.8 43.8 7.5 28.3 17 54.6 28.1 78.7 11 24.1 23.6 45.8 37 65.3 13.3 19.5 27.5 36.6 41.5 51.6 14.1 15 28.1 28 41.5 39.2 6.7 5.6 13.2 10.8 19.5 15.6 6.3 4.8 12.4 9.2 18.3 13.3 23.4 16.2 42.4 27.1 55.2 34.2 6.4 3.5 11.4 6.2 14.7 7.9 3.3 1.7 5 2.6 5 2.6l-.6 1.2s-1.7-.9-5-2.5c-3.3-1.7-8.3-4.3-14.8-7.7-13-7-32.1-17.7-55.8-33.8-5.9-4-12.1-8.4-18.5-13.2-6.4-4.8-13-9.9-19.8-15.5-13.6-11.2-27.8-24.1-42.1-39.1s-28.7-32.2-42.3-51.7c-13.5-19.6-26.5-41.4-37.8-65.6-11.4-24.2-21.2-50.7-29-79.2-3.9-14.2-7.3-29-10.2-44.1-2.9-15.2-5.3-30.8-7.1-46.8-.5-4-.9-8-1.3-12.1-.4-4-.8-8.1-1.1-12.2-.3-4.1-.7-8.2-.9-12.3l-.4-6.2-.3-6.3c-.5-8.4-.7-16.8-.9-25.3-.1-8.5-.2-17.2-.1-25.8.5-34.8 3.5-70.8 10-107.6 6.5-36.7 16.6-74.1 31.2-111 14.4-37 33.5-73.4 57.3-107.9 11.9-17.3 24.9-34.1 38.9-50.3 14.1-16.2 29.2-31.9 45.3-46.9 8-7.5 16.3-14.8 24.8-22l6.4-5.4 6.5-5.3c2.2-1.8 4.4-3.5 6.5-5.2l1.6-1.3 1.7-1.3 3.4-2.6c9-6.8 18.4-13.3 28.2-19.3 9.7-6 19.8-11.6 30.1-16.8 10.3-5.2 20.9-10 31.7-14.4s21.8-8.4 33-11.9c22.4-7.1 45.6-12.7 69.2-16.7 47.3-8.1 96.4-10 145.8-6.3 12.4.9 24.8 2.2 37.2 3.9 12.4 1.6 24.8 3.7 37.2 6.1 24.8 4.7 49.5 11 73.9 18.7 24.4 7.8 48.6 17 72.3 27.9 23.6 10.9 46.8 23.4 69.1 37.6 5.6 3.6 11.1 7.2 16.6 11 2.8 1.9 5.4 3.8 8.1 5.7l4 2.9 4 3c10.7 8 21.1 16.4 31.1 25.4 20 17.9 38.5 37.8 55.1 59.5 16.6 21.6 31.1 45 43.2 69.8 12.2 24.7 22 50.8 29.5 77.6 7.5 26.8 12.5 54.4 15.4 82.4 2.8 28 3.4 56.2 2 84.5-2.9 56.6-13.7 113.2-30.8 168.1-4.3 13.7-9 27.4-14 40.9-2.5 6.8-5.2 13.5-7.9 20.2l-4.1 10.1-4.2 9.9c-11.7 27-27.2 52.4-45.6 75.5-18.3 23.2-39.6 44-62.7 62.6s-48.1 34.8-74.4 48.8c-52.6 27.9-110.1 46.8-169.4 56.6-29.6 4.9-59.8 7.4-90 7.3-30.2-.1-60.5-2.8-90.4-8.4-29.9-5.7-59.2-14.5-87.4-26.2-28.1-11.8-55.2-26.4-80.3-44-12.6-8.8-24.7-18.1-36.3-28.2-11.6-10.1-22.6-20.7-33.1-31.9s-20.4-23-29.7-35.2c-9.3-12.2-18-24.9-26-38-8-13.1-15.4-26.6-22.2-40.4-6.7-13.8-12.8-27.9-18.3-42.3-10.9-28.7-19.2-58.4-25-88.6-5.8-30.2-9-60.8-9.9-91.5l-.1-5.8-.1-5.8v-5.8l.1-5.8.1-5.8.2-5.7.1-2.8.1-2.9.3-5.8c.8-15.4 2.4-30.8 5-46 5.1-30.4 13.7-60.4 25.9-88.7 6.1-14.2 13.1-28 20.9-41.3 7.8-13.3 16.4-26.2 25.8-38.4 18.7-24.5 40.3-46.8 63.9-66.4 5.9-5 12-9.6 18.1-14.3 6.2-4.5 12.4-9 18.8-13.3 12.7-8.6 26-16.4 39.5-23.6 27.1-14.4 55.5-26.1 84.8-35 3.6-1.1 7.3-2.1 11-3.2 3.7-1 7.4-2 11.1-2.9 7.4-1.9 14.9-3.5 22.4-4.9l5.6-1.1 5.7-1c1.9-.3 3.8-.6 5.6-.9l2.8-.4c.9-.1 1.9-.3 2.9-.4 7.6-1 15.2-1.8 22.9-2.3 30.6-2 61.2 0 91.2 4.9s59.4 12.8 87.8 23.3 55.8 23.5 81.6 39.1c25.8 15.6 50.1 33.7 71.9 54.3 21.9 20.6 41.2 43.9 57 69.4 15.8 25.5 27.9 53.3 35.3 82.2 1.9 7.2 3.5 14.5 4.8 21.9 1.3 7.3 2.3 14.8 3 22.1 1.5 14.7 2.3 29.5 2.3 44.2.1 29.5-3 58.9-9.1 87.6-6.2 28.6-15.5 56.5-27.9 82.9-6.1 13.2-13.1 26-20.7 38.3-3.8 6.2-7.8 12.2-11.9 18.1-4.2 5.9-8.5 11.7-13 17.4-4.4 5.7-9.2 11.2-13.9 16.6-4.8 5.3-9.7 10.6-14.9 15.7-5.1 5.1-10.4 10-15.7 14.8-5.4 4.7-10.9 9.4-16.5 13.7-11.3 8.8-23 17-35.2 24.4-12.2 7.4-24.7 14.2-37.6 20.1-12.9 5.9-26.1 11.1-39.5 15.5-13.4 4.4-27 7.9-40.8 10.8-3.5.7-6.8 1.3-10.2 2l-5.2.9c-1.7.3-3.5.6-5.2.8-3.5.5-6.9 1-10.4 1.3l-5.2.6-5.2.4c-13.9 1.2-27.9 1.4-41.8.7-13.9-.6-27.7-2.3-41.3-4.8-6.8-1.3-13.6-2.7-20.2-4.5-3.4-.8-6.7-1.8-10-2.8-1.7-.5-3.3-1-4.9-1.5-1.6-.5-3.3-1-4.9-1.6-26.1-8.7-50.8-21.1-73.3-36.4-22.5-15.3-42.7-33.6-60.1-54-17.5-20.4-32.1-42.9-43.8-66.6-2.9-5.9-5.6-12-8.2-18.1-2.5-6.1-4.9-12.2-7-18.5-4.3-12.4-7.7-25.1-10.4-37.9-5.2-25.5-7.7-51.4-7.2-77.1.5-25.7 4.2-51.1 10.9-75.6 6.7-24.4 16.4-47.8 28.7-69.4 12.3-21.6 27.3-41.6 44.6-59 8.7-8.7 17.9-16.7 27.9-23.8 5-3.6 10.1-6.7 15.3-9.9l7.8-4.6 7.9-4.3c21.2-11.2 43.6-19.9 66.5-25.5 22.9-5.6 46.4-8 69.5-7.2 23.1.7 45.9 4.7 67.4 11.4 21.6 6.7 42.1 16.2 60.9 27.7 37.6 23.2 68.8 54.9 90 91.3 5.3 9.1 9.9 18.5 13.9 28.2 1 2.4 1.9 4.9 2.8 7.3.8 2.5 1.7 5 2.5 7.4l1.1 3.6c.2.6.4 1.2.6 1.9l.5 1.9c.7 2.5 1.4 4.9 2 7.5 4.9 19.9 7 40.2 6.6 60.2-.9 39.9-11.8 78.2-29.4 111.2-17.7 33.1-42.1 61.2-70.8 81.4-14.3 10.1-29.7 18.3-45.6 24.1-15.9 5.9-32.3 9.4-48.5 10.5-16.3 1.1-32.3 0-47.6-3.2-3.9-.8-7.5-1.7-11.3-2.7-3.7-1-7.4-2.1-11-3.2-7.2-2.3-14.3-4.8-21.2-7.6-27.5-11.1-52-26.2-71.7-44.5-19.8-18.3-34.6-39.5-44.5-61.3-9.9-21.8-14.9-44-16.4-64.8-1.5-20.8.5-40.2 4.5-57.4 4-17.2 10.1-32.2 16.9-44.8 6.9-12.6 14.6-22.8 22-30.8s14.6-13.9 20.6-18.2c6-4.3 10.9-7.1 14.3-8.8 1.7-.9 2.9-1.5 3.8-1.9.8-.4 1.3-.6 1.3-.6l.4 1.2z" opacity=".49"/><g opacity=".58"><path fill="#649245" d="M553 295.4s-.3-.2-.7-.5c-.5-.4-1.2-.8-2.2-1.4-2-1.1-5.1-2.6-9.1-2.7-4-.1-8.8 1.6-12.7 5.4-4 3.7-7.3 9.3-8.8 15.8-1.5 6.5-1 13.9 2.6 20.1.9 1.5 1.9 3 3.2 4.3.6.7 1.3 1.3 2 1.9.3.3.7.6 1.1.9l.1.1.1.1.3.3.7.5c1.5 1.1 3.1 2.1 4.8 2.9 1.7.8 3.6 1.5 5.5 2 7.6 2 16.2.9 23.8-2.7 3.8-1.8 7.4-4.2 10.5-7.2 3.1-2.9 5.7-6.4 7.7-10.1 4-7.5 5.3-16.4 4.1-25-.5-4.3-1.6-8.6-3.2-12.7-.2-.6-.4-1-.6-1.5l-.6-1.4c-.4-1-.9-1.9-1.4-2.9-1-1.9-2.1-3.6-3.3-5.3-2.4-3.3-5.2-6.3-8.4-8.7-3.2-2.4-6.6-4.3-10.2-5.7-7.2-2.8-14.7-3.5-21.5-2.6-6.8.9-12.9 3.3-17.7 6.3-4.8 3.1-8.5 6.7-11 10-1.3 1.7-2.3 3.3-3.1 4.7-.8 1.4-1.5 2.7-2 3.7s-.8 1.9-1.1 2.4c-.2.6-.3.8-.3.8s.1-.3.2-.9c.1-.6.3-1.5.6-2.6.6-2.2 1.7-5.6 3.8-9.4 2.1-3.9 5.4-8.4 10.3-12.4s11.4-7.5 19.1-9.3c3.9-.9 8-1.4 12.3-1.2 4.3.1 8.8.8 13.2 2.1 8.9 2.7 17.6 8.3 24 16.4 3.2 4 5.8 8.5 7.9 13.4 1.9 4.7 3.5 9.8 4.3 15 .8 5.3 1 10.8.2 16.3s-2.5 10.9-5.1 15.9c-5.1 10-13.8 18-23.8 22.4-5 2.2-10.3 3.7-15.7 4.1-5.4.4-10.9-.1-16-1.6-2.6-.8-5-1.8-7.3-3.1-2.3-1.2-4.5-2.7-6.5-4.4l-.6-.5-.3-.3-.2-.2-.1-.1-.2-.2-1.4-1.3c-.9-.9-1.7-1.9-2.5-2.8-1.6-2-2.9-4.1-4-6.3-2.2-4.4-3.1-9.2-3.2-13.7-.1-4.5.7-8.8 2-12.7 2.7-7.7 7.4-13.8 12.7-17.6 2.7-1.9 5.5-3.2 8.3-3.9 2.8-.7 5.4-.7 7.7-.3 2.3.4 4.2 1.2 5.7 2 1.5.9 2.7 1.7 3.6 2.5.9.8 1.5 1.4 1.9 1.9.3.7.5 1 .5 1zM550.9 222.4h-4.4c-2.9 0-7.2.3-12.4 1.2-5.3 1-11.5 2.7-18.2 5.8-6.6 3.1-13.7 7.7-20.2 13.8-6.7 6.1-12.7 13.8-17.4 22.8-4.7 9-8 19.3-9.3 30.2-.6 5.4-.8 11-.3 16.6.5 5.6 1.5 11.2 3 16.7 1.6 5.5 3.7 10.9 6.3 16.1l.5 1 .1.1c0 .1-.1-.1 0 0l.1.3.3.5 1.1 2 .6 1 .6.9 1.1 1.8c.7 1.2 1.6 2.4 2.4 3.7l2.6 3.6c3.5 4.7 7.4 9 11.7 12.8 4.3 3.8 9 7.1 14 9.9 5 2.7 10.2 4.8 15.6 6.3s10.9 2.3 16.3 2.6c10.9.5 21.6-1.3 31.1-4.8 9.5-3.4 17.9-8.5 24.7-14.2 6.8-5.8 12.1-12.3 15.8-18.6 3.7-6.3 6.1-12.4 7.5-17.6 1.4-5.2 2.1-9.4 2.4-12.3.2-1.4.2-2.6.3-3.3.1-.8.1-1.1.1-1.1s0 .4.1 1.1c0 .8.2 1.9.2 3.3 0 .7 0 1.6.1 2.5 0 .9 0 1.9-.1 3 0 1.1-.1 2.2-.2 3.4-.1 1.2-.3 2.5-.5 3.9-.9 5.5-2.5 12.1-5.8 19.2s-8.3 14.6-15.2 21.5c-6.9 6.8-15.7 13.1-26.1 17.5-10.3 4.5-22.2 7.1-34.7 7-6.2-.1-12.6-.8-18.8-2.4-6.3-1.5-12.4-3.8-18.2-6.9-5.8-3.1-11.3-6.8-16.3-11.2-5-4.4-9.5-9.3-13.5-14.6l-2.9-4c-.9-1.4-1.8-2.7-2.7-4.2l-1.3-2.2-.6-1.1-.6-1-1.1-2-.3-.5-.1-.3-.2-.4-.5-1.1c-3-5.9-5.3-12.1-6.9-18.4-3.4-12.6-3.9-25.7-2-37.9s6.2-23.5 12-33.2c2.9-4.8 6.1-9.2 9.6-13.2 3.5-3.9 7.2-7.5 11-10.5 7.6-6.1 15.6-10.2 23-12.8 7.4-2.6 14.2-3.6 19.7-3.9 5.5-.3 9.9.1 12.8.5 1.5.2 2.6.4 3.3.5.4.5.8.6.8.6zM594.2 230.5s.3.1.8.2c.5.2 1.3.4 2.3.8 2 .8 4.9 2.1 8.4 4.3 7 4.4 16.4 12.5 25.5 25.1 4.5 6.3 9 13.7 12.8 22.3 3.9 8.6 7.1 18.3 9.1 29 1 5.4 1.6 11 1.8 16.8.2 5.8 0 11.8-.8 17.9-1.5 12.2-5.3 24.8-11.4 36.9-3.1 6-6.7 11.9-10.8 17.6-1 1.4-2.1 2.8-3.2 4.2l-1.7 2.1-.8 1-.5.6-.4.5-1.7 2-.9 1-1 1c-1.3 1.3-2.6 2.7-3.9 3.9-10.7 10.1-24.2 18.1-39.3 22.5-15.1 4.5-31.6 5.5-47.8 3.1-16.3-2.4-32.4-8.3-47.1-17.1-14.6-8.8-27.8-20.8-38.2-35.1-5.1-7.2-9.6-15-13.2-23.2-3.5-8.2-6.3-16.8-8.1-25.7-1.8-8.8-2.8-17.9-2.9-26.9-.1-9.1.6-18.1 2-27.1.2-1.1.3-2.1.5-3.3l.7-3.4c.4-2.3 1-4.5 1.5-6.7s1.1-4.4 1.8-6.6c.7-2.2 1.3-4.4 2.1-6.5l1.1-3.2 1.3-3.2c.8-2.2 1.8-4.2 2.7-6.3 2-4.2 4-8.3 6.5-12.2 9.5-15.9 22.7-29.6 38.4-39.4 15.6-9.9 33.5-15.8 51.5-17.9 18-2.1 36.3-.5 53.4 4.3 8.5 2.4 16.8 5.6 24.6 9.5 3.9 1.9 7.7 4.1 11.4 6.3l5.5 3.5 2.7 1.8 2.6 1.9c6.9 5.1 13.3 10.8 19.1 16.9 1.5 1.5 2.8 3.1 4.3 4.7l2 2.4 1 1.2.5.6.5.7c1.2 1.6 2.5 3.1 3.7 4.9l1.9 2.6 1.7 2.6c9.3 13.7 15.9 28.7 20.1 43.8 4.2 15.1 6.1 30.4 6 45.1-.1 14.7-2.2 28.9-5.8 42-3.6 13.1-8.7 25.2-14.8 36-3.1 5.4-6.4 10.4-10 15.1-3.5 4.7-7.3 9-11.1 12.9-3.8 4-7.7 7.6-11.7 10.8-4 3.2-8 6.1-12 8.7-7.9 5.2-15.7 9.1-23 12-14.5 5.8-26.6 8.1-34.8 9.2-4.1.5-7.3.9-9.4 1-2.1.2-3.2.3-3.2.3s1.1-.2 3.2-.5 5.2-.9 9.3-1.8c8-1.8 19.8-4.8 33.6-11.4 6.9-3.3 14.2-7.4 21.6-12.8 3.7-2.7 7.4-5.7 11-9 1.8-1.6 3.6-3.4 5.4-5.2 1.8-1.8 3.6-3.7 5.3-5.7 3.5-3.9 6.8-8.2 10-12.8 3.1-4.6 6.1-9.5 8.8-14.7 5.4-10.4 9.9-21.9 12.9-34.4s4.5-25.8 4.4-39.6c-.2-13.8-2.2-28-6.4-42s-10.4-27.8-19-40.4l-1.6-2.4-1.7-2.3c-1-1.5-2.4-3.1-3.6-4.7l-.4-.5-.5-.6-.9-1.1-1.9-2.2-3.9-4.3c-5.4-5.6-11.3-10.9-17.7-15.5-12.7-9.4-27.4-16.6-43-21.1-15.6-4.5-32.3-6-48.8-4.1-16.4 1.9-32.6 7.2-46.7 16.1-7.1 4.4-13.6 9.7-19.4 15.6-2.9 3-5.7 6.1-8.2 9.5-1.3 1.6-2.5 3.4-3.7 5.1l-1.7 2.6-.9 1.3-.8 1.3c-2.2 3.6-4.1 7.3-6 11.1-.8 1.9-1.8 3.8-2.5 5.8l-1.2 2.9-1.1 3c-.8 2-1.3 4-2 6-.6 2-1.2 4.1-1.7 6.1-.5 2.1-1 4.1-1.4 6.2l-.6 3.1-.6 3.2c-1.4 8.4-2.1 16.8-2.1 25.2 0 8.4.9 16.8 2.5 25s4.1 16.1 7.3 23.7c3.2 7.6 7.2 14.8 11.9 21.5 9.3 13.4 21.4 24.7 34.9 33.1 13.5 8.4 28.5 14.1 43.6 16.6 15.1 2.5 30.5 2 44.5-1.9 14.1-3.8 26.8-10.9 37-20.2 1.3-1.1 2.5-2.3 3.7-3.5l.9-.9.9-1 1.8-1.9.4-.5.4-.4.8-1 1.7-1.9c1.1-1.3 2.1-2.6 3.1-4 4.1-5.3 7.7-10.9 10.8-16.6 6.1-11.4 10.1-23.3 11.8-35 1.8-11.7 1.5-23-.1-33.5s-4.5-20-8-28.5-7.7-15.9-11.9-22.3c-8.5-12.8-17.5-21.1-24.3-25.7-3.4-2.4-6.2-3.8-8.2-4.6-1-.4-1.7-.7-2.2-.9-.8-.3-1.1-.4-1.1-.4zM374.1 189.6s.9-1.6 2.8-4.7c1.8-3.1 4.7-7.5 8.7-13.2 4.1-5.6 9.5-12.3 16.5-19.5l1.3-1.4c.5-.4.9-.9 1.4-1.4.9-.9 1.9-1.8 2.9-2.8l3-2.8c1-.9 2.1-1.9 3.2-2.8 4.4-3.8 9.2-7.6 14.6-11.3 5.3-3.7 11.2-7.4 17.5-10.8 6.3-3.4 13.1-6.7 20.4-9.7 14.5-5.9 31-10.6 49-13.2 18-2.6 37.5-3.3 57.8-1.4 20.3 2 41.5 6.6 62.6 14.4 10.5 3.9 21 8.7 31.3 14.3 10.2 5.7 20.3 12.2 29.9 19.7 2.4 1.8 4.7 3.8 7.1 5.8 1.1 1 2.3 2 3.4 3.1 1.2 1 2.3 2.1 3.4 3.2 4.5 4.2 8.8 8.8 13 13.5 4.2 4.7 8 9.8 11.8 15 .9 1.3 1.8 2.5 2.7 3.9l2.7 4 2.6 4.1c.9 1.4 1.7 2.8 2.5 4.1 13.2 22.2 23.3 47.1 29.6 73.5 3.1 13.2 5.4 26.8 6.6 40.6 1.2 13.8 1.3 27.8.3 41.9-1.9 28.2-8.4 56.6-19.6 83.4-5.6 13.4-12.5 26.4-20.4 38.9-8 12.4-17.1 24.2-27.1 35.1-5.1 5.5-10.3 10.7-15.9 15.7-.7.6-1.3 1.2-2.1 1.8l-2.2 1.9c-1.5 1.3-3 2.4-4.5 3.6-3 2.3-6.1 4.5-9.2 6.7-12.6 8.5-26.2 15.2-40.4 20.5-28.4 10.5-58.8 15.1-89 14.5-30.2-.5-60.3-6.4-88.4-16.9-28.2-10.5-54.4-25.8-77.2-44.9-5.7-4.7-11.2-9.7-16.5-14.9-5.3-5.2-10.3-10.6-15.1-16.1-9.6-11.1-18.3-22.9-25.9-35.4-15.1-25-25.2-52.5-30.2-80.3-5.1-27.8-5.4-55.9-1.6-82.8 3.8-26.9 11.4-52.5 22.1-76 5.3-11.8 11.4-22.9 18.1-33.5 6.7-10.6 14.1-20.4 22-29.7 7.9-9.2 16.3-17.7 25.1-25.4 8.8-7.7 17.9-14.7 27.3-20.8 18.8-12.3 38.5-21.4 57.9-27.6 19.4-6.3 38.4-10.1 56.5-11.8 18.1-1.7 35.1-1.4 50.7.3 7.8.9 15.2 2.1 22.2 3.5s13.7 3.1 19.9 4.9c12.5 3.6 23.3 7.9 32.4 12 9.2 4.2 16.7 8.2 22.7 11.8 6 3.5 10.4 6.5 13.3 8.6 2.9 2.1 4.3 3.3 4.3 3.3s-1.5-1.1-4.4-3.2c-3-2-7.4-4.9-13.5-8.3-12-6.7-30.5-15.6-55.3-22.3-6.2-1.7-12.8-3.2-19.8-4.5-7-1.3-14.4-2.3-22.1-3-15.4-1.4-32.2-1.4-50 .7-8.9 1-18 2.6-27.2 4.6-9.3 2.1-18.6 4.7-28.1 8-18.9 6.5-37.8 15.9-55.9 28.2-9 6.1-17.8 13.1-26.2 20.8-8.4 7.7-16.4 16-23.9 25.1-15 18.2-27.9 39-37.9 61.9-10.1 22.8-17.1 47.8-20.4 73.7-3.3 25.9-2.8 53 2.3 79.6 5.1 26.6 14.9 52.7 29.5 76.4 7.3 11.8 15.8 23.1 25 33.7 4.6 5.3 9.4 10.5 14.5 15.4 5.1 5 10.3 9.7 15.8 14.3 21.9 18.2 47 32.8 73.9 42.7 13.5 5 27.4 8.8 41.6 11.6 7.1 1.4 14.2 2.4 21.4 3.1 7.2.8 14.4 1.2 21.6 1.4 28.8.6 57.8-3.7 84.7-13.6 13.4-4.9 26.3-11.3 38-19.1 2.9-2 5.8-4 8.6-6.2 1.4-1.1 2.8-2.2 4.1-3.3l2-1.7c.7-.6 1.4-1.2 2-1.8 5.2-4.7 10.3-9.8 15.2-15 9.6-10.4 18.4-21.6 26.1-33.4 7.7-11.8 14.3-24.2 19.8-37 10.9-25.6 17.3-52.8 19.3-79.9 2-27.1-.2-54-6-79.5-5.9-25.5-15.3-49.6-27.8-71.2l-2.4-4c-.8-1.3-1.6-2.6-2.4-4l-2.5-3.9c-.8-1.3-1.7-2.6-2.6-3.9-3.5-5-7.1-9.9-11-14.4-3.9-4.6-8-9-12.2-13.1l-3.2-3.1-3.3-3c-2.2-1.9-4.4-3.9-6.7-5.7-9.1-7.4-18.7-13.8-28.5-19.5-9.9-5.6-19.9-10.4-30.1-14.3-20.3-8-40.9-12.8-60.7-15.1-19.8-2.3-38.9-2.1-56.6.2-17.7 2.2-33.9 6.5-48.4 11.9-7.2 2.7-14 5.7-20.3 9-6.3 3.3-12.1 6.7-17.5 10.2-10.7 7.1-19.5 14.5-26.7 21.5-7.2 7-12.7 13.5-17 18.9-4.2 5.5-7.2 9.9-9.1 12.9-2.5 3.1-3.5 4.7-3.5 4.7zM511.6 480.1l-4.2-.9c-2.8-.7-6.9-1.7-12.2-3.4-5.3-1.8-11.7-4.2-18.9-7.8-7.2-3.6-15.3-8.3-23.6-14.6-16.7-12.5-34.4-31.4-48.4-56.9-7-12.8-13.1-27.1-17.5-42.9-4.4-15.7-7.2-32.9-7.4-50.9 0-4.5.1-9 .5-13.7.5-4.6 1.3-9.2 2.3-13.8 2-9.2 4.8-18.3 8.4-27.4 7.1-18.1 16.8-35.9 29.5-52.2 6.3-8.2 13.5-16 21.3-23.2 7.9-7.1 16.5-13.8 26-19.3 18.7-11.3 40.6-18.6 63.3-20.8 2.8-.3 5.7-.5 8.5-.7 1.4-.1 2.9-.1 4.3-.1l2.1-.1h2.1c5.7-.1 11.5.3 17.2.8 2.9.3 5.7.6 8.6 1 2.9.4 5.7.8 8.6 1.3l1.1.2.6.1.5.1 2.1.4c1.4.3 2.8.5 4.2.9 2.9.6 5.7 1.3 8.5 2 22.6 5.8 44.7 15.4 64.2 29.5 9.7 7 18.8 15.1 26.9 24 8.1 8.9 15.3 18.8 21.4 29.3 12.3 20.9 20.3 44.3 24.5 68.2 4.1 23.9 4.4 48.4 1.2 72.3-.8 6-1.8 11.9-3.1 17.8-.3 1.5-.6 2.9-1 4.4l-.5 2.2-.1.6-.1.5-.3 1.1-1.1 4.3c-.4 1.4-.8 2.9-1.3 4.4-.8 3-1.8 5.8-2.7 8.7-.5 1.4-1 2.8-1.5 4.3-.5 1.4-1 2.8-1.6 4.2-2.1 5.6-4.7 11.1-7.3 16.5-10.8 21.5-25.8 40.7-43.8 56-18 15.3-38.9 26.7-60.7 33.8-21.8 7.1-44.4 10.1-66.4 9.5-22-.7-43.4-4.9-63.1-12.1-4.9-1.8-9.7-3.8-14.5-5.9-4.7-2.2-9.3-4.4-13.7-7-2.2-1.2-4.4-2.5-6.6-3.8-2.1-1.4-4.3-2.6-6.4-4.1l-3.1-2.1-3-2.1-6-4.4c-7.8-5.9-15.1-12.2-22-18.7-6.8-6.5-13.2-13.3-19-20.3-11.6-14-21.1-28.8-28.4-43.7-7.3-14.9-12.3-29.9-15.5-44.3-3.2-14.4-4.4-28.2-4.6-40.9-.1-6.3.2-12.4.6-18.2.4-5.8 1.1-11.3 1.9-16.4 1.6-10.4 3.6-19.5 5.8-27.3l.8-2.9.8-2.7c.5-1.8 1-3.5 1.6-5.1.5-1.6 1-3.2 1.5-4.7s1-2.9 1.5-4.2c.9-2.6 1.8-4.9 2.6-6.9.7-2 1.4-3.6 2-5 1.1-2.7 1.6-4 1.6-4s-.4 1.4-1.3 4.2c-.4 1.4-1 3.1-1.5 5.1-.6 2-1.3 4.4-1.9 7.1-2.8 10.7-6.6 26.6-8.5 47-.4 5.1-.8 10.5-.9 16.1-.1 5.6-.1 11.6.3 17.7.7 12.3 2.7 25.4 6.2 39.1 3.5 13.7 8.8 27.8 16.2 41.8 7.2 14 16.6 27.9 27.9 41 5.7 6.5 11.8 13 18.4 19.1 6.6 6.2 13.6 12.1 21.1 17.7 1.9 1.4 3.8 2.8 5.7 4.1 2 1.4 3.9 2.7 5.9 4 1.9 1.3 4 2.5 6 3.8l6.2 3.6c4.2 2.4 8.5 4.5 12.9 6.5s9 3.9 13.6 5.5c18.5 6.7 38.6 10.8 59.4 11.5 20.7.7 42-2.1 62.4-8.8 20.4-6.6 40-17.2 56.8-31.5 16.9-14.2 30.9-32.2 41.1-52.3 2.5-5.1 4.9-10.2 7-15.5.5-1.3 1.1-2.6 1.5-4l1.5-4c.9-2.7 1.9-5.4 2.6-8.1l1.2-4.1 1.1-4.3.3-1.1.1-.5.1-.4.5-2.1c.3-1.4.7-2.8.9-4.2 1.2-5.6 2.2-11.3 3-17 3.2-22.8 3-46.2-.8-69-3.8-22.8-11.3-45-22.8-64.8-5.7-9.9-12.4-19.2-20-27.7s-16-16.2-25.1-22.9c-18.2-13.4-39.2-22.8-60.8-28.6-2.7-.8-5.4-1.4-8.1-2l-4.1-.9-2.1-.4-.5-.1-.5-.1-1-.2c-2.7-.5-5.5-1-8.2-1.4-2.7-.4-5.5-.7-8.2-1-5.5-.5-11-.9-16.4-.9h-4c-1.4 0-2.7 0-4.1.1-2.7.2-5.4.3-8.1.6-21.5 2-42.2 8.5-60.2 19-9 5.2-17.4 11.4-25 18.1-7.6 6.8-14.6 14.2-20.8 22-12.5 15.6-22.2 32.8-29.3 50.3-3.6 8.7-6.5 17.6-8.6 26.4-1 4.4-1.9 8.8-2.4 13.2-.5 4.3-.6 8.8-.7 13.2-.2 17.5 2.3 34.3 6.3 49.8 4.1 15.5 9.7 29.7 16.4 42.4 6.6 12.7 14.2 23.8 22.2 33.3 7.9 9.5 16.3 17.4 24.4 23.8 8.1 6.4 15.9 11.3 23 15.1 7.1 3.8 13.4 6.3 18.6 8.2 5.2 1.9 9.3 3 12.1 3.7 2.5.5 4 .9 4 .9zM723.4 132.3s3.6 2.6 9.7 8.1 14.8 14 24.5 25.9c9.8 11.9 20.7 27.2 30.9 46.3 5.1 9.5 10 19.9 14.4 31.1 4.4 11.3 8.4 23.4 11.7 36.3 6.6 25.8 10.3 54.6 9.6 85.2 0 3.8-.3 7.7-.5 11.5l-.4 5.8-.2 2.9-.3 2.9c-.8 7.8-2 15.7-3.4 23.6-1.4 7.9-3.4 15.8-5.6 23.8-2.2 7.9-4.9 15.8-7.8 23.6-5.9 15.7-13.5 31-22.6 45.8-4.6 7.3-9.6 14.5-14.9 21.4-5.3 6.9-11 13.6-17.1 20-12.2 12.8-25.7 24.5-40.5 34.6-7.4 5.1-15 9.8-22.9 14.1-7.9 4.2-16 8.1-24.3 11.5-33.2 13.6-69.1 20.3-104.3 20.2-8.8 0-17.5-.4-26.2-1.1l-6.5-.6-3.2-.3-3.2-.4c-2.1-.3-4.3-.6-6.4-.8l-6.4-1c-17-2.7-33.5-6.7-49.4-11.7-32-10.1-60.8-25.8-84.9-44.6-12.1-9.4-23-19.5-32.8-30-9.8-10.5-18.5-21.4-26.1-32.2-15.2-21.8-26.1-43.7-33.9-63.8-3.9-10-7-19.6-9.4-28.6-2.5-9-4.3-17.3-5.6-24.9-1.4-7.6-2.2-14.4-2.8-20.4-.6-5.9-.8-11-1-15.1-.1-2.1-.1-3.9-.1-5.4v-7.1s0 1.1.1 3.2c0 1.1.1 2.4.2 3.9.1 1.6.2 3.4.4 5.4.6 8.2 2 20.2 5.2 35.1 3.2 14.9 8.4 32.8 16.7 52.4 8.2 19.6 19.7 40.7 35.2 61.7 7.7 10.5 16.4 20.9 26.2 30.9s20.7 19.6 32.6 28.5c11.9 8.9 24.8 17 38.7 24.1 13.8 7.1 28.7 13 44.1 17.6 31.2 9 64.5 14.5 98.4 14 8.5-.2 17-.7 25.4-1.5 8.5-.9 16.9-2.1 25.3-3.7 8.4-1.6 16.7-3.7 24.9-6.2 8.2-2.4 16.3-5.3 24.2-8.6 31.6-13.1 60.5-32.8 83.8-57.2 23.3-24.4 41.2-53.1 53.1-83 6-15 10.4-30.3 13.6-45.5 1.6-7.6 2.9-15.2 3.8-22.7l.4-2.8.3-2.8c.2-1.9.4-3.8.6-5.6.3-3.7.6-7.5.7-11.2.1-1.8.2-3.7.2-5.5l.1-5.5c.1-1.8 0-3.7 0-5.5v-5.499999999999999c-.2-7.2-.7-14.3-1.3-21.3-1.2-14-3.4-27.3-6.2-40-2.8-12.7-6.4-24.7-10.4-35.9s-8.4-21.6-13.1-31.1c-9.4-19-19.5-34.7-28.6-46.9-9.2-12.2-17.3-21.1-23.1-27-6.2-5.6-9.6-8.4-9.6-8.4zM709 625.8s-.9.6-2.7 1.7c-.9.6-2 1.2-3.3 2.1-1.3.8-2.8 1.7-4.6 2.7-7 4-17.3 9.8-31.2 15.5-13.9 5.8-31.2 11.8-51.8 16.3-10.3 2.2-21.3 4.1-33 5.5-11.7 1.4-24.1 2.1-37.1 2.2-25.9.1-54.1-2.5-83.1-9.3-29-6.8-58.9-17.6-87.2-33.9-14.2-8.1-27.9-17.6-40.8-28.5-12.9-10.9-24.9-23.2-35.4-37-20.6-27.3-38.2-57.4-52.1-89.2-13.8-31.9-23.5-65.5-28.9-99.2-5.5-33.8-6.3-67.6-3.3-100 1.5-16.2 3.9-32 7.3-47.3 3.4-15.3 7.6-30 12.6-44.1 5-14 10.7-27.4 16.9-39.9 6.3-12.5 13.2-24.2 20.5-35 7.3-10.8 14.9-20.6 22.7-29.5 7.9-8.8 15.9-16.7 23.8-23.6 15.9-13.9 31.6-23.6 45.1-30.4 13.5-6.8 24.8-10.4 32.5-12.7 3.9-1.1 6.9-1.8 8.9-2.3 2-.5 3.1-.7 3.1-.7l-3 .9c-2 .6-4.9 1.5-8.7 2.8-7.6 2.6-18.5 6.9-31.5 14.2-13 7.2-28 17.6-43.1 31.7-7.6 7.1-15.1 15-22.5 24-7.4 8.9-14.6 18.7-21.4 29.5-6.8 10.7-13.2 22.3-19 34.7-5.9 12.4-11.1 25.5-15.7 39.3-4.6 13.8-8.4 28.2-11.4 43.2-3 14.9-5.2 30.4-6.5 46.2-2.5 31.6-1.2 64.5 4.2 97.2 2.7 16.4 6.4 32.7 11.2 48.9 4.7 16.1 10.6 32 17.2 47.5 13.3 31 30.5 60.4 50.3 87 9.9 13.1 21.1 25 33.4 35.6 12.2 10.6 25.4 19.8 38.9 27.8 6.8 4 13.7 7.7 20.7 11.1 7 3.4 14 6.6 21 9.4 14.1 5.7 28.3 10.3 42.4 13.9 28.2 7.2 55.6 10.6 81.1 11.1 12.7.3 24.9-.2 36.5-1.1 11.6-.9 22.5-2.4 32.7-4.3 20.4-3.7 37.8-8.9 51.8-14.1 7-2.6 13.1-5.2 18.4-7.5 5.3-2.4 9.7-4.6 13.3-6.4 1.8-.9 3.3-1.8 4.7-2.5 1.3-.7 2.5-1.4 3.4-1.9 1.7-1 2.7-1.6 2.7-1.6zM258.7 292.1s0-4.8.8-13.6c.8-8.9 2.2-21.9 5.7-38.2 1.7-8.2 3.9-17.1 6.8-26.8s6.4-20 10.9-30.7c4.5-10.8 9.8-22 16.3-33.4 6.4-11.4 14.1-22.9 23.1-34.3l3.4-4.2 3.5-4.2c2.5-2.7 4.9-5.6 7.5-8.3 5.1-5.5 10.7-10.8 16.6-15.9 11.8-10.2 24.9-19.8 39.4-28 7.2-4.2 14.7-7.9 22.4-11.5 7.8-3.4 15.8-6.7 24-9.5 16.5-5.7 33.8-10 51.7-12.9 17.8-2.9 36.2-4.5 54.7-4.9 2.3-.1 4.6-.1 7-.2h7c2.4 0 4.7 0 7.1.1l6.9.3c4.6.1 9.4.5 14.1.9l3.6.3 3.5.4 7.1.8c18.9 2.3 37.7 6.3 56.2 11.9 18.4 5.8 36.5 13.1 53.5 22.4 4.3 2.2 8.4 4.8 12.6 7.2 2.1 1.2 4.1 2.6 6.1 3.9l3.1 2 3 2.1c8 5.4 15.7 11.4 23.1 17.5l5.5 4.7 5.3 4.9c1.8 1.6 3.5 3.3 5.2 5 1.7 1.7 3.5 3.3 5.1 5.1 6.7 6.8 13 14.1 19 21.5s11.5 15.1 16.8 22.9c5.2 7.9 10 15.9 14.5 24.1l3.3 6.2.8 1.5.2.4.2.5.4.8 1.5 3.1 3 6.1c1 2 1.9 4.2 2.8 6.3.9 2.1 1.9 4.2 2.8 6.4l2.5 6.4c.8 2.1 1.7 4.2 2.5 6.4l2.3 6.4c3 8.5 5.5 17.2 7.7 25.8l3.1 12.9c.8 4.3 1.7 8.6 2.4 12.9 2.9 17.1 4.4 34.1 4.8 50.6.4 16.5-.4 32.6-2.2 48-1.8 15.4-4.5 30.2-8 44.2-3.4 14-7.6 27.1-12.2 39.4-4.7 12.2-9.8 23.6-15.2 33.9-10.7 20.7-22.8 37.3-33.5 50-10.7 12.8-20.3 21.8-26.9 27.8-3.3 3-5.9 5.2-7.7 6.7-1.8 1.5-2.7 2.2-2.7 2.2s.9-.8 2.6-2.4c1.7-1.6 4.2-3.9 7.3-7 6.3-6.3 15.3-15.7 25.5-28.8 10.2-13.1 21.3-29.9 31.3-50.6 5-10.3 9.7-21.6 13.9-33.8 4.2-12.2 8-25.2 11-39s5.3-28.3 6.7-43.4c1.4-15.1 1.9-30.8 1.2-46.9-1.3-32.2-7.3-66-19.1-99-.7-2.1-1.5-4.1-2.3-6.2-.7-2.1-1.6-4.1-2.4-6.1l-2.5-6.1-2.7-6c-.9-2-1.8-4-2.8-6l-3-6.1-1.5-3.1-.4-.8-.1-.3-.2-.4-.8-1.5c-1.1-2-2.1-4-3.2-5.9-4.4-7.8-9.2-15.6-14.3-23.1-5.1-7.5-10.5-14.9-16.3-22-5.8-7.1-11.9-14-18.4-20.6l-4.9-4.9-5-4.8-5.1-4.7-5.3-4.5c-7.1-5.9-14.5-11.6-22.2-16.7l-2.9-2-2.9-1.9-5.9-3.7c-4-2.3-8-4.7-12.1-6.9-16.3-9-33.6-16-51.3-21.6-17.7-5.4-35.9-9.3-54.1-11.6-18.2-2.2-36.5-3-54.6-2.8-18.1.2-35.9 1.6-53.3 4.2-2.2.3-4.3.7-6.5 1.1-2.1.4-4.3.8-6.4 1.1-2.1.4-4.2.9-6.4 1.3l-6.3 1.4c-2.1.5-4.2 1-6.2 1.6l-3.1.8-3.1.9c-2 .6-4.1 1.2-6.1 1.7l-6 1.9c-8 2.5-15.8 5.6-23.4 8.8-7.5 3.4-14.9 6.8-21.9 10.7-14.1 7.7-26.9 16.7-38.5 26.3-5.8 4.9-11.3 9.8-16.4 15-2.6 2.5-5 5.2-7.5 7.8-1.2 1.3-2.4 2.7-3.5 4-1.2 1.3-2.4 2.6-3.5 4s-2.2 2.7-3.3 4l-3.2 4.1c-2.1 2.7-4.1 5.5-6.1 8.2-3.9 5.5-7.5 11-10.8 16.5-6.7 11-12.3 21.9-17 32.3-4.8 10.5-8.5 20.6-11.8 30-3.2 9.4-5.7 18.3-7.8 26.3-4 16.1-6.2 29-7.4 37.8-1.5 8.3-1.7 13.1-1.7 13.1zM363.9 665.9s1.3.6 3.7 1.9c1.2.6 2.7 1.4 4.5 2.3 1.8.9 3.9 1.9 6.3 3 9.6 4.5 23.8 10.8 42.6 16.9 18.7 6.1 42 12 69.3 15.5 27.2 3.5 58.3 4.4 91.7.6 16.7-1.8 34-4.9 51.6-9.3s35.4-10.3 53.1-17.8c8.8-3.8 17.7-7.9 26.4-12.5s17.3-9.6 25.7-15.1l3.1-2.1.7-.5.8-.5 1.6-1.1 6.3-4.4c2-1.5 4.1-3 6.2-4.5l3.1-2.3 3.1-2.4c8.2-6.2 16.2-12.9 24-19.9 7.8-7 15.4-14.4 22.7-22 1.8-1.9 3.7-3.8 5.5-5.8l5.4-6c3.5-4.1 7-8.1 10.3-12.3 13.5-16.7 25.6-34.9 36.2-54.1 20.9-38.5 34.8-81.6 40-125.8 5.2-44.2 2.7-89.4-6.4-132.2-4.6-21.4-10.9-42.3-18.9-62.3-8-19.9-17.6-38.9-28.7-56.6-5.5-8.8-11.4-17.3-17.6-25.5-6.2-8.1-12.8-15.9-19.6-23.2-6.8-7.3-13.9-14.3-21.2-20.8-7.3-6.5-14.9-12.6-22.6-18.3-1.9-1.4-3.8-2.8-5.8-4.2-1.9-1.4-3.9-2.7-5.8-4l-1.5-1-.4-.2-.3-.2-.8-.5-3-1.9c-2-1.3-4-2.6-6-3.8-4-2.4-7.9-4.8-11.9-7.1l-6-3.4-3-1.7-3-1.6c-15.9-8.5-31.9-15.7-47.6-21.6-15.7-5.9-31.2-10.4-46.1-13.8-14.9-3.4-29.3-5.6-42.9-7-13.6-1.3-26.4-1.8-38.3-1.6-11.9.2-22.7.9-32.5 2s-18.5 2.4-26 3.8c-3.8.7-7.2 1.4-10.4 2.1-3.2.7-6.1 1.4-8.6 2-2.6.6-4.8 1.2-6.8 1.7s-3.6 1-4.9 1.3c-2.6.7-4 1.1-4 1.1s1.3-.4 3.9-1.3c1.3-.4 2.9-1 4.8-1.6 1.9-.6 4.2-1.3 6.7-2 10.2-3 25.3-6.9 45-9.9 19.6-3 43.9-4.7 71.6-2.9l10.5.8 10.8 1.2c3.6.5 7.4 1 11.1 1.7 1.9.3 3.8.7 5.6 1 .9.2 1.9.3 2.9.5.9.2 1.9.4 2.9.6 15.3 3.1 31.2 7.3 47.4 12.9 16.2 5.6 32.6 12.7 49.1 21.1 1 .5 2.1 1 3.1 1.6 1 .6 2 1.1 3.1 1.7 2 1.1 4.1 2.2 6.2 3.3 4.1 2.3 8.2 4.7 12.4 7.1l6 3.7 3 1.9.7.4.4.3.4.2 1.5 1c2 1.3 4.1 2.7 6.1 4.1 2 1.4 4.1 2.8 6 4.2 32.1 22.9 61.5 53.5 84.8 89.8 23.2 36.3 40.1 78.3 49.6 122.4 2.4 11 4.4 22.2 5.8 33.5 1.4 11.3 2.5 22.6 3 34 1 22.8.3 45.8-2.5 68.6-1.4 11.4-3.3 22.7-5.8 34-2.5 11.2-5.5 22.3-9 33.2-3.5 10.9-7.6 21.6-12.2 32-4.6 10.4-9.6 20.6-15 30.5-21.9 39.5-50.8 74.2-83.1 102.3-8.1 7-16.3 13.8-24.8 20l-3.1 2.4-3.2 2.3c-2.1 1.5-4.3 3-6.4 4.6l-6.4 4.3-1.6 1.1-.8.5-.9.6-3.3 2.1c-17.5 11.1-35.6 20.2-53.8 27.6-18.2 7.3-36.5 13-54.5 17.2-18 4.2-35.6 6.9-52.6 8.5-34.1 3.1-65.5 1.4-92.9-2.7-27.4-4.2-50.7-10.8-69.4-17.5-18.7-6.7-32.7-13.5-42.2-18.3-2.4-1.2-4.4-2.3-6.2-3.3-1.8-.9-3.3-1.8-4.5-2.4-2.3-1.5-3.5-2.2-3.5-2.2zM323.2 639.4s-.5-.3-1.6-.8c-1-.5-2.6-1.4-4.6-2.5-3.9-2.3-9.7-5.8-16.6-10.9-6.9-5.1-15-11.6-23.6-19.9-4.3-4.1-8.8-8.7-13.3-13.6-4.5-5-9.1-10.3-13.7-16.1-4.6-5.7-9.2-11.9-13.7-18.4-4.5-6.5-9-13.4-13.4-20.6-8.8-14.4-17.1-30.2-24.5-47.1-3.7-8.4-7.2-17.1-10.5-26.1-3.3-8.9-6.2-18.1-8.8-27.4-1.3-4.7-2.6-9.4-3.7-14.1-1.1-4.8-2.2-9.5-3.2-14.4-1.9-9.6-3.5-19.4-4.5-29.2-.5-4.9-.9-9.8-1.3-14.8l-.4-7.4c-.1-2.4-.2-4.8-.2-7.3-.2-9.9-.1-19.6.2-29.2.8-19.3 2.7-38.3 5.9-56.5.7-4.5 1.7-9 2.5-13.5 1-4.4 1.9-8.8 3-13.1 1-4.3 2.2-8.5 3.3-12.7 1.2-4.2 2.4-8.3 3.7-12.3 2.5-8.1 5.2-15.8 8.1-23.2 2.9-7.4 5.9-14.4 9-21.1 6.1-13.4 12.6-25.2 18.7-35.4s11.9-18.8 16.9-25.7c1.2-1.7 2.4-3.4 3.5-4.9 1.2-1.5 2.2-2.9 3.2-4.2 1-1.3 1.9-2.5 2.8-3.6.9-1.1 1.7-2.1 2.4-3 2.9-3.5 4.4-5.4 4.4-5.4s-1.3 2-3.9 5.8c-.6.9-1.3 2-2.1 3.2-.7 1.2-1.6 2.5-2.5 3.9-1.8 2.8-3.8 6-6 9.6-4.4 7.2-9.5 16.2-14.9 26.6-5.4 10.5-11 22.5-16.4 35.9-2.7 6.7-5.3 13.8-7.8 21.1-2.4 7.4-4.9 15-7 23-1.1 4-2.1 8-3.2 12.1-.9 4.1-2 8.3-2.8 12.5-1.8 8.5-3.3 17.2-4.6 26.1-2.6 17.8-4.2 36.3-4.7 55.2-.3 9.4-.2 19 .1 28.5l.3 7.2c.1 2.3.2 4.7.4 7.1.3 4.7.7 9.5 1.3 14.2 1.1 9.5 2.5 18.9 4.3 28.2 1.8 9.3 4 18.6 6.5 27.7 4.9 18.2 11 35.8 17.9 52.4 3.4 8.3 7.1 16.4 10.8 24.2 3.7 7.8 7.6 15.3 11.7 22.6 4 7.2 8.1 14.1 12.3 20.7 4.1 6.6 8.3 12.8 12.5 18.7 4.2 5.9 8.4 11.3 12.6 16.5 4.1 5.1 8.2 9.9 12.1 14.2 7.9 8.7 15.4 15.8 21.7 21.3 6.4 5.5 11.7 9.5 15.4 12.2 1.8 1.3 3.3 2.3 4.3 3 1.2.4 1.7.7 1.7.7zM1051 356.7s.3 1.1.8 3.2c.3 1.1.5 2.4.9 4 .3 1.6.7 3.4 1 5.5 1.4 8.4 2.6 20.9 2.2 36.8-.4 15.9-2.4 35.2-6.7 57-2.2 10.9-4.9 22.4-8.3 34.4-1.7 6-3.6 12.1-5.6 18.3-1 3.1-2.1 6.2-3.2 9.4-1.2 3.1-2.3 6.3-3.5 9.5-9.6 25.6-22.1 52.6-38 79.7-15.9 27-35 54.3-57.6 80.1-11.3 12.9-23.4 25.5-36.3 37.6-12.9 12-26.5 23.7-40.9 34.5-3.6 2.7-7.2 5.4-10.9 8l-2.8 2-1.4 1-1.4 1-5.5 3.8c-1.8 1.3-3.8 2.5-5.7 3.8-1.9 1.2-3.8 2.5-5.8 3.7-3.9 2.4-7.8 4.8-11.7 7.1-15.8 9.3-32.2 17.5-49 24.8-8.4 3.6-16.9 7-25.5 10.2-8.6 3.2-17.3 6-26 8.8-17.4 5.3-35.1 9.8-52.7 13.4-35.3 7.2-70.7 10.6-104.9 11.4-34.2.7-67.4-1.6-98.4-6.2-15.5-2.3-30.5-5.1-44.9-8.4-14.4-3.3-28.1-7.1-41.2-11.2-13-4.1-25.4-8.4-37-13.1-11.6-4.6-22.3-9.4-32.3-14.3-10-4.8-19.2-9.6-27.5-14.5-4.2-2.3-8.1-4.8-11.9-7-3.7-2.3-7.3-4.6-10.6-6.7-3.3-2.2-6.5-4.3-9.3-6.3-2.9-2.1-5.6-3.9-8.1-5.8-2.5-1.8-4.8-3.6-6.8-5.1-2.1-1.6-3.9-3.1-5.6-4.4-.8-.7-1.6-1.3-2.4-1.9-.7-.6-1.4-1.2-2-1.7-1.2-1-2.3-1.9-3.1-2.6-1.7-1.4-2.6-2.1-2.6-2.1s.9.7 2.7 2c.9.7 2 1.5 3.3 2.4.6.5 1.3 1 2.1 1.6.8.5 1.6 1.1 2.4 1.7 6.9 5 17.2 11.9 30.7 20.1 3.4 2 7 4.1 10.8 6.2 3.8 2.1 7.8 4.3 12.1 6.5 4.2 2.2 8.7 4.4 13.3 6.7 4.6 2.2 9.4 4.5 14.5 6.7 20.1 8.9 43.4 17.5 69.3 24.9 13 3.7 26.6 7 40.9 9.9 14.2 2.9 29.1 5.4 44.4 7.4 15.3 2 31.1 3.3 47.3 4.1 16.2.7 32.8 1 49.6.5 16.8-.6 33.9-1.8 51.1-3.8 4.3-.5 8.6-1.1 12.9-1.7 4.3-.7 8.6-1.2 12.9-2l6.5-1.1 6.5-1.2c4.3-.8 8.6-1.7 13-2.5 17.3-3.6 34.5-8 51.5-13.3 17-5.3 33.8-11.5 50.2-18.6 16.4-7.1 32.5-15 47.8-24 3.9-2.2 7.6-4.5 11.4-6.8l5.6-3.5c1.9-1.2 3.7-2.3 5.5-3.6l5.6-3.8 1.3-.9 1.4-1 2.7-1.9c3.6-2.5 7.2-5.2 10.7-7.8 3.5-2.6 7-5.4 10.5-8.1 3.4-2.8 6.9-5.5 10.2-8.3 6.8-5.5 13.3-11.3 19.7-17.1 12.7-11.7 24.8-23.8 35.9-36.4 22.4-25 41.7-51.4 57.9-77.7 8-13.2 15.3-26.3 21.9-39.3 6.6-13 12.4-25.8 17.4-38.3 10.1-25 17.5-48.7 22.6-70.1 5-21.4 7.8-40.4 8.8-56.1 1-15.7.6-28.2-.4-36.6-.2-2.1-.5-4-.7-5.6-.3-1.6-.5-2.9-.7-4-.7-2.2-.9-3.3-.9-3.3zM785.3 683.3s-1.6 1-4.7 2.9c-1.6 1-3.5 2.1-5.8 3.4-2.3 1.3-5 2.9-8.2 4.6-12.4 6.8-30.9 16.3-55.7 25.7-24.7 9.4-55.5 18.9-91.9 25.2-18.2 3.1-37.7 5.5-58.4 6.6-5.2.3-10.4.4-15.7.6-5.3 0-10.7.1-16.1 0-5.4 0-10.9-.3-16.5-.5-5.6-.4-11.2-.6-16.9-1.2-5.7-.4-11.4-1.1-17.2-1.8l-8.7-1.2-2.2-.3-2.2-.4-4.3-.7-4.4-.7c-1.5-.3-2.9-.6-4.4-.8-2.9-.6-5.9-1.1-8.9-1.7l-8.9-1.9c-3-.7-5.9-1.4-8.9-2.2-23.8-6-48-14.5-71.7-25.7-23.7-11.2-46.9-25.2-68.7-42-10.9-8.4-21.5-17.5-31.6-27.3-10.1-9.8-19.8-20.2-28.9-31.3-18.3-22.1-34.4-46.4-48.1-72.6-6.9-13-13-26.6-18.6-40.4-2.7-6.9-5.4-13.9-7.8-21-2.4-7.1-4.6-14.2-6.7-21.5-8.3-28.9-13.7-58.9-15.8-89.3-.5-7.6-.9-15.2-.9-22.9v-11.5l.1-5.7.2-5.7c.5-15.2 1.6-30.4 3.3-45.6 3.6-30.3 9.9-60.3 19.4-89.3 9.5-28.9 22.2-56.7 38.1-82.4 4-6.4 8.1-12.7 12.4-18.8 4.3-6.1 8.8-12.1 13.5-18 2.3-2.9 4.7-5.8 7.1-8.6l7.4-8.4c5-5.5 10.2-10.8 15.4-16 5.3-5.2 10.7-10.1 16.2-15 5.6-4.8 11.2-9.5 16.9-13.9 11.5-9 23.4-17.2 35.5-24.7 12.1-7.6 24.5-14.5 37-20.8 12.5-6.3 25.2-12.1 37.9-17.1 12.8-5.1 25.7-9.5 38.6-13.2 12.9-3.7 25.9-6.7 38.8-9 25.8-4.7 51.3-6.8 75.9-6.7 24.6.1 48.3 2.5 70.8 6.4 22.4 4 43.6 9.5 63.3 16.1 19.6 6.7 37.8 14.3 54.3 22.5 33.1 16.4 59.7 34.9 80.1 51.6 20.5 16.7 34.8 31.9 44.2 42.5 2.3 2.7 4.4 5 6.1 7.1 1.7 2.1 3.2 3.8 4.3 5.2 2.3 2.8 3.5 4.3 3.5 4.3l-3.6-4.2c-1.2-1.4-2.7-3.1-4.5-5.1-1.8-2-3.9-4.3-6.3-6.9-9.7-10.3-24.5-24.9-45.2-41-5.2-4.1-10.8-8.1-16.7-12.3-6-4.1-12.3-8.4-19-12.5-6.7-4.2-13.8-8.4-21.3-12.5s-15.4-8.1-23.6-12c-16.5-7.8-34.6-15-54.2-21.1-19.4-5.9-40.4-11.1-62.5-14.6-44.2-7.1-93.5-7.5-143.8 2.3-12.6 2.4-25.2 5.5-37.8 9.3-12.6 3.8-25.2 8.2-37.5 13.3-24.8 10.3-49.5 22.8-73.1 37.8-11.8 7.4-23.4 15.5-34.5 24.3-5.6 4.4-11 9-16.4 13.6-5.3 4.7-10.6 9.6-15.6 14.6-5.1 5.1-10.1 10.2-14.8 15.6l-7.1 8.1c-2.3 2.8-4.6 5.5-6.9 8.4-4.5 5.6-8.9 11.5-13 17.4-4.2 5.9-8.2 12-12 18.3-15.3 24.9-27.5 51.9-36.7 80-9.2 28.1-15.2 57.4-18.7 87-1.8 14.8-2.8 29.7-3.4 44.6l-.2 5.6-.1 5.6v11.2c0 7.4.3 14.8.8 22.2 2 29.5 7.2 58.7 15.2 86.9 8 28.2 18.6 55.4 31.8 80.9 13.1 25.5 28.7 49.4 46.3 71 17.7 21.6 37.3 40.9 58.4 57.5s43.5 30.6 66.5 41.8c23 11.2 46.6 19.7 69.9 26l8.7 2.3c2.9.7 5.8 1.4 8.7 2 2.9.7 5.8 1.2 8.6 1.8l4.3.9c1.5.3 2.9.5 4.3.8l4.3.8 2.2.4 2.1.3c2.9.4 5.7.9 8.5 1.3 5.7.7 11.3 1.5 16.9 2 44.7 4.5 86.2 2.3 122.3-3.3 36.2-5.6 67.1-14.2 91.8-23 24.8-8.8 43.6-17.6 56.2-24.1 3.2-1.6 5.9-3.1 8.3-4.3 2.4-1.3 4.4-2.4 5.9-3.3 3.3-1.7 5-2.6 5-2.6zM907.3 132.3s1.1 1.9 3.1 5.6c1 1.8 2.3 4.1 3.7 6.7.7 1.3 1.5 2.8 2.4 4.3.9 1.5 1.6 3.2 2.5 4.9 1.7 3.5 3.6 7.4 5.7 11.6 1.1 2.1 2 4.4 3.1 6.7 1 2.3 2.1 4.8 3.1 7.3 1.1 2.5 2.3 5.1 3.3 7.8s2.1 5.5 3.2 8.3c1.1 2.9 2.2 5.8 3.3 8.8 1 3.1 2 6.2 3.1 9.4 1 3.2 2.2 6.4 3.2 9.8 1 3.4 1.9 6.8 2.9 10.3 2.1 7 3.6 14.3 5.5 21.8 1 3.7 1.6 7.6 2.4 11.5.7 3.9 1.6 7.8 2.2 11.8.6 4 1.2 8.1 1.8 12.2l.4 3.1c.2 1 .3 2.1.4 3.1l.6 6.3c1.9 16.8 2.5 34.3 2.1 52.1-.2 4.4-.3 8.9-.5 13.4l-1 13.4-.3 3.4c-.1 1.1-.3 2.2-.4 3.4l-.8 6.7-.8 6.7-1 6.7c-2.7 17.9-6.8 35.5-11.9 52.5-4.9 17.1-11.2 33.5-18.1 48.9l-2.6 5.7c-.9 1.9-1.7 3.8-2.7 5.7-1.9 3.7-3.7 7.4-5.6 11l-1.4 2.7c-.5.9-1 1.8-1.5 2.6l-3 5.2c-2 3.4-3.8 6.9-6 10.1-2.1 3.3-4.1 6.5-6.1 9.7l-3.1 4.7c-1.1 1.5-2.1 3-3.1 4.5s-2.1 3-3.1 4.4l-1.5 2.2-1.6 2.1c-2.1 2.8-4.2 5.5-6.3 8.2-1 1.3-2 2.7-3.1 3.9-1.1 1.3-2.1 2.5-3.1 3.8-2.1 2.5-4.1 4.9-6.1 7.2-1 1.2-2 2.3-3 3.4s-2 2.2-3 3.2c-2 2.1-3.9 4.2-5.7 6.2-.9 1-1.9 2-2.8 2.9l-2.8 2.7c-1.8 1.8-3.6 3.5-5.2 5.2l-2.5 2.4c-.8.8-1.7 1.5-2.5 2.2-1.6 1.4-3.1 2.8-4.6 4.1-5.7 5.3-10.6 9-13.9 11.7-3.3 2.6-5 4-5 4l4.5-4.5c3-3 7.4-7.2 12.7-12.9 1.3-1.4 2.7-2.9 4.2-4.5.7-.8 1.5-1.6 2.3-2.4.7-.8 1.5-1.7 2.3-2.6 3-3.6 6.4-7.3 9.9-11.4 1.7-2.1 3.4-4.3 5.2-6.5l2.7-3.4c.9-1.1 1.9-2.3 2.7-3.5 1.8-2.4 3.6-4.9 5.5-7.5.9-1.3 1.9-2.6 2.9-3.9 1-1.3 1.9-2.7 2.8-4 1.9-2.7 3.8-5.5 5.7-8.4l1.5-2.1 1.4-2.2 2.8-4.5c.9-1.5 1.9-3 2.9-4.6 1-1.5 2-3.1 2.9-4.7 1.8-3.2 3.7-6.4 5.6-9.7 7.3-13.3 14.5-27.5 20.7-42.8l2.4-5.7 2.2-5.8 2.2-5.9 2.2-5.9 4-12.1c.7-2 1.3-4.1 1.9-6.2l1.8-6.2c4.6-16.6 8.7-33.8 11.2-51.1.3-2.2.8-4.3 1-6.5l.8-6.5.8-6.5.4-3.3.3-3.3c.4-4.4.7-8.7 1.1-13l.6-13c.1-2.2.2-4.3.2-6.5v-16l-.1-3.2c-.1-4.2-.3-8.5-.4-12.6 0-2.1-.2-4.2-.4-6.2l-.5-6.2c-.4-8.2-1.6-16.3-2.4-24.2-.5-3.9-1.1-7.8-1.7-11.7-.6-3.8-1.1-7.7-1.9-11.4-1.5-7.4-2.7-14.7-4.5-21.6-.8-3.5-1.6-6.9-2.3-10.3-.8-3.3-1.8-6.6-2.6-9.8-.9-3.2-1.7-6.3-2.6-9.4-.9-3-1.9-6-2.8-8.9-.9-2.9-1.8-5.7-2.6-8.5-.9-2.7-1.9-5.3-2.7-7.9-.9-2.5-1.8-5-2.6-7.4-.8-2.4-1.6-4.7-2.5-6.9-1.7-4.4-3.3-8.4-4.7-12-1.4-3.6-2.8-6.8-4-9.6-1.2-2.8-2.2-5.2-3-7.1-1.4-3.6-2.3-5.7-2.3-5.7zM85 362.2s-.1-.6-.2-1.6c-.1-1.1-.3-2.7-.4-4.7-.3-4.2-.8-10.3-.9-18.1-.1-7.8-.1-17.3.5-28.2.5-10.9 1.6-23.2 3.3-36.5 1.7-13.3 4-27.7 7.3-42.8 1.6-7.5 3.4-15.3 5.4-23.1 2-7.8 4.2-15.8 6.7-23.9 2.5-8.1 5.1-16.2 8.1-24.3 1.4-4.1 3-8.2 4.5-12.3 1.6-4.1 3.2-8.2 5-12.3 6.8-16.4 14.6-32.6 23.3-48.4 4.4-7.9 9-15.6 13.8-23.2 4.8-7.6 9.8-15 15.1-22.1 2.6-3.6 5.3-7.1 8-10.6 1.4-1.7 2.8-3.4 4.1-5.1 1.4-1.7 2.7-3.4 4.2-5.1l4.2-5 4.3-4.8c2.8-3.2 5.8-6.3 8.7-9.4 11.7-12.3 24-23.1 36.1-32.7 6.1-4.8 12.1-9.3 18.1-13.4 3-2.1 6-4 9-5.9 2.9-1.9 5.9-3.6 8.8-5.4 5.8-3.4 11.4-6.6 16.9-9.4 1.4-.7 2.7-1.4 4-2.1l4-1.9c2.6-1.2 5.1-2.5 7.7-3.6 2.5-1.1 4.9-2.2 7.2-3.2 2.4-1 4.6-1.9 6.8-2.7 1.1-.4 2.2-.9 3.2-1.3 1.1-.4 2.1-.8 3.1-1.1 2-.7 4-1.4 5.8-2.1 3.7-1.3 7-2.3 9.9-3.3 2.9-1 5.4-1.6 7.4-2.2 4-1.1 6.2-1.7 6.2-1.7s-2.1.8-5.9 2.4c-3.9 1.5-9.5 3.9-16.6 7-1.8.8-3.6 1.7-5.6 2.6l-3 1.4c-1 .5-2 1-3.1 1.5-2.1 1-4.3 2.1-6.5 3.2-2.2 1.2-4.5 2.4-6.9 3.7-2.4 1.2-4.8 2.6-7.3 4-1.2.7-2.5 1.4-3.8 2.2-1.3.7-2.5 1.5-3.8 2.3-5.2 3.1-10.5 6.5-16 10.2-2.7 1.9-5.5 3.7-8.3 5.8-2.8 2.1-5.6 4-8.4 6.2-5.6 4.3-11.4 8.9-17.1 13.8l-4.3 3.7c-1.4 1.3-2.8 2.6-4.3 3.9-1.4 1.3-2.9 2.6-4.3 4s-2.8 2.7-4.3 4.1l-2.1 2.1-2.1 2.1-4.3 4.3c-1.4 1.4-2.8 2.9-4.2 4.4l-4.2 4.5c-2.7 3.1-5.5 6.1-8.2 9.3-1.3 1.6-2.7 3.2-4.1 4.8l-4 4.9c-5.3 6.6-10.5 13.4-15.5 20.5-10 14.1-19.3 29-27.9 44.4-8.5 15.4-16.2 31.2-23.1 47.1-6.9 15.9-12.9 31.9-18.2 47.6-2.7 7.8-5 15.6-7.3 23.2-2.2 7.6-4.3 15.2-6.2 22.5-1.9 7.4-3.5 14.6-5.1 21.5-1.6 7-2.9 13.8-4.1 20.3-1.2 6.5-2.2 12.8-3.2 18.8-.5 3-.9 5.9-1.3 8.7-.4 2.8-.8 5.6-1.1 8.3-1.3 10.7-2.2 20.1-2.7 27.9-.5 7.8-.8 13.9-.8 18v6.3zM665.8-103.7s1.9.5 5.6 1.4c1.8.5 4.1 1 6.8 1.8 2.7.7 5.8 1.6 9.4 2.6 7.1 2 15.7 4.8 25.8 8.3 10.1 3.5 21.5 7.9 34.1 13.5 25.1 11.1 54.8 26.9 85.7 49.7 15.4 11.5 31 24.7 46.4 39.8 15.3 15.1 30.3 32.2 44.3 51.3 14.1 19 27.1 40.1 38.6 62.9 5.8 11.4 11.1 23.2 16.1 35.5 4.9 12.2 9.4 24.9 13.4 37.9s7.4 26.3 10.3 40c2.9 13.6 5.2 27.6 6.9 41.7 3.4 28.3 4.3 57.6 2.4 87.2s-6.5 59.6-14.3 89.2c-7.7 29.6-18.5 58.8-32.3 86.8-13.8 28-30.7 54.8-50.3 79.6-19.7 24.8-42.1 47.5-66.7 67.6-6.1 5.1-12.5 9.8-18.8 14.6-3.2 2.3-6.4 4.7-9.7 6.9l-4.9 3.4-4.9 3.2-4.9 3.2c-1.6 1.1-3.3 2.1-5 3.2-3.4 2.1-6.7 4.3-10.1 6.3-6.7 4.1-13.6 8-20.5 11.8-27.6 15.2-56.5 28-86.1 38-29.6 10-59.8 17.2-90.2 21.4-30.3 4.2-60.7 5.4-90.4 3.8-29.7-1.6-58.8-6-86.6-12.8-13.9-3.4-27.5-7.4-40.7-12-13.2-4.6-26.1-9.8-38.5-15.4-24.8-11.3-48-24.6-68.9-39.5-10.5-7.5-20.4-15.3-29.7-23.5s-18.1-16.8-26.1-25.6c-2-2.2-4-4.3-5.9-6.5-2-2.2-3.9-4.4-5.8-6.6-3.8-4.4-7.5-8.7-11.2-13.1-7.2-8.7-14.1-17.4-20.4-26.2-6.4-8.8-12.3-17.5-17.8-26.1-5.5-8.7-10.5-17.3-15.1-25.7-9.2-17-16.5-33.5-22.5-49.1-6-15.6-10.3-30.3-13.7-43.6-.8-3.4-1.7-6.6-2.4-9.8-.7-3.2-1.4-6.3-2-9.3-.6-3-1.1-5.9-1.7-8.8-.5-2.8-.9-5.6-1.4-8.2l-.6-3.9c-.2-1.3-.4-2.5-.5-3.7-.3-2.4-.7-4.8-1-7-.5-4.5-1-8.6-1.4-12.2-.3-3.7-.6-6.9-.8-9.7-.2-2.8-.3-5.2-.5-7-.2-3.8-.4-5.7-.4-5.7s.2 1.9.7 5.7c.3 1.9.5 4.2.9 7s.9 6 1.4 9.6c.6 3.6 1.3 7.7 2.1 12.1.4 2.2.9 4.5 1.3 6.9.2 1.2.5 2.4.7 3.7.3 1.2.6 2.5.8 3.8 2.2 10.4 5.2 22.2 9.1 35.3 7.9 26.1 19.9 57.1 39 89.8 4.7 8.2 9.9 16.5 15.5 24.8s11.6 16.7 18.1 25.2c12.9 16.9 27.4 33.9 43.4 50.8 2 2.2 4 4.2 6 6.3 2 2.1 4.1 4.2 6.2 6.2 2.1 2.1 4.3 4.1 6.5 6.1s4.4 4 6.7 6c9.1 7.9 18.7 15.5 28.9 22.7 10.2 7.2 20.9 14.1 32.1 20.5 11.2 6.4 22.9 12.4 35 17.8 12.1 5.5 24.6 10.5 37.5 14.9 12.9 4.4 26.2 8.3 39.7 11.7 27.1 6.6 55.5 10.9 84.4 12.4 57.9 3 118.4-5 176.2-24.6 28.9-9.7 57.1-22.2 84.2-37.1 6.8-3.7 13.5-7.6 20.1-11.6 3.4-2 6.6-4 9.9-6.1 1.6-1 3.3-2 4.9-3.1l4.9-3.2 4.9-3.2 4.7-3.2 9.5-6.7c6.2-4.6 12.4-9.3 18.4-14.2 24-19.5 46-41.5 65.3-65.6 19.3-24.1 35.9-50.1 49.5-77.4 27.3-54.6 42.7-113.8 46.8-171.9 4.3-58.1-2.7-114.9-17.7-166.1-3.8-12.8-8-25.3-12.7-37.4-4.7-12.1-9.9-23.8-15.4-35.1-11-22.8-23.6-43.7-37.2-62.7-13.6-19-28.1-36.1-43-51.3-14.9-15.3-30.2-28.6-45.3-40.2-30.2-23.2-59.4-39.5-84.2-51-24.8-11.6-45.3-18.6-59.2-23-3.5-1.1-6.6-2-9.3-2.8-2.7-.8-5-1.4-6.8-1.9-3.7-1-5.6-1.5-5.6-1.5zM171.2-27s-2.3 2.3-6.3 6.8-9.7 11.3-16.6 20.2c-6.9 8.9-14.8 20-23.3 33.2-4.2 6.6-8.6 13.7-13 21.3-4.4 7.6-8.9 15.6-13.3 24.2-4.4 8.5-8.8 17.5-13.1 27-4.3 9.4-8.5 19.3-12.5 29.5s-7.8 20.9-11.3 31.9c-3.5 11-6.9 22.3-9.9 33.9-6 23.2-10.6 47.5-13.8 72.5-3.2 24.9-4.7 50.5-4.6 76 0 12.8.5 25.5 1.3 38.2.2 3.2.4 6.3.7 9.5l.8 9.5c.3 3.1.6 6.3 1 9.4.4 3.1.8 6.3 1.1 9.4 3.2 24.9 7.9 49.3 14 72.4 1.5 5.8 3.1 11.5 4.8 17.1.9 2.8 1.7 5.6 2.5 8.4l2.6 8.3c3.6 11 7.5 21.6 11.5 31.8 8.1 20.4 16.9 39.3 25.9 56.3s18 32.2 26.6 45.2c8.6 13.1 16.6 24.2 23.5 33.1 6.9 8.9 12.6 15.7 16.6 20.2 4 4.5 6.3 6.8 6.3 6.8s-2.4-2.1-6.8-6.4c-4.3-4.3-10.5-10.6-17.9-19.2-7.4-8.5-16.1-19.2-25.4-32-9.2-12.8-19.2-27.6-28.8-44.5-9.7-16.9-19.4-35.6-28.2-56.2-4.4-10.3-8.6-21-12.6-32-1-2.8-2-5.5-2.9-8.4-1-2.8-1.9-5.6-2.8-8.5-1.8-5.7-3.5-11.5-5.2-17.4-6.6-23.5-11.9-48.2-15.4-73.6l-1.2-9.6c-.4-3.2-.7-6.4-1.1-9.7l-.9-9.6-.7-9.7c-.9-12.9-1.3-26-1.4-39-.1-26 1.7-52.1 5-77.5s8.6-50.2 15-73.7c3.3-11.8 6.8-23.2 10.7-34.3 3.9-11.1 8-21.8 12.4-32.1 4.3-10.3 8.9-20.2 13.5-29.6 4.7-9.4 9.5-18.3 14.3-26.8 4.8-8.5 9.6-16.4 14.4-23.9 4.8-7.4 9.6-14.4 14.2-20.8 9.2-12.9 17.9-23.5 25.3-32.1 7.4-8.6 13.7-14.9 18-19.1 2.2-2.1 3.9-3.7 5.1-4.7 1.3-1.2 1.9-1.7 1.9-1.7zM96.8-18.1s-.6.7-1.6 2c-1.1 1.3-2.7 3.3-4.7 5.9-4.1 5.2-9.9 13-16.9 23.3-1.8 2.5-3.5 5.3-5.4 8.1-1.9 2.9-3.7 5.9-5.7 9.1-3.9 6.4-8 13.3-12.2 20.8-1 1.9-2.1 3.8-3.2 5.7-1 2-2.1 3.9-3.2 6-2.2 4-4.2 8.3-6.5 12.5l-3.2 6.6c-.5 1.1-1.1 2.2-1.6 3.4l-1.6 3.4c-1.1 2.3-2.2 4.6-3.3 7l-3.2 7.2c-1.1 2.4-2.1 4.9-3.2 7.4-1 2.5-2.1 5-3.2 7.5-2 5.1-4.2 10.3-6.1 15.7-4 10.7-7.9 21.8-11.5 33.3-3.7 11.5-7 23.5-10.1 35.8-3.1 12.3-5.7 25-8 38-2.4 13-4.2 26.2-5.6 39.7l-1 10.1-.7 10.2c-.3 3.4-.3 6.8-.5 10.3-.1 1.7-.2 3.4-.2 5.2l-.1 5.2c-.4 13.8-.4 27.8 0 41.8.4 14 1.1 28.1 2.3 42.1.6 7 1.2 14 2 21 .3 3.5.8 7 1.2 10.5.4 3.5.8 7 1.3 10.4 1.8 13.9 4 27.7 6.6 41.3 5.2 27.2 11.7 53.7 19.5 78.9 3.9 12.6 8.2 24.9 12.7 36.7 4.5 11.9 9.3 23.3 14.3 34.3 5 11 10.3 21.5 15.7 31.5 5.4 10 10.9 19.5 16.6 28.4 5.6 8.9 11.3 17.3 17 25.1 5.6 7.8 11.3 15 16.8 21.6 11 13.2 21.4 24.1 30.3 32.7 8.9 8.6 16.3 15 21.4 19.2 5.2 4.2 7.9 6.5 7.9 6.5l-2.1-1.5c-1.4-1-3.5-2.4-6.2-4.4-5.4-3.9-13.2-9.8-22.6-18l-3.6-3.1c-1.2-1.1-2.5-2.2-3.7-3.4-2.6-2.3-5.2-4.8-7.9-7.4-5.4-5.2-11.1-11-16.9-17.5-5.8-6.4-11.9-13.4-18-21.1-6-7.7-12.1-15.9-18.2-24.8-6-8.9-12-18.3-17.9-28.3-5.8-10-11.4-20.6-16.8-31.6-5.4-11.1-10.6-22.6-15.4-34.5-4.8-12-9.3-24.4-13.5-37.1-4.2-12.7-8-25.8-11.5-39.2-3.5-13.4-6.5-27-9.2-40.8-2.7-13.8-5-27.8-6.9-41.9l-1.4-10.6c-.4-3.5-.9-7.1-1.2-10.6-.8-7.1-1.4-14.2-1.9-21.3-2.2-28.5-2.8-57.1-1.8-85.3l.2-5.3.3-5.3c.2-3.5.4-7 .7-10.5.3-3.5.6-7 .9-10.4.3-3.5.7-6.9 1.1-10.3 1.6-13.7 3.6-27.2 6.2-40.4 2.5-13.2 5.5-26 9-38.5 3.4-12.5 7-24.5 11-36.2.5-1.5 1-2.9 1.5-4.3l1.5-4.3 3.1-8.5c2.2-5.6 4.3-11 6.5-16.4 2.2-5.4 4.5-10.5 6.7-15.6l3.4-7.5c1.1-2.5 2.3-4.9 3.5-7.3 4.6-9.7 9.4-18.7 14-27.3 2.4-4.2 4.7-8.4 7-12.4 1.2-2 2.3-4 3.4-5.9 1.2-1.9 2.3-3.8 3.5-5.6 9-14.8 17.8-27.2 25.3-37.1 7.5-9.9 13.8-17.4 18.2-22.4 2.2-2.5 4-4.3 5.1-5.6.9-1.2 1.5-1.9 1.5-1.9z"/></g></svg>