<svg width="73" height="65" viewBox="0 0 73 65" xmlns="http://www.w3.org/2000/svg"><title>Imported Layers 3</title><g fill="none"><path d="M52.424 38.735h-1.624v17.945h1.508v.008h4.667v-1.623h-4.55v-9.162h4.55v-1.623h-4.55v-3.92h4.55v-1.62h-4.55v-.002m18.789 17.939h1.675l-3.93-12.23 3.924-5.7-1.972.003-3.502 4.99v-5.006h-1.623v17.946h1.623v-9.983l.372-.54 3.43 10.52m-11.241-17.942h-1.62v17.945h1.507v.008h4.654v-1.623h-4.541v-9.162h4.537v-1.623h-4.537v-3.92h4.537v-1.62h-4.537v-.002m-22.298.007v.02l-.003-.028h-1.96v-.002h-1.619v17.945h1.623v-10.79h2.132v-.003c1.883-.057 3.4-1.658 3.4-3.57 0-1.97-1.6-3.57-3.57-3.57zm0 5.532v.003h-1.96v-3.92h2.04c1.045.044 1.88.902 1.88 1.957 0 1.083-.878 1.96-1.96 1.96zm-22.918.003h-3.862v-5.545h-1.622v5.545h-1.066v1.623h1.066v10.777h1.622v-10.777h3.862v10.777h1.623v-17.945h-1.623v5.545m17.992-2.046c-.058-1.882-1.66-3.4-3.57-3.4-1.97 0-3.573 1.6-3.573 3.57h.02l-.028.003v10.997h.002c.057 1.883 1.658 3.4 3.57 3.4 1.97 0 3.572-1.6 3.572-3.57h-.02l.027-.004v-10.997zm-3.58 12.96c-1.08 0-1.96-.877-1.96-1.96h-.002v-7.44h.014v-3.47c.043-1.044.9-1.88 1.956-1.88 1.083 0 1.96.88 1.96 1.96h.003v2.424h-.014v8.488c-.043 1.045-.9 1.88-1.956 1.88zm16.218-9.291h2.134v7.414c-.043 1.045-.9 1.88-1.956 1.88-1.083 0-1.96-.88-1.96-1.96h-.002v-7.443h.013v-3.47c.044-1.043.9-1.878 1.956-1.878 1.08 0 1.96.878 1.96 1.96h1.61c.038-1.96-1.602-3.57-3.57-3.57s-3.572 1.6-3.572 3.57h.02l-.028.003v10.996h.002c.057 1.883 1.658 3.4 3.57 3.4 1.97 0 3.57-1.6 3.57-3.57h-.018l.027-.004v-7.33h.006v-1.621h-3.76v1.623m-20.684-3.587c0-1.97-1.602-3.57-3.57-3.57v.018l-.004-.027h-1.958v-.002h-1.623v17.945h1.624v-10.79h1.727c1.007.08 1.812.91 1.795 1.925v8.866h1.61v-8.91c-.02-1.003-.444-1.892-1.118-2.52.915-.65 1.517-1.73 1.517-2.933zm-5.53-1.956h2.04c1.045.043 1.88.9 1.88 1.956 0 1.083-.878 1.96-1.96 1.96v.003h-1.96v-3.92zm-11.437 9.935s.024-1.814-1.026-3.2c-.314-.41-1.027-1.145-1.815-1.646-1.447-.922-2.62-1.345-2.67-3.045h.01c0-1.083.876-1.96 1.96-1.96 1.08 0 1.96.878 1.96 1.96h1.61c.038-1.96-1.602-3.57-3.57-3.57s-3.572 1.6-3.572 3.57h.008c-.073 2.82 2.498 3.606 3.406 4.38 1.878 1.603 2.07 2.62 2.1 3.964.026 1.145.02 2.04.02 2.04-.022 1.707-.712 2.387-1.96 2.375-1.084 0-1.96-.877-1.96-1.96h-.002v-2.91h-1.61v2.985c.005 1.926 1.627 3.497 3.57 3.497 3.864.084 3.572-3.987 3.572-3.987l-.03-2.493" fill="#E7B42B"/><path d="M24.57 57.406c-.102-.21-1.225.134-1.463 2.268-.24 2.134-.366 4.052-1.12 4.832-.756.78 1.086.745 1.455-1.748s.103-3.847 1.086-5.162c.09-.12.04-.19.04-.19" fill="#fff"/><path d="M21.992 65.048c-.126.004-.22-.044-.26-.134-.04-.087-.038-.24.186-.472.654-.675.825-2.27 1.023-4.114l.073-.664c.216-1.93 1.123-2.393 1.423-2.403.1-.002.18.035.214.102.02.033.063.14-.05.29-.67.897-.748 1.838-.856 3.14-.047.574-.1 1.226-.213 1.98-.25 1.69-1.145 2.264-1.54 2.276zm2.45-7.602c-.21.007-1.04.406-1.245 2.238l-.072.664c-.202 1.88-.376 3.5-1.074 4.222-.15.157-.16.246-.15.268l.085.024c.33-.01 1.133-.56 1.364-2.118.11-.75.163-1.397.21-1.97.11-1.33.19-2.294.893-3.234l.035-.09-.046-.005zM21.523 61.572c.102-.137-1.004-.69-.546-2 .458-1.312 2.85-3.574 4.544-3.24 1.697.335 1.632 2.433.847 3.27-.43.458-.715.82-1.393 1.045-.678.226-.602.853.117.774.72-.078 3.52-1.704 3.044-4.45-.477-2.743-4.828-2.16-6.842.294-2.014 2.454-1.054 3.497-.786 3.785.27.287.875.712 1.017.522m6.178 2.765c-.194.027-.413-.172.064-.91.476-.737.69-1.04.998-1.79.31-.75.457-1.33.035-1.205-.422.124-.852 1.157-.53 1.35.32.193-.173.354-.443.07-.326-.34.022-1.63.917-1.992.896-.362.948.196.983.617.09 1.09-1.324 3.765-2.025 3.86" fill="#fff"/><path d="M38.154 59.082c-.296-.51-.79-.254-1.654 1.244-.797 1.382-1.754 2.158-2.477 2.238l-.094.004.03-.023c1.43-1.063 1.84-2.896 1.1-3.202l.002-.01c-1.116-.35-1.832.89-1.904 1.022-.37.596-.418 1.296-.412 1.82 0 .098.02.188.052.27-.49.31-.92.462-1.213.472-.518.016-.16-.977-.16-.977l.013-.072c.102-.28.242-.6.416-.96.66-1.373-.532-1.813-1.333-1.143-1.334 1.117-1.186 1.654-1.974 1.934-.458.162-.365-.416-.365-.416.062-.39.136-.41.217-.766.056-.246.454-.848-.176-.272-.628.576-.906 2.072-.078 2.15.873.083 1.884-1.32 2.442-1.82.558-.498 1.057-.514.292 1.047-.433.884-.382 1.36-.17 1.62l.017.02v.002c.368.44 1.313.397 2.424-.2.46.39 1.556.386 2.442-.44.598-.56.914-1.072 1.406-1.98.99-1.83 1.418-1.115 1.16-1.564zm-4.1 2.314l-.054.054c-.192.198-.383.373-.57.53-.198-.99.726-2.29 1.068-1.75.182.288-.05.725-.442 1.166zM38.21 59.262s-.757.356-.372 1.05c.386.692.9 2.12-.12 2.61-1.168.562-1.815-.626-1.024-1.28.79-.657 1.312-.727 1.335-.375.02.352-.72.27-1.106.88s.74.457.66-.118c-.083-.575-.934-2.063 0-2.672.533-.35.626-.095.626-.095m9.986.788c-.96.47-.896-.804-.896-.804s-.6-.89-.515.702c.094 1.793 1.74.992 2.453.273.334-.337 1.12-1.26 1.66-2.078 1.146-1.735 1.512-.986 1.292-1.456-.25-.535-.827-.363-1.756 1.096-.444.698-1.267 1.794-2.24 2.27zm.883-3.567l.003-.01-.002.01zM52.232 56.87s-.786.29-.463 1.012c.323.724.71 2.193-.347 2.59-1.214.46-1.755-.78-.91-1.365.846-.585 1.372-.61 1.363-.257-.01.352-.74.205-1.177.78-.44.575.698.52.666-.06-.032-.58-.75-2.135.232-2.66.562-.302.634-.04.634-.04m-14.195 4.577s-.918.382-1.044.77.74.373.58-.328c-.163-.7.766.936-.272.863-1.04-.073-.717-1.035.073-1.37.792-.335.677.096.677.096M38.04 60.923l1.265-.532c.717-.3 1.554-.85 1.26-1.353-.294-.503-1.414.547-1.287 1.858s1.2.795 1.49.508c.317-.314.67-.79.872-1.15.357-.632.68-1.127.762-1.232.514-.646 1.282-1.013 1.464-.334 0 0-.075.3-.3.31-.224.006-.693.374-1.2 1.192-.51.817-1.072 2.267-2.223 2.347-.757.053-1.826-.636-1.606-2.118.22-1.482 1.844-2.65 2.586-1.996.934.826-.723 2.77-3.01 3.09l-.116-.595.043.01M42.774 59.614s.303-.362.275-.083c-.03.28-.946 2.29-.498 2.406.448.115 1.66-3.11 2.308-3.093.648.016-.765 2.71.578 2.426 1.343-.285 3.524-4.447 3.187-6.288-.337-1.84-2.697 2.512-1.58 5.625 0 0 .523.095.366-.77-.157-.866-.3-2.32.503-4 .746-1.56-.542 2.57-1.526 3.81-1.086 1.367-.928.553-.652-.72.21-.97-.772-1.55-2.058-.083 0 0-.925.067-.902.77M47.74 57.38s2.092-.577 2.106-.133c.014.444-1.697.788-2.1.893-.405.105-.172-.717-.007-.76m4.035 1.107s1.07-.217 1.432-.81c.363-.593.447.42-.39.863-.835.443-1.05.52-1.505.656l.464-.71m-10.57-25.863h-.015v-.037s-2.86-4.654-3.11-9.157v-.036l.003-.003h-.003v-3.178h-2.542v3.362c-.513 5.68-3.217 9.013-3.217 9.013v.037h-.006v1.274h8.892v-1.274zm-4.4-7.83c.176 1.065.39 2.026.62 2.89h-1.2c.232-.88.437-1.846.577-2.89l.002-.023.003-.004-.002.004v.024zm-.745 3.492h1.528c.216.752.437 1.413.647 1.98h-2.838c.22-.574.448-1.238.662-1.98zm2.408 2.582c.28.696.522 1.203.67 1.493h-4.668c.154-.294.403-.804.69-1.493h3.308zm-1.713-11.533c1.686 0 3.053-1.367 3.053-3.053s-1.367-3.052-3.053-3.052-3.053 1.367-3.053 3.053 1.367 3.054 3.053 3.054m4.935-8.333c2.722 2.722 2.722 7.15 0 9.873l.726.725c3.12-3.12 3.12-8.2 0-11.322l-.726.725m-10.596-.727c-3.12 3.122-3.122 8.2 0 11.323l.725-.725c-2.723-2.722-2.723-7.15 0-9.873l-.726-.725m15.521-4.197c5.437 5.436 5.437 14.282 0 19.72l.725.724c5.837-5.836 5.837-15.334 0-21.17l-.726.725m-20.443-.725c-5.835 5.837-5.835 15.334 0 21.17l.725-.725c-5.436-5.438-5.436-14.284 0-19.72l-.725-.726M52.47.224l-.726.725c8.264 8.264 8.265 21.713 0 29.98l.726.724c8.664-8.665 8.664-22.764 0-31.43m-31.43.001c-8.663 8.666-8.664 22.765 0 31.43l.726-.725c-8.264-8.267-8.264-21.715 0-29.98l-.726-.726" fill="#fff"/><path d="M.028 60.2h18.045v.847h-18.045v-.847zm54.709 0h17.903v.846h-17.904v-.846z" fill="#E7B42B"/></g></svg>