<svg viewBox="0 0 76 76" xmlns="http://www.w3.org/2000/svg" xmlns:sketch="http://www.bohemiancoding.com/sketch/ns"><title>Imported Layers Copy</title><desc>Created with Sketch.</desc><path d="M50.941 76.972m-11.826-76.105c-1.726 0-3.442.121-5.128.363-2.112.298-4.176.789-6.165 1.441-1.989.653-3.902 1.471-5.719 2.423-1.818.953-3.542 2.037-5.161 3.226-.81.594-1.595 1.212-2.357 1.85-.76.64-1.494 1.302-2.206 1.979-.714.675-1.396 1.375-2.061 2.082l-.496.535-.242.269-.24.275c-.317.367-.624.74-.921 1.119-1.187 1.517-2.219 3.123-3.103 4.78-1.771 3.315-2.976 6.809-3.749 10.288-.771 3.483-1.11 6.959-1.096 10.333.018 3.374.391 6.65 1.098 9.747.707 3.096 1.751 6.018 3.132 8.654.689 1.318 1.465 2.561 2.32 3.714.213.289.434.569.656.847.225.275.452.547.686.809l.354.391.357.381.363.375.366.367c1.963 1.939 4.079 3.559 6.236 4.882 2.158 1.325 4.355 2.354 6.501 3.158 2.147.803 4.245 1.381 6.242 1.803 1.998.422 3.896.688 5.668.856 1.773.168 3.42.235 4.929.246l.393.001c1.355 0 2.594-.046 3.712-.115 2.45-.154 4.317-.413 5.568-.616.626-.102 1.098-.192 1.413-.256l.475-.101-.475.099c-.316.062-.788.149-1.414.248-1.252.196-3.119.444-5.569.585-1.036.059-2.176.098-3.415.098l-.686-.004c-1.507-.018-3.152-.093-4.921-.27-1.769-.176-3.662-.452-5.653-.883-1.99-.43-4.079-1.017-6.215-1.826-2.134-.81-4.318-1.844-6.459-3.172-2.141-1.326-4.238-2.945-6.181-4.881l-.362-.366-.358-.373-.355-.382-.348-.388c-.231-.261-.454-.532-.676-.805-.219-.276-.436-.555-.646-.842-.841-1.147-1.605-2.383-2.281-3.694-1.356-2.621-2.379-5.525-3.069-8.603-.69-3.079-1.047-6.334-1.051-9.685-.001-3.35.351-6.8 1.129-10.251.78-3.447 1.989-6.903 3.753-10.173.881-1.633 1.904-3.216 3.08-4.707.294-.372.598-.739.911-1.099l.236-.268.242-.268.491-.526c.662-.699 1.34-1.391 2.05-2.057.708-.668 1.437-1.321 2.191-1.953.756-.629 1.535-1.238 2.338-1.823 1.605-1.171 3.312-2.237 5.109-3.171 3.591-1.871 7.565-3.197 11.728-3.772 1.624-.227 3.273-.341 4.934-.341 2.595 0 5.215.278 7.8.835 1.059.229 2.114.5 3.158.822.523.157 1.041.333 1.558.513l.771.283.383.146.386.154c1.019.409 2.028.862 3.02 1.354.497.244.986.504 1.475.768.485.27.969.544 1.443.835 1.903 1.154 3.713 2.49 5.372 4.009 1.66 1.518 3.167 3.22 4.473 5.08 1.308 1.858 2.411 3.874 3.29 5.996.882 2.121 1.537 4.348 1.977 6.628.879 4.563.896 9.332.155 14.017-.373 2.343-.938 4.668-1.709 6.934-.773 2.264-1.748 4.477-3.007 6.528-.313.512-.65 1.014-1.001 1.496l-.272.363-.28.357c-.184.241-.381.471-.572.706-.775.932-1.612 1.816-2.492 2.659-.882.841-1.809 1.639-2.782 2.383-.973.744-1.987 1.438-3.037 2.078l-.196.121-.598.349-.807.45-.821.427-.415.205-.208.102-.21.098c-1.117.526-2.265.995-3.436 1.402-2.342.814-4.783 1.371-7.263 1.66-1.266.148-2.542.221-3.82.221-1.226 0-2.453-.067-3.675-.201-2.495-.274-4.966-.829-7.351-1.651-2.385-.821-4.687-1.9-6.863-3.198-1.087-.648-2.149-1.353-3.169-2.099l-.383-.281-.764-.584-.18-.143-.181-.148c-.479-.4-.934-.832-1.369-1.285-.868-.909-1.652-1.903-2.365-2.947-.713-1.045-1.356-2.141-1.936-3.27-1.158-2.26-2.068-4.652-2.738-7.11-.668-2.459-1.092-4.987-1.244-7.534-.151-2.546-.025-5.112.42-7.626.445-2.512 1.213-4.971 2.317-7.276.552-1.152 1.185-2.266 1.898-3.329.353-.53.735-1.048 1.122-1.568.387-.519.779-1.033 1.178-1.542 1.598-2.032 3.301-3.987 5.213-5.709.957-.858 1.966-1.657 3.037-2.361.535-.352 1.084-.682 1.648-.985.564-.302 1.142-.577 1.732-.825 1.181-.493 2.409-.872 3.665-1.134 1.255-.265 2.536-.416 3.823-.479.495-.024.993-.036 1.488-.036l.445.003.487.01.242.007.243.01.485.022.485.027c1.292.08 2.58.221 3.857.425 2.552.409 5.061 1.078 7.449 2.041 2.388.96 4.652 2.217 6.697 3.758 2.046 1.539 3.869 3.364 5.385 5.41 1.516 2.046 2.724 4.313 3.572 6.702.85 2.388 1.341 4.897 1.463 7.42.123 2.523-.121 5.058-.706 7.508-.146.613-.315 1.22-.502 1.82-.093.301-.194.6-.296.894l-.161.449-.167.437c-.459 1.169-1.008 2.305-1.617 3.405-1.225 2.199-2.706 4.254-4.407 6.097-1.704 1.84-3.633 3.468-5.758 4.775-1.06.657-2.172 1.226-3.315 1.714-1.146.481-2.327.88-3.532 1.178-.3.078-.604.142-.906.209-.304.059-.608.122-.914.17-.305.055-.613.094-.919.139-.308.035-.615.076-.924.101-.308.032-.617.049-.926.07l-.461.02-.23.01-.235.004-.466.007-.461-.005c-.308-.005-.615-.021-.922-.04-2.456-.166-4.87-.775-7.132-1.715-2.263-.94-4.38-2.205-6.288-3.712-1.908-1.507-3.61-3.258-5.043-5.191-1.433-1.933-2.595-4.052-3.412-6.285-.817-2.232-1.284-4.579-1.348-6.928-.067-2.349.268-4.695.962-6.92.346-1.112.78-2.197 1.281-3.247.498-1.051 1.071-2.063 1.711-3.025.643-.96 1.354-1.872 2.139-2.711.391-.421.799-.825 1.223-1.21.425-.384.866-.75 1.321-1.096 1.819-1.386 3.878-2.434 6.042-3.106 2.012-.628 4.113-.929 6.201-.929l.472.005c2.243.048 4.464.442 6.561 1.148 2.097.705 4.075 1.721 5.819 3.02 1.745 1.297 3.257 2.878 4.412 4.671 1.154 1.793 1.945 3.793 2.315 5.855.378 2.062.339 4.174-.013 6.211-.089.504-.194 1.017-.32 1.516-.125.501-.267.996-.426 1.484-.317.977-.702 1.927-1.159 2.837-.456.91-.978 1.781-1.574 2.594-.595.813-1.259 1.57-1.987 2.252-1.457 1.362-3.182 2.413-5.042 3.035-1.52.518-3.116.749-4.701.749-.353 0-.705-.011-1.055-.034-.964-.059-1.919-.202-2.856-.403-.468-.104-.933-.217-1.391-.35l-.343-.099-.339-.106-.17-.053-.171-.058-.341-.115c-.436-.15-.866-.339-1.281-.551-.415-.212-.818-.449-1.209-.702-.78-.509-1.51-1.086-2.181-1.717-1.342-1.261-2.455-2.735-3.24-4.345-.392-.805-.701-1.642-.919-2.497-.218-.855-.345-1.727-.382-2.597-.019-.435-.015-.871.008-1.302l.021-.322.03-.328.084-.638c.067-.425.155-.845.261-1.26.108-.414.235-.822.379-1.223.577-1.603 1.422-3.086 2.457-4.386 1.036-1.3 2.265-2.419 3.627-3.289 1.361-.87 2.858-1.486 4.396-1.788.765-.151 1.538-.224 2.306-.224.775 0 1.544.075 2.292.219.746.139 1.472.353 2.172.613.351.129.693.276 1.028.428l.505.244.479.26c.631.365 1.213.798 1.735 1.286.523.487.984 1.03 1.384 1.606.4.576.739 1.186 1.021 1.815.28.629.503 1.276.675 1.93.341 1.308.476 2.64.434 3.936-.021.648-.089 1.287-.198 1.912-.111.624-.265 1.233-.463 1.82-.1.293-.211.581-.332.86-.122.281-.255.555-.401.817-.293.527-.641 1.015-1.023 1.464-.383.449-.802.859-1.246 1.228-.444.369-.912.699-1.395.989-1.783 1.068-3.764 1.605-5.633 1.605l-.475-.012c-1.003-.049-1.966-.261-2.836-.612-.436-.173-.846-.387-1.237-.619-.39-.232-.755-.49-1.095-.766-.68-.552-1.258-1.175-1.739-1.826-.482-.651-.867-1.331-1.169-2.01-.302-.679-.519-1.357-.667-2.015-.146-.658-.222-1.297-.241-1.901-.038-1.21.164-2.28.481-3.148.313-.872.743-1.537 1.137-2.026.397-.489.761-.805 1.009-1.007l.166-.131.122-.089.098-.072-.1.07-.124.087-.168.128c-.252.198-.623.507-1.031.992-.203.243-.414.529-.616.865l-.15.261-.145.28c-.092.194-.185.398-.266.617-.334.87-.557 1.949-.538 3.175.008.612.077 1.26.216 1.93.141.669.352 1.361.649 2.055.297.694.68 1.391 1.162 2.063.482.671 1.064 1.316 1.754 1.892.344.288.716.558 1.114.802.397.244.821.467 1.271.647.898.366 1.892.588 2.926.643l.53.014c.868 0 1.758-.113 2.641-.336 1.063-.269 2.119-.698 3.115-1.291.498-.295.98-.633 1.439-1.011.459-.378.892-.799 1.29-1.262.397-.463.759-.967 1.066-1.513.154-.273.292-.556.418-.844.127-.291.242-.585.346-.886.206-.603.366-1.228.482-1.868.114-.64.185-1.296.209-1.96.047-1.328-.086-2.693-.433-4.038-.174-.672-.402-1.339-.688-1.988-.288-.649-.636-1.281-1.049-1.879-.413-.598-.889-1.163-1.432-1.671-.542-.509-1.146-.963-1.802-1.344l-.503-.274-.506-.247c-.348-.16-.699-.312-1.059-.446-.719-.27-1.465-.493-2.236-.64-.788-.155-1.599-.235-2.417-.235-.779 0-1.565.073-2.342.223-1.594.308-3.145.941-4.552 1.835-1.408.894-2.677 2.043-3.747 3.377-1.069 1.335-1.943 2.857-2.544 4.51-.149.413-.282.834-.395 1.262-.111.429-.203.864-.274 1.304l-.09.667-.031.328-.024.338c-.026.449-.031.899-.013 1.351.036.903.164 1.809.388 2.698.223.889.542 1.759.945 2.595.808 1.672 1.954 3.198 3.335 4.504.69.654 1.442 1.251 2.248 1.781.404.264.821.511 1.255.734.434.224.881.423 1.352.586l.341.116.171.058.175.055.35.11.351.103c.469.138.945.255 1.424.363.961.209 1.942.36 2.938.423.377.024.757.039 1.137.039l.363-.005c.502-.013 1.005-.041 1.507-.102.502-.059 1.002-.142 1.499-.25.496-.109.988-.246 1.473-.408 1.942-.641 3.747-1.736 5.264-3.149.759-.707 1.449-1.491 2.067-2.331.618-.84 1.16-1.739 1.632-2.676.473-.937.871-1.914 1.2-2.918.164-.502.312-1.01.441-1.524.131-.515.237-1.029.333-1.559.368-2.098.414-4.285.027-6.428-.379-2.143-1.197-4.227-2.392-6.091-1.195-1.866-2.76-3.508-4.561-4.853-1.801-1.347-3.84-2.399-6-3.132-2.161-.733-4.45-1.145-6.765-1.199l-.537-.006c-2.139 0-4.294.306-6.364.947-1.121.346-2.217.789-3.268 1.325-1.052.535-2.057 1.169-3.002 1.884-.473.358-.93.736-1.371 1.134-.44.399-.863.817-1.269 1.252-.814.869-1.55 1.81-2.215 2.8-.662.992-1.253 2.034-1.767 3.114-.516 1.078-.965 2.193-1.324 3.343-.72 2.298-1.071 4.727-1.005 7.159.063 2.433.543 4.862 1.384 7.167.84 2.307 2.035 4.491 3.507 6.482 1.472 1.991 3.219 3.793 5.179 5.345 1.96 1.552 4.136 2.857 6.47 3.831 2.332.973 4.83 1.609 7.385 1.785.319.021.639.037.959.043l.481.006.477-.007.236-.004.241-.01.482-.021c.319-.021.638-.039.956-.071.319-.025.636-.067.954-.103.317-.046.635-.086.95-.142.317-.05.631-.114.945-.175.313-.069.627-.135.938-.215 1.247-.306 2.468-.718 3.655-1.215 1.183-.504 2.333-1.092 3.428-1.769 2.196-1.348 4.183-3.024 5.935-4.913 1.749-1.893 3.268-3.998 4.527-6.253.626-1.129 1.192-2.296 1.667-3.504l.175-.458.163-.452c.108-.309.211-.615.307-.925.194-.619.368-1.244.519-1.875.605-2.524.859-5.138.734-7.741-.124-2.603-.632-5.193-1.508-7.66-.875-2.467-2.122-4.808-3.687-6.921-1.565-2.113-3.447-3.998-5.555-5.584-2.108-1.588-4.439-2.883-6.891-3.869-2.453-.989-5.024-1.675-7.634-2.094-1.305-.21-2.621-.353-3.939-.435l-.495-.028-.495-.022-.247-.01-.249-.007-.494-.01-.453-.003c-.513 0-1.024.012-1.537.037-1.326.065-2.653.222-3.958.497-1.306.272-2.588.668-3.82 1.183-.615.259-1.218.547-1.806.861-.587.316-1.158.659-1.714 1.024-1.111.731-2.153 1.558-3.137 2.44-1.965 1.77-3.696 3.76-5.312 5.817-.404.515-.8 1.035-1.19 1.559-.39.523-.779 1.051-1.147 1.603-.734 1.097-1.387 2.246-1.956 3.434-1.139 2.377-1.927 4.91-2.382 7.492-.456 2.583-.582 5.214-.426 7.819.157 2.606.593 5.189 1.277 7.7.686 2.51 1.617 4.953 2.805 7.267.595 1.156 1.255 2.28 1.99 3.356.735 1.075 1.546 2.102 2.452 3.049.454.472.931.924 1.437 1.346l.191.157.197.156.765.583.393.287c1.051.766 2.127 1.478 3.24 2.14 2.223 1.322 4.577 2.422 7.018 3.258 2.441.837 4.971 1.402 7.526 1.679 1.235.133 2.475.2 3.713.2 1.324 0 2.647-.077 3.957-.231 2.537-.3 5.032-.873 7.426-1.708 1.197-.418 2.369-.899 3.51-1.438l.214-.1.212-.105.424-.21.838-.437.824-.461.61-.358.2-.124c1.072-.656 2.107-1.367 3.1-2.128.993-.761 1.94-1.579 2.84-2.439.899-.863 1.753-1.768 2.545-2.723.195-.241.397-.477.584-.723l.286-.366.278-.372c.369-.507.711-1.021 1.035-1.55 1.291-2.112 2.281-4.371 3.066-6.678.782-2.309 1.349-4.674 1.723-7.055.374-2.382.548-4.783.522-7.17-.015-1.194-.079-2.384-.197-3.566-.12-1.182-.29-2.356-.516-3.517-.454-2.321-1.127-4.59-2.031-6.751-.902-2.162-2.033-4.218-3.372-6.112-1.337-1.895-2.88-3.629-4.576-5.173-1.695-1.545-3.541-2.9-5.478-4.069-.483-.295-.975-.572-1.468-.845-.496-.267-.994-.53-1.499-.777-1.008-.497-2.029-.953-3.067-1.367l-.386-.153-.392-.149-.786-.286c-.526-.181-1.052-.358-1.584-.517-1.06-.324-2.132-.597-3.209-.826-2.587-.549-5.208-.823-7.804-.823" sketch:type="MSShapeGroup" fill="#fff"/></svg>