<svg width="30" height="25" viewBox="0 0 30 25" xmlns="http://www.w3.org/2000/svg" xmlns:sketch="http://www.bohemiancoding.com/sketch/ns"><title>Twitter_Icon</title><desc>Created with Sketch.</desc><path d="M29.5 3.087c-1.067.488-2.215.82-3.42.967 1.23-.761 2.173-1.965 2.62-3.399-1.153.704-2.428 1.216-3.781 1.492-1.085-1.194-2.633-1.942-4.345-1.942-3.286 0-5.951 2.751-5.951 6.145 0 .482.052.952.153 1.4-4.947-.257-9.331-2.702-12.268-6.419-.511.906-.806 1.96-.806 3.089 0 2.131 1.404 4.01 3.001 5.112-.977-.032-2.343-.308-2.343-.767 0 .027 1.699 5.536 4.422 6.104-.501.138-1.203.214-1.746.214-.383 0-.844-.04-1.207-.111.757 2.44 2.909 4.218 5.515 4.268-2.036 1.649-4.626 2.631-7.412 2.631-.482 0-.968-.029-1.433-.087 2.636 1.744 5.759 2.76 9.119 2.76 10.947 0 16.931-9.362 16.931-17.482 0-.266-.007-.531-.018-.795 1.162-.865 2.17-1.949 2.969-3.181l192.438-33.056" sketch:type="MSShapeGroup" fill="#75BBF1"/></svg>