<svg xmlns="http://www.w3.org/2000/svg" viewBox="0 0 47 41.5" enable-background="new 0 0 47 41.5"><path fill="#E7B42B" d="M33.6 24.5h-1v11.1h3.8v-1h-2.8v-5.7h2.8v-1h-2.8v-2.4h2.8v-1h-2.8zM45.2 35.6h1l-2.4-7.6 2.4-3.5h-1.2l-2.2 3.1v-3.1h-1v11.1h1v-6.2l.3-.3zM38.2 24.5h-1v11.1h3.8v-1h-2.8v-5.7h2.8v-1h-2.8v-2.4h2.8v-1h-2.8zM24.5 24.5h-2.2v11.1h1v-6.7h1.3c1.2 0 2.1-1 2.1-2.2 0-1.2-1-2.2-2.2-2.2zm0 3.4h-1.2v-2.4h1.3c.6 0 1.2.6 1.2 1.2-.1.7-.7 1.2-1.3 1.2zM10.3 27.9h-2.3v-3.4h-1v3.4h-.7v1h.7v6.7h1v-6.7h2.3v6.7h1v-11.1h-1zM21.4 26.7c0-1.2-1-2.1-2.2-2.1-1.2 0-2.2 1-2.2 2.2v6.800000000000001c0 1.2 1 2.1 2.2 2.1 1.2 0 2.2-1 2.2-2.2v-6.800000000000001zm-2.2 8c-.7 0-1.2-.5-1.2-1.2v-6.699999999999999c0-.6.6-1.2 1.2-1.2.7 0 1.2.5 1.2 1.2v6.7c0 .7-.5 1.2-1.2 1.2zM29.2 28.9h1.3v4.6c0 .6-.6 1.2-1.2 1.2-.7 0-1.2-.5-1.2-1.2v-6.699999999999999c0-.6.6-1.2 1.2-1.2.7 0 1.2.5 1.2 1.2h1c0-1.2-1-2.2-2.2-2.2-1.2 0-2.2 1-2.2 2.2v6.800000000000001c0 1.2 1 2.1 2.2 2.1 1.2 0 2.2-1 2.2-2.2v-5.5h-2.3v.9zM16.5 26.7c0-1.2-1-2.2-2.2-2.2h-2.2v11.1h1v-6.7h1.1c.6.1 1.1.6 1.1 1.2v5.5h1v-5.5c0-.6-.3-1.2-.7-1.6.5-.4.9-1 .9-1.8zm-3.4-1.2h1.3c.6 0 1.2.6 1.2 1.2 0 .7-.5 1.2-1.2 1.2h-1.2v-2.4zM6 31.6s0-1.1-.6-2c-.2-.3-.6-.7-1.1-1-.9-.6-1.6-.8-1.6-1.9 0-.7.5-1.2 1.2-1.2s1.2.5 1.2 1.2h1c0-1.2-1-2.2-2.2-2.2-1.2 0-2.2 1-2.2 2.2 0 1.7 1.5 2.2 2.1 2.7 1.2 1 1.3 1.6 1.3 2.4v1.3c0 1.1-.4 1.5-1.2 1.5-.7 0-1.2-.5-1.2-1.2v-1.8h-1v1.8c0 1.2 1 2.2 2.2 2.2 2.3.1 2.1-2.4 2.1-2.4v-1.6z"/><path fill="#fff" d="M16.4 36c-.1-.1-.8.1-.9 1.4-.1 1.3-.2 2.5-.7 3-.5.5.7.5.9-1.1.2-1.5.1-2.4.7-3.2v-.1zM14.8 40.8c-.1 0-.1 0-.2-.1 0-.1 0-.1.1-.3.4-.4.5-1.4.6-2.5v-.4c.1-1.2.7-1.5.9-1.5.1 0 .1 0 .1.1v.2c-.4.6-.5 1.1-.5 1.9l-.1 1.2c-.1 1-.7 1.3-.9 1.4zm1.5-4.7c-.1 0-.6.3-.8 1.4v.4c-.1 1.2-.2 2.2-.7 2.6-.1.1-.1.2-.1.2h.1c.2 0 .7-.3.8-1.3.1-.5.1-.9.1-1.2.1-.9.2-1.5.6-2.1zM14.5 38.6c.1-.1-.6-.4-.3-1.2.3-.8 1.8-2.2 2.8-2 1 .2 1 1.5.5 2-.3.3-.4.5-.9.6-.4.1-.4.5.1.5.4 0 2.2-1.1 1.9-2.7-.3-1.7-3-1.3-4.2.2-1.2 1.5-.7 2.2-.5 2.3.2.2.5.4.6.3zM18.3 40.3c-.1 0-.3-.1 0-.6s.4-.6.6-1.1c.2-.5.3-.8 0-.7-.3.1-.5.7-.3.8.2.1-.1.2-.3 0-.2-.2 0-1 .6-1.2.6-.2.6.1.6.4.1.7-.7 2.4-1.2 2.4zM24.8 37.1c-.2-.3-.5-.2-1 .8-.5.9-1.1 1.3-1.5 1.4h-.1c.9-.7 1.1-1.8.7-2-.7-.2-1.1.5-1.2.6-.2.4-.3.8-.3 1.1v.2c-.3.2-.6.3-.7.3-.3 0-.1-.6-.1-.6.1-.2.1-.4.3-.6.4-.8-.3-1.1-.8-.7-.8.7-.7 1-1.2 1.2-.3.1-.2-.3-.2-.3l.1-.5c0-.2.3-.5-.1-.2-.4.4-.6 1.3 0 1.3.5.1 1.2-.8 1.5-1.1.3-.3.7-.3.2.6-.3.5-.2.8-.1 1 .2.3.8.2 1.5-.1.3.2 1 .2 1.5-.3.4-.3.6-.7.9-1.2.5-1.1.7-.7.6-.9zm-2.6 1.4l-.4.4c-.1-.6.4-1.4.7-1.1.1.2 0 .4-.3.7zM24.8 37.2s-.5.2-.2.6c.2.4.6 1.3-.1 1.6-.7.3-1.1-.4-.6-.8.5-.4.8-.4.8-.2s-.4.2-.7.5c-.2.4.5.3.4-.1-.1-.4-.6-1.3 0-1.6.4-.2.4 0 .4 0zM31 37.7c-.6.3-.6-.5-.6-.5s-.4-.5-.3.4c.1 1.1 1.1.6 1.5.2.2-.2.7-.8 1-1.3.7-1.1.9-.6.8-.9-.2-.3-.5-.2-1.1.7-.2.4-.7 1.1-1.3 1.4zm.5-2.2"/><path fill="#fff" d="M33.5 35.7s-.5.2-.3.6c.2.4.4 1.4-.2 1.6-.7.3-1.1-.5-.6-.8.5-.4.8-.4.8-.2s-.5.1-.7.5c-.3.4.4.3.4 0 0-.4-.5-1.3.1-1.6.4-.3.5-.1.5-.1zM24.7 38.5s-.6.2-.6.5c-.1.2.5.2.4-.2-.1-.4.5.6-.2.5-.6 0-.4-.6 0-.8.5-.2.4 0 .4 0"/><path fill="#fff" d="M24.7 38.2s.3-.1.8-.3c.4-.2 1-.5.8-.8-.2-.3-.9.3-.8 1.1.1.8.7.5.9.3.2-.2.4-.5.5-.7.2-.4.4-.7.5-.8.3-.4.8-.6.9-.2 0 0 0 .2-.2.2-.1 0-.4.2-.7.7-.3.5-.7 1.4-1.4 1.4-.5 0-1.1-.4-1-1.3.1-.9 1.1-1.6 1.6-1.2.6.5-.4 1.7-1.9 1.9v-.3zM27.6 37.4s.2-.2.2-.1c0 .2-.6 1.4-.3 1.5.3.1 1-1.9 1.4-1.9.4 0-.5 1.7.4 1.5.8-.2 2.2-2.7 2-3.9-.2-1.1-1.7 1.6-1 3.5 0 0 .3.1.2-.5-.1-.5-.2-1.4.3-2.5.5-1-.3 1.6-.9 2.3-.7.8-.6.3-.4-.4.1-.6-.5-1-1.3-.1 0 .1-.6.2-.6.6zM30.7 36s1.3-.4 1.3-.1c0 .3-1 .5-1.3.6-.3.1-.1-.5 0-.5zM33.2 36.7s.7-.1.9-.5c.2-.4.3.3-.2.5-.5.3-.6.3-.9.4l.2-.4z"/><g fill="#fff"><path d="M26.7 20.7s-1.8-2.9-1.9-5.7v-2h-1.6v2.1c-.3 3.5-2 5.6-2 5.6v.8h5.5v-.8zm-2.8-4.8c.1.7.2 1.2.4 1.8h-.7c.1-.5.3-1.1.3-1.8zm-.4 2.2h.9c.1.5.3.9.4 1.2h-1.8c.2-.4.4-.8.5-1.2zm1.5 1.6c.2.4.3.7.4.9h-2.9c.1-.2.2-.5.4-.9h2.1z"/><circle cx="23.9" cy="10.7" r="1.9"/><path d="M27 7.4c1.7 1.7 1.7 4.4 0 6.1l.4.4c1.9-1.9 1.9-5.1 0-7l-.4.5zM20.4 7c-1.9 1.9-1.9 5.1 0 7l.4-.4c-1.7-1.7-1.7-4.4 0-6.1l-.4-.5zM30 4.4c3.4 3.4 3.4 8.8 0 12.2l.4.4c3.6-3.6 3.6-9.5 0-13.1l-.4.5zM17.4 3.9c-3.6 3.6-3.6 9.5 0 13.1l.4-.4c-3.4-3.4-3.4-8.8 0-12.2l-.4-.5zM33.6.8l-.4.4c5.1 5.1 5.1 13.4 0 18.5l.4.4c5.4-5.3 5.4-14 0-19.3zM14.2.8c-5.3 5.3-5.3 14 0 19.4l.4-.4c-5.1-5.1-5.1-13.4 0-18.5l-.4-.5z"/></g><path fill="#E7B42B" d="M1.2 37.8h11.1v.5h-11.1zM35 37.8h11v.5h-11z"/></svg>