<svg xmlns="http://www.w3.org/2000/svg" viewBox="0 0 320 81.5" enable-background="new 0 0 320 81.5"><g><path fill="#878787" d="M84.8 27.3l3.2.8c-2 5.2-3 9.9-3 13.9 0 4.7 1 9.6 3 14.7l-3.2.8c-2-5-3.1-10.1-3.1-15.3 0-5.2 1.1-10.2 3.1-14.9zM104.2 43l8.2 10.6h-8.4l-6.4-10h-.1v10h-6.8v-26h10.1c2.7 0 4.9.7 6.5 2 1.7 1.3 2.5 3.3 2.5 6 0 1.9-.5 3.5-1.5 4.8-.9 1.4-2.3 2.3-4.1 2.6zm-6.7-10.2v6.5h.7c3.1 0 4.7-1.1 4.7-3.2 0-2.2-1.6-3.2-4.7-3.2h-.7zM119.3 42.2c0 5.2-1 10.3-3.1 15.3l-3.2-.8c2-5.1 3-10.1 3-14.7 0-4-1-8.7-3-13.9l3.2-.8c2.1 4.7 3.1 9.7 3.1 14.9z"/><path fill="#fff" d="M137.3 33.4h-8v4.3h7.6v5.7h-7.6v4.5h8v5.7h-14.8v-26h14.8v5.8zM145.7 27.7l6.3 15.8 6.3-15.8h7.3l-11.1 26h-5.2l-10.9-26h7.3zM171.5 28.5c2.2-1.1 4.5-1.7 7-1.7s4.8.6 7 1.7 4 2.7 5.3 4.8c1.4 2.1 2 4.4 2 6.9 0 4.2-1.4 7.6-4 10.3-2.7 2.7-6.1 4-10.3 4-4.2 0-7.6-1.3-10.3-4-2.7-2.7-4-6.1-4-10.3 0-2.6.7-4.9 2-6.9 1.4-2.1 3.1-3.7 5.3-4.8zm12.2 6.9c-1.4-1.4-3.2-2.1-5.2-2.1s-3.7.7-5.2 2.1c-1.4 1.4-2.2 3-2.2 4.8 0 2.2.7 4 2.1 5.5 1.4 1.5 3.2 2.2 5.2 2.2s3.8-.7 5.2-2.2c1.4-1.5 2.1-3.3 2.1-5.5.2-1.8-.5-3.4-2-4.8zM201.7 27.7v20.3h8.1v5.7h-14.9v-26h6.8zM226.9 27.7h6.8v14.6c0 2.1-.2 3.9-.5 5.3s-1.1 2.7-2.2 3.8c-2 1.9-4.8 2.9-8.6 2.9s-6.7-1-8.6-2.9c-1.1-1.1-1.9-2.4-2.2-3.8-.3-1.4-.5-3.2-.5-5.3v-14.6h6.8v13.7c0 .8 0 1.5.1 2.1 0 .6.1 1.2.3 1.9.2.7.4 1.2.7 1.7.3.4.8.8 1.4 1.1.6.3 1.3.4 2.1.4s1.5-.1 2.1-.4c.6-.3 1.1-.6 1.4-1.1.3-.4.6-1 .7-1.7.2-.7.3-1.3.3-1.9 0-.6.1-1.2.1-2.1v-13.7zM247.5 33.4v20.3h-6.8v-20.3h-5.6v-5.7h17.9v5.7h-5.5zM261.4 27.7v26h-6.8v-26h6.8zM270.7 28.5c2.2-1.1 4.5-1.7 7-1.7s4.8.6 7 1.7 4 2.7 5.3 4.8c1.4 2.1 2 4.4 2 6.9 0 4.2-1.4 7.6-4 10.3-2.7 2.7-6.1 4-10.3 4-4.2 0-7.6-1.3-10.3-4-2.7-2.7-4-6.1-4-10.3 0-2.6.7-4.9 2-6.9 1.3-2.1 3.1-3.7 5.3-4.8zm12.2 6.9c-1.4-1.4-3.2-2.1-5.2-2.1s-3.7.7-5.2 2.1c-1.4 1.4-2.2 3-2.2 4.8 0 2.2.7 4 2.1 5.5 1.4 1.5 3.2 2.2 5.2 2.2s3.8-.7 5.2-2.2c1.4-1.5 2.1-3.3 2.1-5.5.2-1.8-.6-3.4-2-4.8zM300.8 27.4v15.9h.1l12.4-15.9h6.8v26h-6.8v-15.9h-.1l-12.4 15.9h-6.8v-26h6.8z"/><path fill-rule="evenodd" clip-rule="evenodd" fill="#fff" d="M77.2 39.5l-29.8-8.3-.8-31.2-17 26.2-29.6-8.3 19.3 24.1-17.4 26.3 28.8-11.2 18.8 24.4-1.1-31.3 28.8-10.7z"/></g></svg>