<svg xmlns="http://www.w3.org/2000/svg" viewBox="0 0 595.3 841.9" enable-background="new 0 0 595.3 841.9"><path fill="#E7B42B" d="M402 460.2h-10.5v116h9.7v.1h30.2v-10.5h-29.4v-59.3h29.4v-10.5h-29.4v-25.3h29.4v-10.5h-29.4zM523.4 576.2h10.9l-25.4-79.1 25.4-36.8h-12.8l-22.6 32.2v-32.3h-10.5v116h10.5v-64.5l2.4-3.5zM450.8 460.2h-10.5v116h9.7v.1h30.1v-10.5h-29.3v-59.3h29.3v-10.5h-29.3v-25.3h29.3v-10.5h-29.3zM306.6 460.2v.1-.1l-12.7-.1h-10.5v116h10.5v-69.8h13.8c12.2-.4 22-10.7 22-23.1 0-12.6-10.4-23-23.1-23zm0 35.8h-12.7v-25.3h13.2c6.8.3 12.1 5.8 12.1 12.6.1 7-5.6 12.7-12.6 12.7zM158.4 496h-25v-35.8h-10.5v35.8h-6.8v10.5h6.8v69.7h10.5v-69.7h25v69.7h10.5v-116h-10.5zM274.7 482.8c-.4-12.2-10.7-22-23.1-22-12.7 0-23.1 10.4-23.1 23.1h.1-.2v71.1c.4 12.2 10.7 22 23.1 22 12.7 0 23.1-10.4 23.1-23.1h-.1.2v-71.1zm-23.1 83.8c-7 0-12.7-5.7-12.7-12.7v-48.1h.1v-22.4c.3-6.8 5.8-12.1 12.6-12.1 7 0 12.7 5.7 12.7 12.7v15.7h-.1v54.9c-.2 6.6-5.8 12-12.6 12zM356.4 506.5h13.8v47.9c-.3 6.8-5.8 12.1-12.6 12.1-7 0-12.7-5.7-12.7-12.7v-48.1h.1v-22.4c.3-6.8 5.8-12.1 12.6-12.1 7 0 12.7 5.7 12.7 12.7h10.4c.2-12.7-10.4-23.1-23.1-23.1-12.7 0-23.1 10.4-23.1 23.1h.1-.2v71.1c.4 12.2 10.7 22 23.1 22 12.7 0 23.1-10.4 23.1-23.1h-.1.2v-57.9h-24.3v10.5zM222.7 483.3c0-12.7-10.4-23.1-23.1-23.1v.1-.2h-23.1v116h10.5v-69.8h11.2c6.5.5 11.7 5.9 11.6 12.5v57.3h10.4v-57.6c-.1-6.5-2.9-12.2-7.2-16.3 5.8-4.1 9.7-11.1 9.7-18.9zm-35.7-12.6h13.2c6.8.3 12.1 5.8 12.1 12.6 0 7-5.7 12.7-12.7 12.7h-12.6v-25.3zM113 534.9s.2-11.7-6.6-20.7c-2-2.7-6.6-7.4-11.7-10.6-9.4-6-16.9-8.7-17.3-19.7h.1c0-7 5.7-12.7 12.7-12.7 7 0 12.7 5.7 12.7 12.7h10.4c.2-12.7-10.4-23.1-23.1-23.1-12.7 0-23.1 10.4-23.1 23.1-.5 18.2 16.2 23.3 22 28.3 12.1 10.4 13.4 16.9 13.6 25.6.2 7.4.1 13.2.1 13.2-.1 11-4.6 15.4-12.7 15.4-7 0-12.7-5.7-12.7-12.7v-18.8h-10.4v19.3c0 12.5 10.5 22.6 23.1 22.6 25 .5 23.1-25.8 23.1-25.8l-.2-16.1z"/><path fill="#fff" d="M221.9 580.9c-.7-1.4-7.9.9-9.5 14.7-1.5 13.8-2.4 26.2-7.2 31.2-4.9 5 7 4.8 9.4-11.3 2.4-16.1.7-24.9 7-33.4.6-.8.3-1.2.3-1.2zM205.2 630.3c-.8 0-1.4-.3-1.7-.9-.3-.6-.2-1.5 1.2-3 4.2-4.4 5.3-14.7 6.6-26.6.2-1.4.3-2.8.5-4.3 1.4-12.5 7.3-15.5 9.2-15.5.7 0 1.2.2 1.4.7.1.2.4.9-.3 1.9-4.3 5.8-4.8 11.9-5.5 20.3-.3 3.7-.7 7.9-1.4 12.8-1.7 10.8-7.5 14.5-10 14.6zm15.8-49.1c-1.4 0-6.7 2.6-8 14.5l-.5 4.3c-1.3 12.1-2.4 22.6-6.9 27.3-1 1-1 1.6-1 1.7 0 .1.2.2.6.2 2.1-.1 7.3-3.6 8.8-13.7.7-4.8 1.1-9 1.4-12.7.7-8.6 1.2-14.8 5.8-20.9.3-.4.2-.6.2-.6-.1-.1-.1-.2-.4-.1zM202.2 607.8c.7-.9-6.5-4.5-3.5-12.9 3-8.5 18.4-23.1 29.4-20.9 11 2.2 10.5 15.7 5.5 21.1-2.8 3-4.6 5.3-9 6.8s-3.9 5.5.8 5 22.8-11 19.7-28.8c-3.1-17.7-31.2-14-44.2 1.9-13 15.9-6.8 22.6-5.1 24.5 1.5 1.8 5.4 4.6 6.4 3.3zM242.1 625.7c-1.3.2-2.7-1.1.4-5.9 3.1-4.8 4.5-6.7 6.5-11.6 2-4.9 3-8.6.2-7.8-2.7.8-5.5 7.5-3.4 8.7 2.1 1.2-1.1 2.3-2.9.5-2.1-2.2.1-10.5 5.9-12.9 5.8-2.3 6.1 1.3 6.4 4 .6 7.1-8.5 24.4-13.1 25zM309.7 591.7c-1.9-3.3-5.1-1.6-10.7 8-5.2 8.9-11.3 14-16 14.5h-.6l.2-.1c9.2-6.9 11.9-18.7 7.1-20.7v-.1c-7.2-2.3-11.8 5.8-12.3 6.6-2.4 3.9-2.7 8.4-2.7 11.8 0 .6.1 1.2.3 1.7-3.2 2-5.9 3-7.8 3.1-3.3.1-1-6.3-1-6.3l.1-.5c.7-1.8 1.6-3.9 2.7-6.2 4.3-8.9-3.4-11.7-8.6-7.4-8.6 7.2-7.7 10.7-12.8 12.5-3 1.1-2.4-2.7-2.4-2.7.4-2.5.9-2.7 1.4-5 .4-1.6 2.9-5.5-1.1-1.8-4.1 3.7-5.9 13.4-.5 13.9 5.6.5 12.2-8.5 15.8-11.8 3.6-3.2 6.8-3.3 1.9 6.8-2.8 5.7-2.5 8.8-1.1 10.5l.1.1c2.4 2.8 8.5 2.6 15.7-1.3 3 2.5 10.1 2.5 15.8-2.9 3.9-3.6 5.9-6.9 9.1-12.8 6.3-11.6 9.1-7 7.4-9.9zm-26.5 15c-.1.1-.2.2-.4.3-1.2 1.3-2.5 2.4-3.7 3.4-1.3-6.4 4.7-14.8 6.9-11.3 1.2 1.9-.3 4.7-2.8 7.6zM310.1 592.9s-4.9 2.3-2.4 6.8c2.5 4.5 5.8 13.7-.8 16.9-7.6 3.6-11.7-4-6.6-8.3 5.1-4.2 8.5-4.7 8.6-2.4.1 2.3-4.6 1.7-7.1 5.7-2.5 3.9 4.8 3 4.3-.8-.5-3.7-6-13.3 0-17.3 3.4-2.2 4-.6 4-.6zM374.6 598c-6.2 3-5.8-5.2-5.8-5.2s-3.9-5.7-3.3 4.5c.6 11.6 11.3 6.4 15.9 1.8 2.2-2.2 7.2-8.1 10.7-13.4 7.4-11.2 9.8-6.4 8.4-9.4-1.6-3.5-5.3-2.3-11.4 7.1-2.9 4.4-8.2 11.5-14.5 14.6zm5.7-23.1"/><path fill="#fff" d="M400.7 577.4s-5.1 1.9-3 6.5c2.1 4.7 4.6 14.2-2.2 16.8-7.8 3-11.3-5-5.9-8.8 5.5-3.8 8.9-3.9 8.8-1.7-.1 2.3-4.8 1.3-7.6 5s4.5 3.4 4.3-.4c-.2-3.7-4.9-13.8 1.5-17.2 3.7-1.9 4.1-.2 4.1-.2zM308.9 607s-5.9 2.5-6.8 5c-.8 2.5 4.8 2.4 3.7-2.1-1-4.5 5 6.1-1.8 5.6-6.7-.5-4.6-6.7.5-8.9s4.4.6 4.4.6"/><path fill="#fff" d="M309 603.6s3.5-1.5 8.2-3.4c4.6-1.9 10-5.5 8.1-8.8-1.9-3.3-9.1 3.5-8.3 12 .8 8.5 7.8 5.1 9.6 3.3 2-2 4.3-5.1 5.6-7.4 2.3-4.1 4.4-7.3 4.9-8 3.3-4.2 8.3-6.6 9.5-2.2 0 0-.5 1.9-1.9 2-1.5 0-4.5 2.4-7.8 7.7-3.3 5.3-6.9 14.7-14.4 15.2-4.9.3-11.8-4.1-10.4-13.7 1.4-9.6 11.9-17.1 16.7-12.9 6 5.3-4.7 17.9-19.5 20l-.7-3.8h.4zM339.6 595.2s2-2.3 1.8-.5c-.2 1.8-6.1 14.8-3.2 15.5 2.9.7 10.7-20.1 14.9-20 4.2.1-4.9 17.5 3.7 15.7 8.7-1.8 22.8-28.7 20.6-40.6-2.2-11.9-17.4 16.2-10.2 36.4 0 0 3.4.6 2.4-5s-1.9-15 3.2-25.8c4.8-10.1-3.5 16.6-9.9 24.6-7 8.8-6 3.6-4.2-4.7 1.4-6.3-5-10-13.3-.5 0-.1-6 .3-5.8 4.9zM371.7 580.7s13.5-3.7 13.6-.9c.1 2.9-11 5.1-13.6 5.8-2.6.7-1.1-4.6 0-4.9zM397.8 587.9s6.9-1.4 9.3-5.2c2.3-3.8 2.9 2.7-2.5 5.6-5.4 2.9-6.8 3.4-9.7 4.2l2.9-4.6z"/><g fill="#fff"><path d="M329.4 420.7l-.1-.2s-18.5-30.1-20.1-59.2v-20.900000000000002h-16.4v21.7c-3.3 36.7-20.8 58.3-20.8 58.3v8.399999999999999h57.5v-8.1zm-28.4-50.6c1.1 6.9 2.5 13.1 4 18.7h-7.7c1.4-5.8 2.7-12 3.7-18.7v-.2.2zm-4.8 22.5h9.9c1.4 4.9 2.8 9.1 4.2 12.8h-18.3c1.3-3.7 2.8-8 4.2-12.8zm15.5 16.7c1.8 4.5 3.4 7.8 4.3 9.7h-30.2c1-1.9 2.6-5.2 4.4-9.7h21.5z"/><circle cx="300.6" cy="315" r="19.7"/><path d="M332.6 280.9c17.6 17.6 17.6 46.2 0 63.8l4.7 4.7c20.2-20.2 20.2-53 0-73.2l-4.7 4.7zM264 276.2c-20.2 20.2-20.2 53 0 73.2l4.7-4.7c-17.6-17.6-17.6-46.2 0-63.8l-4.7-4.7zM364.4 249.1c35.2 35.2 35.2 92.3 0 127.5l4.7 4.7c37.7-37.7 37.7-99.1 0-136.9l-4.7 4.7zM232.2 244.4c-37.7 37.7-37.7 99.1 0 136.9l4.7-4.7c-35.2-35.1-35.2-92.3 0-127.5l-4.7-4.7zM402.2 211.2l-4.7 4.7c53.4 53.4 53.4 140.4 0 193.8l4.7 4.7c56.1-56 56.1-147.2 0-203.2zM199 211.2c-56 56-56 147.2 0 203.2l4.7-4.7c-53.4-53.4-53.4-140.4 0-193.8l-4.7-4.7z"/></g><path fill="#E7B42B" d="M63.2 598.9h116.7v5.5h-116.7zM416.9 599h115.8v5.5h-115.8z"/></svg>