<svg width="115" height="79" viewBox="0 0 115 79" xmlns="http://www.w3.org/2000/svg"><title>Group Copy 6</title><g fill="none"><path d="M34.623 58.004c.848 1.01 1.763 1.956 2.735 2.824 1.214 1.09 2.52 2.055 3.882 2.897 1.363.842 2.787 1.557 4.243 2.15 1.456.59 2.945 1.064 4.443 1.422.75.18 1.5.334 2.252.463.752.128 1.504.23 2.254.31.75.084 1.5.137 2.244.176l.56.025.277.01.28.003c.373.004.744 0 1.114-.015 1.48-.056 2.936-.25 4.35-.552 2.83-.607 5.487-1.633 7.923-2.906 2.437-1.275 4.658-2.8 6.645-4.482 1.985-1.684 3.737-3.527 5.22-5.477 1.482-1.95 2.696-4.01 3.575-6.124.44-1.057.793-2.128 1.054-3.2.066-.268.123-.536.178-.804.052-.268.1-.536.14-.803l.058-.402.05-.398.042-.4.037-.396c.18-2.11.097-4.154-.18-6.074-.278-1.92-.75-3.72-1.33-5.374-.58-1.656-1.27-3.172-2.003-4.55-.733-1.38-1.508-2.625-2.28-3.746-.772-1.122-1.542-2.12-2.278-3.01l-.193-.23c-.666-.794-1.302-1.497-1.893-2.117-1.295-1.36-2.366-2.324-3.1-2.956-.37-.316-.654-.548-.847-.7l-.293-.23.292.23c.192.154.476.388.842.706.73.636 1.796 1.607 3.083 2.972.545.578 1.128 1.226 1.737 1.952l.335.404c.73.893 1.494 1.894 2.26 3.018.765 1.124 1.533 2.37 2.257 3.75.723 1.378 1.403 2.893 1.975 4.545.57 1.652 1.033 3.444 1.3 5.357.27 1.91.344 3.943.155 6.04l-.038.395-.045.395-.05.398-.06.396c-.04.265-.09.53-.144.795-.056.264-.114.53-.18.795-.264 1.06-.62 2.122-1.06 3.168-.883 2.094-2.097 4.133-3.576 6.064-1.48 1.93-3.228 3.754-5.206 5.418-1.978 1.66-4.19 3.166-6.612 4.42-2.42 1.253-5.057 2.26-7.856 2.847-1.398.294-2.837.48-4.295.53-.365.012-.73.016-1.097.01l-.274-.004-.278-.01-.552-.026c-.74-.04-1.48-.096-2.223-.18-.743-.084-1.487-.188-2.23-.316-.744-.13-1.487-.285-2.227-.466-1.48-.36-2.95-.83-4.385-1.42-2.87-1.176-5.607-2.846-7.993-5-.932-.838-1.81-1.748-2.627-2.72-1.275-1.52-2.4-3.194-3.34-4.984-.386-.734-.745-1.486-1.068-2.257-.164-.385-.315-.776-.463-1.168l-.213-.592-.102-.297-.1-.302c-.258-.8-.486-1.615-.683-2.44-.1-.41-.187-.827-.27-1.244-.08-.418-.156-.837-.217-1.26-.253-1.686-.354-3.408-.27-5.134.08-1.725.345-3.452.802-5.14.455-1.687 1.104-3.332 1.926-4.9.82-1.567 1.814-3.055 2.945-4.444 2.265-2.778 5.074-5.153 8.207-7.04 1.568-.944 3.22-1.766 4.938-2.44 1.718-.67 3.505-1.195 5.336-1.475.455-.07.918-.122 1.375-.155l.348-.02.35-.014.697-.015c.932-.01 1.866.043 2.796.14.93.1 1.858.247 2.775.448.92.2 1.827.45 2.722.75l.168.054.5.177.662.25.656.268.325.14.163.072.16.074c.86.394 1.702.833 2.518 1.318 1.632.97 3.16 2.122 4.55 3.43.71.67 1.38 1.38 2.01 2.13.6.717 1.165 1.47 1.687 2.25 1.066 1.598 1.952 3.32 2.64 5.126.686 1.805 1.18 3.688 1.483 5.607.15.958.256 1.93.317 2.897l.023.364.03.737.005.176v.178c0 .48-.032.96-.086 1.44-.11.958-.312 1.91-.58 2.846-.266.936-.598 1.856-.98 2.755-.766 1.798-1.733 3.517-2.856 5.128-1.125 1.61-2.41 3.113-3.84 4.464-1.432 1.35-3.01 2.55-4.714 3.535-1.703.985-3.534 1.755-5.44 2.25-.95.248-1.92.43-2.9.54-.486.055-.98.088-1.477.12s-.994.055-1.49.073c-1.986.072-3.978.043-5.936-.223-.98-.135-1.947-.33-2.89-.608-.47-.14-.935-.298-1.39-.478-.457-.18-.904-.383-1.34-.605-.872-.447-1.7-.98-2.472-1.585-.774-.604-1.493-1.28-2.163-2.002-.258-.278-.51-.564-.753-.854l-.217-.262-.233-.29-.115-.145-.114-.148-.225-.295-.222-.298c-.588-.798-1.138-1.622-1.644-2.47-1.013-1.7-1.85-3.5-2.456-5.376-.606-1.875-.976-3.824-1.07-5.787-.097-1.962.085-3.935.55-5.838.463-1.904 1.21-3.735 2.203-5.416.993-1.682 2.234-3.214 3.665-4.536 1.43-1.323 3.048-2.437 4.784-3.31.433-.217.874-.42 1.322-.607l.674-.27.345-.127.34-.12c.917-.31 1.858-.552 2.808-.74 1.9-.373 3.844-.524 5.77-.442 1.924.087 3.834.41 5.65 1.006.91.295 1.793.664 2.643 1.092.85.433 1.665.927 2.433 1.485l.57.427.55.45.533.47.514.49.497.51.238.26.12.13.117.135.233.27.224.272c.147.183.29.37.428.56 1.11 1.52 1.936 3.237 2.492 5.028.557 1.792.85 3.66.898 5.524.047 1.864-.15 3.73-.59 5.527-.437 1.798-1.118 3.53-2.036 5.115-.917 1.586-2.075 3.022-3.432 4.225-1.356 1.204-2.907 2.17-4.563 2.868-.827.35-1.682.632-2.55.86-.865.228-1.744.395-2.627.497-.884.1-1.772.135-2.654.092-.44-.02-.88-.06-1.317-.116-.437-.058-.87-.135-1.298-.23-1.713-.38-3.345-1.066-4.805-2-1.36-.867-2.57-1.95-3.597-3.172l-.23-.28c-1.073-1.337-1.932-2.833-2.546-4.412-.614-1.578-.986-3.24-1.076-4.906-.09-1.665.1-3.335.592-4.9.492-1.566 1.285-3.02 2.322-4.26 1.033-1.244 2.3-2.27 3.677-3.072.34-.197.695-.39 1.052-.564.357-.175.72-.337 1.086-.486.733-.3 1.484-.544 2.246-.728.762-.184 1.534-.31 2.307-.365.774-.055 1.548-.04 2.31.047 1.52.178 2.99.668 4.27 1.45 1.054.632 1.975 1.453 2.754 2.38.173.208.34.42.5.636.438.594.823 1.224 1.165 1.872.167.326.33.654.476.988l.11.25.104.25.052.127.05.13.1.256c.126.33.226.675.304 1.023.08.35.137.702.18 1.056.08.708.1 1.422.056 2.128-.085 1.41-.41 2.794-.975 4.052-.283.628-.626 1.225-1.024 1.777-.398.552-.85 1.058-1.347 1.512-.248.226-.507.44-.774.64l-.2.147-.21.145-.418.267c-.284.17-.575.328-.873.47-.297.143-.6.27-.908.386-1.23.457-2.522.697-3.8.736-1.277.037-2.543-.127-3.727-.494-1.183-.366-2.283-.937-3.218-1.69-.465-.372-.89-.79-1.266-1.238-.38-.454-.714-.94-.996-1.45-.285-.507-.514-1.038-.705-1.577-.097-.27-.18-.543-.253-.814l-.104-.417-.082-.41c-.093-.55-.123-1.106-.092-1.654.03-.55.125-1.088.268-1.608.144-.52.338-1.02.57-1.498.235-.476.508-.928.81-1.352.605-.85 1.326-1.588 2.112-2.206.393-.31.804-.586 1.227-.832.424-.244.86-.456 1.303-.63.222-.088.447-.166.67-.233.227-.067.454-.125.68-.17.456-.09.916-.127 1.37-.126.453.002.9.044 1.337.12.436.078.86.188 1.27.328 1.508.515 2.8 1.41 3.718 2.504l.227.284c.464.612.812 1.28 1.032 1.965.112.34.187.687.242 1.03.054.345.082.686.085 1.022.007.672-.077 1.32-.225 1.924-.148.606-.36 1.17-.613 1.682-.253.513-.547.977-.863 1.39-.318.412-.658.773-1.006 1.084-.696.622-1.428 1.035-2.097 1.28-.67.248-1.274.326-1.756.338-.483.01-.85-.047-1.09-.092l-.16-.032-.112-.027-.09-.022.09.025.11.03.16.034c.24.05.605.112 1.092.11.243 0 .516-.02.814-.067l.228-.042.237-.053.495-.15c.68-.236 1.425-.64 2.14-1.26.36-.31.708-.67 1.035-1.083.326-.414.63-.88.895-1.4s.488-1.087.648-1.702c.16-.615.254-1.276.256-1.965 0-.345-.023-.696-.074-1.05-.05-.354-.128-.712-.243-1.066-.225-.707-.582-1.4-1.058-2.032l-.252-.318c-.427-.51-.93-.974-1.497-1.38-.682-.49-1.454-.895-2.294-1.184-.42-.145-.856-.26-1.305-.34-.45-.083-.91-.128-1.38-.13-.47-.004-.945.034-1.418.125-.238.046-.473.105-.705.174-.234.07-.465.148-.694.237-.457.18-.905.396-1.34.645-.434.25-.857.534-1.26.85-.81.63-1.55 1.385-2.175 2.255-.312.435-.594.9-.837 1.39-.242.49-.444 1.007-.595 1.545-.15.538-.25 1.098-.284 1.667-.036.57-.006 1.15.09 1.722l.085.43.103.42c.077.284.16.564.257.84.194.556.43 1.104.72 1.628.297.538.648 1.053 1.05 1.532.383.456.812.88 1.283 1.26.966.782 2.102 1.377 3.322 1.758 1.22.382 2.523.555 3.837.52 1.314-.035 2.644-.278 3.915-.745.318-.118.632-.25.94-.395.308-.147.61-.31.905-.486l.438-.278.21-.144.21-.154c.28-.207.547-.428.806-.662.517-.47.99-.993 1.404-1.565.415-.572.773-1.19 1.07-1.84.59-1.302.928-2.73 1.02-4.187.048-.73.032-1.465-.05-2.2-.043-.367-.103-.735-.184-1.1-.08-.364-.183-.725-.318-1.082l-.1-.257-.05-.13-.052-.13-.107-.26-.112-.256c-.148-.342-.313-.68-.484-1.013-.35-.666-.742-1.316-1.194-1.93-.17-.234-.35-.464-.536-.686l-.18-.21c-.255-.287-.52-.568-.802-.83-.282-.265-.577-.518-.885-.755-.31-.237-.632-.457-.966-.66-1.333-.82-2.867-1.334-4.448-1.522-.79-.094-1.593-.11-2.394-.055-.8.055-1.598.183-2.384.37-.786.19-1.56.44-2.314.745-.377.153-.75.318-1.118.497-.37.18-.725.37-1.085.578-1.42.825-2.735 1.882-3.81 3.172-1.08 1.284-1.91 2.797-2.424 4.422-.515 1.625-.716 3.356-.626 5.078.09 1.723.47 3.44 1.1 5.068.628 1.63 1.51 3.174 2.616 4.558l.26.318c1.05 1.253 2.292 2.364 3.688 3.258.756.485 1.556.908 2.39 1.258.832.35 1.7.625 2.588.824.444.1.892.18 1.344.24.452.06.907.1 1.364.124.913.046 1.832.01 2.744-.09.912-.105 1.818-.276 2.71-.51.89-.232 1.77-.522 2.626-.882 1.712-.718 3.32-1.717 4.725-2.96 1.406-1.245 2.606-2.73 3.555-4.365.95-1.635 1.654-3.418 2.107-5.267.453-1.85.66-3.766.613-5.684-.046-1.92-.344-3.84-.917-5.69-.572-1.85-1.424-3.628-2.575-5.212-.145-.197-.292-.393-.446-.583l-.233-.284-.24-.275-.117-.136-.124-.137-.25-.272-.512-.524-.53-.508-.55-.486-.57-.467-.587-.443c-.792-.58-1.636-1.09-2.513-1.538-.88-.444-1.792-.825-2.73-1.13-1.876-.62-3.844-.952-5.82-1.04-1.98-.087-3.97.067-5.922.448-.975.193-1.942.44-2.89.76l-.357.125-.347.13-.697.278c-.46.193-.916.4-1.363.626-1.79.898-3.458 2.045-4.935 3.41-1.477 1.363-2.758 2.945-3.785 4.68-1.027 1.737-1.798 3.628-2.278 5.593-.48 1.965-.668 4-.57 6.023.1 2.023.48 4.03 1.102 5.956.62 1.927 1.48 3.774 2.515 5.51.517.87 1.078 1.71 1.678 2.523l.227.304.23.3.116.15.12.15.236.294.22.267c.253.302.512.595.78.883.69.745 1.434 1.444 2.238 2.072.803.63 1.667 1.185 2.577 1.65.456.233.923.443 1.398.632.475.187.96.352 1.448.496.978.288 1.98.49 2.984.628 2.012.275 4.04.3 6.05.23.502-.02 1.004-.046 1.505-.077.5-.03 1.004-.065 1.51-.123 1.01-.114 2.01-.3 2.992-.557 1.964-.51 3.85-1.306 5.598-2.32 1.75-1.014 3.367-2.244 4.83-3.628s2.775-2.92 3.923-4.566c1.146-1.648 2.132-3.404 2.916-5.247.39-.922.73-1.866 1.005-2.83.273-.964.48-1.948.596-2.948.056-.5.088-1.004.09-1.51l-.002-.19-.005-.192-.033-.737-.024-.372c-.064-.996-.172-1.98-.328-2.96-.31-1.957-.82-3.88-1.524-5.726-.704-1.845-1.614-3.607-2.706-5.24-.528-.79-1.098-1.55-1.707-2.276-.65-.776-1.346-1.512-2.082-2.204-1.424-1.337-2.99-2.515-4.66-3.503-.834-.494-1.694-.942-2.574-1.343l-.164-.076-.166-.072-.333-.144-.67-.274-.677-.254-.51-.18-.173-.056c-.915-.303-1.843-.557-2.782-.76-.938-.206-1.886-.355-2.837-.455-.95-.098-1.907-.15-2.86-.14l-.714.016-.357.014-.356.022c-.48.035-.952.09-1.423.162-1.883.29-3.705.83-5.453 1.515-1.75.686-3.425 1.527-5.016 2.488-1.59.962-3.095 2.05-4.494 3.25-.698.6-1.37 1.23-2.01 1.884-.64.656-1.25 1.338-1.826 2.046-1.148 1.417-2.158 2.936-2.99 4.538-.835 1.6-1.494 3.282-1.955 5.006-.463 1.723-.73 3.487-.808 5.245-.08 1.76.026 3.512.288 5.227.063.43.14.855.222 1.28.086.422.175.844.278 1.262.202.837.434 1.66.7 2.475l.1.303.104.304.217.602c.15.397.305.793.473 1.183.33.782.695 1.545 1.09 2.29.946 1.787 2.073 3.458 3.35 4.98" fill="#5B5B5B"/><path d="M59.115.867c-1.726 0-3.442.12-5.128.363-2.112.298-4.176.79-6.165 1.44-1.99.654-3.902 1.472-5.72 2.424-1.817.953-3.54 2.037-5.16 3.226-.81.594-1.595 1.212-2.357 1.85-.76.64-1.494 1.302-2.206 1.98-.715.674-1.397 1.374-2.062 2.08l-.496.536-.242.27-.24.274c-.317.367-.624.74-.92 1.12-1.188 1.516-2.22 3.122-3.104 4.78-1.77 3.314-2.976 6.808-3.75 10.287-.77 3.483-1.11 6.96-1.095 10.333.02 3.374.392 6.65 1.1 9.747.706 3.096 1.75 6.018 3.13 8.654.69 1.32 1.466 2.562 2.32 3.715.214.29.435.57.657.847.225.275.452.547.686.81l.354.39.357.38.363.376.366.367c1.963 1.94 4.08 3.56 6.236 4.882 2.157 1.325 4.354 2.354 6.5 3.158 2.147.803 4.245 1.38 6.242 1.803 1.998.422 3.896.688 5.668.856 1.773.168 3.42.235 4.93.246h.392c1.355 0 2.594-.045 3.712-.114 2.45-.154 4.317-.413 5.568-.616.626-.102 1.098-.192 1.413-.256l.475-.1-.475.098c-.316.062-.788.15-1.414.248-1.25.196-3.118.444-5.568.585-1.036.06-2.176.098-3.415.098l-.687-.004c-1.506-.02-3.15-.094-4.92-.27-1.77-.177-3.662-.453-5.653-.884-1.99-.43-4.08-1.017-6.215-1.826-2.134-.81-4.318-1.844-6.46-3.172-2.14-1.326-4.237-2.945-6.18-4.88l-.362-.367-.358-.372-.355-.382-.348-.388c-.232-.26-.455-.532-.677-.805-.22-.276-.436-.555-.646-.842-.84-1.146-1.605-2.382-2.28-3.693-1.357-2.62-2.38-5.525-3.07-8.603-.69-3.08-1.047-6.334-1.05-9.685-.002-3.35.35-6.8 1.128-10.252.78-3.447 1.99-6.903 3.753-10.173.88-1.633 1.904-3.216 3.08-4.707.294-.372.598-.74.91-1.1l.237-.267.242-.267.49-.526c.663-.7 1.34-1.39 2.05-2.057.71-.668 1.438-1.32 2.192-1.953.755-.63 1.534-1.238 2.337-1.823 1.605-1.17 3.312-2.237 5.11-3.17 3.591-1.876 7.565-3.201 11.728-3.776 1.624-.226 3.273-.34 4.934-.34 2.595 0 5.215.278 7.8.835 1.06.23 2.114.5 3.158.822.523.157 1.04.333 1.558.513l.77.283.384.146.386.153c1.02.41 2.028.862 3.02 1.354.497.244.986.504 1.475.768.484.27.968.544 1.442.835 1.903 1.154 3.713 2.49 5.372 4.01 1.66 1.517 3.167 3.22 4.473 5.08 1.308 1.857 2.41 3.873 3.29 5.995.882 2.12 1.537 4.348 1.977 6.628.88 4.563.896 9.332.155 14.017-.374 2.343-.94 4.668-1.71 6.934-.773 2.264-1.748 4.477-3.007 6.528-.313.512-.65 1.014-1 1.496l-.273.363-.28.358c-.184.24-.38.47-.572.706-.775.932-1.612 1.816-2.492 2.66-.882.84-1.81 1.638-2.782 2.382-.973.744-1.987 1.438-3.037 2.078l-.196.12-.597.35-.807.45-.82.427-.416.206-.208.102-.21.098c-1.117.526-2.265.995-3.436 1.402-2.342.814-4.783 1.37-7.263 1.66-1.266.148-2.542.22-3.82.22-1.226 0-2.453-.066-3.675-.2-2.495-.274-4.966-.83-7.35-1.65-2.386-.822-4.688-1.9-6.864-3.2-1.087-.647-2.15-1.352-3.17-2.098l-.382-.28-.764-.585-.18-.143-.18-.148c-.48-.4-.935-.832-1.37-1.285-.868-.91-1.652-1.904-2.365-2.948-.713-1.045-1.356-2.14-1.936-3.27-1.158-2.26-2.068-4.652-2.738-7.11-.67-2.46-1.093-4.987-1.245-7.534-.15-2.546-.025-5.112.42-7.626.445-2.512 1.213-4.97 2.317-7.276.552-1.152 1.185-2.266 1.898-3.33.353-.53.735-1.047 1.122-1.567.387-.52.78-1.034 1.178-1.543 1.598-2.032 3.3-3.987 5.213-5.71.957-.857 1.966-1.656 3.037-2.36.535-.352 1.084-.682 1.648-.985.564-.302 1.142-.577 1.732-.825 1.18-.493 2.41-.872 3.665-1.134 1.255-.265 2.536-.416 3.823-.48.495-.023.993-.035 1.488-.035l.445.003.488.01.242.008.243.01.485.022.485.027c1.292.08 2.58.22 3.857.425 2.552.41 5.06 1.078 7.45 2.04 2.387.96 4.65 2.218 6.696 3.76 2.046 1.538 3.87 3.363 5.385 5.41 1.517 2.045 2.725 4.312 3.573 6.7.85 2.39 1.34 4.898 1.463 7.42.123 2.524-.12 5.06-.706 7.51-.146.612-.315 1.22-.502 1.82-.093.3-.194.6-.296.893l-.16.45-.168.436c-.46 1.17-1.008 2.306-1.617 3.406-1.225 2.2-2.706 4.254-4.407 6.097-1.704 1.84-3.633 3.468-5.758 4.775-1.06.657-2.172 1.226-3.315 1.714-1.146.48-2.327.88-3.532 1.178-.3.078-.604.142-.906.21l-.915.17c-.305.054-.613.093-.92.138-.307.035-.614.076-.923.1-.308.033-.617.05-.926.07l-.46.02-.23.01-.236.005-.466.007-.46-.005c-.31-.005-.616-.02-.923-.04-2.455-.166-4.87-.775-7.13-1.715-2.264-.94-4.38-2.205-6.29-3.712-1.907-1.507-3.61-3.258-5.042-5.19-1.433-1.934-2.595-4.053-3.412-6.286-.817-2.232-1.284-4.58-1.348-6.928-.067-2.35.268-4.695.962-6.92.346-1.112.78-2.197 1.28-3.247.5-1.05 1.072-2.063 1.712-3.025.643-.96 1.354-1.872 2.14-2.71.39-.422.798-.826 1.222-1.21.425-.385.866-.75 1.32-1.097 1.82-1.386 3.88-2.434 6.043-3.106 2.012-.63 4.113-.93 6.2-.93l.473.005c2.243.048 4.464.442 6.56 1.148 2.098.705 4.076 1.72 5.82 3.02 1.745 1.297 3.257 2.878 4.412 4.67 1.154 1.794 1.945 3.794 2.315 5.856.378 2.06.34 4.173-.013 6.21-.09.504-.194 1.017-.32 1.516-.125.5-.267.996-.426 1.484-.317.977-.702 1.927-1.16 2.837-.455.91-.977 1.78-1.573 2.594-.595.814-1.26 1.57-1.987 2.253-1.457 1.362-3.182 2.413-5.042 3.035-1.52.518-3.116.75-4.7.75-.354 0-.706-.012-1.056-.035-.964-.06-1.92-.202-2.856-.403-.468-.104-.933-.217-1.39-.35l-.344-.1-.34-.105-.17-.053-.17-.058-.34-.115c-.437-.15-.867-.34-1.282-.552-.415-.212-.818-.45-1.21-.702-.78-.51-1.51-1.086-2.18-1.717-1.342-1.262-2.455-2.736-3.24-4.346-.392-.805-.7-1.642-.92-2.497-.217-.855-.344-1.727-.38-2.597-.02-.435-.016-.87.007-1.302l.02-.322.03-.328.085-.638c.067-.425.155-.845.26-1.26.11-.414.236-.822.38-1.223.577-1.603 1.422-3.086 2.457-4.386 1.036-1.3 2.265-2.418 3.627-3.288 1.36-.87 2.858-1.486 4.396-1.788.765-.15 1.538-.224 2.306-.224.775 0 1.544.075 2.292.22.746.138 1.472.352 2.172.612.35.13.693.276 1.028.428l.505.244.48.26c.63.365 1.212.798 1.734 1.286.523.487.984 1.03 1.384 1.606.4.576.74 1.186 1.022 1.815.28.63.503 1.277.675 1.93.34 1.31.476 2.64.434 3.937-.02.648-.088 1.287-.197 1.912-.11.623-.265 1.232-.463 1.82-.1.292-.21.58-.332.86-.122.28-.255.554-.4.816-.294.527-.642 1.015-1.024 1.464-.383.45-.802.86-1.246 1.228-.444.37-.912.7-1.395.99-1.783 1.067-3.764 1.604-5.633 1.604l-.475-.012c-1.003-.05-1.966-.26-2.836-.612-.437-.173-.847-.387-1.238-.62-.39-.23-.755-.49-1.095-.765-.68-.552-1.258-1.175-1.74-1.826-.48-.65-.866-1.33-1.168-2.01-.303-.68-.52-1.357-.668-2.015-.146-.658-.222-1.297-.24-1.9-.04-1.21.163-2.28.48-3.15.313-.87.743-1.536 1.137-2.025.396-.49.76-.805 1.008-1.007l.166-.13.122-.09.098-.072-.1.07-.124.087-.168.128c-.252.198-.623.507-1.03.992-.204.243-.415.53-.617.865l-.15.26-.145.28c-.092.195-.185.4-.266.618-.334.87-.557 1.95-.538 3.175.008.612.077 1.26.216 1.93.14.67.352 1.36.65 2.055.296.694.68 1.39 1.16 2.063.483.672 1.065 1.317 1.755 1.893.344.288.716.558 1.114.802.398.244.822.467 1.272.647.898.366 1.892.588 2.926.643l.53.014c.868 0 1.758-.114 2.64-.337 1.064-.27 2.12-.698 3.116-1.29.498-.296.98-.634 1.44-1.012.458-.377.89-.798 1.29-1.26.396-.464.758-.968 1.065-1.514.153-.273.29-.556.417-.844.127-.29.242-.585.346-.886.206-.603.366-1.228.482-1.868.114-.64.185-1.296.21-1.96.046-1.328-.087-2.693-.434-4.038-.173-.672-.4-1.34-.687-1.988-.288-.65-.636-1.28-1.05-1.88-.412-.597-.888-1.162-1.43-1.67-.543-.51-1.147-.963-1.803-1.344l-.503-.274-.506-.247c-.347-.16-.698-.312-1.058-.446-.72-.27-1.465-.492-2.236-.64-.788-.154-1.6-.234-2.417-.234-.78 0-1.566.073-2.343.223-1.594.307-3.145.94-4.552 1.834-1.408.894-2.677 2.043-3.747 3.377-1.07 1.336-1.943 2.858-2.544 4.51-.15.414-.282.835-.395 1.263-.112.43-.204.864-.275 1.304l-.09.667-.03.328-.025.338c-.026.45-.03.9-.013 1.35.036.904.164 1.81.388 2.7.223.888.542 1.758.945 2.594.808 1.672 1.954 3.198 3.335 4.504.69.654 1.442 1.25 2.248 1.78.404.265.82.512 1.255.735.434.224.88.423 1.352.586l.34.115.172.058.175.055.35.11.35.103c.47.14.946.256 1.425.364.96.21 1.942.36 2.938.423.377.024.757.04 1.137.04l.363-.006c.502-.012 1.005-.04 1.507-.1.502-.06 1.002-.143 1.5-.25.495-.11.987-.247 1.472-.41 1.94-.64 3.746-1.735 5.263-3.148.76-.707 1.45-1.49 2.067-2.33.618-.84 1.16-1.74 1.632-2.677.473-.937.87-1.914 1.2-2.918.164-.502.312-1.01.44-1.524.132-.515.238-1.03.334-1.56.368-2.097.414-4.284.027-6.427-.38-2.143-1.197-4.227-2.392-6.09-1.194-1.867-2.76-3.51-4.56-4.854-1.8-1.347-3.84-2.4-6-3.132-2.16-.733-4.45-1.145-6.765-1.2l-.537-.005c-2.14 0-4.294.306-6.364.947-1.12.346-2.217.79-3.268 1.325-1.052.535-2.057 1.17-3.002 1.884-.473.36-.93.737-1.37 1.135-.44.4-.864.817-1.27 1.252-.814.87-1.55 1.81-2.215 2.8-.663.992-1.254 2.034-1.768 3.114-.516 1.08-.965 2.194-1.324 3.344-.72 2.298-1.07 4.727-1.005 7.16.063 2.432.543 4.86 1.384 7.166.84 2.307 2.035 4.49 3.507 6.482 1.472 1.99 3.22 3.793 5.18 5.345 1.96 1.552 4.135 2.857 6.47 3.83 2.33.974 4.83 1.61 7.384 1.786.32.02.64.037.96.043l.48.006.477-.007.236-.004.242-.01.482-.02c.32-.02.638-.04.956-.07.32-.026.636-.068.954-.104.317-.046.635-.086.95-.142.317-.05.63-.114.945-.175.312-.07.626-.136.937-.216 1.247-.306 2.468-.718 3.655-1.215 1.183-.505 2.333-1.093 3.428-1.77 2.196-1.348 4.183-3.024 5.935-4.913 1.75-1.893 3.268-3.998 4.527-6.253.626-1.13 1.192-2.296 1.667-3.504l.174-.458.163-.452c.108-.31.21-.615.307-.925.194-.62.368-1.244.52-1.875.604-2.524.858-5.138.733-7.74-.124-2.604-.632-5.194-1.508-7.66-.876-2.468-2.123-4.81-3.688-6.922-1.565-2.113-3.447-3.998-5.555-5.584-2.108-1.588-4.44-2.883-6.89-3.87-2.454-.988-5.025-1.674-7.635-2.093-1.305-.21-2.62-.352-3.94-.434l-.494-.028-.495-.022-.247-.01-.25-.007-.493-.01-.453-.004c-.513 0-1.024.012-1.537.037-1.326.065-2.653.222-3.958.497-1.306.272-2.588.668-3.82 1.183-.615.26-1.218.547-1.806.86-.588.317-1.16.66-1.715 1.025-1.11.73-2.153 1.558-3.137 2.44-1.965 1.77-3.696 3.76-5.312 5.817-.404.515-.8 1.035-1.19 1.56-.39.522-.78 1.05-1.147 1.602-.735 1.097-1.388 2.246-1.957 3.434-1.14 2.378-1.927 4.91-2.382 7.493-.455 2.583-.58 5.214-.425 7.82.157 2.605.593 5.188 1.277 7.7.686 2.51 1.617 4.952 2.805 7.266.595 1.155 1.255 2.28 1.99 3.355.735 1.075 1.546 2.102 2.452 3.05.453.47.93.923 1.436 1.345l.19.157.198.156.765.583.392.287c1.05.766 2.127 1.478 3.24 2.14 2.223 1.322 4.577 2.422 7.018 3.258 2.44.838 4.97 1.403 7.526 1.68 1.235.133 2.475.2 3.713.2 1.323 0 2.646-.077 3.956-.23 2.537-.3 5.032-.874 7.426-1.71 1.197-.417 2.37-.898 3.51-1.437l.214-.1.212-.105.424-.21.838-.437.824-.46.61-.358.2-.124c1.072-.656 2.107-1.367 3.1-2.128.993-.76 1.94-1.58 2.84-2.44.9-.862 1.753-1.767 2.545-2.722.194-.24.396-.477.583-.723l.286-.366.277-.373c.37-.507.71-1.02 1.035-1.55 1.29-2.112 2.28-4.37 3.066-6.678.782-2.31 1.35-4.675 1.723-7.056.375-2.382.55-4.783.523-7.17-.015-1.194-.08-2.384-.197-3.566-.12-1.182-.29-2.356-.516-3.517-.454-2.32-1.127-4.59-2.03-6.75-.903-2.162-2.034-4.218-3.373-6.112-1.337-1.895-2.88-3.63-4.576-5.173-1.694-1.545-3.54-2.9-5.477-4.07-.483-.294-.975-.57-1.468-.844-.496-.266-.994-.53-1.5-.776-1.007-.497-2.028-.953-3.066-1.367l-.387-.153-.392-.15-.785-.285c-.526-.182-1.052-.36-1.584-.518-1.06-.324-2.13-.597-3.208-.826-2.587-.55-5.208-.823-7.804-.823" fill="#fff"/><path fill="#fff" d="M0 23h115v35h-115z"/><text font-family="Futura" font-size="20" font-style="condensed" fill="#191919"><tspan x="18.726" y="47.5">BUY TICKETS</tspan></text></g></svg>