<svg width="319" height="331" viewBox="0 0 319 331" xmlns="http://www.w3.org/2000/svg"><title>Imported Layers</title><g fill="none"><path d="M290.38 124.52c-6.277 12.348-12.328 25.68-17.318 40.288-.57 1.663-1.117 3.32-1.647 4.97-.072.223-.157.44-.3.62-1.48 1.857-9.177 10.673-11.16 9.53-1.314-.758-.982-11.192-.624-14.83.03-.29.078-.577.205-.835.703-1.436 1.4-2.887 2.088-4.352 5.934-12.616 10.77-25.12 14.704-37.345 0 0 7.692-.33 14.053 1.954" fill="#405533"/><path d="M300.41 64.757s2.73-8.04 8.75-5.966c6.004 2.07 2.208 10.237 2.208 10.237" fill="#7A9C5E"/><path d="M301.227 65.057l.004-.01c.047-.134.596-1.64 1.63-3.046.517-.703 1.15-1.38 1.878-1.863.73-.486 1.54-.787 2.487-.79.506.002 1.055.088 1.662.297 1.162.407 1.805 1.007 2.22 1.717.412.712.58 1.587.58 2.51.002 1.164-.27 2.377-.55 3.282-.14.454-.28.83-.383 1.09l-.123.3-.03.073-.01.02 1.56.782c.012-.027.323-.698.636-1.717.312-1.02.63-2.384.632-3.83 0-1.14-.202-2.35-.824-3.434-.618-1.086-1.67-1.994-3.162-2.502-.768-.266-1.508-.388-2.207-.388-1.36 0-2.546.467-3.514 1.136-1.454 1.01-2.457 2.445-3.122 3.624-.662 1.18-.98 2.114-.993 2.15l1.633.6" fill="#2B3F22"/><path d="M284.135 103.575l14.903-38.232c2.032-1.5 9.917-1.59 13.37 5.414l-15.673 37.005" fill="#A5B98C"/><path d="M276.1 163.323s-2.498-.15-1.62-2.568c.88-2.417 3.177-8.435 3.177-8.435s-.37 1.192 4.115 2.376c4.486 1.185 10.54 2.66 16.898-.41 6.357-3.073 6.884-10.342 6.56-12.644-.326-2.302 12.19-7.358 12.19-7.358-.002 0 2.362 12.23-6.15 22.872-8.51 10.64-23.152 10.52-35.168 6.168M276.247 122.538l-3.18 9.63s-.262.968-2.38-.096c-2.116-1.065-9.108-4.974-9.43-12.736-.32-7.762 4.044-14.022 13.802-15.766 9.758-1.747 22.623 3.467 27.854 8 5.23 4.532 13.807 12.45 14.4 22.37.59 9.922-12.036 9.282-12.036 9.282s.41-6.557-4.716-12.573c-4.705-5.523-17.87-9.502-24.316-8.112m-31.973-12.717l.052 15.532s-.663 6.513.677 7.803 5.63 8.61 8.28 11.85c2.653 3.237 8.827 11.747 10.485 10.252 1.656-1.496 3.985-8.48 3.14-9.198-.843-.718-12.458-11.582-16.843-22.492l-6.29-17.998.5 4.25" fill="#DBE3CB"/><path d="M244.32 124.492s7.417 17.303 20.727 27.877c0 0-1.307 3.858-2.778 2.688-1.473-1.17-13.943-14.38-18.052-24.678l.106-5.028-.003-.86m29.1-1.828s8.324-4.887 22.39 2.036c14.067 6.922 10.233 20.006 9.8 21.476-.227.77 1.148-6.35-3.18-12.92-3.95-6.002-13.664-11.685-29.01-10.592m1.487 36.912s14.36 7.13 25.902 2.526c10.777-4.3 13.74-11.224 16.192-18.758.942 1.3-4.888 24.576-25.364 22.748 0 0-20.176-.263-16.73-6.515" fill="#A5B98C"/><path d="M285.627 134.017l4.752-9.497s5.048 1.942 5.2 2.456c.152.515-2.244 5.363-6.387 6.274-4.144.91-3.566.767-3.566.767" fill="#DBE3CB"/><path d="M264.24 155.164c-8.977-7.428-15.25-17.034-19.343-25.35-2.047-4.155-3.55-7.988-4.575-11.053-1.026-3.058-1.577-5.38-1.713-6.407l-1.715.25c.17 1.25.74 3.602 1.792 6.75 3.155 9.413 10.62 25.742 24.476 37.22l1.078-1.41m8.832-23.142c-2.108-.694-4.034-1.635-5.58-2.777-3.486-2.584-5.38-6.305-5.388-10.642 0-.936.09-1.9.275-2.888.766-4.06 2.816-6.87 5.738-8.755 2.922-1.876 6.755-2.777 10.97-2.776 2.923 0 6.026.432 9.117 1.25 6.36 1.68 12.78 5.17 17.89 9.904 5.116 4.735 8.912 10.698 10.133 17.316.383 2.07.56 4.076.56 6.005.004 10.642-5.432 19.017-11.99 23.085-3.81 2.365-8.662 3.732-14.08 3.732-5.113 0-10.727-1.216-16.44-3.946l-.723 1.638c5.927 2.832 11.787 4.11 17.163 4.11 5.697 0 10.854-1.433 14.97-3.985 7.075-4.393 12.83-13.335 12.832-24.633 0-2.044-.19-4.164-.592-6.346-1.316-7.106-5.35-13.385-10.68-18.32-5.336-4.936-11.976-8.546-18.616-10.305-3.22-.852-6.457-1.307-9.545-1.307-4.445 0-8.588.938-11.878 3.044-3.292 2.1-5.693 5.42-6.53 9.943-.205 1.097-.306 2.178-.306 3.233-.008 4.903 2.213 9.24 6.118 12.112 1.733 1.278 3.814 2.284 6.06 3.026l.524-1.716M294.732 126.793c-.36 1.782-1.4 3.165-3.01 4.25-1.607 1.08-3.776 1.807-6.204 2.15l.235 1.785c2.61-.373 5.004-1.15 6.905-2.42 1.9-1.264 3.312-3.078 3.77-5.4l-1.697-.364M278.088 152.217l.823.37c.536.215 1.33.644 2.323.987l1.647.6c.61.194 1.286.363 2 .568.713.215 1.495.306 2.307.48.817.133 1.685.2 2.588.272 1.806.067 3.774-.08 5.76-.64 1.976-.562 3.96-1.6 5.562-3.207l.6-.61.522-.687c.378-.44.634-.972.938-1.476.283-.507.49-1.1.712-1.614.17-.6.404-1.216.52-1.81.552-2.365.676-4.972.054-7.4-.608-2.433-1.87-4.67-3.52-6.487-1.648-1.827-3.64-3.247-5.67-4.39l-1.535-.813-1.562-.682c-1.008-.468-2.084-.793-3.084-1.172-2.032-.646-3.995-1.157-5.836-1.464-1.84-.293-3.545-.465-5.06-.475-1.516-.012-2.84.067-3.92.213-2.163.285-3.344.735-3.344.735s1.17-.478 3.335-.812c1.08-.17 2.404-.28 3.927-.302 1.524-.024 3.242.11 5.102.364 1.86.268 3.843.734 5.92 1.345 1.02.36 2.072.65 3.13 1.11l1.598.655 1.58.792c2.092 1.118 4.17 2.525 5.924 4.39 1.755 1.848 3.147 4.18 3.848 6.76.714 2.587.652 5.323.102 7.913-.12.66-.332 1.234-.492 1.853-.252.647-.452 1.25-.756 1.832-.32.564-.596 1.156-1 1.652l-.564.772-.644.687c-1.732 1.813-3.888 2.998-6.02 3.656-2.14.658-4.25.86-6.178.83-.96-.052-1.886-.104-2.753-.227-.86-.16-1.694-.244-2.446-.45-.757-.197-1.468-.36-2.118-.55l-1.776-.603c-1.083-.354-1.826-.74-2.383-.952l-.83-.35.665-1.663M277.756 153.05l.844.313c.555.188 1.35.542 2.395.853l1.72.526c.632.165 1.327.302 2.06.47.733.18 1.535.233 2.364.364.833.09 1.714.13 2.627.163 1.83-.01 3.803-.243 5.773-.866 1.963-.628 3.894-1.737 5.44-3.353l.574-.613.497-.688c.363-.44.6-.97.887-1.47.263-.496.456-1.098.653-1.58.155-.598.39-1.232.49-1.807.5-2.31.585-4.865-.054-7.197-.607-2.348-1.837-4.502-3.452-6.256-1.617-1.756-3.546-3.165-5.545-4.287l-1.51-.803-1.536-.68-.74-.332-.78-.293-1.53-.572c-1.993-.648-3.933-1.192-5.75-1.53-1.818-.317-3.503-.538-5.007-.595-1.503-.057-2.82-.017-3.9.096-1.077.12-1.924.247-2.494.375-.57.127-.868.224-.868.224s1.15-.54 3.318-.947c1.08-.204 2.412-.352 3.946-.42 1.534-.07 3.272.013 5.155.244 1.884.236 3.89.67 6.01 1.28l1.555.506.79.26.817.32 1.622.657 1.604.803c2.126 1.14 4.264 2.556 6.048 4.49 1.79 1.912 3.214 4.33 3.916 6.993.697 2.68.595 5.47-.006 8.116-.136.678-.348 1.236-.52 1.855-.134.375-.262.64-.393.962-.138.305-.24.625-.423.905-.34.57-.633 1.163-1.054 1.66l-.59.77-.667.683c-1.79 1.804-4 2.918-6.143 3.51-2.155.598-4.26.71-6.165.607-.95-.093-1.862-.173-2.712-.34-.844-.203-1.657-.323-2.39-.566-.737-.23-1.428-.427-2.056-.646l-1.704-.675c-1.032-.388-1.772-.848-2.31-1.09l-.808-.403m-35.898-51.211c.008.045 1.244 7.308 4.992 16.61 3.75 9.298 10.013 20.654 20.138 28.83l1.062-1.424c-9.784-7.89-15.927-18.976-19.604-28.102-1.84-4.562-3.062-8.63-3.824-11.552-.382-1.46-.647-2.635-.817-3.44l-.186-.924-.044-.236-.013-.075-1.705.315m43.083 2.076l14.902-38.23-.802-.34.5.734c.192-.144.582-.326 1.095-.45.513-.126 1.148-.205 1.85-.205 1.477-.002 3.245.347 4.89 1.236 1.646.892 3.175 2.308 4.263 4.51l.77-.41-.79-.363-15.676 37.005 1.585.726 15.838-37.397-.188-.383c-1.252-2.545-3.078-4.247-5.007-5.287-1.93-1.04-3.956-1.438-5.688-1.44-.824 0-1.584.09-2.248.254-.665.166-1.233.395-1.698.735l-.206.15-14.998 38.476 1.605.677" fill="#2B3F22"/><path d="M309.996 76.448c-3.24-6.354-11.122-6.972-13.154-5.47l-1.06 2.718s7.803-2.712 13.06 5.476l1.154-2.724" fill="#7A9C5E"/><path d="M309.996 76.448l.765-.422c-1.252-2.46-3.156-4.128-5.154-5.165-2-1.038-4.096-1.465-5.846-1.467-.7 0-1.343.068-1.917.204-.573.137-1.077.334-1.504.646l-.207.152-1.862 4.775 1.785-.62-.098-.307.096.307h.003l-.098-.307.096.307c.015-.005 1.15-.386 2.79-.385 1.278 0 2.855.228 4.476 1.02 1.62.796 3.3 2.15 4.803 4.487l.876 1.365 1.958-4.625-.197-.385-.764.422-.792-.363-1.154 2.724.793.363.72-.5c-1.66-2.59-3.606-4.188-5.506-5.115-1.9-.93-3.74-1.192-5.214-1.192-1.954.002-3.276.457-3.336.478l.275.855.802.338 1.06-2.72-.802-.338.502.734c.152-.116.463-.26.883-.358.42-.1.945-.16 1.533-.16 1.477 0 3.34.376 5.072 1.28 1.734.903 3.334 2.312 4.4 4.396l.763-.422-.792-.362.792.362m-34.491 45.83c-3.923 12.19-8.746 24.656-14.66 37.236-.688 1.46-1.383 2.907-2.083 4.34-.203.417-.26.82-.294 1.15-.167 1.698-.324 4.76-.325 7.71 0 1.77.057 3.492.21 4.866.077.69.175 1.288.32 1.795.076.255.16.488.282.71.124.22.284.45.58.627.272.157.57.215.838.215.53-.007 1-.187 1.497-.437.86-.443 1.79-1.152 2.767-2 2.92-2.542 6.19-6.33 7.142-7.52.253-.322.37-.652.455-.91.528-1.644 1.075-3.296 1.64-4.953 4.976-14.56 10.862-27.93 17.263-40.16l-1.52-.86c-6.443 12.305-12.366 25.76-17.373 40.417-.57 1.668-1.12 3.33-1.653 4.985-.06.187-.112.29-.147.33-.664.836-2.73 3.24-4.896 5.393-1.084 1.078-2.2 2.097-3.162 2.825-.48.363-.922.653-1.285.837-.36.19-.643.256-.73.25l-.032-.003-.026.122.058-.11-.03-.013-.028.122.058-.11-.176.33.272-.253-.097-.076-.175.33.272-.254-.04.037.044-.032-.003-.005-.04.037.044-.03c-.022-.022-.14-.29-.22-.682-.13-.592-.23-1.47-.29-2.48-.06-1.014-.088-2.166-.088-3.345 0-2.877.157-5.92.316-7.525.022-.245.064-.42.114-.518.705-1.44 1.403-2.895 2.094-4.364 5.95-12.655 10.803-25.195 14.748-37.457l-1.642-.573M275.99 136.226l.708.52-.386-.284.14.488c.014-.006.128-.037.246-.205l-.386-.283.14.488-.01-.034.007.035h.002l-.01-.034.007.035.106-.006c.282-.007.89.136 1.338.356.226.107.42.232.52.325l.082.088.068-.047-.075.033.006.014.068-.047-.075.033.26-.112-.278.043.018.07.26-.112-.277.043.857-.13-.78-.39c-.002.004-1.656 3.584-3.572 7.973-1.918 4.394-4.09 9.576-5.153 12.86-.062.195-.233.31-.416.312l-.162-.03h.003c-.18-.07-.287-.247-.29-.43l.037-.178.002-.004c.784-1.878 2.297-5.55 3.836-9.555 1.538-4.008 3.1-8.34 3.99-11.582l-.832-.247.707.518-.706-.52-.833-.246c-.855 3.122-2.405 7.43-3.932 11.408-1.53 3.98-3.037 7.638-3.817 9.506l.003-.004c-.124.293-.183.603-.183.902 0 .914.538 1.773 1.41 2.116h.003c.25.098.51.146.766.146.904.002 1.75-.594 2.056-1.54 1.013-3.14 3.182-8.323 5.088-12.69.954-2.184 1.843-4.17 2.494-5.608l.775-1.705.287-.624.114-.25-.038-.272c-.037-.257-.134-.476-.248-.653-.202-.31-.452-.524-.718-.71-.4-.272-.853-.474-1.31-.622-.46-.146-.913-.238-1.35-.24-.196 0-.39.017-.602.082-.207.066-.47.19-.672.484l-.085.124-.04.147.834.248m-17.074 42.861c-.006.013-.25.478-.5 1.057-.125.29-.25.608-.354.927-.1.323-.186.626-.19 1.002.002.165.015.36.12.594.097.234.355.495.637.578l.006.002c.11.036.22.05.324.05.354-.005.587-.152.757-.277.294-.232.478-.49.664-.768.27-.415.502-.873.675-1.24.172-.365.282-.635.286-.645l-1.593-.704-.038.09c-.09.21-.333.757-.595 1.213-.128.225-.267.43-.358.533l-.053.057-.012.01.27.385v-.457c-.198.005-.268.075-.268.075l.267.383v-.457.656l.187-.627-.186-.03v.656l.187-.627h.005l-.2.663.603-.3c-.047-.13-.228-.315-.403-.362l-.2.663.603-.3-.37.183h.42l-.05-.184-.37.184h.42s.025-.205.103-.432c.11-.35.298-.785.454-1.122l.2-.415.06-.118.02-.04-1.523-.858m12.349-55.698s4.045-2.018 10.83-1.122l-.238.904s-5.796-.813-10.592.22M278.906 102.765c-.06.037-3.212 2.267-3.91 9.2-.074.73-.107 1.42-.107 2.066-.005 5.48 2.422 7.992 3.024 8.513l.403-.5c-.495-.436-2.798-2.742-2.8-8.012 0-.623.03-1.287.103-1.996.342-3.372 1.268-5.56 2.098-6.904.414-.67.806-1.132 1.09-1.423l.334-.312.088-.07.02-.015.003-.003-.347-.542m37.865 26.473c-.026-.01-1.528-.715-3.66-.716-1.432 0-3.15.32-4.87 1.39-1.723 1.067-3.44 2.88-4.88 5.823l.557.297c1.4-2.855 3.033-4.56 4.643-5.56 1.61-1 3.205-1.297 4.548-1.297 1 0 1.856.166 2.46.332.302.082.54.165.702.226l.183.073.057.025.258-.594m-24.956 27.217l.014.014c.175.163 1.718 1.718 1.712 4.177-.002 1.427-.506 3.188-2.142 5.234l.482.418c1.71-2.134 2.288-4.058 2.286-5.652-.007-2.94-1.916-4.657-1.942-4.684l-.41.493m-39.976-28.801l.005.054c.012.114.033.4.033.8 0 .95-.127 2.526-.8 3.916-.678 1.39-1.854 2.6-4.072 2.935l.09.647c2.415-.35 3.81-1.75 4.544-3.288.74-1.537.865-3.203.866-4.208 0-.565-.04-.923-.042-.933l-.622.077" fill="#2B3F22"/><path d="M175.01 260.945c-5.554 0-11.033.077-16.424.226-.704 2.635-1.442 5.138-2.208 7.514-6.306 19.568-14.62 30.724-22.416 38.565-4.277 4.305-8.294 7.372-11.93 9.375-3.64 2-6.9 2.948-9.686 2.95-1.56 0-2.976-.3-4.196-.906-1.218-.602-2.23-1.51-2.958-2.656-1.182-1.844-1.807-3.89-1.805-6.045 0-2.346.723-4.784 2.115-7.3 1.393-2.517 3.457-5.128 6.21-7.863 7.554-7.513 16.526-17.623 24.305-32.56-8.865.606-17.393 1.416-25.472 2.405-7.722 8.923-15.358 14.225-21.672 17.71-6.966 3.843-12.773 5.48-17.23 5.485-2.403 0-4.424-.478-6.005-1.398-1.58-.914-2.705-2.302-3.207-3.975-.304-1-.46-2.008-.46-3.01-.003-1.957.605-3.867 1.772-5.67-20.108 5.993-32.16 13.644-32.16 21.978 0 19.235 64.214 34.828 143.428 34.828 79.213 0 143.428-15.592 143.428-34.827 0-16.187-45.48-29.796-107.103-33.702 9.336 17.282 20.142 28.185 29.01 35.993 3.04 2.678 5.323 5.265 6.866 7.797 1.54 2.53 2.345 5.03 2.345 7.466.002 1.918-.506 3.774-1.468 5.495-.716 1.29-1.782 2.322-3.1 3.003-1.322.685-2.884 1.03-4.634 1.03-2.746-.004-5.96-.84-9.57-2.62-3.612-1.78-7.617-4.512-11.923-8.35-9.53-8.488-19.997-21.352-27.995-46.72-.413-1.313-.822-2.66-1.223-4.04-4.813-.12-9.69-.18-14.632-.18" fill="#EDEDED"/><path d="M5.483 132.93s-.89-.11-1.085-2.362c-.093-1.07-.05-1.937.018-2.55.053-.467.587-.674.922-.36l22.376 21.126 1.372.24 33.866-13.71c.585-.238 1.222.185 1.26.836l.097 1.564s.638 1.543-1.832 2.344l-28.91 9.372c-.002 0-1.084.727-4.375.58-3.29-.15-4.743-1.364-6.01-2.413l-17.7-14.668M106.247 122.72c-.432 2.84-12.967 76.342-51.317 87.15-27.713 7.81-51.05-18.033-47.402-42.05 2.41-15.865 17.705-15.216 22.14 6.773 4.045 20.06 15.32 26.524 27.148 22.814 13.475-4.226 36.26-34.75 41.76-79.44" fill="#DBE3CB"/><path d="M106.247 122.72c-.432 2.84-12.752 77.21-51.317 87.15-30.567 7.877-57.578-23.466-44.22-50.042-5.673 10.554 2.35 35.722 19.773 43.96 4.097 1.936 12.92 5.18 24.8 1.864 9.998-2.79 17.13-10.34 20.134-13.98 16.86-20.43 26.558-58.498 28.39-73.384" fill="#A5B98C"/><path d="M27.94 168.757c-.08.56-.497 1.38-1.202 2.246-2.115 2.62-6.745 5.716-11.92 5.708-2.408 0-4.938-.657-7.427-2.334l-.36.58c2.596 1.748 5.264 2.445 7.787 2.444 3.622 0 6.942-1.423 9.414-3.182 1.24-.88 2.265-1.845 3.015-2.772.75-.93 1.23-1.808 1.35-2.582l-.654-.107M105.42 122.585c-.206 1.36-3.444 20.414-11.387 40.388-3.97 9.99-9.116 20.21-15.618 28.57-6.505 8.363-14.343 14.847-23.704 17.484-3.37.95-6.67 1.39-9.858 1.39-10.347 0-19.56-4.64-26.197-11.67-6.638-7.03-10.67-16.44-10.667-25.895 0-1.633.12-3.27.368-4.895.523-3.45 1.673-6.027 3.118-7.71 1.452-1.686 3.167-2.497 4.99-2.502 2.217 0 4.687 1.24 6.942 4.02 2.25 2.775 4.246 7.073 5.44 13.006 1.69 8.37 4.63 14.48 8.423 18.527 3.787 4.047 8.444 5.982 13.354 5.976 2.112 0 4.27-.353 6.435-1.032 3.57-1.124 7.595-3.904 11.776-8.12 6.267-6.324 12.86-15.904 18.42-28.122 5.56-12.217 10.077-27.07 12.15-43.923l-1.662-.222c-2.732 22.22-9.766 40.913-17.772 54.552-4.002 6.82-8.247 12.372-12.303 16.464-4.053 4.093-7.927 6.714-11.095 7.7-2.024.636-4.02.96-5.95.96-4.492-.008-8.648-1.722-12.155-5.452-3.503-3.732-6.34-9.524-7.98-17.665-1.242-6.147-3.32-10.707-5.8-13.772-2.475-3.06-5.388-4.637-8.225-4.64-2.324-.004-4.533 1.083-6.24 3.084-1.714 2.002-2.96 4.898-3.523 8.6-.262 1.717-.388 3.445-.388 5.167.003 9.975 4.23 19.785 11.146 27.117 6.917 7.33 16.556 12.195 27.395 12.195 3.337 0 6.786-.46 10.297-1.45 9.814-2.768 17.924-9.526 24.57-18.072 9.968-12.826 16.7-29.717 21.012-43.68 4.306-13.97 6.175-24.99 6.344-26.103l-1.656-.272M42.418 196.64l.007-.017-.01.015h.003l.007-.015-.01.015c.017-.002.157.167.274.45.374.85.763 2.666.762 4.685 0 1.67-.262 3.487-.977 5.058-.718 1.573-1.872 2.9-3.7 3.655l.224.59c1.98-.814 3.26-2.286 4.026-3.974.767-1.687 1.035-3.59 1.035-5.328 0-1.426-.18-2.74-.426-3.743-.124-.502-.263-.926-.41-1.253-.075-.163-.15-.304-.234-.422-.085-.117-.173-.217-.306-.287l-.266.57m43.543-33.455l.134-.01.395-.014c.7 0 1.99.11 3.248.76 1.256.65 2.486 1.82 3.133 4.015l.584-.184c-.688-2.358-2.064-3.69-3.445-4.398-1.383-.71-2.76-.824-3.52-.824-.37 0-.593.026-.602.028l.072.63v-.002m-14.273 25.289l.035.017c.196.1 1.153.63 2.107 1.747.955 1.116 1.91 2.81 2.128 5.278l.607-.058c-.244-2.788-1.395-4.688-2.485-5.874-1.09-1.188-2.115-1.675-2.14-1.687l-.25.577" fill="#2B3F22"/><path d="M.93 132.48l3.814 46.67c.05.626.355 1.202.836 1.58l2.753 2.18s-.12-.425-.352-1.412c-.23-.988-3.236-14.666 3.457-22.456 0 0 6.823-5.745 12.945 2.588 0 0 4 4.83 5.576 14.31 1.577 9.478 6.636 16.22 11.072 19.48 4.436 3.26 8.487 3.09 10.112 2.973 1.626-.118 2.123-.532 6.105-1.13 2.784-.417 8.947-1.81 12.4-2.608 1.42-.33 2.396-1.685 2.304-3.197l-3.053-50.134c-.102-1.67-1.68-2.8-3.215-2.302l-32.11 10.41c-.002 0-1.75 1.184-4.375.58-2.627-.606-3.607-.888-3.607-.888l-22.233-18.01c-1.036-.838-2.536.008-2.424 1.37" fill="#5F8C45"/><path d="M9.192 182.496l-2.982-2.36c-.37-.293-.607-.737-.646-1.222l-3.774-46.186-.004-.08c.003-.243.09-.422.235-.57.148-.145.356-.233.55-.23.163 0 .313.046.476.18l21.127 17.507 7.91 1.29 33.426-10.835c.202-.066.4-.096.594-.096.502 0 .98.204 1.343.55.362.347.6.822.635 1.388l3.035 49.813v-.003l.004.125c.002.92-.636 1.72-1.52 1.88l-20.976 3.8.29 1.717 20.974-3.8c1.69-.307 2.91-1.832 2.91-3.597l-.006-.23v-.003l-3.035-49.813c-.062-1.026-.512-1.93-1.174-2.56-.662-.634-1.54-1.01-2.48-1.01-.36 0-.73.057-1.092.174l-33.055 10.715-7.086-1.158-20.778-17.22c-.455-.378-1-.56-1.52-.56-.643.002-1.247.26-1.703.71-.457.443-.763 1.1-.76 1.837l.01.227 3.773 46.185c.08.975.552 1.87 1.302 2.463l2.982 2.36 1.016-1.39M24.093 149.182l1.02 14.9 1.672-.125-1.02-14.9m4.538 1.198l2.98 37.265 1.67-.144-2.98-37.266m-26.603-18.046l-.327-3.76v-.005l-.102.01h.103v-.01l-.102.01h.103-.116l.078.087.038-.088h-.116l.078.087-.06-.068v.09l.06-.023-.06-.068v.09-.11l-.076.086.074.026v-.11l-.075.085 22.29 21.045.012.01c.404.356.91.542 1.42.542.27 0 .54-.05.795-.154h.003l33.69-13.64.083-.017.154.063.07.16.19 3.083 1.673-.11-.188-3.087c-.032-.534-.27-1.01-.614-1.335-.344-.327-.798-.52-1.284-.52-.23 0-.466.045-.692.136l-33.69 13.64h.002l-.19.036c-.122 0-.242-.044-.338-.13l-.542.667.563-.646-22.28-21.035c-.298-.284-.69-.43-1.053-.426-.412 0-.793.162-1.086.447-.293.28-.494.714-.492 1.184l.008.16v-.005l.327 3.76 1.67-.157m67.234 53.9c11.414-13.677 23.063-37.532 26.8-67.888l-1.662-.222c-3.688 30.01-15.237 53.598-26.404 66.965l1.265 1.143M105.42 122.585c-.206 1.36-3.444 20.414-11.387 40.388-3.97 9.99-9.116 20.21-15.618 28.57-6.505 8.363-14.343 14.847-23.704 17.484-3.37.95-6.67 1.39-9.858 1.39-10.347 0-19.56-4.64-26.197-11.67-6.638-7.03-10.67-16.44-10.667-25.895 0-1.633.12-3.27.368-4.895.523-3.45 1.673-6.027 3.118-7.71 1.452-1.686 3.167-2.497 4.99-2.502 2.217 0 4.687 1.24 6.942 4.02 2.25 2.775 4.246 7.073 5.44 13.006 1.69 8.37 4.63 14.48 8.423 18.527 3.787 4.047 8.444 5.982 13.354 5.976 2.112 0 4.27-.353 6.435-1.032.68-.213 1.38-.487 2.09-.822l-.69-1.59c-.65.306-1.28.553-1.885.742-2.025.635-4.02.958-5.952.958-4.49-.007-8.647-1.72-12.154-5.45-3.504-3.733-6.34-9.525-7.982-17.666-1.24-6.147-3.32-10.707-5.8-13.772-2.474-3.06-5.387-4.638-8.224-4.64-2.324-.005-4.533 1.082-6.24 3.083-1.714 2.002-2.96 4.898-3.523 8.6-.26 1.717-.387 3.445-.387 5.167.003 9.974 4.23 19.784 11.146 27.116 6.916 7.33 16.555 12.195 27.394 12.195 3.337 0 6.786-.46 10.297-1.45 9.815-2.767 17.925-9.525 24.57-18.07 9.97-12.827 16.702-29.718 21.013-43.682 4.306-13.968 6.175-24.99 6.344-26.102l-1.656-.272" fill="#2B3F22"/><path d="M55.28 160.04l.12 6.91 6.314 2.153-6.282 2.254-.017 6.913-4.002-5.518-6.325 2.12 3.808-5.665-3.892-5.602 6.356 2.017 3.92-5.58" fill="#DBE3CB"/><path d="M237.862 13.137c-22.34-4.154-56.634-7.52-97.03.6-26.717 5.372-48.584 14.254-64.866 22.45l-.664-7.69c16.283-8.197 38.15-17.08 64.865-22.45 40.397-8.12 74.692-4.755 97.032-.6l.662 7.69" fill="#7A9C5E"/><path d="M254.255 87.953l2.162-.24c.77-.087 3.038-6.014 1.635-16.426-1.16-8.694-3.876-17.778-5.374-17.64l-2.195.198" fill="#405533"/><path d="M254.347 88.848l2.162-.24c.232-.03.396-.122.52-.208.227-.17.36-.35.498-.556.232-.362.44-.82.65-1.413.617-1.767 1.186-4.712 1.188-8.75 0-1.93-.132-4.11-.456-6.518-.583-4.366-1.548-8.81-2.57-12.202-.51-1.697-1.032-3.127-1.55-4.183-.262-.53-.517-.966-.81-1.32-.148-.176-.307-.335-.507-.47-.197-.13-.456-.243-.76-.244l-.157.01.123.893-.076-.898-2.195.2.15 1.793 2.222-.2.02-.004-.09-.65v.657l.09-.007-.09-.65v.657-.43l-.133.408.132.023v-.43l-.133.408.053-.17-.093.154.04.016.053-.17-.093.153c.01 0 .176.155.352.442.318.502.714 1.37 1.112 2.472 1.205 3.313 2.492 8.743 3.19 13.99.314 2.33.44 4.425.44 6.27 0 3.135-.364 5.553-.787 7.16-.21.8-.438 1.4-.62 1.76-.09.18-.17.297-.2.332l-.01.008.362.406-.056-.53c-.24.036-.3.125-.307.124l.362.406-.056-.53-2.16.24.183 1.79" fill="#2B3F22"/><path d="M236.978 49.062l10.283-.934c1.98-.18 5.57 11.82 7.1 23.306 1.854 13.755-1.143 21.587-2.16 21.7l-10.31 1.148" fill="#7A9C5E"/><path d="M237.052 49.958l10.283-.934-.01-.122.007.123h.004l-.01-.123.006.123-.028-.506v.506h.028l-.028-.507v.506-.28l-.087.268.087.013v-.28l-.087.268.018-.053-.024.05.007.003.018-.053-.024.05c.02-.002.244.183.483.55.43.643.965 1.78 1.502 3.24 1.625 4.386 3.367 11.69 4.308 18.757.416 3.09.584 5.87.584 8.322 0 4.163-.485 7.382-1.052 9.533-.282 1.074-.587 1.884-.84 2.385-.126.25-.24.423-.303.495l-.032.035.007.008-.006-.01v.002l.007.008-.006-.01.3.413-.053-.5c-.166.023-.232.08-.246.09l.3.412-.053-.5-10.31 1.148.183 1.79 10.31-1.148c.247-.03.423-.127.56-.224.256-.188.418-.403.587-.658.287-.446.557-1.037.827-1.805.8-2.293 1.55-6.157 1.554-11.46 0-2.538-.174-5.403-.6-8.573-.768-5.752-2.042-11.613-3.384-16.074-.672-2.232-1.36-4.11-2.03-5.48-.34-.688-.67-1.248-1.034-1.686-.183-.22-.377-.41-.61-.566-.23-.153-.52-.277-.855-.278l-.12.005-10.282.934.15 1.795" fill="#2B3F22"/><path d="M78.56 112.515l-2.15.332c-.767.118-4.395-5.026-5.552-15.47-.98-8.72-.543-18.22.94-18.48l2.173-.382" fill="#405533"/><path d="M78.43 111.624l-2.15.332.128.89-.105-.893.077.66v-.666l-.077.005.077.66v-.666.486l.228-.437c-.007 0-.06-.044-.227-.048v.486l.228-.437-.018-.012c-.055-.04-.194-.168-.357-.37-.59-.715-1.52-2.305-2.382-4.698-.866-2.397-1.687-5.61-2.133-9.644-.352-3.13-.52-6.368-.52-9.224 0-2.503.13-4.718.368-6.276.117-.776.265-1.39.407-1.754.068-.18.137-.293.16-.32l.004-.004-.14-.134.097.166.042-.032-.14-.134.097.166-.226-.388.072.446.154-.058-.226-.388.072.446 2.173-.38-.286-1.778-2.173.38c-.397.073-.677.318-.86.55-.32.42-.488.9-.65 1.496-.233.89-.396 2.034-.507 3.392-.11 1.357-.168 2.92-.168 4.604 0 2.93.17 6.228.53 9.432.582 5.25 1.78 9.207 2.955 11.88.59 1.338 1.172 2.352 1.69 3.065.26.358.5.64.745.862.123.11.248.208.397.293.15.08.327.164.597.17l.13-.01h.018l.005-.002 2.15-.332-.254-1.78v-.002" fill="#2B3F22"/><path d="M85.887 70.356l-10.18 1.784c-1.96.343-2.533 12.897-1.24 24.414 1.528 13.798 6.32 20.595 7.332 20.44l10.258-1.586" fill="#7A9C5E"/><path d="M85.743 69.468l-10.18 1.784c-.434.08-.75.35-.966.625-.38.495-.6 1.102-.807 1.868-.3 1.145-.515 2.646-.662 4.43-.147 1.78-.22 3.837-.22 6.057 0 3.858.225 8.206.7 12.427.764 6.91 2.34 12.107 3.88 15.607.772 1.75 1.533 3.076 2.2 3.996.335.46.643.82.945 1.095.153.136.303.253.474.35.173.095.37.185.657.19l.114-.006.026-.003.023-.005 10.258-1.584-.254-1.78-10.258 1.584.127.89-.08-.897.007.08-.004-.08h-.003l.007.08-.004-.08.04.62v-.622l-.04.002.04.62v-.622.51l.147-.488-.147-.022v.51l.147-.488-.068.23.09-.22-.022-.01-.068.23.09-.22v-.002c-.03-.014-.21-.15-.42-.392-.378-.424-.897-1.163-1.46-2.192-1.69-3.09-3.808-8.795-4.726-17.088-.465-4.145-.687-8.434-.686-12.22 0-3.316.17-6.252.488-8.335.156-1.04.355-1.867.555-2.38.097-.256.198-.428.254-.497l.03-.034.003-.004-.085-.106.058.123.027-.018-.085-.106.058.123-.143-.3.054.33.09-.03-.143-.3.055.33 10.178-1.784-.287-1.776" fill="#2B3F22"/><path d="M153.125 107.095s11.08 86.37-9.51 140.776c-8.94 23.618-21.288 37.93-31.162 47.744-7.88 7.833-9.786 14.43-6.37 19.785 3.478 5.446 13.967 4.306 27.133-8.95 19.254-19.39 41.555-58.808 29.175-200.447l-9.266 1.092" fill="#DBE3CB"/><path d="M152.063 107.242l.127 1.043c.566 4.82 2.84 25.824 2.84 51.948.005 27.74-2.58 61.264-12.413 87.23-8.873 23.43-21.087 37.582-30.905 47.345-2.752 2.735-4.816 5.346-6.21 7.863-1.39 2.516-2.114 4.955-2.114 7.3-.003 2.154.622 4.2 1.805 6.045.73 1.146 1.74 2.054 2.958 2.655 1.22.604 2.635.907 4.197.907 2.787-.003 6.047-.95 9.685-2.95 3.636-2.004 7.654-5.07 11.93-9.377 7.796-7.84 16.112-18.997 22.417-38.565 6.31-19.57 10.652-47.556 10.652-89.214 0-20.868-1.09-45.17-3.57-73.568l-2.136.202c2.476 28.342 3.563 52.58 3.563 73.367 0 41.5-4.332 69.254-10.542 88.506-6.218 19.255-14.273 30.01-21.875 37.672-4.16 4.188-8.028 7.128-11.443 9.008-3.413 1.882-6.37 2.694-8.682 2.692-1.297 0-2.387-.25-3.274-.69-.886-.44-1.575-1.063-2.094-1.874-.972-1.53-1.444-3.1-1.446-4.813 0-1.86.574-3.915 1.83-6.186 1.252-2.268 3.185-4.734 5.83-7.364 9.932-9.867 22.415-24.34 31.418-48.14 10-26.444 12.558-60.16 12.563-88.047 0-30.007-2.982-53.253-2.985-53.285l-2.125.295" fill="#2B3F22"/><path d="M161.37 144.028s3.746 45.33-2.983 91.592c-7.612 52.33-29.477 70.837-41.106 75.79-10.565 4.5-11.848-1.3-11.848-1.3s-1.475 11.525 12.977 7.018c14.45-4.508 32.322-30.498 37.09-49.233 4.77-18.736 10.998-48.847 10.432-82.642-.566-33.795-1.726-48.62-1.726-48.62l-2.836 7.396" fill="#A5B98C"/><path d="M152.063 107.242l.127 1.043c.566 4.82 2.84 25.824 2.84 51.948.005 27.74-2.58 61.264-12.413 87.23-8.873 23.43-21.087 37.582-30.905 47.345-2.752 2.735-4.816 5.346-6.21 7.863-1.39 2.516-2.114 4.955-2.114 7.3-.003 2.154.622 4.2 1.805 6.045.73 1.146 1.74 2.054 2.958 2.655 1.22.604 2.635.907 4.197.907 2.787-.003 6.047-.95 9.685-2.95 3.636-2.004 7.654-5.07 11.93-9.377 7.796-7.84 16.112-18.997 22.417-38.565 6.31-19.57 10.652-47.556 10.652-89.214 0-20.868-1.09-45.17-3.57-73.568l-2.136.202c2.476 28.342 3.563 52.58 3.563 73.367 0 41.5-4.332 69.254-10.542 88.506-6.218 19.255-14.273 30.01-21.875 37.672-4.16 4.188-8.028 7.128-11.443 9.008-3.413 1.882-6.37 2.694-8.682 2.692-1.297 0-2.387-.25-3.274-.69-.886-.44-1.575-1.063-2.094-1.874-.972-1.53-1.444-3.1-1.446-4.813 0-1.86.574-3.915 1.83-6.186 1.252-2.268 3.185-4.734 5.83-7.364 9.932-9.867 22.415-24.34 31.418-48.14 10-26.444 12.558-60.16 12.563-88.047 0-30.007-2.982-53.253-2.985-53.285l-2.125.295M156.186 157.255s.173-.114.485-.288c.937-.523 3.096-1.567 5.277-1.565 1.224 0 2.446.322 3.492 1.234l.228-.283c-1.122-.98-2.44-1.32-3.722-1.32-3.05.004-5.936 1.903-5.95 1.908l.19.315m-1.36 39.181c.195-.37.906-.854 1.877-1.2.97-.353 2.197-.596 3.442-.596 2.207.004 4.43.752 5.505 2.912l.376-.202c-1.18-2.362-3.597-3.15-5.88-3.148-1.298 0-2.566.25-3.582.62-1.017.376-1.785.844-2.102 1.395l.365.22m-7.903 41.018c.317-.242.986-.524 1.852-.73.87-.21 1.942-.35 3.098-.35 1.7-.002 3.58.306 5.266 1.15 1.687.842 3.182 2.21 4.145 4.362l.414-.2c-1.01-2.256-2.596-3.712-4.362-4.592-1.767-.882-3.712-1.196-5.464-1.197-1.193 0-2.297.145-3.2.362-.906.22-1.605.5-2.018.807l.268.384m-15.723 35.964c.297-.13.756-.21 1.323-.21 2.14-.005 5.753 1.092 8.857 3.402 3.11 2.312 5.718 5.803 6.012 10.618l.626-.04c-.306-5.053-3.06-8.725-6.274-11.108-3.222-2.387-6.898-3.52-9.22-3.523-.622 0-1.15.08-1.57.26l.244.603m-21.26 25.989l.29-.022c.677-.003 1.7.315 2.82.936 1.685.93 3.604 2.526 5.09 4.644 1.486 2.118 2.542 4.75 2.543 7.777 0 1.112-.14 2.278-.46 3.494l.58.163c.33-1.268.48-2.49.48-3.657-.002-4.243-1.978-7.734-4.326-10.158-1.175-1.213-2.446-2.162-3.624-2.812-1.18-.648-2.26-1.005-3.1-1.008l-.382.028.092.615" fill="#2B3F22"/><path d="M140.172 120.513s1.07 73.104-29.163 113.978c-13.126 17.743-26.955 26.733-37.63 32.542-8.52 4.634-11.684 9.742-10.046 15.15 1.667 5.5 10.824 7.2 25.098-.69 20.875-11.534 56.294-42.948 61.394-162.854l-9.653 1.874" fill="#DBE3CB"/><path d="M139.226 120.526l.005.917c0 4.266-.232 22.938-3.982 45.27-3.743 22.33-11.025 48.313-24.99 67.177-13.025 17.604-26.702 26.492-37.317 32.27-3.607 1.965-6.318 4.028-8.162 6.237-1.84 2.203-2.81 4.598-2.807 7.07 0 1.003.157 2.01.462 3.01.502 1.673 1.627 3.06 3.207 3.974 1.58.92 3.6 1.398 6.003 1.4 4.458-.006 10.265-1.643 17.23-5.487 10.564-5.83 24.83-16.748 37.01-41.206 12.186-24.458 22.33-62.428 24.886-122.476l-1.89-.086c-2.545 59.858-12.66 97.548-24.676 121.658-12.025 24.11-25.906 34.666-36.217 40.373-6.772 3.745-12.333 5.26-16.343 5.256-2.163.002-3.865-.436-5.08-1.147-1.22-.715-1.966-1.668-2.33-2.85-.25-.826-.372-1.63-.372-2.417.004-1.934.726-3.83 2.345-5.78 1.618-1.946 4.138-3.897 7.61-5.784 10.736-5.84 24.717-14.93 37.94-32.813 14.27-19.304 21.57-45.543 25.353-68.04 3.777-22.498 4.01-41.267 4.01-45.607l-.004-.945-1.89.03v-.002" fill="#2B3F22"/><path d="M146.634 118.52c-1.183 22.917-3.728 72.78-20.225 109.343-19.07 42.262-41.63 52.542-52.65 53.783-10.013 1.13-9.737-4.116-9.737-4.116s-3.957 9.395 9.35 9.25c13.307-.147 33.645-18.245 43.006-32.297 9.605-14.42 19.504-34.565 25.54-63.71 7.098-34.27 7.23-72.16 7.23-72.16l-2.515-.094" fill="#A5B98C"/><path d="M139.226 120.526l.005.917c0 4.266-.232 22.938-3.982 45.27-3.743 22.33-11.025 48.313-24.99 67.177-13.025 17.604-26.702 26.492-37.317 32.27-3.607 1.965-6.318 4.028-8.162 6.237-1.84 2.203-2.81 4.598-2.807 7.07 0 1.003.157 2.01.462 3.01.502 1.673 1.627 3.06 3.207 3.974 1.58.92 3.6 1.398 6.003 1.4 4.458-.006 10.265-1.643 17.23-5.487 10.592-5.847 24.935-17.562 37.08-42.418 12.147-24.858 22.124-62.836 24.14-121.297l-1.89-.07c-2.007 58.262-11.952 95.957-23.937 120.475-11.99 24.52-25.995 35.883-36.28 41.573-6.772 3.745-12.333 5.26-16.343 5.256-2.163 0-3.865-.437-5.08-1.148-1.22-.715-1.966-1.668-2.33-2.85-.25-.826-.372-1.63-.372-2.417.005-1.934.727-3.83 2.346-5.78 1.618-1.946 4.138-3.897 7.61-5.784 10.736-5.84 24.717-14.93 37.94-32.813 14.27-19.303 21.57-45.542 25.353-68.04 3.776-22.497 4.01-41.266 4.01-45.606l-.005-.945-1.89.028M137.76 158.36l.36-.157c.694-.285 2.306-.856 3.994-.856 1.366 0 2.767.37 3.81 1.54l.23-.223c-1.12-1.258-2.624-1.644-4.04-1.644-2.34.002-4.475 1.04-4.486 1.043l.133.297m-7.601 35.24c.287-.296 1.163-.533 2.23-.527 1.255 0 2.788.294 4.063.985 1.277.693 2.29 1.766 2.577 3.344l.366-.07c-.312-1.722-1.428-2.894-2.77-3.618-1.347-.727-2.926-1.027-4.235-1.028-1.12.007-2.032.204-2.486.63l.255.284m-13.9 32.905c.256-.098.705-.163 1.263-.162 1.48-.002 3.748.436 5.735 1.603 1.99 1.17 3.694 3.05 4.132 5.967l.398-.065c-.457-3.063-2.27-5.06-4.333-6.267-2.065-1.21-4.382-1.655-5.933-1.657-.59 0-1.066.063-1.4.187l.14.394h-.002m-21.777 26.478l.193-.01c.63-.005 1.64.323 2.763.957 1.686.948 3.645 2.567 5.17 4.682 1.527 2.116 2.622 4.72 2.622 7.658 0 .82-.085 1.664-.27 2.536l.542.124c.193-.91.282-1.8.282-2.66 0-4.12-2.044-7.585-4.432-10.012-1.195-1.214-2.48-2.174-3.652-2.833-1.176-.658-2.23-1.024-3.026-1.027l-.257.015.063.572m-24.124 16.621c.438.055 1.088.393 1.782.976 2.095 1.75 4.606 5.633 4.6 10.022 0 1.896-.463 3.89-1.622 5.878l.45.286c1.21-2.072 1.7-4.174 1.698-6.164 0-3.072-1.155-5.87-2.572-7.94-.71-1.035-1.485-1.89-2.225-2.51-.743-.617-1.44-1.008-2.047-1.092l-.067.544" fill="#2B3F22"/><path d="M205.927 120.513s-1.073 73.104 29.163 113.978c13.125 17.743 26.953 26.733 37.628 32.54 8.52 4.636 11.685 9.744 10.046 15.15-1.667 5.5-10.824 7.202-25.098-.687-20.875-11.535-56.294-42.95-61.394-162.855" fill="#DBE3CB"/><path d="M204.98 120.496l-.004.947c0 4.342.233 23.108 4.01 45.607 3.782 22.498 11.085 48.736 25.354 68.04 13.224 17.882 27.204 26.974 37.94 32.812 3.47 1.886 5.992 3.838 7.61 5.783 1.618 1.95 2.34 3.848 2.344 5.78 0 .79-.123 1.592-.372 2.42-.363 1.18-1.11 2.133-2.328 2.85-1.217.708-2.92 1.147-5.082 1.145-4.01.005-9.572-1.51-16.343-5.255-10.312-5.707-24.194-16.263-36.218-40.373-12.017-24.11-22.132-61.8-24.676-121.658l-1.89.087c2.555 60.05 12.7 98.02 24.887 122.477 12.18 24.458 26.445 35.376 37.01 41.206 6.963 3.845 12.77 5.48 17.23 5.486 2.4-.002 4.423-.48 6.004-1.4 1.58-.912 2.705-2.3 3.207-3.973.303-1 .46-2.008.46-3.01.004-2.472-.965-4.866-2.807-7.07-1.843-2.21-4.554-4.272-8.163-6.237-10.614-5.778-24.292-14.666-37.317-32.27-13.965-18.864-21.246-44.846-24.99-67.178-3.75-22.33-3.983-41.003-3.982-45.27l.003-.686.002-.228-1.89-.03v-.002" fill="#2B3F22"/><path d="M199.464 118.52c1.183 22.917 3.728 72.78 20.226 109.343 19.068 42.262 41.628 52.542 52.648 53.784 10.013 1.128 9.737-4.117 9.737-4.117s3.958 9.394-9.35 9.25c-13.306-.147-33.645-18.245-43.005-32.297-9.606-14.42-19.506-34.564-25.542-63.71-7.097-34.27-7.228-72.16-7.228-72.16l2.514-.094" fill="#A5B98C"/><path d="M204.98 120.496l-.004.947c0 4.342.233 23.108 4.01 45.607 3.782 22.498 11.085 48.736 25.354 68.04 13.224 17.882 27.204 26.974 37.94 32.812 3.47 1.886 5.992 3.838 7.61 5.783 1.618 1.95 2.34 3.848 2.344 5.78 0 .79-.123 1.592-.372 2.42-.363 1.18-1.11 2.133-2.328 2.85-1.217.708-2.92 1.147-5.082 1.145-4.01.005-9.572-1.51-16.343-5.255-10.285-5.69-24.29-17.053-36.28-41.573-11.986-24.518-21.93-62.213-23.936-120.475l-1.89.07c2.014 58.46 11.99 96.44 24.14 121.297 12.144 24.856 26.488 36.57 37.08 42.418 6.963 3.845 12.77 5.48 17.23 5.486 2.4 0 4.423-.478 6.004-1.398 1.58-.913 2.705-2.3 3.207-3.974.303-1 .46-2.008.46-3.01.004-2.472-.965-4.866-2.807-7.07-1.843-2.21-4.554-4.272-8.163-6.237-10.614-5.78-24.292-14.667-37.317-32.27-13.965-18.865-21.246-44.847-24.99-67.18-3.75-22.33-3.983-41.002-3.982-45.268l.003-.687v-.228l-1.89-.03v-.002M208.47 158.063c-.012-.004-2.148-1.04-4.486-1.043-1.417 0-2.922.386-4.04 1.643l.23.223c1.04-1.17 2.444-1.538 3.81-1.54 1.125 0 2.216.254 3.025.508.404.127.736.254.968.35l.36.156.132-.296m7.723 35.253c-.453-.427-1.367-.624-2.487-.63-1.31 0-2.89.3-4.234 1.027-1.342.725-2.458 1.896-2.77 3.617l.368.073c.286-1.58 1.298-2.65 2.575-3.344 1.275-.692 2.807-.986 4.062-.986 1.068-.006 1.944.23 2.232.526l.255-.282m13.78 32.792c-.333-.123-.81-.185-1.4-.186-1.55.002-3.867.447-5.932 1.658-2.063 1.208-3.875 3.204-4.33 6.267l.397.064c.438-2.918 2.143-4.796 4.13-5.967 1.987-1.168 4.256-1.605 5.736-1.603.56-.002 1.008.064 1.263.162l.136-.394m21.707 26.301l-.26-.015c-.793.003-1.848.37-3.025 1.027-1.76.99-3.77 2.652-5.352 4.843-1.58 2.19-2.732 4.913-2.732 8.003 0 .86.09 1.748.285 2.66l.54-.124c-.185-.87-.27-1.717-.27-2.536 0-3.915 1.95-7.244 4.266-9.6 1.158-1.178 2.405-2.108 3.53-2.74 1.122-.634 2.133-.96 2.762-.958l.194.01.064-.57m23.991 16.65c-.606.084-1.303.475-2.045 1.093-2.212 1.856-4.79 5.838-4.798 10.45 0 1.99.487 4.09 1.7 6.162l.45-.284c-1.162-1.988-1.623-3.983-1.623-5.88 0-2.925 1.107-5.624 2.474-7.62.684-.997 1.432-1.818 2.127-2.4.694-.583 1.345-.92 1.783-.976l-.067-.544" fill="#2B3F22"/><path d="M188.095 113.3s-6.036 86.912 17.68 139.92c10.295 23.01 23.453 36.52 33.88 45.695 8.32 7.323 10.606 13.79 7.506 19.348-3.153 5.656-13.69 5.178-27.6-7.226-20.347-18.14-44.9-56.086-40.778-198.244l9.313.507" fill="#DBE3CB"/><path d="M187.027 113.22c-.002.02-.69 9.937-.69 25.115 0 14.907.663 34.89 3.298 55.572 2.638 20.68 7.24 42.06 15.168 59.784 10.37 23.19 23.672 36.85 34.158 46.076 2.927 2.573 5.06 5.017 6.44 7.288 1.383 2.275 2.012 4.357 2.012 6.274-.002 1.515-.386 2.95-1.178 4.377-.512.913-1.234 1.62-2.204 2.125-.97.502-2.194.793-3.676.793-2.32.003-5.255-.725-8.653-2.403-3.398-1.675-7.257-4.294-11.444-8.03-9.287-8.29-19.438-20.677-27.353-45.722-7.905-25.04-13.508-62.724-13.507-121.374 0-9.525.147-19.6.458-30.266l-2.143-.068c-.31 10.685-.457 20.785-.457 30.333 0 58.796 5.606 96.694 13.613 122.07 7.998 25.37 18.464 38.234 27.995 46.72 4.307 3.838 8.312 6.57 11.923 8.35 3.61 1.78 6.825 2.617 9.57 2.62 1.75 0 3.313-.344 4.634-1.03 1.32-.68 2.385-1.71 3.1-3 .962-1.722 1.47-3.577 1.47-5.496 0-2.435-.804-4.935-2.345-7.466-1.542-2.532-3.824-5.118-6.866-7.796-10.367-9.127-23.382-22.484-33.6-45.313-7.788-17.4-12.37-38.593-14.986-59.136-2.62-20.544-3.28-40.44-3.28-55.278 0-7.555.17-13.8.342-18.15.085-2.177.17-3.88.235-5.038l.078-1.32.028-.445-2.137-.16" fill="#2B3F22"/><path d="M182.042 147.087s-1.132 49.08 8.274 94.833c10.64 51.757 33.54 68.854 45.438 73.066 10.81 3.827 11.752-2.044 11.752-2.044s2.142 11.412-12.545 7.822c-14.686-3.59-34.036-28.408-39.886-46.81-5.85-18.4-13.816-48.065-15.216-81.834-1.4-33.77-1.104-48.64-1.104-48.64l3.29 3.606" fill="#A5B98C"/><path d="M187.027 113.22c-.002.02-.69 9.937-.69 25.115 0 14.907.663 34.89 3.298 55.572 2.638 20.68 7.24 42.06 15.168 59.784 10.37 23.19 23.672 36.85 34.158 46.076 2.927 2.573 5.06 5.017 6.44 7.288 1.383 2.275 2.012 4.357 2.012 6.274-.002 1.515-.386 2.95-1.178 4.377-.512.913-1.234 1.62-2.204 2.125-.97.502-2.194.793-3.676.793-2.32.003-5.255-.725-8.653-2.403-3.398-1.675-7.257-4.294-11.444-8.03-9.287-8.29-19.438-20.677-27.353-45.722-7.905-25.04-13.508-62.724-13.507-121.374 0-9.525.147-19.6.458-30.266l-2.143-.068c-.31 10.685-.457 20.785-.457 30.333 0 58.796 5.606 96.694 13.613 122.07 7.998 25.37 18.464 38.234 27.995 46.72 4.307 3.838 8.312 6.57 11.923 8.35 3.61 1.78 6.825 2.617 9.57 2.62 1.75 0 3.313-.344 4.634-1.03 1.32-.68 2.385-1.71 3.1-3 .962-1.722 1.47-3.577 1.47-5.496 0-2.435-.804-4.935-2.345-7.466-1.542-2.532-3.824-5.118-6.866-7.796-10.367-9.127-23.382-22.484-33.6-45.313-7.788-17.4-12.37-38.593-14.986-59.136-2.62-20.544-3.28-40.44-3.28-55.278 0-7.555.17-13.8.342-18.15.085-2.177.17-3.88.235-5.038l.078-1.32.028-.445-2.137-.16M188.128 163.237c-.013-.005-2.702-1.543-5.574-1.546-1.432 0-2.92.39-4.115 1.567l.245.27c1.112-1.098 2.496-1.466 3.87-1.466s2.73.375 3.737.752c.504.188.922.377 1.212.518l.45.232.173-.324m3.818 39.103c-.32-.488-1.012-.876-1.923-1.18-.91-.3-2.04-.495-3.215-.495-1.24 0-2.534.216-3.667.765-1.132.55-2.105 1.44-2.67 2.767l.385.178c.522-1.222 1.404-2.032 2.463-2.547 1.06-.513 2.294-.723 3.49-.723 1.13 0 2.223.188 3.088.473.865.28 1.5.68 1.698 1.005l.353-.243m10.164 40.287c-.374-.245-.96-.453-1.71-.61-.75-.158-1.655-.258-2.645-.258-1.827 0-3.938.34-5.843 1.314-1.903.97-3.6 2.588-4.55 5.11l.425.174c.91-2.405 2.506-3.925 4.327-4.858 1.82-.932 3.868-1.265 5.64-1.265.96 0 1.84.097 2.555.247.713.148 1.267.356 1.553.547l.245-.4m17.753 34.691c-.335-.12-.733-.174-1.188-.175-2.23.007-5.924 1.3-9.123 3.887-3.192 2.583-5.875 6.495-5.887 11.705h.628c.013-4.963 2.555-8.685 5.645-11.192 3.08-2.504 6.722-3.755 8.738-3.748.406 0 .74.05.98.138l.208-.614m22.579 24.601l-.214-.01c-.8.004-1.816.374-2.927 1.035-1.663.994-3.524 2.662-4.98 4.852-1.454 2.19-2.502 4.905-2.502 7.976 0 1.403.22 2.88.717 4.408l.566-.2c-.476-1.466-.684-2.872-.684-4.208 0-3.893 1.773-7.21 3.908-9.56 1.066-1.172 2.22-2.1 3.273-2.73 1.05-.632 2.01-.957 2.63-.953l.16.008.055-.62" fill="#2B3F22"/><path d="M243.016 139.807l-140.556 19.683c-2.982.42-5.726-1.758-6.128-4.86l-13.028-100.67c-.402-3.102 1.69-5.955 4.674-6.372l140.556-19.685c2.982-.417 5.726 1.76 6.128 4.862l13.028 100.668c.4 3.103-1.69 5.957-4.674 6.374" fill="#405533"/><path d="M243.016 139.807l-.125-.968-140.556 19.683c-.205.028-.408.042-.61.042-2.22 0-4.16-1.71-4.46-4.066l-13.032-100.668c-.028-.214-.04-.425-.04-.633 0-2.31 1.644-4.328 3.908-4.642l140.559-19.685c.204-.028.408-.042.607-.042 2.22 0 4.16 1.71 4.463 4.067l13.028 100.667c.028.214.04.425.04.634 0 2.308-1.644 4.327-3.907 4.643l.25 1.935c3.208-.45 5.537-3.3 5.537-6.578 0-.296-.018-.593-.057-.894l-13.029-100.667c-.434-3.337-3.17-5.76-6.325-5.76-.284 0-.57.02-.86.06l-140.554 19.685c-3.21.45-5.537 3.298-5.538 6.578 0 .296.02.595.058.895l13.03 100.667c.433 3.337 3.17 5.76 6.323 5.76.284 0 .57-.02.86-.06l140.556-19.685-.125-.968" fill="#2B3F22"/><path d="M97.888 48.043l128.746-17.993 14.01 108.248-128.744 18.028-14.012-108.282" fill="#A5B98C"/><path d="M225.128 32.104l13.54 104.627-125.26 17.543-13.546-104.664 125.268-17.506m3.01-4.106l-132.226 18.48 14.482 111.903 132.22-18.516-14.476-111.865" fill="#202C1C"/><path d="M100.632 102.32c.216 1.666-.908 3.198-2.51 3.423-1.6.225-3.074-.944-3.29-2.61-.215-1.665.908-3.197 2.51-3.422 1.6-.223 3.074.945 3.29 2.61" fill="#5B6B4A"/><path d="M100.632 102.32l-.81.113.02.298c0 1.078-.77 2.024-1.828 2.17l-.285.02c-1.038 0-1.947-.8-2.086-1.9l-.02-.298c0-1.078.77-2.024 1.827-2.17l.287-.02c1.036 0 1.945.8 2.086 1.902l.81-.113.808-.113c-.254-1.955-1.856-3.374-3.704-3.374-.167 0-.335.012-.504.036-1.88.263-3.243 1.93-3.243 3.853 0 .173.01.35.033.524.254 1.954 1.856 3.373 3.705 3.373.165 0 .334-.01.503-.035 1.88-.266 3.245-1.932 3.245-3.854 0-.172-.01-.347-.034-.522l-.808.113" fill="#2B3F22"/><path d="M146.636 65.506l-26.514 3.822 2.543 19.093 23.97-22.914m27.487-26.275l-28.117 3.93-42.31 36.053 3.147 24.332 15.583-14.896-2.587-19.42.113-.158 27.03-3.895 27.14-25.945" fill="#B0C298"/><path d="M103.694 79.214l-1.484 1.265 3.167 24.468 1.466-1.402-3.148-24.332m72.527-41.99l-27.81 3.888-2.407 2.05 28.117-3.93 2.1-2.007" fill="#3B4632"/><path d="M226.53 30.193l13.975 107.994-128.497 17.995-13.982-108.03 128.504-17.96m1.61-2.196l-132.224 18.48 14.482 111.903 132.22-18.518-14.476-111.865M80.873 71.185l-4.723-42.79-.85.1.373.8c16.23-8.17 38.026-17.022 64.656-22.375 17.966-3.612 34.723-4.944 49.75-4.944 18.65 0 34.635 2.052 46.968 4.346l.15-.876-.85.1c1.588 14.354 3.174 28.708 4.76 43.06l1.698-.202-4.76-43.06-.072-.657-.627-.117c-12.41-2.307-28.5-4.373-47.268-4.373-15.125 0-31.99 1.34-50.076 4.976-26.805 5.388-48.742 14.3-65.076 22.52l-.546.277 4.792 43.416 1.698-.203M76.393 37.108c16.223-8.166 38.008-17.015 64.624-22.366 17.958-3.61 34.707-4.94 49.726-4.94 18.64 0 34.62 2.05 46.945 4.342l.347-2.014c-12.417-2.31-28.513-4.376-47.292-4.376-15.132 0-32.006 1.342-50.1 4.98-26.817 5.39-48.764 14.306-65.107 22.532l.857 1.843" fill="#2B3F22"/><path d="M184.678 120.424l.133-.02-2.994-22.482 35.284-5.086 2.976 22.346-35.417 5.105.017.137.133-.02-.133.02.02.138 35.68-5.142-3.05-22.895-35.813 5.16 3.05 22.896.132-.017-.02-.138M184.678 120.424l-.018-.137-56.663 8.166-7.875-59.125 56.53-8.15 7.894 59.265.132-.02-.018-.136.018.137.133-.02-7.91-59.4-.15-.118-56.797 8.185-.113.158 7.912 59.4.052.092.098.026 56.796-8.185.088-.053.025-.103-.132.02M181.665 97.804l.133-.02-4.88-36.642 35.284-5.086 4.862 36.505-35.416 5.106.018.138.133-.02-.134.02.018.137 35.548-5.123.09-.053.024-.103-4.9-36.78-.15-.118-35.548 5.124-.113.156 4.898 36.78.052.09.1.028-.02-.137m15.008 6.149l-.132.02 1.9 14.263-13.657 1.97-1.88-14.13 13.787-1.987-.018-.136-.132.02.132-.02-.018-.137-13.92 2.006-.114.156 1.92 14.4.05.093.1.026 13.92-2.008.088-.054.025-.102-1.918-14.402-.15-.118.017.137M190.55 104.837l-.017-.137-7.668 1.104-1.05-7.88 7.535-1.087 1.068 8.02.133-.02-.017-.137.018.137.133-.02-1.087-8.156-.15-.117-7.8 1.124-.113.156 1.087 8.157.053.09.098.028 7.8-1.125.088-.053.025-.103-.132.02M190.308 103.012l.132-.018-.825-6.196 5.857-.845.807 6.06-5.99.862.018.137.132-.018-.132.018.018.137 6.12-.882.09-.054.025-.102-.842-6.334-.15-.118-6.12.882-.115.156.843 6.333.052.093.098.026-.018-.138" fill="#5F8C45"/><path d="M176.676 60.337c-29.052 4.187-50.054 30.012-50.054 59.676 0 2.763.182 5.56.557 8.374.05.38.387.645.75.592.366-.053.62-.404.57-.783-.367-2.752-.544-5.484-.544-8.183 0-28.977 20.518-54.212 48.902-58.302.365-.053.62-.403.57-.782-.05-.38-.388-.644-.752-.592M217.874 92.585c-2.524-18.944-18.085-32.64-35.962-32.64-1.666 0-3.35.12-5.046.363-.365.053-.62.404-.57.783.05.38.388.645.754.593 1.633-.236 3.256-.35 4.862-.35 17.216 0 32.21 13.192 34.64 31.44.052.38.388.646.753.593.365-.052.62-.403.57-.782M198.69 119.105c11.27-1.625 19.417-11.642 19.417-23.15 0-1.072-.07-2.157-.216-3.248-.05-.38-.386-.645-.75-.592-.365.052-.62.403-.57.782.136 1.028.203 2.05.203 3.058 0 10.82-7.663 20.25-18.265 21.776-.365.054-.62.405-.57.783.05.38.388.645.753.593M182.09 106.056c1.018 7.628 7.284 13.145 14.485 13.145.67 0 1.35-.047 2.032-.145.364-.053.62-.403.57-.782-.05-.38-.387-.645-.752-.593-.623.09-1.24.133-1.85.133-6.54 0-12.24-5.013-13.162-11.948-.05-.38-.387-.645-.75-.592-.366.053-.62.404-.57.782M189.374 95.993c-4.278.617-7.37 4.417-7.37 8.787 0 .406.026.818.083 1.233.05.38.388.645.753.592.364-.053.62-.404.568-.784-.047-.35-.07-.696-.07-1.04 0-3.682 2.61-6.893 6.22-7.413.365-.052.62-.402.57-.78-.05-.382-.388-.647-.752-.594M197.09 102.035c-.474-3.55-3.387-6.116-6.74-6.116-.31 0-.627.02-.945.067-.365.053-.62.404-.567.783.052.38.39.644.754.59.254-.037.507-.054.76-.054 2.69 0 5.038 2.062 5.417 4.92.05.378.386.643.75.59.366-.05.62-.402.57-.78" fill="#405533"/><path d="M212.602 59.07l-8.78 8.55c4.317 3.404 7.906 7.805 10.422 12.932l1.075-1.077-2.719-20.405m14.112-13.75l-13.872 13.516 2.717 20.4 13.873-13.896-.2-1.54-2.516-18.48" fill="#B0C298"/><path d="M229.23 63.802l.2 1.54.01-.01-.21-1.53" fill="#3B4632"/><path d="M212.84 58.837l-.238.233 2.717 20.406.237-.238-2.717-20.4" fill="#779B5B"/><path d="M172.556 122.31l-29.187 4.207-28.172 27.446 21.394-2.938 8.484-1.188 27.48-27.526m10.985-11.433l.052.38.093-.093-.144-.287m2.36-13.544l-4.085.59.566 4.247c.592-1.988 1.842-3.706 3.52-4.837m13.54-1.95l-3.704.533.373 2.802 3.33-3.336m-18.907-5.07l-36.826 35.877 29.175-4.206 10.47-10.49-.194-1.463c-.516-1.238-.88-2.57-1.068-3.974l-.002-.02-.004-.024c-.056-.415-.083-.826-.083-1.233 0-.656.07-1.297.203-1.917l-1.675-12.553m22.303-21.727l-22.063 21.495 1.008 7.567 4.715-.68c.872-.487 1.84-.824 2.88-.974h.01l.02-.004c.318-.047.635-.068.946-.068.6 0 1.19.082 1.753.24l7.663-1.105 13.472-13.496c-2.466-5.17-6.06-9.596-10.404-12.974" fill="#B0C298"/><path d="M145.077 149.838l-8.484 1.188 8.458-1.16.027-.027" fill="#3B4632"/><path d="M183.16 110.032l.194 1.464-.195-1.463m3.334-13.065l-4.715.68 4.713-.68m13.273-1.913l-7.663 1.104 3.463-.5 4.2-.605m-26.881 26.93l-29.175 4.205-.338.328 29.187-4.206.327-.327m10.276-11.952l.195 1.462-.195-1.462m-1.344-12.11l.566 4.247-.566-4.248m4.084-.588l-4.085.59 4.085-.59m13.866-2.278l-4.2.605.15.118.02.138 3.703-.534.326-.327m-18.995-4.975l-.238.233 1 7.51.114-.156.133-.02-1.01-7.566M183.16 110.033l.194 1.462.238-.237-.05-.38c-.135-.277-.263-.558-.383-.845m3.335-13.065l-4.714.68-.133.018-.114.156.672 5.042c.05-.235.11-.466.176-.694l-.565-4.248 4.085-.59c.192-.13.39-.25.593-.364" fill="#779B5B"/><path d="M195.472 95.954l-.935.135-1.842.265c1.266.485 2.37 1.354 3.162 2.49l-.385-2.89" fill="#B0C298"/><path d="M194.537 96.09l-1.843.265 1.843-.266" fill="#779B5B"/><path d="M190.35 97.308c-.22 0-.44.013-.662.04l.734 5.508 1.818-.262 2.694-2.7c-.99-1.58-2.703-2.587-4.583-2.587" fill="#B0C298"/><path d="M189.69 97.35h-.002l.524 3.926-.523-3.927" fill="#779B5B"/><path d="M189.746 105.093l-6.314.91c.212 1.485.643 2.882 1.256 4.156l5.058-5.067m2.168-2.172l-1.455.21.146 1.1 1.31-1.31m-2.49-5.533c-3.543.578-6.088 3.755-6.088 7.393 0 .312.02.63.058.948l4.087-.59 2.59-.372.297-.296-.19-1.437h-.002l-.752-5.645" fill="#B0C298"/><path d="M190.072 104.765l-2.59.373 2.59-.373m-.002.001l-2.59.373-4.086.588.012.092.004.035v.007l.02.142 6.314-.91.326-.327m.105-1.734l.19 1.437.238-.238-.147-1.1-.133.018-.098-.026-.05-.09M189.688 97.35l-.097.012-.02.003-.014.002-.133.02.752 5.645.052.092.098.026.133-.018 1.455-.21.327-.327-1.818.262-.735-5.507m5.88-1.688l-3.463.5c.2.055.397.12.59.194l1.843-.266.935-.135.385 2.89.052.076.2-.2-.392-2.94-.15-.118" fill="#779B5B"/><path d="M203.824 67.622l-.988.963c4.344 3.378 7.937 7.803 10.404 12.974l1.006-1.008c-2.516-5.127-6.105-9.528-10.42-12.93m-20.416 38.234c.033.366-.218.698-.57.75l-.095.006c-.32 0-.6-.238-.656-.572v.013c.188 1.41.553 2.744 1.07 3.983.118.288.247.57.38.846l.145.286 1.002-1.004c-.613-1.275-1.044-2.672-1.256-4.156l-.018-.138v-.01M189.384 95.99l-.007.002c-1.042.15-2.01.488-2.882.976-.204.114-.402.236-.594.365-1.677 1.13-2.927 2.85-3.518 4.837-.068.228-.127.46-.176.694-.133.62-.202 1.26-.202 1.916 0 .406.026.818.083 1.233l.004.025c.057.334.337.573.657.573l.094-.005c.355-.052.605-.383.573-.75l-.004-.035-.013-.092c-.04-.32-.058-.635-.058-.948 0-3.638 2.544-6.815 6.086-7.393l.133-.02.012-.003-.073.005c-.328 0-.614-.25-.66-.598-.05-.372.192-.717.547-.78M190.35 95.92c-.312 0-.628.022-.946.068l-.02.003c-.355.065-.598.41-.547.782.047.347.333.597.66.597l.072-.006h.014l.104-.016c.222-.028.443-.04.663-.04 1.88 0 3.594 1.006 4.584 2.587l.975-.976-.053-.077c-.793-1.135-1.897-2.004-3.162-2.49-.194-.073-.39-.14-.59-.194-.564-.158-1.153-.24-1.755-.24" fill="#5A6B48"/></g></svg>