<svg width="320" height="331" viewBox="0 0 320 331" xmlns="http://www.w3.org/2000/svg"><title>Imported Layers</title><g fill="none"><path d="M63.62 45.784l-16.09-3.39-.327-1.56 13.097-10.934.495 2.367-10.72 8.6 13.04 2.515.502 2.4m4.675-6.129l-1.31.297-3.505-13.595 2.58-.583 2.234 13.882zm-1.365 4.343c-.246-1.176.13-1.878 1.128-2.103.482-.11.886-.04 1.21.202.326.244.55.65.668 1.222.116.553.072 1.013-.13 1.38-.203.368-.54.605-1.015.712-.432.097-.818.042-1.157-.167-.34-.208-.575-.624-.704-1.246zm20.255-13.256c.654 3.13.338 5.707-.95 7.733-1.29 2.026-3.466 3.384-6.534 4.078l-5.05 1.142-3.962-18.966 5.588-1.263c2.835-.64 5.208-.32 7.122.96 1.913 1.277 3.175 3.384 3.786 6.315zm-2.228.583c-.517-2.473-1.503-4.2-2.958-5.186-1.454-.984-3.358-1.21-5.71-.68l-3.082.697 3.164 15.153 2.58-.583c2.53-.572 4.294-1.648 5.296-3.228 1-1.58 1.238-3.638.71-6.172zm22.152-4.923c.634 3.035.394 5.59-.718 7.66-1.114 2.073-2.982 3.406-5.61 4-2.684.605-4.935.22-6.75-1.158-1.817-1.38-3.05-3.625-3.7-6.738-.645-3.088-.413-5.646.695-7.676 1.11-2.03 3.01-3.35 5.703-3.958 2.62-.593 4.845-.19 6.678 1.208 1.833 1.396 3.068 3.617 3.703 6.662zm-14.53 3.282c.538 2.568 1.47 4.397 2.8 5.487 1.33 1.09 2.995 1.408 4.998.955 2.02-.457 3.407-1.463 4.16-3.02.757-1.555.865-3.62.327-6.2-.533-2.55-1.45-4.37-2.752-5.457-1.303-1.086-2.96-1.402-4.97-.948-2.022.457-3.42 1.467-4.193 3.033-.775 1.565-.897 3.614-.37 6.148zm24.784-13.724c-2.005.453-3.442 1.505-4.31 3.155-.872 1.65-1.053 3.68-.55 6.095.52 2.483 1.477 4.274 2.88 5.374 1.4 1.1 3.134 1.418 5.206.95 1.272-.288 2.673-.853 4.203-1.697l.403 1.933c-1.162.78-2.668 1.378-4.524 1.797-2.685.607-4.935.227-6.748-1.138-1.813-1.366-3.046-3.61-3.698-6.73-.408-1.955-.415-3.747-.018-5.376.396-1.63 1.173-2.99 2.333-4.086 1.158-1.095 2.637-1.846 4.43-2.252 1.914-.432 3.66-.446 5.243-.043l-.502 2.095c-1.52-.362-2.97-.388-4.35-.076m17.524 14.121l-2.12.478-3.552-17.006-5.774 1.304-.41-1.958 13.67-3.09.41 1.958-5.776 1.306 3.552 17.007m11.176-12.455l2.883-10.58 2.296-.52-3.66 12.984 1.536 7.356-2.146.485-1.514-7.253-8.52-10.342 2.32-.523 6.806 8.392m20.398-8.753c.4 1.92.08 3.54-.963 4.858-1.045 1.317-2.738 2.24-5.083 2.77l-2.144.485 1.558 7.46-2.12.48-3.96-18.967 4.725-1.068c4.555-1.03 7.217.298 7.987 3.98zm-8.587 6.22l1.908-.43c1.88-.426 3.172-1.048 3.88-1.87.708-.82.916-1.928.626-3.32-.262-1.255-.853-2.1-1.77-2.536-.918-.435-2.212-.464-3.884-.086l-2.37.535 1.61 7.706zm25.374 4.06l-10.164 2.297-3.96-18.966 10.164-2.295.408 1.958-8.043 1.82 1.275 6.108 7.557-1.706.406 1.947-7.557 1.708 1.458 6.978 8.044-1.818.412 1.972" fill="#A5B98C"/><path d="M160.72 260.945c-4.337 0-8.627.047-12.866.14-.405 1.394-.816 2.752-1.235 4.078-7.998 25.37-18.464 38.235-27.995 46.72-4.307 3.84-8.312 6.57-11.922 8.352-3.61 1.78-6.826 2.616-9.57 2.618-1.75 0-3.314-.343-4.634-1.028-1.32-.68-2.386-1.712-3.102-3-.963-1.723-1.47-3.578-1.468-5.497 0-2.436.804-4.935 2.344-7.466 1.542-2.533 3.824-5.12 6.866-7.797 8.888-7.825 19.722-18.758 29.07-36.104-8.184.49-16.09 1.152-23.654 1.97-7.933 9.36-15.81 14.856-22.292 18.432-6.966 3.845-12.773 5.482-17.23 5.486-2.403 0-4.425-.48-6.005-1.398-1.58-.913-2.706-2.3-3.208-3.974-.304-1-.46-2.008-.46-3.01-.005-2.472.964-4.866 2.807-7.07.168-.2.342-.4.525-.6-24.418 6.244-39.402 14.686-39.402 23.977 0 19.235 64.215 34.83 143.428 34.83s143.43-15.595 143.43-34.83c0-15.792-43.285-29.13-102.614-33.398 7.763 14.867 16.707 24.942 24.24 32.432 2.75 2.736 4.815 5.346 6.208 7.863 1.39 2.515 2.114 4.954 2.115 7.3.002 2.153-.625 4.2-1.806 6.044-.73 1.146-1.74 2.054-2.96 2.656-1.217.604-2.633.906-4.194.906-2.788-.003-6.047-.95-9.685-2.95-3.637-2.004-7.655-5.07-11.93-9.377-7.796-7.842-16.11-19-22.418-38.566-.76-2.36-1.494-4.846-2.194-7.462-5.96-.184-12.03-.278-18.193-.278" fill="#ECECEC"/><path d="M299.136 157.717c-4.268-.068-9.91-.593-16.294-2.416-5.928-1.693-10.817-3.67-14.387-5.723 2.3-15.027 4.79-30.573 7.096-45.614.154-.995.87-1.795 1.817-2.008 4.27-.96 12.134-1.97 21.127 1.074 6.712 2.272 11.5 5.94 14.42 8.658.87.812 1.176 2.084.79 3.23-4.432 13.22-9.447 28.648-14.568 42.798" fill="#5F8C45"/><path d="M299.136 157.717l.016-1.085c-4.2-.067-9.752-.583-16.034-2.378-5.868-1.675-10.692-3.633-14.158-5.627l-.505.95 1.03.17c2.298-15.02 4.79-30.568 7.096-45.613.087-.56.487-1.002 1.008-1.118 2.064-.463 4.993-.94 8.49-.94 3.55 0 7.68.49 12.093 1.985 6.537 2.214 11.202 5.788 14.048 8.438.395.368.607.884.607 1.42 0 .215-.034.433-.106.647v-.002c-4.435 13.225-9.447 28.646-14.56 42.772l.975.382.016-1.085-.015 1.085.976.383c5.13-14.175 10.147-29.612 14.58-42.822v-.002c.147-.443.22-.902.22-1.358 0-1.135-.455-2.25-1.302-3.038-2.995-2.788-7.904-6.55-14.793-8.883-4.65-1.575-9.005-2.092-12.74-2.092-3.677 0-6.755.5-8.93.99-1.372.31-2.407 1.467-2.624 2.897-2.304 15.035-4.797 30.58-7.095 45.614l-.115.75.64.37c3.673 2.11 8.628 4.11 14.615 5.82 6.486 1.853 12.218 2.386 16.555 2.455l.733.013.26-.714-.977-.384" fill="#2B3F22"/><path d="M298.81 158.54c-.55 2.39-7.71 2.4-16.293.268-8.58-2.135-14.764-5.738-14.215-8.13.55-2.39 7.447-2.355 16.03-.22 8.582 2.134 15.027 5.69 14.477 8.082" fill="#7A9C5E"/><path d="M298.81 158.54l-1.053-.262c-.01.023-.012.066-.15.184-.197.172-.695.404-1.424.55-.728.152-1.675.235-2.78.234-2.78.002-6.543-.515-10.635-1.534-4.038-1.003-7.532-2.343-9.952-3.685-1.21-.667-2.15-1.34-2.733-1.92-.292-.29-.493-.552-.603-.75-.112-.204-.13-.327-.13-.374l.003-.032.003-.007c.01-.034.017-.075.142-.186.18-.163.643-.388 1.333-.53.69-.147 1.592-.228 2.653-.227 2.718-.002 6.457.525 10.597 1.557 4.05 1.005 7.612 2.34 10.1 3.676 1.243.666 2.215 1.337 2.822 1.916.304.287.513.55.627.75.115.2.13.316.13.352l-.005.037.003-.01 1.052.263 1.055.253c.04-.175.06-.36.06-.544 0-.56-.182-1.07-.44-1.516-.46-.783-1.164-1.45-2.066-2.116-1.356-.99-3.182-1.95-5.366-2.85-2.182-.895-4.72-1.722-7.47-2.406-4.266-1.06-8.125-1.617-11.1-1.62-1.554.004-2.866.147-3.932.503-.533.18-1.012.416-1.424.763-.41.342-.75.832-.88 1.408l.003-.008c-.045.194-.065.387-.065.572 0 .55.17 1.054.42 1.5.442.785 1.125 1.46 2.004 2.13 1.318 1 3.102 1.97 5.25 2.873 2.148.903 4.658 1.735 7.406 2.418 4.224 1.05 8.112 1.594 11.137 1.596 1.61-.004 2.975-.15 4.078-.507.553-.182 1.046-.416 1.47-.763.422-.34.78-.835.913-1.427l.002-.01-1.055-.252" fill="#2B3F22"/><path d="M318.07 147.773s2.362 12.23-6.15 22.872c-8.51 10.64-23.152 10.52-35.168 6.168 0 0-2.5-.152-1.62-2.568.88-2.418 3.176-8.435 3.176-8.435s-.37 1.192 4.116 2.376c4.485 1.185 10.54 2.66 16.898-.412 6.356-3.07 6.883-10.34 6.558-12.642 0 0 .067-10.76-13.757-15.63-13.824-4.87-24.31-2.952-26.93-9.884-2.62-6.932-.016-13.292 9.032-14.45s20.403.578 29.427 8.65c9.025 8.074 13.742 15.64 14.418 23.956M267.556 159.55c-.844-.72-12.458-11.583-16.843-22.493-4.385-10.91-6.29-17.997-6.29-17.997l.5 4.25-1.76-5.44s-2.355 19.582-1.016 20.872c1.34 1.29 9.132 16.513 11.784 19.75 2.653 3.24 8.828 11.75 10.485 10.254 0 0 6.454 4.853 11.44 7.272 4.984 2.42 6.19-7.965 6.19-7.965s-7.97-3.54-14.49-8.505" fill="#DBE3CB"/><path d="M290.402 179.852c20.475 1.828 28.192-21.72 27.25-23.02-2.453 7.534-5.415 14.46-16.193 18.76-11.542 4.603-26.833-1.718-36.045-9.675-12.886-11.128-23.184-33.28-23.184-33.28l-.74 6.105 2.577 4.183c4.11 10.3 17.3 24.572 18.853 25.622 2.895 1.96 13.84 11.806 27.483 11.305" fill="#A5B98C"/><path d="M237.545 126.094c.173 1.26.765 3.583 1.844 6.696 3.236 9.31 10.827 25.462 24.408 37.26 1.65 1.427 4.217 3.05 6.402 4.345 2.18 1.292 3.964 2.24 3.972 2.243l.013.007.02.01c5.926 2.832 11.786 4.11 17.162 4.11 5.696 0 10.852-1.434 14.968-3.985 7.077-4.393 12.83-13.335 12.834-24.633 0-2.045-.19-4.165-.593-6.346-1.303-7.054-4.757-13.42-9.75-18.578-4.995-5.16-11.53-9.12-19.023-11.395-4.282-1.3-8.144-1.894-11.52-1.895-4.173.002-7.612.908-10.16 2.56-2.548 1.645-4.186 4.086-4.625 6.96-.11.705-.165 1.382-.165 2.034-.007 2.55.855 4.7 2.344 6.328 1.486 1.633 3.55 2.764 5.968 3.523 2.932.92 6.265 1.443 9.72 2.107 3.457.663 7.032 1.464 10.43 2.888 5.023 2.104 8.383 4.48 10.463 6.98 2.08 2.502 2.918 5.107 2.925 7.88 0 1.766-.353 3.604-.99 5.49-.8 2.362-2.34 4.388-4.54 5.844-2.2 1.454-5.07 2.333-8.522 2.333-3.554 0-7.72-.937-12.364-3.144l-.36.82.376-.812-.268-.137c-1.225-.632-6.43-3.407-9.804-6.24-9.65-8.084-15.795-19.18-19.508-28.262-1.858-4.54-3.11-8.573-3.894-11.466-.392-1.447-.67-2.61-.846-3.406l-.194-.912-.046-.233-.014-.075-1.7.336c.007.044 1.316 7.21 5.1 16.46 3.785 9.248 10.045 20.596 20.015 28.958 2.06 1.725 4.647 3.36 6.732 4.58 2.082 1.216 3.66 2.01 3.67 2.015l.014.007.004.002c4.83 2.295 9.238 3.306 13.084 3.306 3.732 0 6.938-.955 9.45-2.614 2.51-1.656 4.317-4.02 5.245-6.765.688-2.037 1.088-4.074 1.088-6.09.006-3.166-1.013-6.27-3.346-9.06-2.333-2.797-5.937-5.297-11.124-7.47-3.58-1.5-7.273-2.32-10.763-2.99-3.49-.668-6.778-1.194-9.535-2.06-2.226-.7-4.01-1.714-5.21-3.038-1.2-1.328-1.864-2.945-1.87-5.09 0-.547.045-1.13.14-1.747.37-2.348 1.644-4.29 3.832-5.72 2.187-1.422 5.31-2.287 9.245-2.286 3.18 0 6.885.56 11.035 1.82 7.234 2.197 13.514 6.013 18.286 10.945 4.773 4.932 8.038 10.97 9.27 17.64.384 2.07.562 4.076.562 6.006.003 10.644-5.432 19.02-11.99 23.086-3.81 2.366-8.663 3.733-14.08 3.733-5.113 0-10.727-1.217-16.44-3.947l-.363.818.394-.8-.306-.165c-.693-.375-2.476-1.356-4.417-2.532-1.94-1.172-4.046-2.555-5.33-3.673-8.82-7.652-15.097-17.267-19.235-25.532-2.07-4.13-3.604-7.923-4.656-10.956-1.052-3.023-1.624-5.322-1.758-6.336l-1.714.25M292.462 169.947l.014.014c.175.164 1.72 1.72 1.712 4.177 0 1.428-.506 3.188-2.14 5.235l.48.417c1.71-2.135 2.288-4.06 2.287-5.654-.007-2.94-1.917-4.656-1.943-4.683l-.41.493m-27.399-12.966l.005.056c.01.114.032.402.032.8 0 .95-.127 2.526-.8 3.917-.678 1.39-1.854 2.6-4.072 2.934l.09.646c2.414-.352 3.808-1.75 4.542-3.288.74-1.537.865-3.202.866-4.208 0-.565-.04-.923-.042-.933l-.622.08v-.002m-16.15-24.348l-.002.072c-.012.373-.126 2.128-.903 3.756-.388.814-.937 1.595-1.715 2.175-.78.58-1.786.967-3.134.984l.007.653c1.56-.016 2.764-.51 3.665-1.24 1.353-1.1 2.02-2.704 2.36-4.017.338-1.316.348-2.357.348-2.376l-.627-.005" fill="#2B3F22"/><path d="M273.813 132.127s6.786-.615 17.485 2.732c10.7 3.347 15.234 12.174 15.526 18.565 0 0-1.902-12.783-22.31-17.12-3.617-.77-10.65-.138-10.7-4.178" fill="#A5B98C"/><path d="M285.208 115.71c-.036.027-4.08 3.304-4.787 10.267-.073.73-.107 1.418-.107 2.065-.003 5.48 2.423 7.99 3.025 8.512l.404-.5c-.496-.438-2.8-2.743-2.802-8.013 0-.623.032-1.287.104-1.996.34-3.36 1.485-5.817 2.54-7.438.53-.81 1.036-1.41 1.408-1.805.186-.197.338-.343.443-.44l.12-.106.036-.032-.383-.515m32.211 27.021c-.025-.012-1.527-.716-3.66-.717-1.43 0-3.148.32-4.87 1.39-1.72 1.068-3.437 2.88-4.88 5.824l.56.297c1.4-2.855 3.032-4.56 4.64-5.56 1.612-1 3.207-1.298 4.55-1.298 1 0 1.855.167 2.46.333.3.082.54.165.7.226l.184.073.057.024.258-.594M271.647 135.33c2.932.92 6.265 1.443 9.72 2.107 3.457.663 7.032 1.464 10.43 2.888 5.023 2.103 8.383 4.48 10.463 6.98 2.078 2.502 2.917 5.107 2.924 7.88 0 1.766-.353 3.604-.99 5.49l1.632.6c.688-2.037 1.088-4.074 1.088-6.09.006-3.166-1.013-6.27-3.346-9.06-2.332-2.797-5.936-5.297-11.123-7.472-3.58-1.5-7.273-2.317-10.763-2.988-3.49-.67-6.778-1.194-9.535-2.06l-.5 1.724" fill="#2B3F22"/><path d="M276.023 110.033c1.7-1.492 4.9-1.386 4.867 1.165-.032 2.587-6.092 4.412-7.548 12.105-1.385 7.318 1.68 13.95 2.398 15.817.716 1.864-1.78 3.165-3.878 1.025-2.984-3.042-8.143-19.317 4.16-30.112" fill="#5F8C45"/><path d="M276.023 110.033l.672.83c.495-.445 1.276-.724 1.913-.718.44 0 .78.123.952.27.09.076.15.153.198.26.048.11.087.257.088.483l.002.094 1.04-.055-1.042-.015c-.002.1-.027.222-.136.424-.185.35-.647.863-1.273 1.466-.936.914-2.212 2.063-3.382 3.66-1.17 1.598-2.23 3.66-2.738 6.36-.264 1.396-.375 2.765-.375 4.08 0 2.986.566 5.693 1.202 7.848.318 1.078.654 2.02.947 2.785.293.764.545 1.362.68 1.715l.05.236c-.005.11-.023.152-.113.24-.09.08-.277.17-.552.17-.39-.002-.956-.18-1.564-.8-.273-.274-.656-.813-1.035-1.54-1.154-2.193-2.316-6.06-2.31-10.392 0-2.713.445-5.61 1.594-8.448 1.15-2.837 3-5.62 5.853-8.126l-1.345-1.658c-3.1 2.718-5.16 5.8-6.432 8.942-1.272 3.14-1.758 6.332-1.758 9.29 0 3.155.55 6.047 1.307 8.38.38 1.166.81 2.192 1.258 3.05.452.856.91 1.542 1.407 2.052.933.953 2.016 1.418 3.025 1.417.7 0 1.37-.224 1.89-.674.52-.443.867-1.148.86-1.905 0-.35-.068-.703-.2-1.043-.158-.413-.397-.98-.677-1.71-.836-2.183-2.002-5.782-2-9.833 0-1.19.1-2.417.335-3.662.684-3.574 2.38-5.72 4.016-7.404.817-.84 1.618-1.542 2.277-2.264.33-.363.627-.734.863-1.16.233-.424.405-.925.41-1.472l.002-.036-.002-.034-.64.034.64-.003v-.032l-.64.034.64-.003v-.016c0-.5-.092-.977-.282-1.398-.28-.636-.775-1.11-1.317-1.39-.543-.28-1.135-.393-1.724-.394-1.148.006-2.324.417-3.258 1.227l.672.828" fill="#2B3F22"/><path d="M46.43 188.304c32.727-14.752 51.284-72.95 52.026-75.43l-6.933-5.857c-9.967 37.174-31.04 62.145-45.63 69.904-.167 3.76.08 7.573.537 11.385" fill="#DBE3CB"/><path d="M96.656 108.122c-3.876 14.456-18.75 50.67-38.268 68.36-2.307 2.09-6.663 5.606-12.332 8.11.103 1.305.24 2.613.398 3.92 32.78-14.232 51.26-73.156 52-75.637l-1.8-4.75" fill="#A5B98C"/><path d="M47.35 177.114c17.184-9.932 29.233-29.555 37.106-47.42 3.19-7.25 5.818-14.766 7.875-22.443l-1.614-.467c-2.034 7.592-4.63 15.022-7.785 22.187-7.784 17.703-19.738 37.023-36.395 46.62l.814 1.526M97.64 112.674c-3.208 14.242-11.135 26.82-17.412 39.772l.75.393-.713-.462c-8.082 13.5-17.965 27.502-33.227 34.693l.693 1.59c15.775-7.445 25.83-21.793 33.96-35.36l.02-.037.016-.03c6.205-12.836 14.236-25.52 17.547-40.16l-1.632-.397M72.77 149.87l.055.003c.284.016 1.647.145 3.01.922 1.362.782 2.726 2.172 3.118 4.813l.602-.095c-.44-3.032-2.15-4.637-3.724-5.433-1.575-.802-3.016-.842-3.04-.844l-.018.634m-18.738 21.874l.04.02c.223.11 1.31.698 2.33 1.985 1.02 1.288 1.986 3.268 1.988 6.225l-.005.396.61.017.004-.413c.002-3.312-1.17-5.528-2.35-6.896-1.176-1.37-2.35-1.903-2.375-1.916l-.243.582M47.345 177.117c10.543-6 19.803-16.114 27.427-28.395 7.622-12.282 13.608-26.74 17.56-41.47l-1.616-.47c-3.908 14.578-9.837 28.888-17.353 40.995-7.514 12.11-16.614 22.007-26.823 27.81l.805 1.53M97.64 112.674c-3.208 14.242-11.135 26.82-17.412 39.772l.75.393-.713-.462c-8.082 13.5-17.965 27.502-33.227 34.693l.693 1.59c15.775-7.445 25.83-21.793 33.96-35.36l.02-.037.016-.03c6.205-12.836 14.236-25.52 17.547-40.16l-1.632-.397" fill="#2B3F22"/><path d="M184.362 107.095s-11.08 86.372 9.51 140.776c8.94 23.617 21.287 37.93 31.16 47.744 7.88 7.832 9.788 14.43 6.37 19.785-3.477 5.445-13.966 4.306-27.13-8.95-19.256-19.39-41.556-58.81-29.176-200.447l9.267 1.092" fill="#DBE3CB"/><path d="M183.3 106.948c-.005.032-2.987 23.277-2.987 53.285.004 27.888 2.56 61.603 12.563 88.047 9.004 23.8 21.486 38.273 31.417 48.14 2.646 2.63 4.578 5.096 5.832 7.364 1.255 2.27 1.83 4.328 1.83 6.187-.005 1.712-.475 3.284-1.447 4.814-.52.812-1.21 1.434-2.095 1.875-.886.438-1.976.688-3.273.688-2.312.003-5.268-.81-8.682-2.693-3.414-1.88-7.283-4.82-11.442-9.007-7.602-7.662-15.66-18.416-21.875-37.672-6.21-19.252-10.542-47.005-10.54-88.504 0-20.788 1.086-45.025 3.563-73.368l-2.135-.2c-2.482 28.396-3.572 52.698-3.572 73.568.002 41.66 4.342 69.642 10.653 89.214 6.305 19.567 14.62 30.724 22.417 38.565 4.275 4.307 8.293 7.374 11.93 9.377 3.637 2 6.897 2.948 9.685 2.95 1.56 0 2.976-.3 4.195-.905 1.218-.602 2.23-1.51 2.96-2.656 1.18-1.844 1.806-3.89 1.804-6.045 0-2.344-.723-4.782-2.114-7.298-1.393-2.517-3.457-5.127-6.21-7.863-9.816-9.764-22.03-23.915-30.904-47.347-9.835-25.965-12.42-59.49-12.413-87.23 0-14.926.74-28.183 1.483-37.702.37-4.76.743-8.584 1.02-11.218.14-1.317.256-2.336.337-3.025l.126-1.042-2.124-.296" fill="#2B3F22"/><path d="M176.12 144.028s-3.75 45.33 2.98 91.592c7.612 52.33 29.477 70.837 41.107 75.79 10.566 4.5 11.85-1.3 11.85-1.3s1.473 11.525-12.98 7.018c-14.45-4.508-32.322-30.498-37.09-49.233-4.77-18.736-10.997-48.847-10.432-82.642.566-33.795 1.726-48.62 1.726-48.62l2.838 7.396" fill="#A5B98C"/><path d="M183.3 106.948c-.005.032-2.987 23.277-2.987 53.285.004 27.888 2.56 61.603 12.563 88.047 9.004 23.8 21.486 38.273 31.417 48.14 2.646 2.63 4.578 5.096 5.832 7.364 1.255 2.27 1.83 4.328 1.83 6.187-.005 1.712-.475 3.284-1.447 4.814-.52.812-1.21 1.434-2.095 1.875-.886.438-1.976.688-3.273.688-2.312.003-5.268-.81-8.682-2.693-3.414-1.88-7.283-4.82-11.442-9.007-7.602-7.662-15.66-18.416-21.875-37.672-6.21-19.252-10.542-47.005-10.54-88.504 0-20.788 1.086-45.025 3.563-73.368l-2.135-.2c-2.482 28.396-3.572 52.698-3.572 73.568.002 41.66 4.342 69.642 10.653 89.214 6.305 19.567 14.62 30.724 22.417 38.565 4.275 4.307 8.293 7.374 11.93 9.377 3.637 2 6.897 2.948 9.685 2.95 1.56 0 2.976-.3 4.195-.905 1.218-.602 2.23-1.51 2.96-2.656 1.18-1.844 1.806-3.89 1.804-6.045 0-2.344-.723-4.782-2.114-7.298-1.393-2.517-3.457-5.127-6.21-7.863-9.816-9.764-22.03-23.915-30.904-47.347-9.835-25.965-12.42-59.49-12.413-87.23 0-14.926.74-28.183 1.483-37.702.37-4.76.743-8.584 1.02-11.218.14-1.317.256-2.336.337-3.025l.126-1.042-2.124-.296M181.49 156.94c-.013-.004-2.9-1.904-5.95-1.908-1.282 0-2.6.342-3.72 1.32l.228.284c1.044-.91 2.268-1.233 3.492-1.234 1.454 0 2.9.46 3.977.926.54.233.987.465 1.3.64.31.172.484.287.484.287l.19-.313m1.534 39.275c-.318-.55-1.085-1.02-2.102-1.395-1.017-.37-2.285-.62-3.582-.62-2.283-.003-4.7.786-5.878 3.148l.375.202c1.074-2.16 3.298-2.908 5.504-2.91 1.246 0 2.474.242 3.443.594.97.347 1.682.832 1.877 1.2l.365-.22m7.803 40.854c-.413-.307-1.112-.587-2.018-.806-.904-.217-2.007-.363-3.2-.363-1.753.002-3.698.316-5.465 1.198-1.766.88-3.354 2.336-4.36 4.59l.414.202c.963-2.15 2.458-3.52 4.144-4.363 1.686-.843 3.566-1.15 5.267-1.15 1.157 0 2.23.142 3.1.35.865.206 1.534.49 1.85.73l.27-.384m15.698 35.741c-.417-.182-.945-.26-1.567-.26-2.322.004-6 1.136-9.22 3.522-3.216 2.383-5.968 6.055-6.273 11.107l.625.04c.293-4.813 2.9-8.305 6.012-10.617 3.104-2.31 6.718-3.407 8.857-3.402.568 0 1.028.08 1.325.21l.242-.6m21.109 25.977c-.12-.02-.248-.028-.38-.028-.843.003-1.922.36-3.103 1.008-1.767.975-3.744 2.623-5.29 4.825-1.548 2.2-2.66 4.964-2.66 8.144 0 1.168.15 2.39.482 3.658l.576-.163c-.32-1.216-.46-2.382-.46-3.493-.002-4.033 1.88-7.375 4.147-9.716 1.133-1.17 2.36-2.085 3.484-2.704 1.12-.62 2.144-.94 2.822-.936l.288.022.092-.614" fill="#2B3F22"/><path d="M197.316 120.513s-1.072 73.104 29.163 113.978c13.124 17.743 26.952 26.733 37.628 32.54 8.518 4.636 11.684 9.744 10.046 15.15-1.666 5.5-10.824 7.202-25.098-.687-20.874-11.535-56.294-42.95-61.393-162.855" fill="#DBE3CB"/><path d="M196.37 120.496l-.005.947c0 4.34.234 23.108 4.01 45.607 3.782 22.498 11.085 48.737 25.354 68.04 13.223 17.883 27.203 26.975 37.94 32.813 3.47 1.886 5.99 3.838 7.608 5.783 1.62 1.95 2.342 3.848 2.345 5.78 0 .79-.122 1.592-.372 2.42-.36 1.18-1.108 2.133-2.327 2.85-1.217.708-2.918 1.147-5.08 1.145-4.012.006-9.573-1.51-16.345-5.254-10.31-5.707-24.192-16.263-36.217-40.373-12.015-24.11-22.13-61.8-24.675-121.658l-1.888.087c2.554 60.048 12.7 98.018 24.886 122.476 12.178 24.458 26.445 35.376 37.008 41.206 6.966 3.845 12.773 5.48 17.232 5.486 2.402 0 4.423-.478 6.004-1.398 1.58-.913 2.705-2.3 3.207-3.974.303-1 .46-2.008.46-3.01.004-2.472-.965-4.866-2.807-7.07-1.843-2.21-4.554-4.272-8.162-6.237-10.615-5.777-24.292-14.665-37.318-32.268-13.965-18.865-21.246-44.848-24.99-67.18-3.75-22.33-3.982-41.003-3.982-45.268l.003-.687.003-.228-1.89-.032" fill="#2B3F22"/><path d="M190.854 118.52c1.182 22.917 3.727 72.78 20.225 109.343 19.067 42.262 41.627 52.542 52.647 53.784 10.013 1.128 9.737-4.117 9.737-4.117s3.958 9.394-9.35 9.25c-13.306-.147-33.645-18.245-43.004-32.297-9.607-14.42-19.506-34.564-25.543-63.71-7.097-34.27-7.228-72.16-7.228-72.16l2.514-.094" fill="#A5B98C"/><path d="M196.37 120.496l-.005.947c0 4.34.234 23.108 4.01 45.607 3.782 22.498 11.085 48.737 25.354 68.04 13.223 17.883 27.203 26.975 37.94 32.813 3.47 1.886 5.99 3.838 7.608 5.783 1.62 1.95 2.342 3.848 2.345 5.78 0 .79-.122 1.592-.372 2.42-.36 1.18-1.108 2.133-2.327 2.85-1.217.708-2.918 1.147-5.08 1.145-4.012.006-9.573-1.51-16.345-5.254-10.284-5.69-24.288-17.053-36.28-41.573-11.984-24.518-21.93-62.213-23.935-120.475l-1.89.07c2.014 58.46 11.99 96.44 24.14 121.297 12.144 24.856 26.488 36.57 37.08 42.418 6.964 3.845 12.77 5.48 17.23 5.486 2.402-.002 4.423-.48 6.004-1.4 1.58-.912 2.705-2.3 3.207-3.973.303-1 .46-2.008.46-3.01.004-2.472-.965-4.866-2.807-7.07-1.843-2.21-4.554-4.272-8.162-6.237-10.615-5.778-24.292-14.666-37.318-32.27-13.965-18.864-21.246-44.847-24.99-67.178-3.75-22.33-3.982-41.004-3.982-45.27l.003-.686.003-.228-1.89-.03v-.002M199.858 158.063c-.01-.004-2.147-1.04-4.485-1.043-1.416 0-2.92.386-4.04 1.643l.23.223c1.042-1.17 2.444-1.538 3.81-1.54 1.125 0 2.217.254 3.025.508.405.127.737.254.97.35l.358.156.133-.296h-.002m7.725 35.253c-.453-.427-1.367-.624-2.487-.63-1.31 0-2.89.3-4.233 1.027-1.344.725-2.46 1.896-2.77 3.617l.366.073c.286-1.58 1.298-2.65 2.575-3.344 1.275-.692 2.808-.986 4.062-.986 1.07-.006 1.945.23 2.232.526l.255-.282m13.78 32.792c-.333-.123-.81-.185-1.4-.186-1.55.002-3.867.447-5.932 1.658-2.064 1.208-3.876 3.204-4.332 6.267l.398.064c.438-2.918 2.143-4.796 4.13-5.967 1.987-1.168 4.256-1.605 5.736-1.603.56-.002 1.008.064 1.263.162l.136-.394m21.709 26.301l-.26-.015c-.794.003-1.85.37-3.026 1.027-1.76.99-3.77 2.652-5.35 4.843-1.583 2.19-2.733 4.913-2.734 8.003 0 .86.09 1.748.284 2.66l.54-.124c-.186-.87-.27-1.717-.27-2.536-.002-3.914 1.948-7.244 4.265-9.6 1.157-1.178 2.403-2.108 3.528-2.74 1.122-.634 2.133-.96 2.762-.958l.194.01.065-.57m23.995 16.65c-.607.084-1.304.475-2.046 1.093-2.21 1.856-4.79 5.837-4.798 10.45 0 1.99.487 4.09 1.698 6.162l.45-.284c-1.16-1.988-1.62-3.982-1.622-5.88 0-2.925 1.108-5.624 2.475-7.62.683-.997 1.43-1.818 2.127-2.4.693-.583 1.344-.92 1.782-.976l-.068-.544" fill="#2B3F22"/><path d="M131.56 120.512s1.072 73.105-29.162 113.98c-13.125 17.742-26.954 26.73-37.63 32.54-8.518 4.634-11.684 9.742-10.045 15.15 1.666 5.5 10.823 7.2 25.098-.69 20.874-11.534 56.295-42.948 61.394-162.855l-9.653 1.874" fill="#DBE3CB"/><path d="M130.616 120.526l.004.917c0 4.265-.233 22.937-3.98 45.27-3.744 22.33-11.026 48.313-24.99 67.177-13.026 17.603-26.704 26.492-37.318 32.27-3.61 1.964-6.32 4.028-8.163 6.237-1.843 2.203-2.812 4.598-2.81 7.07 0 1.003.158 2.01.462 3.01.502 1.673 1.627 3.06 3.207 3.974 1.58.92 3.6 1.398 6.003 1.4 4.458-.006 10.266-1.643 17.23-5.487 10.564-5.83 24.83-16.747 37.01-41.205 12.186-24.458 22.33-62.428 24.885-122.476l-1.89-.087c-2.544 59.858-12.658 97.548-24.674 121.658-12.026 24.11-25.907 34.666-36.217 40.373-6.772 3.745-12.334 5.26-16.344 5.256-2.163 0-3.865-.437-5.08-1.148-1.218-.715-1.966-1.668-2.328-2.85-.25-.826-.373-1.63-.373-2.417.004-1.933.725-3.83 2.345-5.78 1.618-1.946 4.138-3.898 7.61-5.785 10.735-5.837 24.716-14.93 37.94-32.812 14.268-19.303 21.57-45.542 25.352-68.04 3.776-22.5 4.01-41.266 4.01-45.607l-.004-.945-1.89.03v-.002" fill="#2B3F22"/><path d="M138.023 118.52c-1.182 22.917-3.727 72.78-20.226 109.343-19.068 42.262-41.627 52.542-52.647 53.783-10.013 1.13-9.737-4.115-9.737-4.115s-3.958 9.395 9.35 9.25c13.307-.147 33.645-18.245 43.005-32.296 9.606-14.422 19.506-34.565 25.542-63.712 7.098-34.268 7.228-72.16 7.228-72.16l-2.514-.093" fill="#A5B98C"/><path d="M130.616 120.526l.004.917c0 4.265-.233 22.937-3.98 45.27-3.744 22.33-11.026 48.313-24.99 67.177-13.026 17.603-26.704 26.492-37.318 32.27-3.61 1.964-6.32 4.028-8.163 6.237-1.843 2.203-2.812 4.598-2.81 7.07 0 1.003.158 2.01.462 3.01.502 1.673 1.627 3.06 3.207 3.974 1.58.92 3.6 1.398 6.003 1.4 4.458-.006 10.266-1.643 17.23-5.487 10.59-5.846 24.934-17.56 37.078-42.417 12.15-24.858 22.127-62.836 24.142-121.297l-1.89-.07c-2.006 58.26-11.95 95.956-23.935 120.474-11.99 24.52-25.995 35.883-36.28 41.573-6.772 3.745-12.334 5.26-16.344 5.256-2.163 0-3.865-.437-5.08-1.148-1.218-.715-1.966-1.668-2.328-2.85-.25-.826-.373-1.63-.373-2.417.004-1.933.725-3.83 2.345-5.78 1.618-1.946 4.138-3.898 7.61-5.785 10.735-5.837 24.716-14.93 37.94-32.812 14.268-19.302 21.57-45.54 25.352-68.04 3.776-22.498 4.01-41.265 4.01-45.606l-.004-.945-1.89.028M129.15 158.36l.36-.157c.693-.285 2.305-.856 3.993-.856 1.366 0 2.768.37 3.81 1.54l.23-.223c-1.12-1.258-2.624-1.644-4.04-1.644-2.338.002-4.475 1.04-4.485 1.043l.133.297m-7.601 35.24c.286-.296 1.162-.533 2.23-.527 1.254 0 2.787.294 4.062.985 1.277.693 2.29 1.766 2.577 3.344l.365-.072c-.31-1.72-1.428-2.892-2.77-3.617-1.347-.727-2.926-1.027-4.235-1.028-1.12.007-2.033.204-2.486.63l.255.284v-.002m-13.898 32.908c.256-.098.704-.163 1.263-.162 1.48-.002 3.748.436 5.734 1.603 1.99 1.17 3.694 3.05 4.133 5.967l.398-.065c-.457-3.063-2.27-5.06-4.332-6.267-2.065-1.21-4.382-1.655-5.933-1.657-.59 0-1.066.063-1.4.187l.138.394m-21.779 26.478l.194-.01c.628-.005 1.64.323 2.762.957 1.688.948 3.647 2.567 5.172 4.682 1.527 2.116 2.622 4.72 2.62 7.658 0 .82-.083 1.664-.268 2.536l.54.124c.194-.91.284-1.8.284-2.66-.002-4.12-2.045-7.585-4.432-10.012-1.195-1.214-2.48-2.174-3.652-2.833-1.176-.658-2.23-1.024-3.025-1.027l-.258.015.063.572m-24.126 16.621c.438.055 1.09.393 1.783.976 2.094 1.75 4.605 5.633 4.598 10.022 0 1.897-.46 3.89-1.62 5.878l.45.286c1.21-2.072 1.698-4.174 1.697-6.164 0-3.072-1.155-5.87-2.572-7.94-.71-1.035-1.485-1.89-2.225-2.51-.742-.617-1.44-1.008-2.046-1.092l-.067.544" fill="#2B3F22"/><path d="M149.39 113.3s6.038 86.913-17.677 139.92c-10.296 23.01-23.453 36.52-33.88 45.696-8.32 7.322-10.607 13.788-7.507 19.347 3.154 5.655 13.69 5.177 27.602-7.226 20.346-18.14 44.898-56.086 40.777-198.244l-9.313.507" fill="#DBE3CB"/><path d="M148.323 113.38l.028.448c.132 2.08.657 11.287.657 24.507 0 14.84-.662 34.735-3.28 55.278-2.616 20.543-7.198 41.734-14.985 59.136-10.22 22.83-23.233 36.187-33.6 45.313-3.042 2.678-5.324 5.265-6.867 7.797-1.54 2.53-2.344 5.03-2.344 7.466 0 1.918.507 3.774 1.47 5.496.715 1.29 1.78 2.32 3.1 3 1.32.686 2.882 1.03 4.633 1.03 2.745-.003 5.96-.84 9.57-2.62 3.61-1.78 7.616-4.51 11.923-8.35 9.53-8.487 19.997-21.35 27.994-46.72 8.007-25.376 13.613-63.274 13.614-122.07 0-9.548-.147-19.648-.457-30.333l-2.143.067c.308 10.664.456 20.742.456 30.266.002 58.65-5.602 96.334-13.507 121.375-7.914 25.045-18.065 37.43-27.352 45.722-4.187 3.735-8.047 6.354-11.445 8.03-3.398 1.677-6.332 2.405-8.652 2.402-1.482 0-2.708-.29-3.677-.794-.97-.505-1.69-1.21-2.202-2.124-.793-1.426-1.177-2.862-1.18-4.377 0-1.916.63-3.998 2.012-6.274 1.38-2.27 3.514-4.715 6.44-7.288 10.486-9.224 23.788-22.885 34.158-46.075 7.928-17.725 12.53-39.103 15.167-59.784 2.637-20.68 3.3-40.664 3.3-55.572 0-15.178-.688-25.095-.69-25.115l-2.137.16" fill="#2B3F22"/><path d="M155.362 140.24s1.216 55.928-8.192 101.68c-10.64 51.757-33.54 68.854-45.438 73.066-10.808 3.827-11.752-2.044-11.752-2.044s-2.14 11.412 12.546 7.822c14.687-3.59 34.037-28.408 39.886-46.81 5.85-18.4 13.816-48.065 15.216-81.834 1.4-33.77 1.737-51.88 1.737-51.88h-4.004" fill="#A5B98C"/><path d="M148.323 113.38l.028.448c.132 2.08.657 11.287.657 24.507 0 14.84-.662 34.735-3.28 55.278-2.616 20.543-7.198 41.734-14.985 59.136-10.22 22.83-23.233 36.187-33.6 45.313-3.042 2.678-5.324 5.265-6.867 7.797-1.54 2.53-2.344 5.03-2.344 7.466 0 1.918.507 3.774 1.47 5.496.715 1.29 1.78 2.32 3.1 3 1.32.686 2.882 1.03 4.633 1.03 2.745-.003 5.96-.84 9.57-2.62 3.61-1.78 7.616-4.51 11.923-8.35 9.53-8.487 19.997-21.35 27.994-46.72 8.007-25.376 13.613-63.274 13.614-122.07 0-9.548-.147-19.648-.457-30.333l-2.143.067c.308 10.664.456 20.742.456 30.266.002 58.65-5.602 96.334-13.507 121.375-7.914 25.045-18.065 37.43-27.352 45.722-4.187 3.735-8.047 6.354-11.445 8.03-3.398 1.677-6.332 2.405-8.652 2.402-1.482 0-2.708-.29-3.677-.794-.97-.505-1.69-1.21-2.202-2.124-.793-1.426-1.177-2.862-1.18-4.377 0-1.916.63-3.998 2.012-6.274 1.38-2.27 3.514-4.715 6.44-7.288 10.486-9.224 23.788-22.885 34.158-46.075 7.928-17.725 12.53-39.103 15.167-59.784 2.637-20.68 3.3-40.664 3.3-55.572 0-15.178-.688-25.095-.69-25.115l-2.137.16M149.53 163.56l.452-.23c.872-.425 2.888-1.27 4.95-1.27 1.373.002 2.756.37 3.87 1.466l.245-.27c-1.195-1.177-2.684-1.567-4.116-1.565-2.87.004-5.558 1.54-5.572 1.547l.17.325m-3.634 39.022c.197-.324.833-.724 1.698-1.004.865-.284 1.958-.472 3.09-.472 1.193 0 2.43.21 3.487.724 1.06.515 1.94 1.326 2.464 2.547l.386-.18c-.567-1.327-1.54-2.218-2.672-2.766-1.133-.55-2.425-.765-3.666-.765-1.176 0-2.306.193-3.217.493-.91.305-1.603.693-1.922 1.18l.352.244m-10.273 40.446c.286-.19.84-.4 1.554-.547.714-.15 1.594-.247 2.554-.247 1.772 0 3.82.332 5.64 1.265 1.82.933 3.417 2.453 4.328 4.858l.426-.172c-.953-2.523-2.65-4.14-4.552-5.11-1.905-.974-4.016-1.314-5.842-1.315-.99 0-1.897.1-2.645.257-.75.158-1.335.366-1.71.612l.247.4m-17.787 34.904c.238-.088.574-.14.98-.138 2.014-.008 5.657 1.243 8.738 3.747 3.09 2.507 5.63 6.23 5.645 11.193l.627-.002c-.012-5.21-2.695-9.122-5.886-11.705-3.2-2.586-6.894-3.88-9.125-3.887-.454 0-.852.054-1.186.175l.206.617m-22.732 24.606l.16-.008c.618-.004 1.577.32 2.628.953 1.58.944 3.385 2.56 4.784 4.667 1.4 2.107 2.396 4.7 2.396 7.622 0 1.336-.208 2.742-.684 4.208l.567.2c.496-1.53.714-3.005.714-4.408 0-4.096-1.86-7.555-4.07-9.987-1.107-1.216-2.302-2.18-3.41-2.842-1.112-.66-2.127-1.032-2.927-1.035l-.215.01.056.62" fill="#2B3F22"/><path d="M235.865 146.71l-141.51-9.835c-3.003-.21-5.273-2.91-5.073-6.033l6.51-101.35c.2-3.124 2.797-5.487 5.8-5.278l141.51 9.834c3.003.21 5.274 2.91 5.073 6.033l-6.51 101.352c-.2 3.124-2.796 5.487-5.8 5.28" fill="#405533"/><path d="M235.865 146.71l.063-.975-141.51-9.835c-2.383-.163-4.21-2.23-4.21-4.675l.01-.312.002-.006 6.508-101.35c.158-2.48 2.144-4.38 4.495-4.38l.303.01h.004l141.51 9.836c2.382.163 4.21 2.23 4.21 4.675l-.012.322v-.004l-6.51 101.35c-.156 2.48-2.142 4.38-4.494 4.38l-.307-.01h.002l-.064.975-.06.975.428.014c3.337 0 6.142-2.692 6.37-6.203l6.508-101.35v-.003l.015-.446c0-3.47-2.587-6.39-5.962-6.625l-141.51-9.834h.004l-.436-.016c-3.337 0-6.14 2.69-6.368 6.202l-6.51 101.35v-.005l-.015.456c.002 3.47 2.59 6.39 5.964 6.625l141.51 9.835h.003l.06-.973" fill="#2B3F22"/><path d="M104.216 135.73l7.002-109.018 129.61 9.045-6.998 108.98-129.614-9.008" fill="#A5B98C"/><path d="M112.852 28.657l126.11 8.8-6.766 105.338-126.11-8.765 6.766-105.373m-3.27-3.89l-7.235 112.662 133.117 9.25 7.234-112.622-133.115-9.29" fill="#202C1C"/><path d="M103.514 80.47c-.108 1.678-1.503 2.947-3.114 2.835-1.612-.112-2.832-1.562-2.724-3.24.108-1.676 1.502-2.945 3.114-2.833 1.612.112 2.832 1.562 2.724 3.24" fill="#5B6B4A"/><path d="M103.514 80.47l-.815-.056c-.074 1.16-1.004 2.048-2.102 2.047l-.15-.004h.007c-1.115-.076-1.97-1.044-1.97-2.186l.004-.14v-.01c.074-1.16 1.003-2.048 2.1-2.048l.136.005h.01c1.113.077 1.968 1.044 1.967 2.186l-.004.154v-.005l.814.057.815.05.007-.257c0-2.034-1.515-3.743-3.492-3.88l-.054.847.063-.847-.26-.01c-1.957 0-3.6 1.578-3.732 3.635l.816.057-.815-.067-.01.272c.002 2.034 1.517 3.743 3.494 3.88l.007.002.247.007c1.955 0 3.598-1.577 3.73-3.634v-.005l-.814-.05" fill="#2B3F22"/><path d="M149.32 31.202l-38.358 26.88-1.58 24.62 67.97-49.545-28.03-1.956" fill="#B0C298"/><path d="M110.962 58.08l-1.713 1.203-1.585 24.67 1.717-1.252 1.58-24.62m40.57-28.427l-2.21 1.55 28.032 1.955 2.13-1.554-27.953-1.95" fill="#3B4632"/><path d="M111.33 26.848l129.37 9.028-6.983 108.726-129.37-8.992 6.986-108.763m-1.747-2.08l-7.236 112.66 133.117 9.253 7.234-112.623-133.115-9.29" fill="#2B3F22"/><path d="M122.89 46.83l81.39 5.982" fill="#405533"/><path d="M122.825 47.805l81.388 5.98.133-1.947-81.388-5.982" fill="#2B3F22"/><path d="M122.54 52.02l54.257 3.988" fill="#405533"/><path d="M122.472 52.994l54.26 3.988.13-1.948-54.257-3.988" fill="#2B3F22"/><path d="M121.48 67.588l61.958 4.553" fill="#405533"/><path d="M121.415 68.562l61.957 4.553.133-1.948-61.957-4.554" fill="#2B3F22"/><path d="M121.13 72.777l54.258 3.988" fill="#405533"/><path d="M121.063 73.75l54.258 3.99.134-1.95-54.26-3.987" fill="#2B3F22"/><path d="M120.424 83.155l54.26 3.988" fill="#405533"/><path d="M120.358 84.13l54.258 3.988.133-1.948-54.26-3.988" fill="#2B3F22"/><path d="M120.777 77.967l71.856 5.28-71.856-5.28" fill="#405533"/><path d="M120.71 78.94l71.856 5.282.133-1.948-71.857-5.282-.133 1.95" fill="#2B3F22"/><path d="M120.072 88.345l61.958 4.555-61.958-4.555" fill="#405533"/><path d="M120.005 89.32l61.957 4.553.133-1.95-61.957-4.552-.133 1.95" fill="#2B3F22"/><path d="M119.72 93.534l54.257 3.988-54.258-3.988" fill="#405533"/><path d="M119.652 94.508l54.26 3.99.132-1.95-54.26-3.988-.132 1.948" fill="#2B3F22"/><path d="M119.014 103.913l54.26 3.988-54.26-3.987" fill="#405533"/><path d="M118.947 104.888l54.26 3.987.13-1.948-54.257-3.988-.133 1.948" fill="#2B3F22"/><path d="M119.366 98.723l71.856 5.282-71.856-5.282" fill="#405533"/><path d="M119.3 99.698l71.856 5.282.132-1.95-71.856-5.28-.133 1.948" fill="#2B3F22"/><path d="M122.186 57.21l4.49.33" fill="#405533"/><path d="M122.12 58.184l4.49.33.133-1.948-4.49-.33" fill="#2B3F22"/><path d="M121.834 62.398l4.49.33" fill="#405533"/><path d="M121.768 63.373l4.49.33.133-1.948-4.49-.33" fill="#2B3F22"/><path d="M118.66 109.102l4.492.33" fill="#405533"/><path d="M118.595 110.077l4.49.33.133-1.948-4.49-.33" fill="#2B3F22"/><path d="M118.31 114.29l4.49.332" fill="#405533"/><path d="M118.243 115.266l4.49.33.133-1.95-4.49-.33" fill="#2B3F22"/><path d="M117.957 119.48l4.49.33" fill="#405533"/><path d="M117.89 120.455l4.49.33.134-1.948-4.49-.33" fill="#2B3F22"/><path d="M241.657 50.254l-.184 2.883.348-.325-.162-2.558" fill="#5A6B48"/><path d="M234.038 37.114l-49.158 44.586 7.82.573-.134 1.948-9.684-.71-8.64 7.837 7.853.577-.067.975-.066.973-9.72-.715-3.32 3.013 5.122.377-.133 1.95-6.986-.515-3.32 3.012 24.78 1.822 49.344-46.176 1.232-19.183-4.923-.343" fill="#B0C298"/><path d="M235.78 35.533l-1.742 1.58 4.923.344-1.23 19.183 1.74-1.63 1.23-19.135-4.92-.343" fill="#3B4632"/><path d="M240.684 34.934h-4.243l-.66.6 4.92.342-1.23 19.136 2.003-1.874.184-2.883-.973-15.32m-55.805 46.765l-1.998 1.81 9.684.71.133-1.947-7.82-.574" fill="#455635"/><path d="M182.028 92.9" fill="#5A6B48"/><path d="M174.24 91.347l-1.997 1.81 9.72.716.132-1.95-7.854-.576m-5.319 4.825l-1.998 1.81 6.987.515.134-1.95-5.122-.375" fill="#455635"/><path d="M161.606 102.808l-3.32 3.012 15.053 1.107-.067.974-.066.975-16.92-1.244-30.607 27.76 25.965 1.805 34.798-32.563-24.837-1.825" fill="#B0C298"/><path d="M125.68 135.392l-1.696 1.538 26.008 1.813 1.653-1.547-25.965-1.804" fill="#3B4632"/><path d="M173.272 107.9" fill="#5A6B48"/><path d="M158.284 105.82l-1.998 1.81 16.92 1.245.132-1.948-15.054-1.107m5.32-4.825l-2 1.812 24.838 1.825 1.94-1.816-24.778-1.822" fill="#455635"/><path d="M242.383 61.33c-5.074-.866-10.56-2.033-16.364-3.607-4.94-1.34-9.53-2.818-13.752-4.345l7.36-30.16c4.79 1.464 10.066 2.784 15.223 4.146 5.204 1.374 10.11 2.147 15.03 3.245l-7.497 30.718" fill="#DBE3CB"/><path d="M242.383 61.33l.173-1.1c-5.044-.86-10.497-2.02-16.267-3.586-4.91-1.33-9.472-2.8-13.67-4.32l-.353 1.054 1.04.275c2.497-10.24 4.86-19.92 7.358-30.16l-1.04-.274-.3 1.068c4.825 1.475 10.113 2.796 15.262 4.156 5.266 1.39 10.19 2.165 15.066 3.255l.226-1.09-1.04-.275-7.495 30.72 1.038.273.173-1.1-.173 1.1 1.04.275 7.494-30.72.274-1.12-1.086-.244c-4.964-1.11-9.85-1.878-14.99-3.237-5.165-1.364-10.432-2.682-15.185-4.134l-1.068-.327-.273 1.12c-2.5 10.24-4.862 19.92-7.36 30.16l-.242.992.93.336c4.247 1.538 8.864 3.024 13.832 4.372 5.84 1.584 11.356 2.757 16.462 3.628l.97.166.242-.992-1.04-.275" fill="#2B3F22"/><path d="M257.933 68.92c-4.672.716-10.352 1.34-16.183 1.484-5.593.137-10.71-.116-15.256-.564l-.786-31.392c4.595.122 10.415.058 16.152-.114 5.28-.158 10.262-.52 14.908-1.01.262 10.56.903 21.036 1.166 31.597" fill="#DBE3CB"/><path d="M257.933 68.92l-.156-1.103c-4.637.71-10.278 1.33-16.053 1.472-1.02.025-2.024.036-3.012.036-4.382 0-8.44-.234-12.117-.596l-.1 1.11 1.07-.03-.786-31.39-1.073.028-.027 1.115c1.636.044 3.423.063 5.304.063 3.437 0 7.19-.067 10.906-.177 5.31-.16 10.316-.522 14.986-1.017l-.11-1.11-1.07.03c.262 10.59.904 21.064 1.165 31.597l1.073-.028-.156-1.103.156 1.102 1.07-.028c-.26-10.59-.903-21.065-1.164-31.598l-.032-1.202-1.15.12c-4.62.49-9.576.85-14.83 1.006-3.7.11-7.433.177-10.844.177-1.867 0-3.636-.02-5.25-.062l-1.127-.03.03 1.172.785 31.392.024.987.946.093c3.74.37 7.864.607 12.32.607 1.004 0 2.026-.013 3.062-.037 5.89-.144 11.608-.774 16.314-1.496l.94-.144-.025-.987-1.07.028M231.51 53.58s.107-.518.416-1.395c.165-.435.36-.97.678-1.546.325-.572.69-1.247 1.46-1.79.172-.152.447-.222.69-.32.274-.015.588-.078.86.04.135.048.29.087.412.158l.337.245.168.13.148.146.243.277c.66.86 1.025 1.784 1.353 2.75l.905 2.863c.136.43.373.928.472 1l-.013-.008-.088-.032h-.148c.02-.008.16-.117.28-.27.125-.152.26-.33.387-.528l.442-.656c.31-.43.664-.95 1.298-1.374.282-.23.96-.38 1.438-.162.446.213.62.43.795.566l.233.156c.028.016.11.005.246-.064.127-.056.288-.19.434-.3l.49-.46.51-.46c.253-.17.464-.36.758-.472.15-.055.292-.11.445-.148.175-.014.354-.016.525-.006.167.04.332.107.487.173.134.08.246.18.36.272.39.394.587.775.79 1.11.392.666.718 1.153 1.158 1.13.445-.012.987-.303 1.326-.52.355-.235.595-.484.693-.7.105-.213.078-.353.078-.353s.064.128.01.386c-.047.255-.226.614-.562.95-.355.324-.72.74-1.488.934-.39.11-.86-.076-1.198-.324-.348-.262-.585-.586-.84-.896-.236-.3-.484-.608-.713-.772-.25-.146-.268-.143-.53.006l-.35.267-.46.514c-.267.313-.66.763-1.203 1.092-.16.077-.29.17-.486.22-.208.034-.4.11-.63.067-.48-.027-.816-.278-1.073-.45-.212-.17-.406-.3-.415-.29l.066.02.016-.01-.05.042-.157.138-.19.205c-.126.172-.25.297-.395.54l-.413.637c-.152.24-.318.485-.52.73-.215.237-.45.5-.884.717-.13.048-.248.098-.398.122-.16.012-.322.035-.483-.01-.164-.037-.324-.092-.438-.17-.135-.078-.237-.162-.313-.244-.328-.34-.47-.646-.598-.928-.124-.283-.22-.552-.302-.815-.334-1.045-.513-2.032-.773-2.95-.252-.9-.532-1.79-.905-2.39l-.168-.238-.075-.093-.084-.073-.16-.154-.155-.083c-.1-.092-.21-.044-.322-.087-.122.05-.25.024-.384.118-.537.27-1.017.8-1.393 1.266-.377.478-.677.94-.92 1.318-.48.767-.728 1.234-.728 1.234" fill="#2B3F22"/><path d="M9.175 109.155l55.04-26.952 32.84 87.06-56.393 29.944-31.487-90.052" fill="#DBE3CB"/><path d="M9.175 109.155l.484 1.067 53.941-26.415 32.022 84.89-54.334 28.85-31.048-88.796-1.066.405.484 1.067-.484-1.067-1.066.403 31.926 91.308 58.454-31.04-33.66-89.23-57.074 27.95.354 1.012 1.066-.403" fill="#2B3F22"/><path d="M68.206 113.953c1.352-.634 3.204-1.625 3.097-2.263-.167-.998-7.326-17.196-8.26-16.857-.552.203-1.882.968-2.872 1.557-1.302-2.916-2.243-5.09-2.692-6.25 0 0-42.766 23.27-55.267 31.335l39.05 85.144s41.21-21.238 56.163-30.414c0 0-17.303-36.53-29.217-62.252" fill="#5F8C45"/><path d="M68.206 113.953l.427.99c.682-.32 1.484-.724 2.166-1.165.342-.224.655-.45.93-.726.14-.14.27-.292.39-.494.114-.2.226-.467.23-.814l-.016-.205v-.012l-.005-.024-.07-.28c-.095-.306-.262-.736-.505-1.335-.842-2.074-2.552-5.948-4.175-9.333-.812-1.694-1.6-3.26-2.257-4.43-.33-.586-.623-1.07-.894-1.45-.14-.19-.268-.354-.43-.513-.083-.08-.173-.16-.306-.24-.133-.078-.32-.175-.62-.18-.088.002-.254.003-.478.11l.448.98-.345-1.024c-.207.077-.414.173-.652.292-.703.353-1.64.898-2.394 1.346l.517.942.947-.458c-1.3-2.906-2.24-5.083-2.672-6.197l-.43-1.112-1.02.556s-10.695 5.823-22.952 12.649c-12.264 6.83-26.072 14.658-32.38 18.726l-.792.512 39.906 87.014.95-.49s10.307-5.31 22.484-11.77c12.18-6.463 26.218-14.063 33.744-18.68l.833-.512-.427-.902-.766-1.62c-3.474-7.342-18.025-38.12-28.446-60.623l-.94.47.428.99-.427-.99-.94.47c11.918 25.732 29.22 62.26 29.22 62.26l.937-.477-.53-.935c-7.426 4.56-21.47 12.166-33.633 18.617-6.082 3.227-11.698 6.167-15.794 8.3-2.048 1.067-3.715 1.932-4.87 2.53l-1.797.93.46.972.942-.468-39.05-85.143-.94.466.55.922c6.192-3.997 20.018-11.84 32.262-18.658 6.125-3.41 11.86-6.57 16.062-8.878 2.102-1.153 3.82-2.094 5.014-2.746l1.86-1.014-.482-.96-.968.404c.467 1.203 1.41 3.377 2.716 6.302l.478 1.07.985-.585c.488-.29 1.06-.625 1.57-.907l.694-.37c.197-.1.364-.172.435-.198l.05-.018.052-.026-.418-.912v1.012c.066-.002.21 0 .418-.1l-.418-.912v1.012-.856l-.456.724c.05.028.168.124.456.132v-.856l-.456.724.207-.33-.246.3.038.03.207-.33-.246.3.217.28c.426.603 1.145 1.913 1.932 3.48 1.186 2.364 2.566 5.36 3.66 7.837.545 1.237 1.02 2.347 1.362 3.18.17.416.31.764.403 1.017l.106.297.022.07.002.004.415-.117-.424.078.008.04.415-.117-.424.078 1.027-.186-1.032.152.667-.098h-.672l.006.098.667-.098h-.672.56l-.49-.308c-.01.022-.068.12-.07.308h.56l-.49-.308.114.07-.11-.08-.004.01.113.07-.11-.08s-.097.118-.26.243c-.248.194-.627.43-1.04.658-.412.227-.86.45-1.262.638l-.976.457.464 1.003.94-.47" fill="#2B3F22"/><path d="M32.097 113.54s2.028 4.612 2.594 5.718c.89-.475 22.134-13.15 22.134-13.15l-2.67-5.365-22.056 12.796" fill="#DBE3CB"/><path d="M32.097 113.54l-1.082.516s.508 1.156 1.088 2.45c.29.65.598 1.332.87 1.926.274.596.506 1.093.667 1.408l.55 1.078 1.044-.558.433-.247c3.085-1.795 21.745-12.93 21.745-12.93l.993-.592-3.76-7.55-24.087 13.975.458 1.04 1.082-.516.58 1.08 20.984-12.175 2.106 4.23 1.057-.57-.592-1.073-3.332 1.988c-3.008 1.793-7.54 4.495-11.404 6.792-1.932 1.15-3.696 2.196-5.02 2.978l-1.615.953-.49.287-.22.125.542 1.1 1.052-.58c-.123-.238-.355-.733-.62-1.313-.402-.874-.888-1.96-1.274-2.827l-.67-1.51-1.08.512.578 1.08-.58-1.08" fill="#2B3F22"/><path d="M30.85 185.036c-.88-.81-.42-.413-1.036-1.235-7.59-10.14-5.857-23.41 10.674-34.564 18.12-12.228 13.19-27.303-1.906-23.924-22.85 5.114-31.432 29.97-15.82 51.904 1.547 2.174 4.4 7.405 8.088 7.82" fill="#DBE3CB"/><path d="M51.13 131.39c.166.747.242 1.468.242 2.17 0 2.314-.838 4.448-2.248 6.502-2.11 3.075-5.504 5.883-8.917 8.5-3.413 2.627-6.832 5.05-9.042 7.565-4 4.563-6.3 10.255-6.303 15.928-.005 5.102 1.888 10.182 6.028 14.264l1.154-1.266c-3.815-3.774-5.5-8.338-5.506-12.998-.002-5.175 2.115-10.475 5.866-14.753 1.322-1.513 3.264-3.103 5.43-4.768 3.25-2.504 6.998-5.18 9.977-8.244 1.49-1.532 2.79-3.166 3.73-4.945.937-1.778 1.51-3.712 1.51-5.785 0-.835-.093-1.69-.286-2.56l-1.633.39" fill="#2B3F22"/><path d="M27.745 182.89s-8.42-9.906-2.26-22.635c4.65-9.61 12.588-13.35 18.656-17.864 6.07-4.514 7.358-10.56 6.237-13.055 0 0 6.656 5.987-4.576 15.64-9.454 8.125-16.452 10.82-19.154 20.07-3.585 12.27 3.17 18.755 3.17 18.755s-1.097-.658-2.07-.91" fill="#A5B98C"/><path d="M45.1 145.457c-.14.03-.306.048-.493.048-.82.003-2.026-.34-3.343-1.012-1.98-1.007-4.22-2.747-5.955-5.1-1.736-2.356-2.968-5.313-2.968-8.788 0-.98.097-2.002.312-3.065l-.65-.142c-.222 1.108-.326 2.18-.326 3.207 0 4.867 2.306 8.767 5.052 11.436 1.375 1.337 2.86 2.37 4.242 3.073 1.382.7 2.652 1.078 3.635 1.08.225 0 .435-.018.632-.063l-.14-.674m-19.992 25.5l.092.007-.08-.05-.012.043.092.007-.08-.05-.02.022c-.055.058-.232.163-.483.257-.758.29-2.18.536-3.672.534-.674 0-1.365-.048-2.02-.16l-.1.624c.695.12 1.418.17 2.12.17 1.18 0 2.306-.14 3.156-.35.425-.107.78-.227 1.054-.366.137-.07.254-.144.352-.238.096-.092.19-.215.206-.394l-.607-.054M31.673 184.706c-10.21-6.55-15.986-17.91-15.983-29.122.008-9.362 3.993-18.6 12.836-24.995 1.91-1.38 4.317-2.734 6.844-3.733 2.525-1 5.172-1.643 7.545-1.642 1.775 0 3.384.355 4.715 1.142 1.33.79 2.41 2.003 3.16 3.87.48 1.204.688 2.34.688 3.44 0 2.06-.744 4.02-2.005 5.918-1.885 2.845-4.922 5.484-7.983 7.85-3.063 2.377-6.133 4.475-8.146 6.413-5.15 4.973-8.482 11.658-8.488 18.398-.006 4.86 1.77 9.733 5.79 13.823l1.174-1.246c-3.716-3.797-5.28-8.153-5.287-12.577-.006-6.126 3.076-12.42 7.952-17.12 1.22-1.18 2.994-2.52 4.957-3.986 2.947-2.205 6.325-4.7 9.005-7.564 1.34-1.433 2.508-2.96 3.35-4.608.844-1.645 1.36-3.42 1.358-5.302 0-1.332-.26-2.71-.816-4.107-.867-2.186-2.23-3.75-3.882-4.72-1.65-.976-3.558-1.37-5.543-1.37-2.66 0-5.476.7-8.142 1.754-2.664 1.055-5.174 2.466-7.203 3.93-9.292 6.7-13.565 16.55-13.557 26.427.003 11.833 6.074 23.732 16.78 30.608l.88-1.484m50.913-52.666l.053.002c.284.016 1.647.145 3.01.922 1.362.782 2.727 2.17 3.118 4.812l.602-.095c-.438-3.032-2.15-4.638-3.724-5.434-1.576-.802-3.017-.84-3.042-.843l-.016.634" fill="#2B3F22"/></g></svg>