<svg xmlns="http://www.w3.org/2000/svg" viewBox="0 0 2385.7 682" enable-background="new 0 0 2385.7 682"><path d="M1230.4 306.2c-16.1-14.4-36.7-23.5-59.6-26.3-22.4-2.7-40.9.3-57.6 7.9 2.6-9.6 5.9-18.1 9.8-25.2 12.9-23.6 33.7-32.8 52.1-40.9 15.3-6.7 28.5-12.6 32.2-25.3 2.7-9.2-1.8-18.2-11.6-23.4-10.2-5.5-24.2-6.3-38.6-2.3-17.2 4.8-33.7 16.2-47.9 32.9-31.1 36.5-35 73.6-35.2 112.5-16.8 16.4-33.3 37.5-52.3 61.8-3 3.8-6 7.7-9.1 11.9-23.6 31.1-50.4 66.4-87.4 69.5-23.7 2-43.8-9.1-53-17.9-2.7-23.6-5.3-46.8-6.7-60.7-1.7-16.8-5.3-26.9-11.4-31.8-5-3.9-9.2-3.4-14.9-3.2-9.9.4-33.9 3.9-78 8.6-6.7.7-12.6 1.3-18 1.9-19.2 2-30.8 3.1-38.6 5.4-5.1 1.5-8.9 3.4-12.1 6.4-7.5 6.9-7.1 18.4-5.4 36.5.5 4.9 2.7 27.3 5.3 53.5-10.9 5.1-26.8 9.6-44.4 10.6l-1.8.1c-9-6.9-15.5-16.4-19.5-28.4-19.4-59.2 25-106.3 48.8-131.6 1.9-2 3.7-4 5.5-5.9 43.7-10.2 89.4-25.3 121.1-67.7 28.9-38.6 26.3-74.3 11.6-91-7.8-8.9-18.2-11.3-27.3-6.3-12.1 6.7-14.9 20.7-18.1 36.8-3.9 19.5-8.3 41.5-29.2 60-4.9 4.4-11.3 9.3-19.4 14.2 20-39.5 18.5-75.8-3.5-113-27.2-45.9-73.3-66.5-102.9-62.7-11.5 1.5-19.1 6.6-21.4 14.5-4.9 17.1 8.9 30.5 42.3 40.9 28.8 9 50 28.4 58.2 53.5 8.3 25.2 2.9 52.5-15.2 77.1-2.7 3.6-5.5 7.2-8.5 10.8-4.1 1.1-8.4 2.1-12.8 3.1l-2.1.4c-40.5 8.5-101.8 21.6-125.5 85.6-6.1 16.6-5.3 39.7 2.4 61.9 8.6 25 24.8 46.2 45.6 59.7 11.1 7.2 33.8 18.8 65.1 19.2 16 9 34.7 12.3 56.1 9.8 1.5 15.3 2.8 28.1 3.4 34.6 2.2 23.1 3.7 39.8 25.7 37.8l.7-.1c79.8-7.4 129-12.8 142.1-15.7.5-.1 1-.2 1.4-.4 17.2-4.9 13.9-24.9 11.5-39.6-.4-2.7-.9-5.2-1.1-7.5-.4-3.1-1.3-11.1-2.6-21.9 20.2 15 46.9 23.7 75.9 24.5 17.9.5 35.6-2 52.5-7.4 15.4-4.8 30.1-12 44-21.4 56-38 55.1-102.1 54.6-140.5-.1-7.4.1-14.8.6-21.9 29.9-18.2 60.5-6.6 76.1 5.5 6.5 5.1 12.9 12.4 19.1 19.5 13.6 15.7 27.7 31.9 44.2 25.1 1.7-.7 3.5-1.7 5.3-2.9 7.3-5 9.6-16.1 6.3-29.5-3.8-14.4-13.5-29.7-26.8-41.6zm-233.9 179.8c-.3.1-.6.2-.8.3-24.2 7.6-49 7.9-72.5 1.2 9.3 0 19-1.2 28.9-3.6 43.4-10.5 76.4-57 105.4-98.1 5.7-8 11.1-15.7 16.4-22.8-.4 18.8-2 38.1-7 58.2-6.8 27.3-35.1 53.4-70.4 64.8zm-402.9-66.5c1.7 15.6 6.2 30.4 13 43.2-9.9-3.8-19.5-9.8-27.6-19.1-19.2-21.8-27.3-46.5-22.8-69.5 4.1-20.6 17.9-37.7 39-48.2 10.1-5 21.9-8.7 34.7-12-22.4 28-41.2 60.6-36.3 105.6z" fill="none"/><path fill="#2E471F" d="M867.4 437.1c5.6 8.8 28.7 25 57 22.7 37-3.1 63.7-38.4 87.4-69.5 3.2-4.2 6.1-8.1 9.1-11.9 49.8-63.8 82.8-105.9 149.1-97.9 22.9 2.8 43.5 11.8 59.6 26.3 13.3 11.9 23.1 27.2 26.7 41.9 3.3 13.4 1 24.4-6.3 29.5-1.8 1.2-3.6 2.2-5.3 2.9-16.5 6.7-30.5-9.4-44.2-25.1-6.2-7.1-12.6-14.5-19.1-19.5-19.1-14.9-60.9-29.1-96.3 12-9 10.4-18.4 23.8-28.5 38-29.1 41.1-62.1 87.7-105.4 98.1-29.7 7.1-57.5 3.5-78.5-10.2"/><path fill="#DCE3D0" d="M874.6 470.3c27.1 17.7 59 13.7 75.6 9.7 42.1-10.1 74.6-56.1 103.3-96.7 10.1-14.3 19.6-27.7 28.7-38.2 15.6-18.1 34.7-27.8 55.2-28.1 16.2-.2 33 5.4 46.1 15.6 6.8 5.3 13.3 12.8 19.6 20 14.6 16.9 28.5 32.8 44.6 21.6 6-4.1 7.8-13.7 4.8-25.6-6.8-27.5-35.8-59.7-83.2-65.4-64.3-7.7-96.7 33.7-145.8 96.5-3 3.8-5.9 7.7-9.1 11.9-22.9 30.2-51.4 67.7-90 70.9-30.2 2.5-54.2-14.6-60.3-24.3l10.5 32.1"/><path opacity=".61" fill="#ABC094" d="M874.6 470.3c27.1 17.7 59 13.7 75.6 9.7 42.1-10.1 74.6-56.1 103.3-96.7 10.1-14.3 19.6-27.7 28.7-38.2 15.6-18.1 34.7-27.8 55.2-28.1 16.2-.2 33 5.4 46.1 15.6 6.8 5.3 13.3 12.8 19.6 20 14.6 16.9 28.5 32.8 44.6 21.6 6-4.1-18-63.7-76.3-75.4-63.5-12.8-90.1 29.6-139.2 92.4-3 3.8-5.9 7.7-9.1 11.9-22.9 30.2-57.4 67.5-96 70.7-30.2 2.5-54.2-14.6-60.3-24.3l7.8 20.8"/><path fill="#2E471F" d="M710.1 483.1c-12.9 6.4-25.2 10.7-36.7 13.4-48.2 11.3-83.3-6-97.9-15.5-20.8-13.5-37-34.7-45.6-59.7-7.6-22.2-8.5-45.3-2.4-61.9 23.7-64 85-77 125.6-85.7l2.1-.4c43-9.2 68.9-26 83-38.4 20.9-18.5 25.3-40.5 29.2-60 3.2-16.2 6.1-30.1 18.1-36.8 9.1-5 19.5-2.6 27.3 6.3 14.6 16.8 17.2 52.4-11.6 91-37.1 49.6-93.4 61.8-143.2 72.6-23.8 5.1-46.2 10-63.4 18.5-21.1 10.4-35 27.6-39 48.2-4.5 23 3.5 47.6 22.8 69.5 19.8 22.5 48.3 25.9 68.8 24.8 29.5-1.7 53.9-13.3 59-20.6"/><path stroke="#2E471F" stroke-width=".901" stroke-miterlimit="10" d="M886.9 454.3c5.6 9.4-3.2 25.7-13.6 21.7m55.5-15.5c9.1 6 8.3 24.5-2.8 25.4m41.3-44c8.9-5.5 23.7 16.8 16 24.9m21-65.2c8.1-7.9 27.8 9.3 22.7 20.6" fill="none"/><path stroke="#2E471F" stroke-width=".88" stroke-miterlimit="10" d="M1043.8 353c8.9-7 25.3 11.9 18.8 22.5m38.2-77.3c10.8-3.5 19.7 19.9 10 27.6m64.1-42.3c12.4 3.3 13.4 37.9-6.9 41.5m79.1 6.4c6.4 13.5-10.2 41.3-34.2 35.2" fill="none"/><path fill="#DCE3D0" d="M708.3 449.8c-6.5 9.3-32.6 20.4-61.2 22-21.3 1.2-51-2.4-71.8-26-20-22.7-28.4-48.6-23.6-72.7 4.3-21.8 18.9-39.9 41.1-50.8 17.7-8.7 40.3-13.6 64.3-18.8 49.1-10.6 104.7-22.6 141-71.2 12.9-17.3 20.3-35.3 21.4-52.2.9-13.7-2.6-26.1-9.5-34.1-6.6-7.6-15.1-9.6-22.6-5.5-10.6 5.8-13.1 18.4-16.3 34.3-3.8 19.1-8.6 42.8-30.4 62.1-13.9 12.3-38.8 28.6-79.7 38.2-1.7.4-3.3.8-5.1 1.1l-2.1.4c-39.7 8.5-99.8 21.2-122.8 83.3-5.9 15.8-5 38 2.4 59.3 8.3 24.2 24 44.7 44.1 57.8 17.6 11.4 66.6 33.9 131.9 1.3"/><path opacity=".61" fill="#ABC094" d="M709.9 456.4c-6.5 9.3-32.6 20.4-61.2 22-21.3 1.2-47.3-1-70.8-22-27-24.1-36.7-56.9-31.6-80.9 5.7-26.9 24.3-42 46.5-53 17.7-8.7 40.3-13.6 64.3-18.8 49.1-10.6 104.7-22.6 141-71.2 12.9-17.3 20.3-35.3 21.4-52.2.9-13.7-2.6-26.1-9.5-34.1-6.6-7.6 2.8 50.4-55.9 101.7-14 12.2-50.7 24.1-91.5 33.6-1.7.4-7.2 1.6-7.2 1.6-39.7 8.5-99.9 14.3-122.9 76.3-5.9 15.8-6.4 38.7 1 60.1 8.3 24.2 24 44.7 44.1 57.8 17.6 11.4 66.6 33.9 131.9 1.3"/><path fill="#2E471F" d="M711.8 507.4c-31.1 7.1-57.5 3.1-78.4-11.8-21.9-15.6-37.1-43.9-40.5-75.7-6.4-58.8 27.6-96.6 57.7-129.8 9.5-10.5 18.4-20.4 26-30.7 18.1-24.6 23.5-51.9 15.2-77.1-8.2-25-29.4-44.5-58.2-53.5-33.3-10.4-47.2-23.7-42.3-40.9 2.3-7.9 9.9-13 21.4-14.5 29.6-3.8 75.6 16.8 102.7 62.6 32.7 55.1 20.1 108.4-40.7 172.9-23.9 25.3-68.3 72.3-48.8 131.6 7.4 22.4 23.6 36 48.3 40.3 18.6 3.3 35.1-.2 35.3-.2"/><path stroke="#2E471F" stroke-width=".901" stroke-miterlimit="10" d="M681.1 490c-10.6-2.4-16.3-20.1-6.2-24.8m-51.3 31c-9.5-7.4-5.6-25.3 5.5-26m-55.1 6.7c-7.1-9.7 1.5-25.8 12.4-23.5m-52.6-28.2c2.1-11.8 19.7-16.8 25.5-7.3m-27.6-64c9.4-7.5 25.9.4 24 11.4m19.2-62.6c10-2.1 20.4 13.1 13.7 23.7m48.9-47c14.4 3.1 12.9 27.5 1 31.5m64.3-51.7c13.6-1.2 20.2 26.9 9.1 32.7" fill="none"/><path stroke="#2E471F" stroke-width=".92" stroke-miterlimit="10" d="M752.5 221.8c11.3-7.4 35.4 19.6 26.7 35m-7.5-92.7c2.5-13.3 42.8-13.2 49 15.3" fill="none"/><path fill="#DCE3D0" d="M711.8 503.7c-30 6.8-55.4 3.1-75.3-11.2-21-15-35.6-42.3-39-73-6.2-57.1 25.8-92.6 56.7-126.9 9.5-10.6 18.5-20.5 26.2-31 18.5-25.2 24.3-54.6 15.7-80.5-8.6-26.2-30.7-46.6-60.7-55.9-31-9.6-45.4-21.4-40.6-36 1.8-5.5 9.7-11.1 19.7-12.4 28.4-3.6 73 16.5 99.3 60.9 31.7 53.4 18.4 105.6-41.1 168.6-24.4 25.9-69.8 74-49.7 135.4 7.7 23.5 25.4 38.3 51.2 42.9 19.3 3.4 36-.1 36.7-.3l.9 19.4z"/><path fill="#2E471F" d="M871.4 460.2c35.8 30.3 80.8 39.9 123.6 26.5.3-.1.6-.2.8-.3 35.2-11.3 63.5-37.4 70.4-64.9 7.6-30.3 7.3-58.9 7-86.5-.5-45.6-.9-88.7 35.1-131 14.2-16.7 30.8-28.1 47.9-32.9 14.4-4 28.4-3.2 38.6 2.3 9.8 5.3 14.3 14.3 11.6 23.4-3.7 12.8-16.9 18.6-32.2 25.3-18.4 8.1-39.2 17.3-52.1 40.9-11.3 20.8-17.8 54.2-17.3 89.5.5 38.3 1.4 102.5-54.6 140.5-13.8 9.4-28.6 16.5-44 21.4-17 5.3-34.7 7.8-52.5 7.4-31.2-.9-59.7-10.8-80.3-27.9"/><path fill="#DCE3D0" d="M868.7 462.2c36.8 31.1 83 41 127.1 27.2l.9-.3c18-5.8 34.5-15.3 47.5-27.4 13-12.1 21.8-25.9 25.3-40.1 7.7-30.8 7.4-59.6 7.1-87.4-.5-44.9-.9-87.3 34.2-128.6 31.7-37.2 66.4-38.2 82-29.8 8.3 4.5 12 11.7 9.8 19.2-3.2 11.1-15.1 16.4-30.1 23-18 7.9-40.3 17.8-53.8 42.5-11.6 21.3-18.3 55.4-17.8 91.3.5 37.6 1.4 100.5-53 137.4-62.1 42.1-135.2 32-172.4 1l-6.8-28z"/><path opacity=".61" fill="#ABC094" d="M872 475.3c36.8 31.1 82.1 37.3 126.2 23.5.3-.1 33.4-7.2 52.1-26.4 12.4-12.7 24-27.7 30.7-49 11-34.8 7.2-63.8 6.9-91.6-.5-44.9 11.5-82.6 37.1-112.6 31.7-37.2 79.9-31.3 77.8-23.7-3.2 11.1-15.1 16.4-30.1 23-18 7.9-40.3 17.8-53.8 42.5-11.6 21.3-18.3 55.4-17.8 91.3.5 37.6 1.4 100.5-53 137.4-62.1 42.1-135.2 32-172.4 1l-3.7-15.4z"/><path stroke="#2E471F" stroke-width="1.024" stroke-miterlimit="10" d="M666.6 144.5c-7.5-18.6 14.8-38.8 29.8-31.9" fill="none"/><path stroke="#2E471F" stroke-width=".901" stroke-miterlimit="10" d="M897 478.5c5.6 9.4-3.2 25.7-13.6 21.7m60.4-6.7c7.6 7.9 2.7 25.8-8.3 24.2m64-31c10.2-.1 16 21.9 5.4 25.5" fill="none"/><path stroke="#2E471F" stroke-width=".917" stroke-miterlimit="10" d="M1053.3 451c8.6-5.7 26.2 9.8 19.4 18.6m1.9-80.9c4.6-9.2 27.6-4.5 26.1 6.5m-26.6-74.5c1.8-11.5 29.7-11.2 29.7 1.5m-15.4-85.8c6.9-14.5 38.1.4 35.4 19.6m29-81.7c15.9-6.3 37.3 26.5 24.5 43" fill="none"/><path opacity=".61" fill="#ABC094" d="M711.8 503.7c-30 6.8-55.4 3.1-75.3-11.2-21-15-35.6-42.3-39-73-6.2-57.1 25.8-92.6 56.7-126.9 9.5-10.6 18.5-20.5 26.2-31 18.5-25.2 24.3-54.6 15.7-80.5-8.6-26.2-30.7-46.6-60.7-55.9-31-9.6-45.4-21.4-40.6-36 1.8-5.5 71.9 11.2 99.9 54.5 30 46.4 32.6 92.9-31.5 157.4-25.1 25.2-69.1 81.3-49 142.7 7.7 23.5 30.8 44.6 62.2 49.5 17.7 2.8 30-2.2 35.9-3.5l-.5 13.9z"/><path fill="#fff" d="M687.9 404.7c-1.6-17.2-2.2-28.6 4.9-35 9-8.2 21.6-8.3 67.7-13.2 46.1-4.9 68.8-7.4 78.1-8.6 11.9-1.5 21.3 2.6 24.4 33.4 3.4 33.7 13.9 122.8 15.7 138.2 1.8 15.4 9.8 41.1-10.4 45.6s-122.5 13.9-142.6 15.7c-20.1 1.9-21.6-12.8-23.8-36.2s-13-128.6-14-139.9z"/><path fill="#2E471F" d="M870 566.3c-.5.1-.9.2-1.4.4-13.2 2.9-62.3 8.3-142.1 15.7l-.7.1c-21.9 2-23.5-14.7-25.7-37.8-1.2-13-5.1-51.2-8.4-84.8-2.7-26.8-5-50-5.5-55.1-1.7-18.1-2.1-29.6 5.4-36.5 3.3-3 7-4.9 12.1-6.4 7.8-2.2 19.4-3.4 38.6-5.4 5.3-.5 11.3-1.1 18-1.9 44.1-4.7 68.1-8.2 78-8.6 5.7-.2 10-.8 14.9 3.2 6.1 4.9 9.8 15 11.4 31.8 3.4 34.2 14.2 125.5 15.7 138.1.3 2.3.7 4.8 1.1 7.5 2.6 14.8 5.8 34.9-11.4 39.7z"/><path opacity=".84" fill="#88AC66" d="M705 364.3c-4.7 1.3-7.9 3-10.8 5.6-6.4 5.8-5.9 16.5-4.4 33.5.5 5 2.7 28.1 5.4 54.8 3.3 33.5 7.1 71.5 8.3 84.5 2.3 25.1 4.1 36.2 21.9 34.5l.7-.1c78.8-7.4 129.2-13 142.1-15.8 15.6-3.5 12.8-20.7 10.3-35.9-.4-2.7-.9-5.3-1.1-7.6-1.5-12.6-12.1-103.6-15.5-137.7-1.5-15.5-4-24.4-9.3-28.6-3-2.4-6.4-3.6-13.2-3.2-9.9.7-34 4-78.3 8.7-6.7.7-12.7 1.3-18 1.9-19 2.1-30.5 3.3-38.1 5.4z"/><path fill="#fff" d="M852.2 446.8c1.4 14.9 2.6 24.6-3.5 30.2-7.8 7.1-13.9 6.2-53.6 10.8-38.9 4.5-48.5 4.7-61.3 6-12.6 1.2-18.1-5.5-20.6-31.3-1.1-12-3.4-25.5-4.9-40.4-2.3-24.5-3.4-36.8 12.8-39.8 17.6-3.2 88.8-10.1 106.1-11.7 17.4-1.6 18.6 11 20.5 31.3 2.1 20.1 3.6 35.1 4.5 44.9z"/><path opacity=".4" fill="#2E471F" d="M843.6 489.9c-5.4 1.5-12.9 2.3-26.6 3.7-5.9.6-12.5 1.3-20.6 2.2-29.7 3.3-43.6 4.4-53.7 5.2-4 .3-7.4.6-11.2.9-5.9.5-10.2-.5-13.6-3.4-5.5-4.7-8.6-14.3-10.3-32.1-.6-6.1-1.5-12.6-2.4-19.5-1-7.7-2.1-15.6-2.9-24-2.4-24.7-3.9-39.5 11.9-44 .9-.3 1.9-.5 2.9-.7 21.2-3.8 111.4-11.9 112.3-12 20.3-1.8 21.8 13.8 23.9 35.4 1.2 12 2.2 22.4 3.1 30.8.7 6.9 1.3 12.8 1.8 17.6l.2 2c1.5 15.5 2.5 25.7-4.3 32-3.3 3-6.2 4.7-10.5 5.9z"/><path fill="#2E471F" d="M840.3 483.3c-5.1 1.5-12.2 2.3-25.1 3.8-5.5.6-11.8 1.3-19.4 2.3-28.1 3.5-41.2 4.6-50.7 5.5-3.8.3-7 .6-10.6 1-5.6.6-9.6-.4-12.8-3-5.2-4.3-8.2-13.2-9.9-29.8-.6-5.7-1.4-11.7-2.3-18.1-1-7.1-2-14.4-2.8-22.3-2.3-22.9-3.8-36.7 11.1-41.1.9-.3 1.8-.5 2.8-.7 20-3.8 105.3-12.5 106.2-12.6 19.2-1.9 20.6 12.6 22.7 32.7 1.1 11.1 2.2 20.8 3 28.6.7 6.4 1.3 11.9 1.7 16.3l.2 1.8c1.4 14.4 2.4 23.9-4 29.8-3.3 3.1-6 4.6-10.1 5.8z"/><path fill="#DCE3D0" d="M718.7 383.8c-11.6 3.3-11.2 13.1-8.9 37 .7 7.7 1.7 15 2.6 22 .8 6.4 1.7 12.4 2.2 18.1 1.4 15.3 4 23.7 8.3 27.3 2.4 2 5.6 2.7 10.2 2.3 3.6-.3 6.8-.6 10.6-.9 10-.8 22.4-1.8 50.3-5 7.6-.9 13.8-1.5 19.3-2.1 12.6-1.3 19.6-2.1 24.4-3.4 3.5-1 5.8-2.3 8.5-4.7 5.1-4.7 4.3-13.4 3.1-26.7l-.2-1.8c-.4-4.4-.9-9.8-1.6-16.2-.8-7.7-1.7-17.4-2.8-28.4-2-21.4-3.5-30.9-18.5-29.5-17.9 1.6-88 8.5-105.2 11.6-.7-.1-1.5.1-2.3.4z"/><path fill="#2E471F" d="M787.8 511.4c1.4-.5 68.7-8.5 68.7-8.5l.9 10.1-13.6 1.3-1.3-5.8-54.4 6.9-.3-4z"/><path stroke="#2E471F" stroke-width=".901" stroke-miterlimit="10" d="M682.3 509c-9.6-5.3-10.1-23.8.9-25.5m-50.7 9.4c-5.9-9.2 2.4-25.8 12.9-22.1m-47.5-31.1c-1-11.3 18.2-17.3 23.5-7.5" fill="none"/><path stroke="#2E471F" stroke-width="1.024" stroke-miterlimit="10" d="M600.5 365.7c7.9-10.2 28.5-.4 25.4 11.9m13.5-71.1c9.9-8.3 24.2 9.6 18.9 19m22.3-67.4c8-10.2 25.6 4.5 22.3 14.8m-4.4-75.8c2.9-14.5 31.9-14.1 33.1.4" fill="none"/><path stroke="#2E471F" stroke-width="1.056" stroke-miterlimit="10" d="M613.2 118.9c-11.1-19.9 4.9-47.7 24.8-41.6" fill="none"/><text transform="matrix(.994 -.113 .113 .994 731.557 457)" fill="#2E471F" font-family="'SourceSansPro-Semibold'" font-size="60.954">o_O</text><path fill="#DCE3D0" d="M675 86.4c1.8-3.1 13.8-2.4 11.5 6.7"/><path fill="#649345" stroke="#2E471F" stroke-width="2.427" stroke-miterlimit="10" d="M693.7 110.5c-25.4 8.9-26.8 32.6-26.9 32.5-9-6.4-20.6-12.1-20.6-12.1-.1-.1 3-30.7 29.8-38.1"/><path fill="#DCE3D0" stroke="#2E471F" stroke-width="1.618" stroke-miterlimit="10" d="M676 90.3c-.1 0 5.6-2.4 5.9 3.5"/><path fill="#DCE3D0" d="M675.1 129.9c-1.7 0-3.4-.6-4.9-1.8-7-5.6-14.6-9.9-19.7-12.5-3.6-1.8-4.9-6.1-3.1-9.9 2.5-5.1 11.7-16.3 22.3-16.5 7.9.3 20.3 9.7 25 17.3 2.4 3.9.1 6.3-3 9.1-2.8 2.4-4.8 4.6-7.1 7.2-1.3 1.5-2.8 3.1-4.7 5-1.2 1.3-2.9 2.1-4.8 2.1z"/><path fill="#2E471F" d="M669.8 90c7.3.2 19.6 9.3 24.3 16.9 2 3.2.4 5.2-2.9 8-4.4 3.8-6.8 7.1-11.8 12.3-1.2 1.2-2.7 1.8-4.3 1.8-1.5 0-3.1-.5-4.3-1.6-7.1-5.8-14.9-10.1-19.9-12.6-3.2-1.6-4.3-5.6-2.7-8.8 2.6-5.2 11.7-15.8 21.6-16m0-1.6c-11.1.2-20.5 11.7-23.1 17-2.1 4.1-.6 9 3.4 11 5.1 2.6 12.7 6.8 19.6 12.4 1.6 1.3 3.5 1.9 5.4 1.9 2.1 0 4-.8 5.4-2.3 1.8-1.9 3.3-3.6 4.7-5 2.3-2.6 4.3-4.8 7-7.1 2.6-2.2 6.1-5.3 3.2-10.1-4.7-7.8-17.4-17.5-25.6-17.8z"/><path fill="#465D34" d="M675.3 126.3c-1.2 0-2.3-.5-3.5-1.3-6.6-5.3-13.8-9.2-18.7-11.7-3-1.5-4.8-3.1-5.3-4.7-.3-.9-.2-1.8.3-2.8 5-9.2 14.7-16.3 21.9-16.3h.4c5 .1 17 7.5 22.3 15.1 2.4 3.4.2 5.6-2 7.7l-.4.4c-2.4 2.3-4.3 4.4-6.9 7.3-1.1 1.2-2.4 2.6-3.9 4.3-1.3 1.3-2.8 2-4.2 2z"/><path fill="#2E471F" d="M670 89.9h.3c5 .1 16.8 7.5 22 14.9 2.3 3.3-.1 5.3-2.4 7.5-3.5 3.4-5.9 6.2-10.8 11.5-1.2 1.3-2.6 2-3.9 2-1.1 0-2.1-.4-3.2-1.3-6.7-5.4-14.1-9.4-18.8-11.7-3.1-1.5-6.5-4-4.8-6.9 4.8-8.5 14.2-16 21.6-16m0-.8c-7.4 0-17.2 7.3-22.3 16.5-.6 1-.7 2-.3 3.1.6 1.8 2.4 3.4 5.5 5 4.9 2.4 12 6.4 18.6 11.6 1.2 1 2.4 1.4 3.7 1.4 1.6 0 3.2-.8 4.5-2.3 1.5-1.6 2.8-3 3.9-4.2 2.6-2.9 4.5-4.9 6.9-7.3l.4-.4c2.1-2 4.7-4.5 2.1-8.2-5.5-7.8-17.4-15.2-22.7-15.3 0 .1-.1.1-.3.1z"/><ellipse transform="matrix(.971 -.238 .238 .971 -5.689 162.446)" fill="#649345" cx="670.8" cy="104.8" rx="10.2" ry="8.7"/><path fill-rule="evenodd" clip-rule="evenodd" fill="#fff" d="M677.3 102.8l-5.1-.2-1.3-4.9-1.7 4.8-5-.2 4 3.1-1.8 4.9 4.1-2.9 3.9 3.2-1.4-4.9 4.3-2.9z"/><path d="M699.2 83.1c-1.6-9-10.2-15-19.2-13.4l.4 2.1c7.8-1.4 15.4 3.8 16.8 11.7l2-.4zm14.2-2.6c-3-16.8-19.2-28-36-25l.4 2.1c15.7-2.8 30.7 7.6 33.5 23.3l2.1-.4zm14.8-2.6c-4.5-24.9-28.4-41.6-53.4-37.1l.4 2.1c23.8-4.3 46.6 11.6 50.9 35.4l2.1-.4zm38.7 393.3s-1.2-18.4 12.5-18.1c13.8.3 15.8.6 16.7 17.4.1.1-29.2 4.4-29.2.7z" fill="#DCE3D0"/><path fill="#2E471F" d="M765.2 476.8l-.7-9.3c-.4-5.3.7-9.6 3.3-12.8 2.6-3.2 6.8-5 12.6-5.5 2.9-.2 5.4-.1 7.7.5s4.2 1.5 5.8 2.9c1.6 1.3 2.8 3 3.7 4.9.9 2 1.5 4.3 1.7 6.9l.8 9.6-34.9 2.8zm29.1-11.3c-.3-3.5-1.5-6.2-3.7-7.9-2.2-1.7-5.4-2.4-9.7-2.1-4.3.3-7.3 1.5-9.1 3.6-1.8 2.1-2.6 4.9-2.3 8.4l.2 2.7 24.8-2-.2-2.7z"/></svg>