<svg xmlns="http://www.w3.org/2000/svg" viewBox="0 0 2385.7 682" enable-background="new 0 0 2385.7 682"><path fill="#DCE3D0" stroke="#2E471F" stroke-width="2.061" stroke-miterlimit="10" d="M1655.1 513.1c.1 6.6 1.3 37.2-4.2 90.3-1.6 15.8-2.3 31.4 3.4 33.2 4.1 1.3 8.6-4.8 9.8-20.1 3.1-39.7-.1-84.2-1.4-101.8"/><path opacity=".6" fill="#ABC094" d="M1662.4 519.4s4.3 56 2.4 84c-1.9 27.9-6.3 35.2-11.1 32.7 1.8 0 7.2-1 8.8-40.6 1.5-35.1-2.7-76.8-2.7-76.8l2.6.7z"/><path stroke="#2E471F" stroke-width=".713" stroke-miterlimit="10" d="M1649.7 622.9s4.9 4.9 13.3 1.4" fill="none"/><path stroke="#2E471F" stroke-width=".736" stroke-miterlimit="10" d="M1651.4 601.5s5.3 5 13.5 1.2" fill="none"/><path stroke="#2E471F" stroke-width=".606" stroke-miterlimit="10" d="M1652.9 578.9s4.1 4.7 12.5 1.3" fill="none"/><path stroke="#2E471F" stroke-width=".494" stroke-miterlimit="10" d="M1654.4 557.1s3.6 3.6 10.2.4" fill="none"/><path stroke="#2E471F" stroke-width=".398" stroke-miterlimit="10" d="M1655.5 536.1s3.1 2.7 8.2-.1" fill="none"/><path stroke="#2E471F" stroke-width="2.5" stroke-miterlimit="10" d="M1655.2 513.1c.1 6.6 1.3 37.2-4.2 90.3-1.6 15.8-2.3 31.4 3.4 33.2 4.1 1.3 8.6-4.8 9.8-20.1 3.1-39.7-.1-84.2-1.4-101.8" fill="none"/><path fill="#DCE3D0" stroke="#2E471F" stroke-width="2.061" stroke-miterlimit="10" d="M1641.5 510.6s-2.2 33.9-17.4 88.7c-4.2 15.3-5.9 30.9-.8 33.5 3.9 1.9 9.2-3.6 12.5-18.6 8.7-38.9 11.1-80.5 12.3-100.5"/><path opacity=".6" fill="#ABC094" d="M1647.9 517.9s-3.6 56.1-9.4 83.5-11.2 34-15.6 30.8c1.7.3 7.3 0 14.4-39 6.4-34.6 8.1-76.4 8.1-76.4l2.5 1.1z"/><path stroke="#2E471F" stroke-width="2.5" stroke-miterlimit="10" d="M1641.5 510.6s-2.2 33.9-17.4 88.7c-4.2 15.3-5.9 30.9-.8 33.5 3.9 1.9 9.2-3.6 12.5-18.6 8.7-38.9 11.1-80.5 12.3-100.5" fill="none"/><path stroke="#2E471F" stroke-width=".713" stroke-miterlimit="10" d="M1620.5 617.3s3.4 7.7 13 4.9" fill="none"/><path stroke="#2E471F" stroke-width=".736" stroke-miterlimit="10" d="M1624.6 596.4s3.8 7.7 13.9 4.8" fill="none"/><path stroke="#2E471F" stroke-width=".606" stroke-miterlimit="10" d="M1630.1 575.4s3.5 5.2 12.2 3" fill="none"/><path stroke="#2E471F" stroke-width=".494" stroke-miterlimit="10" d="M1634.8 554.1s3.1 4.1 10.1 1.9" fill="none"/><path stroke="#2E471F" stroke-width=".398" stroke-miterlimit="10" d="M1638.8 533.4s2.6 3.1 8.2 1" fill="none"/><path fill="#DCE3D0" stroke="#2E471F" stroke-width="2.061" stroke-miterlimit="10" d="M1678.1 512.5c.6 6.5 2.8 37.1 14 89.3 3.3 15.5 5.7 31 .2 33.4-3.9 1.8-9-3.8-11.9-19-7.4-39.2-9-83.7-9.7-101.3"/><path opacity=".6" fill="#ABC094" d="M1671.5 519.6s1.8 56.2 6.7 83.7c4.9 27.6 10.1 34.3 14.6 31.3-1.7.2-7.3-.2-13.2-39.4-5.3-34.8-5.6-76.6-5.6-76.6l-2.5 1z"/><path stroke="#2E471F" stroke-width=".713" stroke-miterlimit="10" d="M1695.4 621.1s-4.3 5.4-13.1 2.8" fill="none"/><path stroke="#2E471F" stroke-width=".736" stroke-miterlimit="10" d="M1691.3 600s-4.8 5.5-13.3 2.6" fill="none"/><path stroke="#2E471F" stroke-width=".606" stroke-miterlimit="10" d="M1687.4 577.7s-3.6 5.1-12.3 2.6" fill="none"/><path stroke="#2E471F" stroke-width=".494" stroke-miterlimit="10" d="M1683.5 556.2s-3.2 4-10.1 1.5" fill="none"/><path stroke="#2E471F" stroke-width=".398" stroke-miterlimit="10" d="M1680.1 535.4s-2.7 3-8.2.8" fill="none"/><path stroke="#2E471F" stroke-width="2.5" stroke-miterlimit="10" d="M1678 512.6c.6 6.5 2.8 37.1 14 89.3 3.3 15.5 5.7 31 .2 33.4-3.9 1.8-9-3.8-11.9-19-7.4-39.2-9-83.7-9.7-101.3" fill="none"/><path fill="#DCE3D0" stroke="#2E471F" stroke-width="2.061" stroke-miterlimit="10" d="M1691.3 508.5s5.9 33.5 26.8 86.3c5.9 14.8 9.2 30.1 4.4 33.2-3.6 2.3-9.5-2.6-14.4-17.1-12.8-37.8-19.7-78.8-23-98.6"/><path opacity=".6" fill="#ABC094" d="M1685.7 516.4s9.6 55.4 18.3 82 14.8 32.6 18.8 28.9c-1.7.5-7.2.8-18.6-37.2-10.1-33.7-16.2-75.1-16.2-75.1l-2.3 1.4z"/><path stroke="#2E471F" stroke-width="2.5" stroke-miterlimit="10" d="M1691.3 508.5s5.9 33.5 26.8 86.3c5.9 14.8 9.2 30.1 4.4 33.2-3.6 2.3-9.5-2.6-14.4-17.1-12.8-37.8-19.7-78.8-23-98.6" fill="none"/><path stroke="#2E471F" stroke-width=".713" stroke-miterlimit="10" d="M1723.6 612.4s-2.6 8-12.4 6.3" fill="none"/><path stroke="#2E471F" stroke-width=".736" stroke-miterlimit="10" d="M1717.3 592s-2.9 8-13.3 6.3" fill="none"/><path stroke="#2E471F" stroke-width=".606" stroke-miterlimit="10" d="M1709.6 571.8s-2.9 5.6-11.8 4.3" fill="none"/><path stroke="#2E471F" stroke-width=".494" stroke-miterlimit="10" d="M1702.7 551s-2.6 4.4-9.8 2.9" fill="none"/><path stroke="#2E471F" stroke-width=".398" stroke-miterlimit="10" d="M1696.5 530.9s-2.3 3.4-8 1.9" fill="none"/><path fill="#465D34" stroke="#2E471F" stroke-width="2.5" stroke-miterlimit="10" d="M1715.3 526.1c-.3.1-40.9 3.8-92.1 6.4h-.5c-14.1.7-14.2-4.2-15-19-.4-8.4-9.8-160.6-9.9-163.8-.5-13 4.4-14.9 13.1-16.4 5.1-.9 89-9 95.7-5.4 6.6 3.5 6.1 14.2 6.7 25.1 1.3 21.9 10.5 152.2 10.6 153.9.9 13.3 1.5 17.9-8.6 19.2z"/><path fill="#ABC094" stroke="#2E471F" stroke-width="2.061" stroke-miterlimit="10" d="M1714.6 507.5l-97.4 5.4c-2.9.2-5.3-2-5.5-4.9l-9.3-156.7c-.2-2.9 2-5.3 4.9-5.5l95.9-6.7c2.9-.2 5.4 2 5.6 4.9l10.9 158c.1 2.8-2.2 5.3-5.1 5.5z"/><path fill="#637350" stroke="#2E471F" stroke-width="1.861" stroke-miterlimit="10" d="M1673.4 522.8l-13 .9c-2 .1-3.7-.6-3.9-3.4-.1-2 .5-3.7 3.4-3.9l13-.9c2.6-.2 3.8 1.4 3.9 3.4.1 2-.2 3.7-3.4 3.9z"/><path fill="#2E471F" d="M1641.1 336.7c-.1-1.3 29.1-3.2 29.1-2.1.1 1.2-29 3.6-29.1 2.1z"/><path d="M1597.6 408.6c.3-.1.4-.5.1-.7-4.3-2.9-26.6-17.6-33.7-10.2-6.7 6.8 7.5 18.5 33.6 10.9zm.1.1c.1-.2 0-.4-.2-.4-3.5-.2-24.6-1-26.4 6.9-1.5 7.2 12.5 9.1 26.6-6.5zm122.7-7.3c-.3-.1-.5-.5-.2-.7 3.8-3.5 23.8-21.2 32-14.8 7.5 5.8-4.9 19.4-31.8 15.5zm-.1.1c-.2-.1-.1-.4.1-.4 3.5-.7 24.2-4.4 27.1 3.2 2.6 6.8-11.1 10.7-27.2-2.8z" fill="#DCE3D0" stroke="#2E471F" stroke-width="2.5" stroke-miterlimit="10"/><radialGradient id="a" cx="1418.528" cy="510.943" r="34.174" gradientTransform="matrix(.997 -.081 .081 .997 206.052 22.208)" gradientUnits="userSpaceOnUse"><stop offset=".455" stop-color="#80A262"/><stop offset=".715" stop-color="#7FA060"/><stop offset=".808" stop-color="#79995C"/><stop offset=".875" stop-color="#6F8E54"/><stop offset=".929" stop-color="#627E49"/><stop offset=".974" stop-color="#516B3D"/><stop offset="1" stop-color="#465D34"/></radialGradient><circle fill="url(#a)" stroke="#2E471F" stroke-width="1.783" stroke-miterlimit="10" cx="1661.2" cy="417.1" r="34.2"/><path fill="#2E471F" d="M1638.7 412s.1-.2.2-.7c.1-.2.2-.5.3-.8.1-.3.3-.6.5-1s.4-.8.7-1.2c.3-.4.5-.8.9-1.2.4-.4.7-.8 1.2-1.1.4-.4.9-.7 1.4-1l1.5-.9c.5-.3 1-.5 1.6-.6.5-.1 1.1-.2 1.6-.1.5 0 1 .1 1.4.1.4.1.8.2 1.1.3.3.1.6.3.8.4.4.2.7.5.7.5l-.1.3s-.3.1-.7.3c-.5.2-1.1.3-1.8.6l-1.1.3-1.2.3-1.3.2c-.5.1-.9.2-1.4.4-.5.1-.9.4-1.3.6l-1.2.7c-.4.2-.7.6-1 .8l-.8.8-.7.8c-.2.3-.3.5-.5.7-.3.4-.4.6-.4.6l-.4-.1zm43.5-3.4l-.5-.5-.6-.6c-.2-.3-.5-.4-.8-.7-.3-.2-.6-.5-1-.7l-1.1-.7c-.4-.2-.8-.4-1.3-.5-.4-.2-.9-.3-1.4-.4-.5-.1-.9-.1-1.4-.1h-1.3l-1.3-.1-1.2-.1c-.7-.1-1.4-.2-1.9-.3-.5-.1-.8-.1-.8-.1l-.1-.3s.2-.3.6-.6c.2-.2.5-.3.8-.5.3-.2.7-.4 1.1-.5.4-.2.9-.3 1.3-.4.5-.1 1-.1 1.6-.1.5.1 1.1.1 1.6.3l1.6.6c.5.2 1 .5 1.5.8.5.2.9.6 1.3.9.4.3.8.7 1.1 1l.9 1c.2.3.5.6.6.9.2.3.3.5.4.7l.3.6v.4zm-29.6 24.1s11.1 6 21-1.7c0 0-2.1 7.1-9.9 8.3-3.1.4-8.8-2-11.1-6.6zm-11.6-15.9s7.6 3.3 15.5-1.3c-.2 2.8-8.5 11.1-15.5 1.3zm40.4-3.2s-7 4.5-15.5 1.3c.7 2.6 10.2 9.4 15.5-1.3z"/><linearGradient id="b" gradientUnits="userSpaceOnUse" x1="1418.528" y1="493.969" x2="1418.528" y2="478.949" gradientTransform="matrix(.997 -.081 .081 .997 206.052 22.208)"><stop offset="0" stop-color="#ABC094" stop-opacity="0"/><stop offset=".245" stop-color="#A3BA8B" stop-opacity=".245"/><stop offset=".677" stop-color="#90AD75" stop-opacity=".677"/><stop offset="1" stop-color="#80A262"/></linearGradient><path opacity=".49" fill="url(#b)" d="M1675.5 392.4c.4 4.7-6.7 7.1-15.7 7.8-8.9.7-16.3-.5-16.7-5.2-.4-4.7 6.6-9.1 15.5-9.8 8.9-.7 16.5 2.5 16.9 7.2z"/><path opacity=".22" fill="#DCE3D0" d="M1608.3 453.6l51-111.5 35.6-2.5-83.6 162.3zm23 58.5s77.4-160.7 77.6-165.7c.2-5.3-2.8-8-5.2-7.5l-88.5 173.6c-.1 0-1 1.1 16.1-.4z"/><path stroke="#2E471F" stroke-width="2.061" stroke-miterlimit="10" d="M1714.6 507.5l-97.4 5.4c-2.9.2-5.3-2-5.5-4.9l-9.3-156.7c-.2-2.9 2-5.3 4.9-5.5l95.9-6.7c2.9-.2 5.4 2 5.6 4.9l10.9 158c.1 2.8-2.2 5.3-5.1 5.5z" fill="none"/><path fill="#DCE3D0" stroke="#2E471F" stroke-width="1.692" stroke-miterlimit="10" d="M1797.4 418.9c-.3 5.4-1 30.6-8.5 73.7-2.2 12.9-3.7 25.6.9 27.4 3.3 1.3 7.3-3.5 9.1-16 4.8-32.4 4.5-69 4.5-83.4"/><path opacity=".6" fill="#ABC094" d="M1803.1 424.5s.4 46.1-2.7 68.9c-3.1 22.8-7.1 28.5-10.9 26.1 1.4.1 5.9-.4 9.5-32.8 3.1-28.7 2-63 2-63l2.1.8z"/><path stroke="#2E471F" stroke-width=".586" stroke-miterlimit="10" d="M1786.9 508.5s3.7 4.3 10.8 1.8" fill="none"/><path stroke="#2E471F" stroke-width=".605" stroke-miterlimit="10" d="M1789.5 491.1s4.1 4.4 11 1.7" fill="none"/><path stroke="#2E471F" stroke-width=".497" stroke-miterlimit="10" d="M1792 472.7s3.1 4.1 10.2 1.7" fill="none"/><path stroke="#2E471F" stroke-width=".406" stroke-miterlimit="10" d="M1794.5 454.9s2.7 3.2 8.3.9" fill="none"/><path stroke="#2E471F" stroke-width=".327" stroke-miterlimit="10" d="M1796.5 437.7s2.4 2.4 6.8.4" fill="none"/><path stroke="#2E471F" stroke-width="2.5" stroke-miterlimit="10" d="M1797.5 418.9c-.3 5.4-1 30.6-8.5 73.7-2.2 12.9-3.7 25.6.9 27.4 3.3 1.3 7.3-3.5 9.1-16 4.8-32.4 4.5-69 4.5-83.4" fill="none"/><path fill="#DCE3D0" stroke="#2E471F" stroke-width="1.692" stroke-miterlimit="10" d="M1831 419.2c.9 5.3 4.3 30.3 16.4 72.4 3.6 12.5 6.4 25 2.1 27.4-3.1 1.7-7.6-2.6-10.8-14.9-8.3-31.7-12-68-13.6-82.5"/><path opacity=".6" fill="#ABC094" d="M1826 425.4s4.6 45.9 10.2 68.2 10.2 27.6 13.7 24.8c-1.4.3-6 .2-13-31.6-6.2-28.2-8.9-62.4-8.9-62.4l-2 1z"/><path stroke="#2E471F" stroke-width=".586" stroke-miterlimit="10" d="M1851.2 507.2s-3.3 4.6-10.5 3" fill="none"/><path stroke="#2E471F" stroke-width=".605" stroke-miterlimit="10" d="M1846.8 490.1s-3.6 4.8-10.7 2.9" fill="none"/><path stroke="#2E471F" stroke-width=".497" stroke-miterlimit="10" d="M1842.3 472.1s-2.7 4.4-9.9 2.8" fill="none"/><path stroke="#2E471F" stroke-width=".406" stroke-miterlimit="10" d="M1837.9 454.7s-2.4 3.4-8.2 1.8" fill="none"/><path stroke="#2E471F" stroke-width=".327" stroke-miterlimit="10" d="M1834 437.9s-2.1 2.7-6.7 1.1" fill="none"/><path stroke="#2E471F" stroke-width="2.5" stroke-miterlimit="10" d="M1830.9 419.2c.9 5.3 4.3 30.3 16.4 72.4 3.6 12.5 6.4 25 2.1 27.4-3.1 1.7-7.6-2.6-10.8-14.9-8.3-31.7-12-68-13.6-82.5" fill="none"/><path fill="#DCE3D0" stroke="#2E471F" stroke-width="1.692" stroke-miterlimit="10" d="M1819 423.3c0 5.4-.4 30.6 5 74 1.6 13 2.5 25.7-2.2 27.3-3.3 1.2-7.1-3.8-8.4-16.4-3.3-32.6-1.3-69.1-.6-83.6"/><path opacity=".6" fill="#ABC094" d="M1813.1 428.7s-2.6 46.1-.5 69 5.8 28.8 9.7 26.6c-1.4.1-5.9-.7-7.9-33.2-1.8-28.8.9-63.1.9-63.1l-2.2.7z"/><path stroke="#2E471F" stroke-width=".586" stroke-miterlimit="10" d="M1825.3 513.4s-3.9 4.1-10.9 1.3" fill="none"/><path stroke="#2E471F" stroke-width=".605" stroke-miterlimit="10" d="M1823.6 495.9s-4.3 4.2-11.1 1.2" fill="none"/><path stroke="#2E471F" stroke-width=".497" stroke-miterlimit="10" d="M1822 477.3s-3.3 3.9-10.2 1.3" fill="none"/><path stroke="#2E471F" stroke-width=".406" stroke-miterlimit="10" d="M1820.3 459.5s-2.9 3-8.4.5" fill="none"/><path stroke="#2E471F" stroke-width=".327" stroke-miterlimit="10" d="M1819 442.2s-2.5 2.3-6.8.1" fill="none"/><path stroke="#2E471F" stroke-width="2.5" stroke-miterlimit="10" d="M1818.9 423.4c0 5.4-.4 30.6 5 74 1.6 13 2.5 25.7-2.2 27.3-3.3 1.2-7.1-3.8-8.4-16.4-3.3-32.6-1.3-69.1-.6-83.6" fill="none"/><path d="M1863.9 353.2c-.2 0-.4-.3-.2-.5 2.3-2.7 14.7-16.2 20.7-12.5 5.6 3.5-1.8 13.7-20.5 13zm0 .1c-.1-.1-.1-.3 0-.3 2.3-.7 16.2-4.8 18.7.1 2.3 4.6-6.7 8.2-18.7.2zm-85.1-3.5c.2 0 .4-.3.2-.5-2.2-2.8-14-16.8-20.2-13.3-5.7 3.2 1.3 13.7 20 13.8zm0 .1c.1-.1.1-.3 0-.3-2.3-.8-16-5.5-18.7-.6-2.4 4.4 6.4 8.4 18.7.9z" fill="#DCE3D0" stroke="#2E471F" stroke-width="2.5" stroke-miterlimit="10"/><path fill="#465D34" stroke="#2E471F" stroke-width="2.5" stroke-miterlimit="10" d="M1828.3 443.1c17.1.1 18.3-.2 22.8-27.4 4.4-26.8 12-100.5 7.8-131.6-1.5-11.5-21.4-13.6-31.4-14.2l-2.1-.1c-10.2-.6-30.5-.3-32.9 10.9-6.8 31.4-9.4 103.8-8.3 130.9 1.2 27.6 3.1 29.2 19.3 29.9 0 .1 14.7 1.6 24.8 1.6z"/><path fill="#ABC094" stroke="#2E471F" stroke-width="2.5" stroke-miterlimit="10" d="M1850.3 274.7s9.4 23.1 3.3 70.7c-3.5 27.4-21 30.1-25.3 30.3-3.1.4-12.6-.4-15.4-.9 0 0-22.2-1.8-22.3-33.3-.2-48 11.9-69.8 11.9-69.8 13.3-5 44.4-.7 47.8 3z"/><path fill="#DCE3D0" stroke="#2E471F" stroke-width="1.83" stroke-miterlimit="10" d="M1842.3 347.6l-40.7-2.5c-3.4-.2-6.1-3.2-5.9-6.6l1.8-30c.2-3.4 3.2-6.1 6.6-5.9l40.7 2.5c3.4.2 6.1 3.2 5.9 6.6l-1.8 30c-.2 3.5-3.2 6.1-6.6 5.9z"/><path fill="#2E471F" d="M1806.4 284.4s.5-.3 1.5-.8c.5-.2 1.1-.5 1.8-.8.7-.2 1.5-.6 2.4-.8l1.4-.4c.5-.1 1-.2 1.5-.4 1.1-.3 2.2-.4 3.4-.6 1.2-.1 2.4-.3 3.6-.3 1.2 0 2.5-.1 3.8 0l1.9.1c.6.1 1.3.2 1.9.2 1.2.1 2.4.4 3.6.7 1.2.2 2.2.6 3.3 1l1.5.5c.5.2.9.4 1.3.6l2.3 1.1c.6.4 1.2.8 1.7 1.1.9.6 1.4 1 1.4 1s-.6-.2-1.6-.6c-.5-.2-1.1-.5-1.8-.8-.7-.3-1.5-.5-2.4-.8-.4-.1-.9-.3-1.4-.5-.5-.1-1-.2-1.5-.4-1-.3-2.1-.6-3.2-.7-1.1-.2-2.3-.4-3.5-.5l-1.8-.2-1.8-.1c-1.2-.1-2.4-.1-3.6-.1-1.2 0-2.4.1-3.5.2s-2.3.2-3.3.4c-1 .1-2 .3-2.9.4-1.8.3-3.3.6-4.4.9-1 .4-1.6.6-1.6.6z"/><path fill="#80A262" stroke="#2E471F" stroke-width="1.754" stroke-miterlimit="10" d="M1820.6 367.6c-6.9.3-8.1-8.3-.2-7.9 6.4.2 8.7 7.5.2 7.9zm19.1-2.6c-6.3 3.4-11-2.8-4.2-6.8 7-4.1 11.8 2.7 4.2 6.8zm-37.2-2.3c5.8 4.2 11.3-1.4 5-6.2-6.5-4.9-12 1.2-5 6.2zm16.8 26.7c-6.9.3-8.1-8.3-.2-7.9 6.4.2 8.7 7.5.2 7.9zm17.2 1c-6.9.3-8.1-8.3-.2-7.9 6.4.3 8.7 7.6.2 7.9zm-35.5-2.1c6.8 1.1 9.1-7.2 1.2-7.9-6.4-.5-9.6 6.5-1.2 7.9zm16.8 14.8c6.8 1.1 9.1-7.2 1.2-7.9-6.4-.5-9.6 6.5-1.2 7.9zm17.2 1c6.8 1.1 9.1-7.2 1.2-7.9-6.4-.5-9.6 6.5-1.2 7.9zm-34.2-2.1c-6.9.3-8.1-8.3-.2-7.9 6.4.2 8.7 7.6.2 7.9zm16.8 14.8c-6.9.3-8.1-8.3-.2-7.9 6.4.2 8.7 7.6.2 7.9zm17.2 1.1c-6.9.3-8.1-8.3-.2-7.9 6.4.2 8.7 7.5.2 7.9zm-35.5-2.2c6.8 1.1 9.1-7.2 1.2-7.9-6.4-.5-9.6 6.5-1.2 7.9zm16.8 14.8c6.8 1.1 9.1-7.2 1.2-7.9-6.4-.5-9.6 6.5-1.2 7.9zm17.3 1c6.8 1.1 9.1-7.2 1.2-7.9-6.5-.4-9.7 6.6-1.2 7.9zm-34.3-2.1c-6.9.3-8.1-8.3-.2-7.9 6.4.3 8.7 7.6.2 7.9z"/><path d="M1816.1 321.3c0-.6.2-1 .6-1.4.4-.4.9-.5 1.4-.5.5 0 1 .2 1.3.6.3.4.5.9.4 1.5 0 .6-.2 1-.6 1.4-.4.4-.8.5-1.4.5-.5 0-1-.2-1.3-.6-.3-.4-.4-.9-.4-1.5zm-.5 8.8c0-.6.2-1 .6-1.4.4-.4.9-.5 1.4-.5.5 0 1 .2 1.3.6.3.4.5.9.4 1.5 0 .6-.2 1-.6 1.4-.4.4-.8.5-1.4.5-.5 0-1-.2-1.3-.6-.3-.5-.5-1-.4-1.5zm8.3-12.7l5.6.3c.9.1 1.8.2 2.5.4.8.2 1.4.5 2 1 .5.4.9 1 1.2 1.7.3.7.4 1.5.3 2.5-.1.9-.3 1.7-.6 2.4-.4.7-.8 1.2-1.4 1.6-.6.4-1.3.7-2.1.9-.8.2-1.6.2-2.5.2l-2.7-.2-.4 6.1-3-.2 1.1-16.7zm4.9 8.5c2.5.2 3.7-.8 3.9-2.8.1-1.1-.2-1.8-.8-2.2-.6-.4-1.5-.7-2.7-.8l-2.4-.1-.4 5.8 2.4.1z" fill="#80A262"/><g opacity=".51" fill="#2E471F" stroke="#2E471F" stroke-width=".855" stroke-miterlimit="10"><circle cx="1816.6" cy="291.2" r=".8"/><circle cx="1825.4" cy="291.7" r=".8"/><circle cx="1834.2" cy="292.2" r=".8"/></g></svg>