<svg xmlns="http://www.w3.org/2000/svg" xmlns:xlink="http://www.w3.org/1999/xlink" viewBox="0 0 2385.7 682" enable-background="new 0 0 2385.7 682"><path fill="#465D34" d="M447.2 624.2h961.6v57.6h-961.6z"/><defs><path id="a" d="M-7.1 0h2416.9v682h-2416.9z"/></defs><clipPath id="b"><use xlink:href="#a" overflow="visible"/></clipPath><g clip-path="url(#b)"><path fill="#A8B499" d="M1415.9 563.6l-288.8-15-64.4-3.3-285.9-3.8-63.1 1.6-289.8 7.7-64.2 4.4 1.9 63.1 2.6 8.6 4.2 131.8 80.7-3.4s-1.9-36.4 26.2-67.5 63.4-41.2 89.3-41.9c25.9-.7 66.6 5.6 97.3 36.4 30.6 30.8 30 65.4 30 65.4l98.1 1.4c.5-19 8.2-36.7 8.2-36.7 20.5-46.5 70.8-67.2 99-70.5 28.2-3.3 76.4.1 112.5 36.1l33 74.3 100.2 1.2c-.5-4.1 3.9-46.6 44.5-75.1 40.6-28.5 87.2-23.6 87.2-23.6 18.3 3.3 33.6 7.3 46.4 13.4 68.8 32.9 64.4 99.1 64.4 99.1l80.6 5.5 7.6-131.6 2.7-8.4 3.6-63.1-64-6.1z"/><path stroke="#2E471F" stroke-width="3.37" stroke-miterlimit="10" d="M1061.1 616.6l-285.5-3.7" fill="none"/><path stroke="#2E471F" stroke-width="2.246" stroke-miterlimit="10" d="M1062.2 607.5l-285.6-3.7" fill="none"/><path stroke="#2E471F" stroke-width="3.37" stroke-miterlimit="10" d="M1126.1 611.7c.1 0 .1-.1.1-.1l.8-63c0-.1 0-.1-.1-.1l-64.1-3.3c-.1 0-.1 0-.1.1l-.8 64.5c0 .1.1.1.1.1" fill="none"/><path stroke="#2E471F" stroke-width="2.293" stroke-miterlimit="10" d="M1062.5 552.9l-285.8-3.7" fill="none"/><path stroke="#2E471F" stroke-width="3.37" stroke-miterlimit="10" d="M1126.2 611.7l-2.4 8.5-1.8 133.7m-60.2-144l.4 9.5-1.7 133.7m63.3-132.9l-61.6-.8m-19.6 133c.7-57.7-55.1-110.8-124.9-111.7-69.8-.9-127 50.7-127.8 108.4" fill="none"/><path fill="#2E471F" d="M1052.8 751.9s0-1.6-.1-4.5c-.1-3-.4-7.3-1.2-12.7-.9-5.4-2.4-12-5.1-19.2-2.6-7.2-6.4-15.1-11.5-23-1.2-2-2.7-3.9-4.1-6l-2.2-3-2.3-3c-1.7-1.9-3.3-4-5.1-5.8l-2.7-2.9-2.9-2.8-1.5-1.4-1.5-1.4-3.1-2.7-3.3-2.6-1.6-1.3-1.7-1.3c-1.1-.8-2.3-1.7-3.5-2.5l-3.6-2.4-1.8-1.2-1.9-1.1c-1.3-.7-2.5-1.5-3.8-2.3-2.6-1.4-5.2-2.9-7.9-4.1l-4.1-1.9-4.2-1.8c-5.6-2.3-11.4-4.3-17.4-5.9-3-.9-6-1.5-9.1-2.2-1.5-.3-3.1-.6-4.6-.8l-2.3-.4-2.3-.3-4.7-.6-4.7-.4-2.3-.2-2.4-.1-4.7-.2h-7.1l-2.4.1-4.7.3-4.7.5-2.3.2-2.3.3-4.6.7c-3.1.6-6.1 1.1-9.1 1.9-6 1.4-11.9 3.3-17.6 5.4l-4.2 1.7c-1.4.6-2.8 1.2-4.1 1.8-2.8 1.2-5.4 2.6-8 3.9-1.3.7-2.6 1.4-3.8 2.2l-1.9 1.1-1.8 1.2c-1.2.8-2.4 1.5-3.7 2.3-1.2.8-2.4 1.6-3.5 2.4l-1.7 1.2-1.7 1.3c-1.1.9-2.2 1.7-3.3 2.5l-3.2 2.7c-.5.4-1 .9-1.6 1.3l-1.5 1.4-3 2.7-2.8 2.8c-1.9 1.8-3.5 3.8-5.3 5.7l-2.4 2.9c-.8 1-1.6 1.9-2.3 2.9-1.4 2-3 3.9-4.2 5.9-5.3 7.8-9.2 15.6-12.1 22.7-2.8 7.1-4.5 13.7-5.6 19.1-1 5.4-1.4 9.7-1.6 12.7-.1 3-.2 4.5-.2 4.5s.1-1.6.2-4.5c.1-3 .6-7.3 1.5-12.7 1-5.4 2.7-12 5.4-19.1 2.8-7.2 6.7-15 12-22.9 1.3-2 2.8-3.9 4.2-5.9.7-1 1.5-1.9 2.3-2.9.8-1 1.6-2 2.4-2.9 1.7-1.9 3.4-3.9 5.3-5.7l2.8-2.8 3-2.7 1.5-1.4c.5-.4 1-.9 1.6-1.3l3.2-2.7c1.1-.8 2.2-1.7 3.3-2.6l1.7-1.3 1.7-1.2c1.2-.8 2.3-1.6 3.5-2.5 1.2-.8 2.4-1.5 3.7-2.3l1.9-1.2 1.9-1.1 3.9-2.2c2.6-1.3 5.3-2.8 8-4 1.4-.6 2.7-1.3 4.1-1.8l4.2-1.7c5.7-2.1 11.6-4.1 17.6-5.5 3-.8 6.1-1.3 9.2-2 1.5-.3 3.1-.5 4.7-.7l2.3-.4 2.3-.3 4.7-.5 4.7-.3 2.4-.1h2.4l4.7-.1 4.7.2 2.4.1 2.4.2 4.7.4 4.7.6 2.3.3 2.3.4 4.6.8c3 .7 6.1 1.3 9.1 2.2 6 1.6 11.8 3.7 17.5 6l4.2 1.8 4.1 1.9c2.7 1.3 5.3 2.8 7.9 4.2 1.3.7 2.5 1.5 3.8 2.3l1.9 1.1 1.8 1.2 3.6 2.4c1.2.9 2.3 1.7 3.5 2.5l1.7 1.3 1.6 1.3c1.1.9 2.2 1.8 3.3 2.6 1 .9 2.1 1.8 3.1 2.8l1.5 1.4 1.5 1.4 2.9 2.8 2.7 2.9c1.8 1.9 3.4 3.9 5.1 5.9.8 1 1.6 2 2.3 3 .8 1 1.6 2 2.2 3 1.4 2 2.9 4 4.1 6 5.1 8 8.8 15.9 11.4 23.2 2.6 7.3 4 13.8 4.9 19.3.8 5.5 1.1 9.8 1.2 12.8.2 3.1.2 4.7.2 4.7z"/><path stroke="#2E471F" stroke-width="2.246" stroke-miterlimit="10" d="M1126.2 611.5l-64.4-1.7" fill="none"/><path stroke="#2E471F" stroke-width="2.293" stroke-miterlimit="10" d="M1002.9 606.7l.7-54.5 25.7.3-.7 54.5m-90.2-1.1l.7-54.6 25.6.4-.7 54.5m-90.2-1.2l.7-54.5 25.7.3-.7 54.6m-90.2-1.2l.7-54.5 25.6.3-.7 54.5m227-4.4l-33.2-.4m-219.4-2.9l-33.2-.4m226.9 3l-39.2-.5m-24.9-.4l-39.2-.5m-25.8-.3l-39.2-.5" fill="none"/><path d="M1055.7 552.8l-.7 47.2m-8.7-47.3l-.7 47.2m-8.7-47.3l-.6 47.2m-233.6-50.2l-.6 47.2m-8.8-47.4l-.6 47.2m-8.8-47.3l-.6 47.2m213.8-44.4l-.6 47.2m-8-47.3l-.6 47.2m-7.9-47.3l-.6 47.2m-8-47.3l-.6 47.1m-38.5-47.7l-.7 47.2m-7.9-47.3l-.6 47.2m-8-47.3l-.6 47.2m-7.9-47.3l-.7 47.1m-38.2-47.6l-.6 47.1m-7.9-47.3l-.6 47.2m-8-47.3l-.6 47.2m-8-47.3l-.6 47.2" stroke="#2E471F" stroke-width="1.556" stroke-miterlimit="10" fill="none"/><path d="M776 606.2l-.7 9.5-1.7 133.6m-61.9-143c-.1 0-.1-.1-.1-.1l.8-63c0-.1.1-.1.1-.1l64.2-1.6c.1 0 .1.1.1.1l-.8 64.5c0 .1-.1.1-.1.1m-64.3.1l2.2 8.6-1.7 133.6m1.7-133.6l61.5.8m-63.7-9.5l64.4-.1" stroke="#2E471F" stroke-miterlimit="10" fill="none"/><path stroke="#2E471F" stroke-width="3.37" stroke-miterlimit="10" d="M426.7 622.1l286.3-8.8" fill="none"/><path stroke="#2E471F" stroke-width="2.246" stroke-miterlimit="10" d="M425.5 613l285.5-8.8" fill="none"/><path stroke="#2E471F" stroke-width="3.37" stroke-miterlimit="10" d="M361.6 618.3c-.1 0-.1-.1-.1-.1l-1.9-63.1h.1l64.1-4.4c.1 0 .1 0 .1.1l2 64.5c0 .1-.1.1-.1.1" fill="none"/><path stroke="#2E471F" stroke-width="2.293" stroke-miterlimit="10" d="M424 559.4l288.4-7.9" fill="none"/><path stroke="#2E471F" stroke-width="3.37" stroke-miterlimit="10" d="M361.5 618.3l2.6 8.5 4.2 131.8m57.6-143.2l-.2 9.5 3.2 130.9m-64.8-129l61.6-1.9m23.3 130.3c-1.7-55.5 51.1-107.4 118.1-109.5s122.9 46.5 124.6 101.9" fill="none"/><path fill="#2E471F" d="M439.1 754.9v-4.4c0-2.8.2-7 .9-12.3.8-5.2 2-11.6 4.4-18.6 2.3-7 5.8-14.7 10.5-22.5 1.1-2 2.5-3.9 3.8-5.8.6-1 1.4-1.9 2.1-2.9.7-1 1.4-2 2.2-2.9 1.6-1.9 3.1-3.9 4.8-5.7.8-.9 1.7-1.9 2.6-2.8.9-.9 1.8-1.8 2.7-2.8l1.4-1.4 1.5-1.3c1-.9 2-1.8 2.9-2.7l3.1-2.6 1.6-1.3 1.6-1.2 3.3-2.5 3.4-2.4 1.7-1.2 1.8-1.1c1.2-.7 2.4-1.5 3.6-2.3 2.5-1.4 4.9-2.9 7.5-4.1l3.9-1.9 4-1.8c5.4-2.3 10.9-4.4 16.7-6 2.9-.9 5.8-1.5 8.7-2.3 1.5-.3 3-.6 4.4-.9l2.2-.4 2.2-.3 4.5-.7 4.5-.5 2.3-.2 2.3-.1 4.6-.3h6.8l2.3.1 4.6.2 4.5.4 2.3.2 2.2.3 4.5.6c3 .6 5.9 1 8.8 1.7 5.8 1.3 11.5 3 17 5 1.4.5 2.7 1 4.1 1.6 1.4.5 2.7 1.1 4 1.7 2.7 1.1 5.2 2.4 7.8 3.7 1.3.7 2.5 1.4 3.7 2l1.9 1 1.8 1.1c1.2.7 2.4 1.4 3.6 2.2 1.2.8 2.3 1.5 3.4 2.3l1.7 1.1 1.6 1.2c1.1.8 2.2 1.6 3.2 2.4l3.1 2.5 1.5 1.2 1.5 1.3 2.9 2.6 2.7 2.7c1.9 1.7 3.5 3.6 5.2 5.4l2.4 2.8c.8.9 1.6 1.8 2.3 2.8 1.4 1.9 2.9 3.7 4.2 5.6 5.2 7.5 9.1 14.9 11.9 21.8 2.8 6.9 4.5 13.1 5.5 18.3 1 5.2 1.5 9.4 1.6 12.2.2 2.8.2 4.3.2 4.3s-.1-1.5-.3-4.3c-.2-2.8-.7-7-1.7-12.2-1.1-5.2-2.8-11.4-5.7-18.2-2.8-6.8-6.8-14.2-12-21.6-1.2-1.9-2.7-3.7-4.2-5.6-.7-.9-1.5-1.8-2.3-2.7-.8-.9-1.5-1.9-2.4-2.8-1.7-1.8-3.3-3.7-5.2-5.4l-2.7-2.7-2.9-2.6-1.5-1.3-1.5-1.2-3.1-2.5c-1.1-.8-2.2-1.6-3.2-2.4l-1.6-1.2-1.7-1.1-3.4-2.3-3.6-2.1-1.8-1.1-1.8-1c-1.2-.7-2.5-1.4-3.7-2-2.6-1.2-5.1-2.5-7.8-3.6-1.3-.6-2.6-1.2-4-1.7l-4.1-1.5c-5.5-1.9-11.2-3.7-17-4.9-2.9-.7-5.9-1.1-8.8-1.7l-4.5-.6-2.2-.3-2.2-.2-4.5-.4-4.5-.2-2.3-.1h-6.8l-4.5.2-2.3.1-2.3.2-4.5.5-4.5.7-2.2.3-2.2.4-4.4.9c-2.9.7-5.8 1.3-8.7 2.2-5.7 1.6-11.3 3.7-16.6 6l-4 1.8-3.9 1.9c-2.6 1.2-5 2.7-7.5 4.1l-3.6 2.2-1.4 1-1.7 1.2-3.4 2.4-3.3 2.5-1.6 1.2-1.6 1.3-3.1 2.6c-1 .9-2 1.8-2.9 2.7l-1.5 1.3-1.4 1.4-2.7 2.7-2.6 2.8c-1.7 1.8-3.2 3.8-4.8 5.7-.8.9-1.5 1.9-2.2 2.9-.7 1-1.5 1.9-2.1 2.9-1.3 2-2.7 3.8-3.8 5.8-4.7 7.7-8.2 15.3-10.6 22.3-2.4 7-3.7 13.3-4.5 18.5-.7 5.3-.9 9.4-1 12.3 0 2.9-.1 4.4-.1 4.4z"/><path stroke="#2E471F" stroke-width="2.246" stroke-miterlimit="10" d="M361.5 618.2l64.4-2.9" fill="none"/><path stroke="#2E471F" stroke-width="1.123" stroke-miterlimit="10" d="M484.7 611.2l-1.3-53.6-25.3.8.9 53.6m90.2-2.8l-1.8-52.7-25.7.8 1.9 52.7" fill="none"/><path stroke="#2E471F" stroke-width="2.293" stroke-miterlimit="10" d="M613.7 607.2l-.9-52.7-25.6.8.9 52.7m89.3-2.8l-.9-52.7-25.7.8 1.8 52.7m-227-.3l33.2-1.1m219.3-6.8l33.2-1m-226.8 7l39.2-1.2m24.8-.7l39.3-1.3m25.7-.8l39.3-1.2" fill="none"/><path d="M431.3 559l1.2 46.4m8.1-46.7l1.3 46.5m8.2-46.8l1.1 46.5m233.4-52.6l.7 45.3m8.7-46.5l.7 46.2m8.7-46.5l.7 46.2m-214.5-39.1l1.4 45.7m6.9-45.6l1.6 45.4m7-46.5l1.6 46.2m7-46.5l1.6 46.2m37.5-47.5l1.6 46.3m7-46.5l1.6 46.2m6.9-46.5l1.6 46.2m7-46.5l1.6 46.3m37.2-47.5l1.6 46.3m7-46.5l1.6 46.2m6.9-46.5l1.6 46.3m7-46.6l1.6 46.3" stroke="#2E471F" stroke-width="1.556" stroke-miterlimit="10" fill="none"/><path stroke="#2E471F" stroke-width="3.37" stroke-miterlimit="10" d="M423.7 550.7l289.8-7.7m697.6 91.9l-286.9-16.3" fill="none"/><path stroke="#2E471F" stroke-width="2.246" stroke-miterlimit="10" d="M1412.5 625.8l-285.1-16.2" fill="none"/><path stroke="#2E471F" stroke-width="3.37" stroke-miterlimit="10" d="M1476.2 632.8c.1 0 .1 0 .1-.1l3.6-62.8c0 .8 0-.3-.1-.3l-63.9-6.1c-.1 0-.1 0-.1.1l-3.7 64.4c0 .1 0 .1.1.1" fill="none"/><path stroke="#2E471F" stroke-width="2.293" stroke-miterlimit="10" d="M1415.4 572.3l-288.1-15.4m349 75.9l-2.8 8.4-7.6 131.7" fill="none"/><path stroke="#2E471F" stroke-width="3.37" stroke-miterlimit="10" d="M1412.1 628.2l-.1 9.5-6.6 130.8" fill="none"/><path stroke="#2E471F" stroke-width="2.293" stroke-miterlimit="10" d="M1473.5 641.2l-61.5-3.5" fill="none"/><path stroke="#2E471F" stroke-width="3.37" stroke-miterlimit="10" d="M1385.3 767.4c3.2-55.4-48.3-108.7-115.2-112.5-67-3.8-124.1 43.3-127.3 98.7" fill="none"/><path fill="#2E471F" d="M1395.2 767.3s0-1.5.1-4.4c0-2.8-.1-7-.7-12.3-.7-5.3-1.8-11.6-4.1-18.6-2.2-7-5.5-14.7-10-22.6-1.1-2-2.4-3.9-3.6-5.9l-2-2.9-2.1-3c-1.5-1.9-3-3.9-4.7-5.8l-2.5-2.9-2.7-2.8-1.3-1.4-1.4-1.4c-.9-.9-1.9-1.8-2.9-2.8l-3-2.7-1.5-1.3-1.6-1.3-3.2-2.6c-1.1-.8-2.2-1.6-3.4-2.4l-1.7-1.2-1.8-1.2c-1.2-.8-2.3-1.6-3.5-2.3-2.4-1.4-4.9-3-7.4-4.3-1.3-.7-2.5-1.4-3.8-2l-3.9-1.9c-5.3-2.4-10.8-4.6-16.5-6.4-2.8-1-5.7-1.7-8.6-2.5-1.5-.4-2.9-.7-4.4-1l-2.2-.5-2.2-.4-4.5-.8-4.5-.6-2.2-.3-2.3-.2-4.5-.4-4.5-.2-2.3-.1h-2.3l-4.5.1-4.5.3-2.3.1-2.2.2-4.5.5c-3 .5-5.9.8-8.8 1.5-5.9 1.1-11.6 2.7-17.1 4.5-1.4.5-2.8 1-4.1 1.4-1.4.5-2.7 1.1-4 1.6-2.7 1-5.3 2.3-7.9 3.4l-3.8 1.9-1.9 1-1.8 1-3.6 2.1-3.5 2.2-1.7 1.1-1.7 1.2-3.3 2.3-3.2 2.4c-.5.4-1 .8-1.6 1.2-.5.4-1 .8-1.5 1.3l-3 2.5-2.8 2.6c-1.9 1.7-3.6 3.5-5.3 5.2-.9.9-1.6 1.8-2.4 2.7l-2.4 2.7c-1.5 1.8-3 3.6-4.3 5.5-5.4 7.3-9.5 14.6-12.5 21.3-3 6.7-4.9 12.9-6.2 18.1-1.2 5.2-1.8 9.3-2.1 12.1-.3 2.8-.4 4.3-.4 4.3s.1-1.5.4-4.3c.3-2.8.8-7 2-12.1 1.2-5.2 3.1-11.4 6-18.1 2.9-6.8 7-14.1 12.4-21.4 1.3-1.9 2.8-3.6 4.3-5.5.7-.9 1.6-1.8 2.4-2.7l2.4-2.7c1.7-1.7 3.4-3.6 5.3-5.3l2.8-2.6 3-2.5c.5-.4 1-.8 1.5-1.3.5-.4 1-.8 1.6-1.2 1-.8 2.1-1.6 3.2-2.4l3.3-2.3 1.7-1.2 1.7-1.1 3.5-2.2 3.6-2.1 1.8-1 1.9-1 3.8-1.9c2.6-1.2 5.2-2.4 7.9-3.5 1.3-.5 2.7-1.1 4.1-1.6 1.4-.5 2.8-1 4.1-1.5 5.6-1.8 11.3-3.4 17.2-4.5 2.9-.7 5.9-1 8.9-1.5l4.5-.5 2.3-.2 2.3-.1 4.5-.3 4.6-.1h2.3l2.3.1 4.5.1 4.6.4 2.3.2 2.3.3 4.5.6 4.5.8 2.2.4 2.2.5c1.5.3 2.9.6 4.4 1 2.9.8 5.8 1.5 8.6 2.5 5.7 1.8 11.2 4 16.5 6.5l3.9 1.9c1.3.6 2.6 1.4 3.8 2 2.6 1.3 5 2.9 7.4 4.3 1.2.8 2.4 1.6 3.5 2.3l1.8 1.2 1.7 1.2c1.1.8 2.2 1.6 3.4 2.5 1.1.9 2.2 1.7 3.2 2.6l1.6 1.3 1.5 1.3 3 2.7 2.9 2.8 1.4 1.4 1.3 1.4c.9 1 1.8 1.9 2.7 2.8l2.5 2.9c1.7 1.9 3.1 3.9 4.7 5.8l2.1 3c.7 1 1.4 1.9 2 3 1.2 2 2.6 3.9 3.6 5.9 4.6 7.9 7.8 15.6 9.9 22.7 2.2 7.1 3.3 13.4 3.9 18.7.5 5.3.6 9.5.6 12.3v4.4z"/><g opacity=".59"><linearGradient id="c" gradientUnits="userSpaceOnUse" x1="229.334" y1="628.625" x2="293.533" y2="628.625" gradientTransform="matrix(-1 -.013 -.013 1 1713.635 9.547)"><stop offset="0" stop-color="#2E471F"/><stop offset="1" stop-color="#2E471F"/></linearGradient><path opacity=".25" fill="url(#c)" d="M1476.2 632.8l-64.1-4.6-.2 9.5 61.6 3.5z"/><linearGradient id="d" gradientUnits="userSpaceOnUse" x1="293.442" y1="620.403" x2="1344.117" y2="620.403" gradientTransform="matrix(-1 -.013 -.013 1 1713.635 9.547)"><stop offset="0" stop-color="#2E471F"/><stop offset="1" stop-color="#2E471F"/></linearGradient><path opacity=".25" fill="url(#d)" d="M1412.1 625.3v10l-287.2-16.8h-.7l-.4 1.7-61.9-.9.2-3.4-63.9-.8-222.8-2.3-.3 3.4-61.7-1.5-.8-1.5-38.4 1-248.5 7.8v2.8l-61.6 1.9-2.6-8.6 64.4-2.9-.1-2 88.6-3.5 197.3-5.8v2.9l64.8-.7-.6-2.5 286.2 3.7v2.5l64 1.7.1-2.4z"/><linearGradient id="e" gradientUnits="userSpaceOnUse" x1="290.561" y1="556.092" x2="579.568" y2="556.092" gradientTransform="matrix(-1 -.013 -.013 1 1713.635 9.547)"><stop offset="0" stop-color="#2E471F"/><stop offset="1" stop-color="#2E471F"/></linearGradient><path opacity=".25" fill="url(#e)" d="M1415.9 563.6l-.5 7.8-288.5-14.5.1-8.4z"/><linearGradient id="f" gradientUnits="userSpaceOnUse" x1="643.991" y1="547.887" x2="930.089" y2="547.887" gradientTransform="matrix(-1 -.013 -.013 1 1713.635 9.547)"><stop offset="0" stop-color="#2E471F"/><stop offset="1" stop-color="#2E471F"/></linearGradient><path opacity=".25" fill="url(#f)" d="M1062.6 545.3l-.1 7.6-286-3.7.2-7.8z"/><linearGradient id="g" gradientUnits="userSpaceOnUse" x1="994.093" y1="556.738" x2="1282.761" y2="556.738" gradientTransform="matrix(-1 -.013 -.013 1 1713.635 9.547)"><stop offset="0" stop-color="#2E471F"/><stop offset="1" stop-color="#2E471F"/></linearGradient><path opacity=".25" fill="url(#g)" stroke="#2E471F" stroke-width="3.37" stroke-miterlimit="10" d="M712.5 544l-.1 7.3-288.3 7.6-.4-8.2z"/><linearGradient id="h" gradientUnits="userSpaceOnUse" x1="651.11" y1="690.577" x2="924.644" y2="690.577" gradientTransform="matrix(-1 -.013 -.013 1 1713.635 9.547)"><stop offset="0" stop-color="#2E471F"/><stop offset="1" stop-color="#2E471F"/></linearGradient><path opacity=".25" fill="url(#h)" d="M779.3 748.1c.8-63.3 61.8-119.9 138.3-118.9 76.5 1 136 59.1 135.2 122.4l-10.3.5c.7-57.7-55.1-110.8-124.9-111.7-69.8-.9-127 50.7-127.8 108.4l-10.5-.7z"/><linearGradient id="i" gradientUnits="userSpaceOnUse" x1="1002.11" y1="700.892" x2="1264.803" y2="700.892" gradientTransform="matrix(-1 -.013 -.013 1 1713.635 9.547)"><stop offset="0" stop-color="#2E471F"/><stop offset="1" stop-color="#2E471F"/></linearGradient><path opacity=".25" fill="url(#i)" d="M439.2 754.8c-1.9-60.8 54.3-117.7 127.8-120 73.5-2.3 133.1 51 135 111.8l-10.1.9c-1.7-55.5-57.6-104-124.6-101.9s-119.8 54-118.1 109.5l-10-.3z"/><linearGradient id="j" gradientUnits="userSpaceOnUse" x1="308.519" y1="701.02" x2="571.212" y2="701.02" gradientTransform="matrix(-1 -.013 -.013 1 1713.635 9.547)"><stop offset="0" stop-color="#2E471F"/><stop offset="1" stop-color="#2E471F"/></linearGradient><path opacity=".25" fill="url(#j)" d="M1132.7 752.3c3.5-60.7 64.4-112.5 137.8-108.3 73.4 4.2 128.1 62.5 124.6 123.2l-9.9.1c3.2-55.4-48.3-108.7-115.2-112.5-67-3.8-124.1 43.3-127.3 98.7l-10-1.2z"/></g><path stroke="#2E471F" stroke-width="1.123" stroke-miterlimit="10" d="M1476.3 632.7l-64.2-4.6m-58.7-5.7l2.6-53.5 25.3 1.5-2.3 53.5m-90.1-5.1l3.2-52.6 25.6 1.4-3.2 52.6m-90-5.1l2.2-52.6 25.7 1.4-2.3 52.7m-89.2-5.2l2.3-52.6 25.6 1.5-3.2 52.6" fill="none"/><path stroke="#2E471F" stroke-width="2.293" stroke-miterlimit="10" d="M1412.6 618.5l-33.2-1.9m-219-12.5l-33.2-1.9m226.6 12.9l-39.2-2.2m-24.8-1.4l-39.2-2.3m-25.7-1.4l-39.2-2.3" fill="none"/><path d="M1408 571.7l-2.3 46.4m-6.9-46.9l-2.4 46.3m-7.1-46.9l-2.3 46.4m-231.9-58.6l-1.9 45.3m-7.5-46.7l-1.9 46.2m-7.5-46.8l-1.9 46.2m215.4-33.5l-2.5 45.6m-5.8-45.7l-2.8 45.3m-5.7-46.7l-2.8 46.2m-5.8-46.7l-2.8 46.2m-36.3-48.5l-2.8 46.2m-5.7-46.7l-2.8 46.2m-5.8-46.7l-2.8 46.2m-5.7-46.7l-2.8 46.2m-36-48.4l-2.8 46.2m-5.7-46.6l-2.8 46.1m-5.8-46.6l-2.8 46.2m-5.8-46.7l-2.7 46.2" stroke="#2E471F" stroke-width="1.556" stroke-miterlimit="10" fill="none"/><path stroke="#2E471F" stroke-width="3.37" stroke-miterlimit="10" d="M1415.9 563.6l-289.5-15.2m-63.8-3.1l-285.9-3.9" fill="none"/><path fill="#649345" d="M1365.6 756.8s7.4 9.1 58.1 9.8c50.7.7 57.5-9.4 57.5-9.4l-.3 23.9-115.6-1.5.3-22.8z"/><path fill="#2E471F" d="M1481.2 757.3s-.3.4-.9 1c-.7.5-1.7 1.3-3.2 2.1-.7.4-1.6.7-2.5 1.2-.9.4-1.9.7-3 1.1-1.1.3-2.2.7-3.5 1.1-1.2.3-2.5.6-3.9 1-1.4.3-2.8.6-4.3.8-1.5.3-3 .5-4.6.7-1.6.3-3.2.4-4.9.6l-2.5.3-2.6.2c-1.7.1-3.5.3-5.3.3l-5.4.2c-3.7.1-7.4.1-11.1.1-3.7-.1-7.4-.2-11.1-.4-1.8-.1-3.7-.2-5.4-.3-1.8-.2-3.6-.3-5.3-.4-1.7-.1-3.5-.3-5.1-.5-1.7-.2-3.3-.4-4.9-.7-1.6-.3-3.1-.5-4.6-.8-1.5-.3-2.9-.6-4.3-.9-1.4-.3-2.7-.7-3.9-1-1.2-.4-2.4-.7-3.5-1.1-2.2-.7-4-1.4-5.5-2.2-1.5-.7-2.6-1.4-3.3-1.9-.7-.5-1-.9-1-.9s.3.3 1.1.8c.7.4 1.9 1 3.4 1.6 1.5.6 3.4 1.2 5.5 1.8 1.1.2 2.3.5 3.5.8 1.2.2 2.5.5 3.9.7 1.4.2 2.8.4 4.3.6 1.5.2 3 .4 4.6.6 1.6.2 3.2.3 4.9.5l5.1.4c1.7.1 3.5.2 5.3.3l5.4.2c3.6.2 7.4.2 11.1.3 3.7 0 7.4.1 11 0l5.4-.1 5.3-.2 2.6-.1 2.5-.2c1.7-.1 3.3-.2 4.9-.4 1.6-.2 3.1-.3 4.6-.5 1.5-.2 2.9-.4 4.3-.6 1.4-.3 2.7-.5 3.9-.7 1.2-.3 2.4-.6 3.5-.8 1.1-.3 2.1-.6 3-.9.9-.3 1.8-.6 2.5-1 1.5-.6 2.6-1.3 3.3-1.8.4-.5.7-.9.7-.9z"/><path fill="#2E471F" d="M1425.5 778.2s-1.3 0-3.6.1c-1.1 0-2.5.1-4.1.1h-5.3c-1.9-.1-4-.1-6.3-.2l-3.4-.1c-1.2-.1-2.4-.2-3.6-.2-1.2-.1-2.4-.2-3.7-.3-1.2-.1-2.5-.2-3.8-.4-2.5-.3-5.1-.6-7.7-1-2.6-.4-5.1-.9-7.6-1.4-1.3-.3-2.5-.5-3.7-.9-1.2-.3-2.4-.6-3.6-1-1.2-.3-2.3-.7-3.4-1.1-1.1-.4-2.2-.8-3.2-1.3-2.1-.9-4-1.8-5.7-2.9-1.7-1-3.1-2.2-4.1-3.5-.5-.6-.8-1.4-1-2.1-.1-.7-.1-1.4.2-1.9.6-1.1 1.5-1.5 2-1.8l.9-.3s-.3.1-.8.4c-.5.3-1.3.8-1.7 1.8-.3.5-.2 1.1-.1 1.7.2.6.5 1.2 1.1 1.8 1 1.2 2.4 2.2 4.1 3.1 3.3 1.9 7.6 3.4 12.2 4.7 2.3.7 4.8 1.2 7.2 1.7 2.5.5 5 1 7.6 1.4 2.5.4 5.1.8 7.6 1.1 2.5.3 5 .6 7.4.8 2.4.2 4.7.5 7 .6 2.2.2 4.3.3 6.2.4 1.9.1 3.7.2 5.3.3 1.6.1 2.9.2 4.1.2 2.2.1 3.5.2 3.5.2z" opacity=".5"/><path fill="#649345" d="M466.7 745.2s-7.6 8.9-58.3 8.3c-50.7-.7-57.2-10.9-57.2-10.9l-.3 23.9 115.6 1.5.2-22.8z"/><path fill="#2E471F" d="M351.1 742.7s.3.4 1 .9 1.8 1.2 3.3 1.8c.7.4 1.6.7 2.5 1 .9.3 1.9.6 3 1 1.1.3 2.2.6 3.5.9 1.2.3 2.5.5 3.9.8 1.4.2 2.8.5 4.3.7 1.5.2 3 .4 4.6.6 1.6.2 3.2.3 4.9.5l2.5.3c.8.1 1.7.1 2.6.2 1.7.1 3.5.3 5.3.4 1.8.1 3.6.2 5.4.2 3.6.2 7.4.2 11 .3 3.7 0 7.4.1 11.1 0l5.4-.1 5.3-.2c1.7 0 3.4-.2 5.1-.3 1.7-.1 3.3-.2 4.9-.3 1.6-.2 3.1-.3 4.6-.4 1.5-.2 2.9-.4 4.3-.5 1.4-.2 2.7-.4 3.9-.6 1.2-.2 2.4-.5 3.5-.7 2.2-.5 4.1-1 5.6-1.6 1.5-.5 2.7-1.1 3.4-1.5.7-.4 1.1-.8 1.1-.8s-.3.4-1 .9-1.8 1.2-3.3 1.8c-1.5.7-3.4 1.3-5.5 2-1.1.3-2.3.6-3.5 1-1.2.3-2.6.6-3.9.9-1.4.2-2.8.5-4.3.8-1.5.2-3 .4-4.6.6-1.6.2-3.2.4-4.9.5-1.7.2-3.4.3-5.1.4-1.7.1-3.5.2-5.3.3-1.8.1-3.6.1-5.5.2l-11.1.1c-3.7-.1-7.5-.2-11.1-.4l-5.4-.3c-1.8-.1-3.6-.3-5.3-.5-.9-.1-1.7-.2-2.6-.2-.9-.1-1.7-.2-2.5-.3-1.7-.2-3.3-.4-4.9-.7-1.6-.3-3.1-.5-4.6-.8-1.5-.3-2.9-.6-4.3-1s-2.6-.7-3.9-1.1c-1.2-.4-2.4-.8-3.4-1.2-1.1-.4-2.1-.8-3-1.2-.9-.4-1.7-.8-2.4-1.2-1.5-.8-2.5-1.6-3.1-2.2-1.3-.6-1.5-1-1.5-1z"/><path fill="#2E471F" d="M406.3 764.9s1.3 0 3.6-.1c1.1 0 2.5 0 4.1-.1 1.6-.1 3.4-.1 5.3-.2s4-.1 6.3-.3c2.2-.1 4.6-.3 7-.4 2.4-.2 4.9-.4 7.4-.6 2.5-.2 5.1-.5 7.6-.9 2.6-.3 5.1-.7 7.6-1.2s4.9-.9 7.3-1.5c4.7-1.1 9-2.5 12.3-4.3 1.7-.9 3.1-1.9 4.2-3 .5-.5.9-1.2 1.1-1.8.1-.6.2-1.2-.1-1.7-.4-1-1.2-1.5-1.7-1.8-.5-.3-.8-.4-.8-.4s.3.1.9.4c.5.3 1.4.7 1.9 1.8.3.5.3 1.2.2 1.9-.2.7-.5 1.4-1.1 2-1 1.3-2.5 2.4-4.2 3.4-1.7 1-3.6 1.9-5.7 2.7-1 .4-2.1.8-3.3 1.2-1.1.3-2.3.7-3.5 1l-3.6.9-3.7.8c-2.5.5-5.1.9-7.7 1.2-2.6.3-5.2.6-7.7.8l-3.8.3c-1.2.1-2.5.2-3.7.2l-3.6.2c-1.2 0-2.3 0-3.4.1-2.2.1-4.3 0-6.3 0-1.9 0-3.7-.1-5.3-.1-1.6 0-3-.1-4.1-.2-2.2-.2-3.5-.3-3.5-.3z" opacity=".5"/><path fill="#649345" d="M1035.2 742.9s7.4 9.1 58.1 9.8l57.5-9.4-.3 23.9-115.6-1.5.3-22.8z"/><path fill="#2E471F" d="M1150.8 743.4s-.3.4-.9 1c-.7.5-1.7 1.4-3.2 2.1-.7.4-1.6.7-2.5 1.2-.9.4-1.9.7-3 1.1-1.1.3-2.2.7-3.5 1.1-1.2.3-2.5.6-3.9 1-1.4.3-2.8.6-4.3.8-1.5.3-3 .5-4.6.7-1.6.3-3.2.4-4.9.6l-2.5.3-2.6.2c-1.7.1-3.5.3-5.3.3l-5.4.2c-3.7.1-7.4.1-11.1.1-3.7-.1-7.4-.2-11.1-.4-1.8-.1-3.7-.2-5.4-.3-1.8-.2-3.6-.3-5.3-.4-1.7-.1-3.5-.3-5.1-.5-1.7-.2-3.3-.4-4.9-.7-1.6-.3-3.1-.5-4.6-.7-1.5-.3-2.9-.6-4.3-.9-1.4-.3-2.7-.7-3.9-1-1.2-.4-2.4-.7-3.5-1.1-2.2-.7-4-1.4-5.5-2.2-1.5-.7-2.6-1.4-3.3-1.9-.7-.5-1-.9-1-.9s.3.3 1.1.8c.7.4 1.9 1 3.4 1.6 1.5.6 3.4 1.2 5.5 1.8 1.1.2 2.3.5 3.5.8 1.2.2 2.5.5 3.9.7 1.4.2 2.8.4 4.3.6 1.5.2 3 .4 4.6.6 1.6.2 3.2.3 4.9.5l5.1.4c1.7.1 3.5.2 5.3.3l5.4.2c3.6.2 7.4.2 11.1.3 3.7 0 7.4.1 11 0l5.4-.1 5.3-.2 2.6-.1 2.5-.2c1.7-.1 3.3-.2 4.9-.4 1.6-.2 3.1-.3 4.6-.5 1.5-.2 2.9-.4 4.3-.6 1.4-.3 2.7-.5 3.9-.7 1.2-.3 2.4-.6 3.5-.8 1.1-.3 2.1-.6 3-.9.9-.3 1.8-.6 2.5-1 1.5-.6 2.6-1.3 3.3-1.8.4-.7.7-1 .7-1z"/><path fill="#2E471F" d="M1159.6 743.7s.1.1.4.2c.3.1.7.4 1.1.7.5.4 1 .9 1.5 1.6.4.8.7 1.8.4 2.9-.3 1.1-1 2.2-1.9 3.2-.9 1-2.1 1.9-3.4 2.7-2.6 1.6-5.9 3-9.5 4.1-7.3 2.3-16.1 3.8-25.5 4.7-9.5.9-19.6 1.2-29.7 1.1-10.1-.1-20.2-.7-29.6-1.7-4.7-.5-9.3-1.2-13.5-2.1-4.3-.8-8.3-1.8-11.9-2.9-3.6-1.1-6.9-2.4-9.6-3.9-2.7-1.5-5-3.1-6.2-5-.6-.9-.8-2-.6-2.9.3-.9.9-1.4 1.3-1.7.5-.3.9-.5 1.2-.6.3-.1.4-.2.4-.2s-.1.1-.4.2c-.3.1-.7.3-1.2.7-.5.4-1 .9-1.2 1.7-.2.8 0 1.8.6 2.7 1.2 1.8 3.5 3.3 6.2 4.7 2.7 1.3 6 2.5 9.6 3.6 3.6 1 7.6 1.9 11.9 2.7 4.3.7 8.8 1.3 13.5 1.8 9.4 1 19.4 1.5 29.5 1.5 5 .1 10.1.1 15-.1 5-.1 9.8-.4 14.5-.8 9.4-.8 18.1-2 25.4-4.2 3.6-1.1 6.8-2.3 9.5-3.8 2.6-1.5 4.7-3.3 5.4-5.4.3-1 .1-2-.2-2.8-.4-.8-.9-1.3-1.4-1.6-.5-.4-.8-.6-1.1-.8-.4-.2-.5-.3-.5-.3z" opacity=".5"/><path fill="#649345" d="M682.6 738.3s7.4 9.1 58.1 9.8c50.7.7 57.5-9.4 57.5-9.4l-.3 23.9-115.6-1.5.3-22.8z"/><path fill="#2E471F" d="M798.2 738.8s-.3.4-.9 1c-.7.5-1.7 1.3-3.2 2.1-.7.4-1.6.7-2.5 1.2-.9.4-1.9.7-3 1.1-1.1.3-2.2.7-3.5 1.1-1.2.3-2.5.6-3.9 1-1.4.3-2.8.6-4.3.8-1.5.3-3 .5-4.6.7-1.6.3-3.2.4-4.9.6l-2.5.3-2.6.2c-1.7.1-3.5.3-5.3.3l-5.4.2c-3.7.1-7.4.1-11.1.1-3.7-.1-7.4-.2-11.1-.4-1.8-.1-3.7-.2-5.4-.3-1.8-.2-3.6-.3-5.3-.4-1.7-.1-3.5-.3-5.1-.5-1.7-.2-3.3-.4-4.9-.7-1.6-.3-3.1-.5-4.6-.8-1.5-.3-2.9-.6-4.3-.9-1.4-.3-2.7-.7-3.9-1-1.2-.4-2.4-.7-3.5-1.1-2.2-.7-4-1.4-5.5-2.2-1.5-.7-2.6-1.4-3.3-1.9-.7-.5-1-.9-1-.9s.3.3 1.1.8c.7.4 1.9 1 3.4 1.6 1.5.6 3.4 1.2 5.5 1.8 1.1.2 2.3.5 3.5.8 1.2.2 2.5.5 3.9.7 1.4.2 2.8.4 4.3.6 1.5.2 3 .4 4.6.6 1.6.2 3.2.3 4.9.5l5.1.4c1.7.1 3.5.2 5.3.3l5.4.2c3.6.2 7.4.2 11.1.3 3.7 0 7.4.1 11 0l5.4-.1 5.3-.2 2.6-.1 2.5-.2c1.7-.1 3.3-.2 4.9-.4 1.6-.2 3.1-.3 4.6-.5 1.5-.2 2.9-.4 4.3-.6 1.4-.3 2.7-.5 3.9-.7 1.2-.3 2.4-.6 3.5-.8 1.1-.3 2.1-.6 3-.9.9-.3 1.8-.6 2.5-1 1.5-.6 2.6-1.3 3.3-1.8.4-.6.7-.9.7-.9z"/><path fill="#2E471F" d="M807 739.1s.1.1.4.2c.3.1.7.4 1.1.7.5.4 1 .9 1.5 1.6.4.8.7 1.8.4 2.9-.3 1.1-1 2.2-1.9 3.2-.9 1-2.1 1.9-3.4 2.7-2.6 1.6-5.9 3-9.5 4.1-7.3 2.3-16.1 3.8-25.5 4.7-9.5.9-19.6 1.2-29.7 1.1-10.1-.1-20.2-.7-29.6-1.7-4.7-.5-9.3-1.2-13.5-2.1-4.3-.8-8.3-1.8-11.9-2.9-3.6-1.1-6.9-2.4-9.6-3.9-2.7-1.5-5-3.1-6.2-5-.6-.9-.8-2-.6-2.9.3-.9.9-1.4 1.3-1.7.5-.3.9-.5 1.2-.6.3-.1.4-.2.4-.2s-.1.1-.4.2c-.3.1-.7.3-1.2.7-.5.4-1 .9-1.2 1.7-.2.8 0 1.8.6 2.7 1.2 1.8 3.5 3.3 6.2 4.7 2.7 1.3 6 2.5 9.6 3.6 3.6 1 7.6 1.9 11.9 2.7 4.3.7 8.8 1.3 13.5 1.8 9.4 1 19.4 1.5 29.5 1.5 5 .1 10.1.1 15-.1 5-.1 9.8-.4 14.5-.8 9.4-.8 18.1-2 25.4-4.2 3.6-1.1 6.8-2.3 9.5-3.8 2.6-1.5 4.7-3.3 5.4-5.4.3-1 .1-2-.2-2.8-.4-.8-.9-1.3-1.4-1.6-.5-.4-.8-.6-1.1-.8-.3-.2-.5-.3-.5-.3z" opacity=".5"/></g></svg>