<svg width="326" height="301" viewBox="0 0 326 301" xmlns="http://www.w3.org/2000/svg"><title>Imported Layers</title><g fill="none"><path d="M170.038 230.424c-5.555 0-11.034.077-16.424.226-.705 2.635-1.442 5.137-2.208 7.514-6.306 19.568-14.62 30.724-22.417 38.566-4.277 4.305-8.295 7.37-11.93 9.374-3.64 2-6.9 2.95-9.687 2.953-1.56 0-2.976-.304-4.194-.908-1.22-.602-2.232-1.51-2.96-2.655-1.182-1.845-1.808-3.892-1.806-6.046 0-2.346.724-4.784 2.115-7.3 1.393-2.517 3.457-5.128 6.208-7.863 7.555-7.512 16.53-17.623 24.307-32.56-8.866.606-17.393 1.416-25.472 2.405-7.722 8.923-15.358 14.225-21.673 17.71-6.965 3.844-12.772 5.48-17.23 5.485-2.402 0-4.424-.478-6.005-1.398-1.58-.914-2.705-2.303-3.207-3.975-.305-1-.46-2.008-.46-3.01-.004-1.957.605-3.867 1.772-5.672-20.108 5.995-32.16 13.645-32.16 21.98 0 19.236 64.214 34.828 143.427 34.828s143.428-15.59 143.428-34.827c0-16.187-45.48-29.796-107.104-33.702 9.337 17.282 20.144 28.185 29.012 35.993 3.04 2.677 5.323 5.265 6.866 7.798 1.54 2.53 2.344 5.03 2.344 7.466.002 1.92-.506 3.774-1.468 5.496-.716 1.29-1.783 2.32-3.1 3-1.322.685-2.884 1.03-4.634 1.03-2.745-.003-5.96-.84-9.57-2.62-3.61-1.78-7.616-4.51-11.922-8.35-9.53-8.487-19.998-21.35-27.995-46.72-.414-1.313-.822-2.66-1.223-4.04-4.813-.118-9.692-.178-14.633-.178" fill="#ECECEC"/><path d="M307.978 145.513c-37.997-2.644-69.487-54.247-70.892-56.396l4.992-7.703c19.27 29.257 46.735 51.855 62.865 54.858 1.21 3.544 2.404 5.456 3.035 9.24" fill="#DBE3CB"/><path d="M237.478 84.026c7.756 12.655 32.125 42.79 55.75 53.8 2.792 1.3 7.943 3.344 14.067 4.02.268 1.28.504 2.574.718 3.873-35.344-3.685-62.606-44.073-70.927-56.603l.39-5.09" fill="#A5B98C"/><path d="M304.316 133.382c-18.62-4.133-35.468-18.994-47.872-33.57-5.022-5.898-9.587-12.22-13.66-18.866l-1.413.937c4.12 6.722 8.736 13.117 13.82 19.085 12.532 14.704 29.554 29.825 48.775 34.12l.35-1.706M236.36 89.556c7.236 12.955 17.154 23.193 27.177 33.563 10.978 11.352 26.173 20.794 43.297 23.126l.217-1.73c-16.663-2.262-31.57-11.5-42.33-22.634-10.03-10.37-19.822-20.504-26.91-33.203l-1.45.876M271.79 116.14c-.02.01-1.217.595-2.425 1.833-1.206 1.234-2.43 3.146-2.43 5.766 0 .393.027.804.088 1.232l.602-.09c-.056-.398-.082-.778-.082-1.142 0-2.405 1.116-4.15 2.25-5.315.566-.58 1.135-1.012 1.56-1.295.213-.142.39-.247.512-.316l.14-.077.045-.024-.26-.572m23.88 15.354c-.03.028-2.553 2.273-2.557 6.5 0 1.12.178 2.375.627 3.755l.578-.204c-.43-1.32-.595-2.504-.596-3.553 0-1.976.592-3.48 1.182-4.498.295-.508.59-.89.81-1.147l.26-.285.072-.07.02-.018-.394-.482M304.31 133.38c-11.367-2.45-23.326-9.792-34.142-19.42-10.818-9.624-20.498-21.523-27.378-33.007l-1.423.923c6.98 11.645 16.75 23.656 27.71 33.41 10.963 9.748 23.105 17.25 34.893 19.802l.34-1.707M236.383 89.592c10.682 17.124 16.495 22.708 27.16 33.532 11.07 11.237 26.162 20.788 43.29 23.122l.218-1.73c-16.66-2.262-31.467-11.603-42.336-22.64-10.693-10.862-16.29-16.204-26.925-33.234l-1.407.95M257.442 102.04c-.023.01-1.203.42-2.4 1.474-1.194 1.05-2.407 2.776-2.405 5.342 0 .393.028.805.09 1.238l.602-.09c-.058-.405-.084-.786-.084-1.148.003-2.35 1.087-3.88 2.192-4.86.55-.486 1.106-.827 1.52-1.045.207-.11.38-.186.498-.237l.137-.055.042-.016-.192-.6" fill="#2B3F22"/><path d="M320.296 136.627l-5.9 19.443c-.165.152-.382.227-.602.21l-37.085-3.2c-.267-.02-.507-.172-.645-.41l-3.097-20.618" fill="#5F8C45"/><path d="M319.46 136.353l-5.898 19.443.835.274-.578-.685.032.04v-.053l-.033.013.032.04v-.053h-.02l-.04.908.073-.908-37.085-3.2h-.01l-.003.054.046-.028-.042-.026-.003.055.046-.028-.75.47.865-.142-3.097-20.617-1.728.282 3.123 20.795.09.152c.283.49.78.807 1.33.848l.063-.908-.072.907 37.1 3.202h.018l.097.003c.412 0 .81-.154 1.122-.438l.184-.17 5.972-19.684-1.67-.547" fill="#2B3F22"/><path d="M272.92 131.61l7.873-33.522c.07-.363.39-.614.746-.583l35.83 2.726c.36.033.638.346.64.723l2.596 35.065c.002.43-.352.767-.763.73l-46.3-4.27c-.415-.037-.706-.443-.624-.868" fill="#5F8C45"/><path d="M272.92 131.61l.85.215 7.878-33.54.004-.018-.172-.037v.182c.085 0 .154-.06.172-.145l-.172-.037v.182-.193l-.008.192h.008v-.193l-.008.192.02-.528-.062.523.042.005.02-.528-.062.523.02.003 35.856 2.728.064-.908-.075.907.015-.18h-.175c0 .095.07.172.16.18l.015-.18h-.175v.03l2.598 35.1.873-.07h-.876.176v-.178c-.1 0-.174.08-.176.178h.176v-.18h-.008l-.054.91.077-.91-46.298-4.267-.016.184h.175c0-.1-.067-.172-.158-.183l-.016.184h.175-.216l.212.047.005-.046h-.216l.212.047-.856-.192.85.215-.85-.215-.856-.194c-.025.12-.034.234-.034.34 0 .834.61 1.55 1.437 1.63l46.323 4.272.116.003c.865-.003 1.575-.73 1.576-1.643v-.036l-2.598-35.1-.873.07.876-.004c-.004-.85-.63-1.553-1.442-1.625h-.01l-35.83-2.725-.064.908.11-.904-.17-.01c-.745 0-1.393.545-1.543 1.315l.858.18-.85-.215-7.876 33.53-.005.016.856.194" fill="#2B3F22"/><path d="M298.93 107.933c5.794.057 10.453 4.22 10.407 9.3-.046 5.08-4.78 9.153-10.573 9.097-5.794-.057-10.454-4.22-10.407-9.3.046-5.08 4.78-9.153 10.573-9.097" fill="#5F8C45"/><path d="M298.93 107.933l-.008.895c2.687.026 5.097 1.003 6.815 2.528 1.72 1.53 2.738 3.573 2.74 5.803v.09l.86-.017-.86-.008c-.022 2.23-1.057 4.256-2.784 5.76-1.726 1.502-4.135 2.45-6.81 2.45h-.124l.004.894.008-.896c-2.688-.026-5.098-1.003-6.816-2.528-1.72-1.53-2.74-3.574-2.74-5.803v-.068c.022-2.23 1.057-4.256 2.784-5.762 1.726-1.5 4.136-2.45 6.81-2.448h.11l.01-.894.017-.896h-.138c-3.066 0-5.86 1.078-7.915 2.864-2.054 1.78-3.377 4.304-3.4 7.12l.86.007-.86-.04v.115c-.003 2.816 1.3 5.358 3.342 7.166 2.045 1.812 4.838 2.925 7.916 2.956h.127c3.065 0 5.86-1.08 7.914-2.864 2.054-1.78 3.377-4.304 3.4-7.12v-.082c.002-2.816-1.3-5.358-3.342-7.166-2.045-1.812-4.838-2.925-7.916-2.956l-.008.896.018-.896-.018.896" fill="#2B3F22"/><path d="M298.912 106.523c5.145.05 9.283 3.75 9.242 8.26-.04 4.512-4.245 8.128-9.39 8.078-5.144-.05-9.282-3.747-9.24-8.258.04-4.512 4.244-8.13 9.39-8.08" fill="#5F8C45"/><path d="M298.912 106.523l-.008.896c2.365.02 4.483.88 5.99 2.22 1.51 1.343 2.398 3.13 2.4 5.077v.076l.86-.01-.86-.007c-.02 1.948-.923 3.72-2.438 5.04-1.514 1.32-3.633 2.152-5.986 2.15h-.105.008c-2.365-.022-4.484-.882-5.99-2.22-1.51-1.343-2.4-3.13-2.4-5.078v-.057c.018-1.947.922-3.718 2.437-5.04 1.514-1.318 3.633-2.15 5.986-2.15h.102-.004l.008-.895.025-.895h-.132c-2.744 0-5.246.965-7.09 2.566-1.84 1.597-3.032 3.865-3.053 6.398l.86.01-.86-.038v.102c-.002 2.534 1.17 4.82 3.003 6.44 1.834 1.627 4.336 2.622 7.09 2.65h.115c2.744 0 5.246-.965 7.09-2.566 1.84-1.597 3.033-3.865 3.054-6.398v-.075c0-2.535-1.172-4.82-3.004-6.44-1.834-1.626-4.336-2.622-7.09-2.65l-.01.895.026-.895-.025.895" fill="#2B3F22"/><path d="M273.793 136.855l13.758.998" fill="#5F8C45"/><path d="M273.766 137.238l13.758.997.052-.764-13.758-.997" fill="#2B3F22"/><path d="M288.08 138.907c-.54-.037-.95-.463-.92-.952.03-.488.493-.855 1.033-.817.54.037.95.463.92.952-.03.488-.493.855-1.033.817" fill="#5F8C45"/><path d="M288.08 138.907l.023-.357c-.182-.013-.338-.09-.443-.192-.105-.105-.157-.227-.158-.352v-.015h-.01l.01.002h.002l-.01-.002.01.002.002-.015c.008-.125.066-.238.175-.33.11-.093.264-.156.44-.156l.048.003h.006c.182.013.337.09.442.193.105.104.157.226.158.352l-.002.038.344.014-.343-.024c-.01.125-.067.237-.175.33-.108.093-.264.155-.44.155h-.057l-.017.356.023-.357-.023.356-.018.357.093.003c.33 0 .638-.114.875-.316.237-.2.405-.497.426-.837v-.076c0-.342-.147-.652-.373-.872-.225-.222-.53-.362-.87-.385l-.02.357.027-.357-.104-.004c-.33 0-.64.114-.876.316-.236.2-.404.498-.425.84l.342.022-.342-.037-.004.09c0 .34.148.65.374.87.226.222.53.363.87.386h.004l.018-.357" fill="#2B3F22"/><path d="M320.128 137.638c.402-1.15.18-.57.342-1.6 2.006-12.68-5.613-23.474-25.258-25.053-21.535-1.73-24.132-17.423-9.32-21.96 22.422-6.872 41.38 10.694 37.746 37.723-.36 2.678-.463 8.69-3.51 10.89" fill="#DBE3CB"/><path d="M276.048 101.07c.82 3.08 2.69 5.29 5.064 6.826 3.57 2.31 8.263 3.25 12.843 3.946 4.575.685 9.063 1.122 12.063 2.21 4.084 1.47 7.59 3.973 10.062 7.145 2.473 3.176 3.92 7.01 3.92 11.212 0 1.876-.29 3.83-.914 5.84l1.596.536c.676-2.174.995-4.312.995-6.377 0-4.626-1.605-8.863-4.295-12.312-2.69-3.45-6.458-6.126-10.816-7.695-2.222-.798-4.963-1.238-7.89-1.654-4.39-.62-9.2-1.18-13.113-2.606-1.957-.71-3.68-1.632-5.03-2.85-1.35-1.22-2.34-2.72-2.87-4.692l-1.615.468" fill="#2B3F22"/><path d="M321.87 134.21s2.843-12.887-8.417-21.005c-8.5-6.127-17.19-5.467-24.595-6.415-7.405-.948-11.316-5.618-11.477-8.367 0 0-3.094 8.57 11.208 11.462 12.038 2.435 19.423 1.324 26.048 8.105 8.786 8.993 5.834 18.048 5.834 18.048s.66-1.123 1.398-1.83" fill="#A5B98C"/><path d="M289.613 110.62c.66-.204 1.36-.73 2.077-1.495 2.137-2.296 4.396-6.822 4.402-11.836 0-3.212-.944-6.623-3.462-9.703l-.505.446c2.41 2.954 3.3 6.18 3.303 9.256 0 3.194-.973 6.22-2.226 8.52-.626 1.15-1.32 2.12-1.988 2.834-.665.717-1.312 1.172-1.788 1.314l.187.663m28.583 12.146c.086.133.21.198.323.233.114.036.233.047.365.047.617-.004 1.566-.272 2.645-.733 1.073-.463 2.256-1.124 3.26-1.936l-.375-.5c-.946.767-2.088 1.407-3.12 1.85-1.024.447-1.96.69-2.41.687l-.192-.02-.017-.007h-.003l-.047.085.077-.052-.03-.033-.047.086.077-.052-.508.348M320.71 138.625c3.194-5.812 4.718-12.178 4.718-18.4 0-8.046-2.548-15.858-7.343-21.924-4.79-6.066-11.847-10.37-20.752-11.375-1.1-.124-2.28-.19-3.5-.19-3.976.003-8.395.693-11.924 2.47-1.763.89-3.31 2.063-4.428 3.592-1.12 1.525-1.785 3.417-1.78 5.607 0 .388.02.785.06 1.193.32 3.216 1.822 5.643 3.938 7.352 3.176 2.57 7.648 3.7 12.032 4.44 4.38.73 8.71 1.053 11.46 1.787 4.663 1.234 8.894 3.67 11.933 6.966 3.04 3.3 4.895 7.43 4.898 12.165 0 1.788-.266 3.666-.843 5.628l1.604.51c.623-2.116.916-4.17.916-6.138.003-5.224-2.073-9.812-5.365-13.373-3.292-3.566-7.792-6.138-12.727-7.448-2.01-.53-4.584-.837-7.36-1.203-4.157-.54-8.756-1.22-12.333-2.81-1.79-.792-3.313-1.804-4.426-3.104-1.115-1.303-1.845-2.885-2.06-4.957-.036-.35-.053-.684-.053-1.008.004-1.83.53-3.3 1.44-4.552 1.362-1.874 3.67-3.244 6.38-4.117 2.71-.876 5.797-1.258 8.636-1.257 1.162 0 2.283.063 3.318.18 8.488.964 15.106 5.02 19.64 10.75 4.53 5.73 6.96 13.15 6.96 20.816 0 5.926-1.45 11.99-4.496 17.532l1.455.866" fill="#2B3F22"/><path d="M48.677 91.993l17.706 8.742c.122.192.164.425.118.65l-8.128 37.774c-.055.27-.234.498-.48.607l-20.057.366" fill="#5F8C45"/><path d="M48.302 92.815l17.707 8.742.374-.823-.73.5.044-.03h-.053l.01.03.043-.03h-.053.02l-.02-.004v.005h.02l-.02-.005-8.125 37.76-.002.01.05.01-.02-.05-.03.04.05.01-.02-.05.347.836-.016-.91-20.058.365.03 1.823 20.23-.37.158-.07c.506-.226.876-.694.99-1.255l-.856-.19.854.2 8.13-37.774.003-.016c.024-.117.036-.238.036-.362 0-.343-.096-.68-.28-.972l-.135-.213-17.926-8.85-.75 1.645" fill="#2B3F22"/><path d="M37.41 140.123l-30.844-12.706c-.336-.122-.53-.488-.452-.848l7.506-36.549c.08-.367.416-.61.776-.562l33.747 2.13c.41.057.682.467.59.885l-10.408 47.123c-.094.424-.52.668-.915.525" fill="#5F8C45"/><path d="M37.41 140.123l.322-.846-30.862-12.715-.014-.004-.058.172h.175l-.117-.172-.058.172h.175-.22l.213.052.007-.052h-.22l.213.052.002-.008 7.508-36.56-.856-.192.854.2-.172-.04v.183c.084 0 .153-.058.172-.142l-.172-.04v.182-.246l-.034.242.034.003v-.246l-.034.242.037.005 33.785 2.135.053-.91-.116.903.024-.182h-.175c0 .094.063.167.152.183l.024-.182h-.175.123l-.123-.027-.002.028h.125l-.123-.027-10.405 47.112.17.04v-.182c-.08 0-.15.056-.17.142l.17.04v-.182.175l.055-.166-.055-.01v.176l.055-.166-.287.86.323-.845-.323.846-.286.86c.17.06.343.09.518.09.712.002 1.363-.505 1.535-1.27l10.41-47.125.002-.01c.022-.114.036-.234.036-.358 0-.805-.568-1.51-1.367-1.623l-.034-.005-33.774-2.135-.053.91.127-.902-.22-.016c-.73 0-1.372.524-1.537 1.28l-.004.02-7.503 36.536.857.19-.85-.213c-.03.13-.043.257-.043.373 0 .685.413 1.31 1.056 1.547l.29-.86-.323.847 30.863 12.714.016.005.286-.86" fill="#2B3F22"/><path d="M18.427 110.076c.848-5.96 5.452-10.192 10.283-9.45 4.832.745 8.06 6.18 7.213 12.143-.848 5.96-5.452 10.19-10.283 9.448-4.83-.743-8.06-6.18-7.213-12.142" fill="#5F8C45"/><path d="M18.427 110.076l.85.13c.365-2.566 1.476-4.774 2.984-6.325 1.51-1.553 3.396-2.443 5.344-2.443.325 0 .65.025.98.076 1.908.295 3.54 1.41 4.725 3.074 1.18 1.664 1.89 3.876 1.888 6.283 0 .58-.04 1.17-.126 1.77-.364 2.565-1.476 4.772-2.983 6.325-1.51 1.554-3.396 2.443-5.345 2.443-.324 0-.65-.025-.98-.075-1.906-.295-3.54-1.41-4.724-3.074-1.18-1.665-1.89-3.877-1.888-6.284 0-.58.04-1.17.126-1.767l-.85-.133-.852-.13c-.097.683-.145 1.362-.145 2.03.002 2.77.81 5.348 2.227 7.345 1.41 1.995 3.453 3.414 5.858 3.783.412.063.822.094 1.23.094 2.463-.002 4.775-1.126 6.556-2.963 1.785-1.84 3.057-4.397 3.475-7.336.097-.684.145-1.36.145-2.03 0-2.77-.81-5.348-2.225-7.344-1.412-1.995-3.453-3.414-5.858-3.783-.413-.064-.824-.094-1.23-.094-2.462 0-4.774 1.124-6.555 2.96-1.784 1.84-3.056 4.398-3.475 7.337l.85.13" fill="#2B3F22"/><path d="M17.08 109.903c.754-5.295 4.843-9.052 9.134-8.392 4.29.66 7.158 5.488 6.406 10.783-.753 5.295-4.842 9.052-9.133 8.392-4.29-.66-7.158-5.487-6.406-10.782" fill="#5F8C45"/><path d="M17.08 109.903l.852.13c.32-2.257 1.298-4.198 2.622-5.56 1.325-1.365 2.975-2.142 4.677-2.14.285 0 .57.02.855.065 1.67.257 3.095 1.23 4.134 2.69 1.035 1.46 1.658 3.403 1.657 5.52 0 .51-.036 1.03-.11 1.557-.32 2.257-1.3 4.198-2.622 5.56-1.326 1.364-2.976 2.14-4.678 2.14-.284 0-.57-.02-.856-.065-1.665-.257-3.09-1.23-4.13-2.69-1.037-1.46-1.66-3.404-1.66-5.52 0-.51.037-1.03.112-1.555l-.85-.13-.852-.133c-.088.613-.13 1.22-.13 1.818 0 2.48.725 4.79 1.995 6.583 1.267 1.79 3.102 3.067 5.265 3.4.37.056.74.083 1.107.083 2.214 0 4.292-1.012 5.89-2.66 1.6-1.648 2.738-3.94 3.112-6.57.086-.614.128-1.22.128-1.818 0-2.48-.725-4.79-1.994-6.582-1.267-1.79-3.103-3.068-5.265-3.4-.372-.057-.743-.084-1.11-.084-2.214 0-4.29 1.013-5.888 2.66-1.6 1.65-2.738 3.94-3.112 6.57l.85.132" fill="#2B3F22"/><path d="M42.524 139.943l2.835-14.04" fill="#5F8C45"/><path d="M42.884 140.02l2.835-14.04-.722-.157-2.835 14.04" fill="#2B3F22"/><path d="M46.436 125.5c-.11.552-.57.918-1.033.818-.46-.1-.746-.625-.637-1.176.11-.55.572-.917 1.033-.818.46.1.746.626.636 1.177" fill="#5F8C45"/><path d="M46.436 125.5l-.336-.072c-.068.347-.33.554-.545.55l-.084-.01h.004c-.206-.04-.384-.27-.387-.59l.017-.16v-.004c.068-.347.33-.554.544-.55l.08.01h.003c.206.04.385.27.387.59l-.017.166.337.07.337.07.03-.307c.003-.595-.35-1.16-.935-1.29l-.07.35.073-.35-.225-.025c-.6.005-1.092.487-1.217 1.12v-.003l-.03.31c-.003.595.35 1.16.935 1.29h.002l.22.024c.598-.006 1.09-.486 1.217-1.12l-.337-.07" fill="#2B3F22"/><path d="M112.067 87.234c-1.287 2.544-35.903 67.934-75.555 65.324-28.656-1.888-42.752-34.17-31.866-55.685 7.192-14.214 21.47-8.478 18.865 13.826-2.377 20.346 6.297 30.24 18.644 30.69 14.065.51 45.085-20.758 64.12-61.228" fill="#DBE3CB"/><path d="M112.067 87.234c-1.287 2.544-35.967 68.828-75.555 65.324-31.378-2.778-47.25-41.5-26.378-62.186-8.638 8.092-8.833 34.606 5.114 48.24 3.28 3.207 10.627 9.233 22.9 10.072 10.33.706 19.42-4.053 23.39-6.492 22.286-13.698 43.25-46.49 49.59-59.97" fill="#A5B98C"/><path d="M23.683 104.595c-.376.77-1.67 1.802-3.48 2.58-1.808.788-4.13 1.358-6.585 1.357-3.852-.004-8.007-1.386-11.13-5.5l-.52.428c3.26 4.3 7.652 5.766 11.65 5.762 2.553 0 4.953-.59 6.843-1.41 1.89-.83 3.273-1.858 3.81-2.897l-.586-.32M111.325 86.827c-.602 1.194-9.23 17.517-22.48 33.47-6.624 7.98-14.406 15.868-22.895 21.74-8.492 5.877-17.672 9.725-27.116 9.723-.754 0-1.51-.025-2.27-.074-10.82-.716-19.48-5.835-25.472-13.08-5.99-7.24-9.282-16.62-9.28-25.768 0-5.43 1.155-10.774 3.578-15.56 1.275-2.52 2.765-4.354 4.296-5.545 1.533-1.192 3.097-1.744 4.577-1.745 1.11 0 2.182.31 3.193.93 1.515.935 2.896 2.6 3.902 5.044 1.006 2.44 1.628 5.645 1.628 9.588 0 1.566-.097 3.248-.307 5.044-.27 2.305-.4 4.483-.4 6.535-.002 8.15 2.058 14.347 5.614 18.56 3.552 4.214 8.567 6.37 14.23 6.572l.533.01c3.77-.006 8.448-1.382 13.69-4.034 15.703-7.964 36.484-27.527 50.682-57.693l-1.507-.766c-9.353 19.882-21.617 35.1-33.293 45.33-5.837 5.115-11.527 8.982-16.617 11.56-5.087 2.58-9.58 3.86-12.956 3.856l-.474-.008c-5.302-.198-9.806-2.168-13.03-5.98-3.22-3.816-5.195-9.55-5.197-17.41 0-1.974.126-4.082.388-6.324.217-1.86.32-3.612.32-5.254-.003-5.51-1.152-9.783-3.03-12.737-.94-1.475-2.066-2.62-3.322-3.394-1.253-.776-2.637-1.177-4.05-1.176-1.888 0-3.81.712-5.58 2.092-1.774 1.38-3.406 3.424-4.777 6.13-2.56 5.058-3.77 10.687-3.77 16.372 0 9.582 3.43 19.337 9.685 26.906 6.252 7.57 15.36 12.943 26.64 13.683.793.05 1.585.078 2.374.078 9.892-.002 19.377-4.017 28.045-10.014 13.002-9 24.22-22.482 32.334-33.95 8.113-11.475 13.1-20.922 13.596-21.9l-1.484-.813M28.76 135.84c.01.012.063.128.09.307.03.18.048.422.048.71.003 1.5-.486 4.193-1.725 6.497-1.244 2.312-3.19 4.224-6.15 4.376l.03.633c3.224-.162 5.36-2.28 6.652-4.7 1.298-2.43 1.8-5.178 1.802-6.807 0-.335-.02-.624-.065-.864-.05-.24-.102-.433-.255-.6l-.428.45h-.002m51.581-17.092l.05.01c.268.07 1.545.44 2.732 1.423 1.188.987 2.292 2.548 2.295 5.103l-.004.277.61.017.004-.294c.004-2.942-1.4-4.766-2.785-5.804-1.387-1.044-2.752-1.345-2.775-1.352l-.127.62m-21.341 19.16l.018.02c.217.225 2.12 2.3 2.117 5.758 0 .713-.08 1.487-.274 2.32l.592.15c.204-.882.29-1.707.29-2.47-.004-3.96-2.3-6.21-2.327-6.238l-.417.462M60.643 135.843c15.04-9.126 33.45-27.81 46.385-55.298l-1.506-.766c-12.78 27.175-31.014 45.64-45.723 54.556l.844 1.507M111.325 86.827c-.602 1.194-9.23 17.517-22.48 33.47-6.624 7.98-14.406 15.868-22.895 21.74-8.492 5.877-17.672 9.725-27.116 9.723-.754 0-1.51-.025-2.27-.074-10.82-.716-19.48-5.835-25.472-13.08-5.99-7.24-9.282-16.62-9.28-25.768 0-5.43 1.155-10.774 3.578-15.56 1.275-2.52 2.765-4.354 4.296-5.545 1.533-1.192 3.097-1.744 4.577-1.745 1.11 0 2.182.31 3.193.93 1.515.935 2.896 2.6 3.902 5.044 1.006 2.44 1.628 5.645 1.628 9.588 0 1.566-.097 3.248-.307 5.044-.27 2.305-.4 4.483-.4 6.535-.002 8.15 2.058 14.347 5.614 18.56 3.552 4.214 8.567 6.37 14.23 6.572l.532.01c.55 0 1.117-.03 1.704-.09l-.158-1.736c-.54.053-1.055.08-1.546.08l-.473-.01c-5.302-.197-9.806-2.167-13.03-5.98-3.22-3.815-5.195-9.55-5.197-17.408 0-1.975.126-4.083.388-6.325.217-1.86.32-3.612.32-5.254-.003-5.51-1.152-9.784-3.03-12.738-.94-1.475-2.066-2.62-3.322-3.394-1.253-.775-2.637-1.176-4.05-1.175-1.888 0-3.81.712-5.58 2.092-1.774 1.38-3.406 3.424-4.777 6.13-2.56 5.058-3.77 10.687-3.77 16.372 0 9.582 3.43 19.337 9.685 26.906 6.252 7.57 15.36 12.943 26.64 13.683.793.05 1.585.078 2.374.078 9.892-.002 19.377-4.017 28.045-10.014 13.002-9 24.22-22.483 32.334-33.952 8.113-11.474 13.1-20.92 13.596-21.9l-1.484-.812" fill="#2B3F22"/><path d="M38.07 140.062l20.057-.366c.245-.11.424-.336.48-.608l8.128-37.774c.047-.225.004-.458-.118-.65l-17.513-8.647c-.1-.05-.218.01-.242.12l-10.792 47.926" fill="#5F8C45"/><path d="M38.07 140.062l.015.91 20.228-.37.16-.07c.505-.225.875-.694.99-1.254l-.002.01 8.13-37.775.002-.01c.025-.126.036-.25.036-.367 0-.345-.096-.682-.28-.973l-.134-.213-17.734-8.755h.003c-.14-.068-.296-.106-.452-.106-.235 0-.458.08-.64.227-.184.146-.328.368-.38.622v-.008l-11.048 49.062 1.124-.02-.016-.91.852.207 10.792-47.923.002-.006-.687-.16.43.58c.123-.098.22-.25.256-.42l-.687-.16.43.58-.43-.58v.73c.16 0 .308-.054.43-.15l-.43-.58v.73-.73l-.302.66c.09.045.197.07.303.07v-.73l-.302.66h.002l17.513 8.648.376-.823-.732.5.042-.03-.05.002.008.03.042-.03h-.05.045l-.044-.01v.01h.045l-.044-.01-8.125 37.763-.003.01.052.01-.02-.05-.032.04.052.01-.02-.05.345.837-.017-.91-20.057.365.015.91.853.208-.852-.207" fill="#2B3F22"/><path d="M42.757 139.872l2.834-14.04" fill="#5F8C45"/><path d="M43.117 139.95l2.835-14.04-.72-.158-2.835 14.04" fill="#2B3F22"/><path d="M46.668 125.43c-.11.55-.57.917-1.032.817-.462-.1-.747-.625-.637-1.176.108-.55.57-.916 1.032-.817.46.1.746.626.636 1.177" fill="#5F8C45"/><path d="M46.668 125.43l-.336-.073c-.068.347-.33.554-.545.55l-.083-.01h.002c-.206-.04-.384-.27-.387-.59l.016-.16v-.004c.068-.347.33-.554.544-.55l.08.01h.004c.205.04.383.27.385.59l-.018.167v-.004l.337.073.337.068.03-.306c.002-.595-.352-1.16-.935-1.29l-.07.35.074-.35-.226-.024c-.6.005-1.09.486-1.217 1.12l.337.07-.336-.075-.032.31c-.003.596.352 1.162.935 1.292h.003l.22.023c.598-.005 1.09-.485 1.217-1.118v-.003l-.337-.07" fill="#2B3F22"/><path d="M148.153 76.573s11.08 86.373-9.512 140.777c-8.936 23.616-21.285 37.928-31.16 47.743-7.88 7.832-9.785 14.43-6.367 19.786 3.476 5.445 13.965 4.305 27.13-8.952 19.255-19.388 41.555-58.807 29.176-200.447l-9.268 1.093" fill="#DBE3CB"/><path d="M147.09 76.72l.126 1.044c.566 4.822 2.84 25.825 2.84 51.947.005 27.74-2.58 61.266-12.413 87.232-8.872 23.43-21.086 37.583-30.905 47.345-2.75 2.735-4.815 5.346-6.21 7.864-1.39 2.516-2.114 4.954-2.114 7.3-.003 2.153.623 4.2 1.805 6.045.728 1.145 1.74 2.053 2.96 2.654 1.216.603 2.633.907 4.193.907 2.787-.004 6.047-.95 9.686-2.953 3.635-2.003 7.653-5.07 11.93-9.374 7.795-7.842 16.11-18.998 22.416-38.566 6.31-19.57 10.652-47.555 10.653-89.214 0-20.87-1.092-45.172-3.573-73.57l-2.135.204c2.477 28.34 3.564 52.578 3.564 73.367 0 41.5-4.33 69.254-10.54 88.505-6.22 19.255-14.275 30.01-21.876 37.673-4.16 4.188-8.03 7.127-11.443 9.006-3.414 1.883-6.37 2.695-8.682 2.693-1.296 0-2.387-.25-3.273-.69-.886-.44-1.575-1.063-2.095-1.874-.972-1.53-1.443-3.1-1.446-4.813 0-1.86.574-3.916 1.83-6.187 1.253-2.268 3.186-4.734 5.832-7.364 9.93-9.868 22.413-24.34 31.417-48.14 10-26.445 12.557-60.16 12.562-88.05 0-30.005-2.982-53.25-2.986-53.283l-2.124.295" fill="#2B3F22"/><path d="M156.396 113.507s3.748 45.33-2.98 91.592c-7.613 52.33-29.478 70.836-41.108 75.79-10.566 4.5-11.85-1.302-11.85-1.302s-1.473 11.526 12.98 7.02c14.45-4.51 32.322-30.5 37.09-49.234 4.77-18.736 10.997-48.847 10.432-82.642-.566-33.795-1.726-48.62-1.726-48.62l-2.837 7.396" fill="#A5B98C"/><path d="M147.09 76.72l.126 1.044c.566 4.822 2.84 25.825 2.84 51.947.005 27.74-2.58 61.266-12.413 87.232-8.872 23.43-21.086 37.583-30.905 47.345-2.75 2.735-4.815 5.346-6.21 7.864-1.39 2.516-2.114 4.954-2.114 7.3-.003 2.153.623 4.2 1.805 6.045.728 1.145 1.74 2.053 2.96 2.654 1.216.603 2.633.907 4.193.907 2.787-.004 6.047-.95 9.686-2.953 3.635-2.003 7.653-5.07 11.93-9.374 7.795-7.842 16.11-18.998 22.416-38.566 6.31-19.57 10.652-47.555 10.653-89.214 0-20.87-1.092-45.172-3.573-73.57l-2.135.204c2.477 28.34 3.564 52.578 3.564 73.367 0 41.5-4.33 69.254-10.54 88.505-6.22 19.255-14.275 30.01-21.876 37.673-4.16 4.188-8.03 7.127-11.443 9.006-3.414 1.883-6.37 2.695-8.682 2.693-1.296 0-2.387-.25-3.273-.69-.886-.44-1.575-1.063-2.095-1.874-.972-1.53-1.443-3.1-1.446-4.813 0-1.86.574-3.916 1.83-6.187 1.253-2.268 3.186-4.734 5.832-7.364 9.93-9.868 22.413-24.34 31.417-48.14 10-26.445 12.557-60.16 12.562-88.05 0-30.005-2.982-53.25-2.986-53.283l-2.124.295M151.213 126.734s.174-.114.485-.288c.935-.523 3.094-1.567 5.276-1.565 1.223.002 2.446.323 3.492 1.235l.23-.283c-1.122-.98-2.44-1.32-3.722-1.32-3.05.004-5.937 1.903-5.95 1.908l.19.314m-1.36 39.18c.195-.37.906-.854 1.876-1.2.97-.353 2.198-.596 3.442-.596 2.207.002 4.43.75 5.505 2.91l.375-.202c-1.18-2.362-3.596-3.15-5.88-3.148-1.297 0-2.565.25-3.582.62-1.016.376-1.784.844-2.1 1.395l.364.22m-7.902 41.021c.317-.242.985-.524 1.852-.73.868-.21 1.942-.35 3.097-.35 1.702-.002 3.58.306 5.268 1.15 1.686.842 3.182 2.21 4.145 4.362l.414-.2c-1.008-2.256-2.595-3.712-4.36-4.592-1.768-.882-3.713-1.196-5.466-1.197-1.19 0-2.295.146-3.2.363-.905.22-1.603.5-2.016.808l.268.385m-15.728 35.96c.298-.13.757-.21 1.325-.21 2.14-.005 5.754 1.092 8.858 3.402 3.11 2.312 5.718 5.803 6.012 10.618l.625-.04c-.306-5.053-3.06-8.725-6.273-11.108-3.222-2.387-6.9-3.52-9.22-3.523-.623 0-1.152.08-1.57.26l.245.603m-21.263 25.99l.29-.022c.677-.003 1.7.315 2.82.936 1.685.93 3.603 2.525 5.09 4.643 1.485 2.118 2.542 4.75 2.542 7.777 0 1.11-.142 2.277-.46 3.493l.578.163c.332-1.268.48-2.49.48-3.657 0-4.244-1.976-7.735-4.324-10.16-1.174-1.212-2.445-2.16-3.623-2.81-1.18-.65-2.26-1.006-3.102-1.01-.133 0-.26.01-.38.03l.092.614" fill="#2B3F22"/><path d="M135.2 89.99s1.07 73.105-29.164 113.98c-13.126 17.74-26.954 26.73-37.628 32.54-8.52 4.635-11.685 9.742-10.046 15.15 1.666 5.5 10.824 7.2 25.098-.69 20.874-11.534 56.294-42.948 61.393-162.854l-9.653 1.874" fill="#DBE3CB"/><path d="M134.253 90.005l.004.916c0 4.268-.233 22.94-3.982 45.272-3.743 22.33-11.025 48.312-24.99 67.178-13.025 17.603-26.702 26.49-37.317 32.27-3.608 1.964-6.32 4.027-8.163 6.236-1.84 2.203-2.81 4.598-2.808 7.07 0 1.003.156 2.01.46 3.01.503 1.672 1.63 3.06 3.208 3.974 1.582.92 3.603 1.397 6.005 1.398 4.458-.005 10.265-1.64 17.23-5.486 10.564-5.83 24.83-16.748 37.01-41.206 12.186-24.458 22.33-62.428 24.885-122.476l-1.888-.087c-2.545 59.858-12.66 97.55-24.677 121.658-12.024 24.112-25.905 34.667-36.216 40.374-6.772 3.745-12.334 5.26-16.344 5.256-2.164 0-3.865-.437-5.08-1.147-1.22-.715-1.966-1.67-2.33-2.85-.25-.827-.372-1.63-.372-2.418.003-1.934.725-3.83 2.345-5.782 1.618-1.944 4.138-3.895 7.61-5.782 10.736-5.838 24.717-14.928 37.94-32.81 14.27-19.305 21.572-45.543 25.353-68.04 3.777-22.5 4.01-41.267 4.01-45.61l-.003-.943-1.89.028" fill="#2B3F22"/><path d="M141.66 87.998c-1.183 22.917-3.727 72.78-20.226 109.343-19.068 42.262-41.627 52.543-52.647 53.785-10.013 1.128-9.737-4.116-9.737-4.116s-3.96 9.393 9.35 9.247c13.306-.146 33.644-18.244 43.004-32.296 9.607-14.42 19.506-34.564 25.543-63.71 7.097-34.268 7.228-72.16 7.228-72.16l-2.515-.091" fill="#A5B98C"/><path d="M134.253 90.005l.004.916c0 4.268-.233 22.94-3.982 45.272-3.743 22.33-11.025 48.312-24.99 67.178-13.025 17.603-26.702 26.49-37.317 32.27-3.608 1.964-6.32 4.027-8.163 6.236-1.84 2.203-2.81 4.598-2.808 7.07 0 1.003.156 2.01.46 3.01.503 1.672 1.63 3.06 3.208 3.974 1.582.92 3.603 1.397 6.005 1.398 4.458-.005 10.265-1.64 17.23-5.486 10.59-5.846 24.934-17.56 37.078-42.418 12.15-24.857 22.126-62.836 24.14-121.297l-1.89-.07c-2.006 58.262-11.95 95.957-23.936 120.475-11.99 24.52-25.995 35.884-36.278 41.573-6.772 3.745-12.334 5.26-16.344 5.256-2.164.002-3.865-.436-5.08-1.146-1.22-.715-1.966-1.67-2.33-2.85-.25-.827-.372-1.63-.372-2.418.003-1.934.725-3.83 2.345-5.782 1.618-1.944 4.138-3.895 7.61-5.782 10.736-5.84 24.717-14.93 37.94-32.812 14.27-19.304 21.572-45.542 25.353-68.04 3.777-22.5 4.01-41.266 4.01-45.608l-.003-.944-1.89.028M132.787 127.84l.36-.158c.693-.285 2.306-.856 3.993-.856 1.367 0 2.768.37 3.81 1.54l.23-.223c-1.12-1.258-2.624-1.644-4.04-1.643-2.338 0-4.475 1.038-4.485 1.042l.133.297m-7.601 35.239c.287-.295 1.163-.532 2.23-.526 1.255 0 2.788.294 4.062.985 1.277.693 2.29 1.766 2.576 3.344l.366-.07c-.31-1.72-1.427-2.893-2.77-3.617-1.346-.727-2.926-1.027-4.234-1.028-1.12.007-2.034.204-2.487.63l.256.284v-.002m-13.896 32.906c.254-.098.702-.163 1.26-.162 1.48-.002 3.75.436 5.736 1.603 1.988 1.17 3.693 3.05 4.132 5.967l.398-.065c-.458-3.063-2.27-5.06-4.333-6.267-2.065-1.21-4.382-1.656-5.933-1.658-.59 0-1.066.063-1.4.187l.138.393m-21.778 26.48l.194-.01c.63-.005 1.64.323 2.762.957 1.688.947 3.647 2.566 5.172 4.68 1.527 2.117 2.622 4.72 2.622 7.66 0 .818-.085 1.663-.27 2.535l.542.124c.192-.912.282-1.8.282-2.66-.002-4.122-2.044-7.586-4.432-10.013-1.195-1.214-2.48-2.174-3.652-2.833-1.176-.658-2.23-1.024-3.026-1.027l-.258.015.065.572m-24.126 16.623c.437.055 1.088.393 1.782.976 2.096 1.75 4.606 5.634 4.6 10.023 0 1.897-.462 3.89-1.622 5.878l.45.287c1.21-2.072 1.7-4.174 1.7-6.164-.002-3.072-1.156-5.87-2.574-7.94-.708-1.035-1.484-1.89-2.223-2.51-.743-.617-1.44-1.008-2.046-1.092l-.066.545" fill="#2B3F22"/><path d="M200.953 89.99s-1.072 73.105 29.164 113.98c13.124 17.742 26.953 26.73 37.628 32.54 8.52 4.634 11.684 9.742 10.046 15.15-1.666 5.5-10.824 7.2-25.097-.69-20.874-11.533-56.294-42.947-61.394-162.853" fill="#DBE3CB"/><path d="M200.008 89.975l-.004.947c0 4.342.233 23.108 4.01 45.607 3.782 22.497 11.085 48.735 25.354 68.04 13.224 17.88 27.203 26.973 37.94 32.81 3.47 1.887 5.99 3.84 7.61 5.784 1.618 1.95 2.34 3.848 2.344 5.78 0 .79-.123 1.592-.373 2.42-.363 1.18-1.11 2.133-2.33 2.85-1.216.708-2.917 1.147-5.08 1.145-4.01.004-9.572-1.51-16.343-5.256-10.31-5.707-24.193-16.263-36.217-40.373-12.017-24.108-22.132-61.798-24.676-121.657l-1.89.087c2.555 60.048 12.7 98.018 24.887 122.476 12.18 24.458 26.446 35.376 37.01 41.206 6.964 3.845 12.77 5.48 17.23 5.486 2.402 0 4.423-.478 6.004-1.398 1.58-.913 2.706-2.3 3.208-3.974.303-1 .46-2.008.46-3.01.004-2.472-.965-4.866-2.807-7.07-1.844-2.21-4.554-4.272-8.163-6.237-10.615-5.78-24.292-14.666-37.317-32.27-13.965-18.865-21.246-44.847-24.99-67.18-3.75-22.33-3.983-41.002-3.982-45.268l.002-.687.003-.228-1.89-.03v-.002" fill="#2B3F22"/><path d="M194.49 87.997c1.184 22.918 3.728 72.78 20.226 109.344 19.07 42.263 41.628 52.543 52.648 53.785 10.013 1.128 9.737-4.117 9.737-4.117s3.96 9.395-9.348 9.25c-13.308-.147-33.646-18.245-43.006-32.297-9.606-14.42-19.506-34.563-25.542-63.71-7.098-34.268-7.23-72.16-7.23-72.16l2.516-.093" fill="#A5B98C"/><path d="M200.008 89.975l-.004.947c0 4.342.233 23.108 4.01 45.607 3.782 22.497 11.085 48.735 25.354 68.04 13.224 17.88 27.203 26.973 37.94 32.81 3.47 1.887 5.99 3.84 7.61 5.784 1.618 1.95 2.34 3.848 2.344 5.78 0 .79-.123 1.592-.373 2.42-.363 1.18-1.11 2.133-2.33 2.85-1.216.708-2.917 1.147-5.08 1.145-4.01.004-9.572-1.51-16.343-5.256-10.284-5.69-24.288-17.053-36.28-41.573-11.985-24.517-21.93-62.212-23.936-120.474l-1.888.07c2.014 58.46 11.99 96.44 24.14 121.297 12.144 24.856 26.488 36.57 37.078 42.418 6.965 3.846 12.772 5.482 17.23 5.487 2.403 0 4.424-.478 6.005-1.398 1.58-.914 2.706-2.302 3.208-3.975.303-1 .46-2.008.46-3.01.004-2.472-.965-4.866-2.807-7.07-1.844-2.21-4.554-4.272-8.163-6.237-10.615-5.778-24.292-14.665-37.317-32.27-13.965-18.864-21.246-44.846-24.99-67.178-3.75-22.33-3.983-41.003-3.982-45.27l.002-.686.003-.228-1.892-.03v-.002M203.497 127.542c-.01-.004-2.147-1.04-4.485-1.042-1.417 0-2.922.385-4.04 1.643l.23.222c1.04-1.17 2.444-1.538 3.81-1.54 1.124 0 2.216.254 3.025.508.404.127.737.254.97.35l.358.156.133-.297m7.722 35.253c-.453-.427-1.367-.624-2.487-.63-1.31 0-2.89.3-4.234 1.027-1.344.725-2.46 1.896-2.77 3.617l.365.07c.286-1.578 1.298-2.65 2.576-3.343 1.275-.69 2.808-.985 4.063-.985 1.068-.006 1.944.23 2.232.526l.255-.282m13.78 32.795c-.334-.125-.81-.187-1.4-.188-1.55.002-3.867.447-5.932 1.658-2.063 1.208-3.875 3.204-4.332 6.267l.398.065c.438-2.918 2.143-4.796 4.132-5.967 1.986-1.168 4.255-1.605 5.735-1.603.56-.002 1.008.064 1.263.162l.137-.394m21.705 26.3l-.258-.015c-.795.003-1.85.37-3.026 1.027-1.76.99-3.77 2.652-5.35 4.843-1.582 2.19-2.733 4.913-2.733 8.003 0 .86.088 1.748.283 2.66l.54-.124c-.185-.87-.27-1.717-.27-2.536-.002-3.915 1.95-7.244 4.266-9.6 1.156-1.178 2.402-2.108 3.527-2.74 1.122-.634 2.134-.96 2.763-.958l.193.01.065-.57m23.994 16.65c-.606.085-1.303.476-2.046 1.094-2.21 1.856-4.79 5.838-4.797 10.45 0 1.99.487 4.09 1.698 6.162l.45-.284c-1.16-1.988-1.62-3.982-1.622-5.88 0-2.925 1.108-5.624 2.475-7.62.683-.997 1.43-1.818 2.126-2.4.693-.583 1.345-.92 1.783-.976l-.068-.544" fill="#2B3F22"/><path d="M183.122 82.78s-6.037 86.91 17.68 139.918c10.294 23.01 23.453 36.52 33.88 45.696 8.32 7.322 10.606 13.788 7.506 19.347-3.154 5.656-13.69 5.18-27.602-7.225-20.346-18.14-44.9-56.086-40.777-198.244l9.312.51" fill="#DBE3CB"/><path d="M182.053 82.7c0 .02-.69 9.935-.69 25.114 0 14.907.663 34.89 3.3 55.572 2.637 20.68 7.24 42.06 15.166 59.784 10.37 23.19 23.672 36.85 34.158 46.076 2.925 2.573 5.058 5.016 6.44 7.287 1.382 2.275 2.01 4.357 2.01 6.274 0 1.515-.386 2.95-1.178 4.377-.51.913-1.234 1.62-2.203 2.124-.97.503-2.194.794-3.677.794-2.32.003-5.255-.725-8.653-2.403-3.398-1.676-7.257-4.295-11.445-8.03-9.286-8.292-19.437-20.678-27.352-45.723-7.906-25.04-13.508-62.724-13.507-121.374 0-9.525.147-19.6.457-30.266l-2.142-.068c-.312 10.685-.46 20.784-.46 30.332.002 58.796 5.608 96.694 13.615 122.07 7.997 25.37 18.464 38.234 27.995 46.72 4.306 3.838 8.31 6.57 11.92 8.35 3.61 1.78 6.827 2.617 9.572 2.62 1.75 0 3.313-.345 4.633-1.03 1.318-.68 2.385-1.71 3.1-3 .963-1.722 1.47-3.576 1.47-5.496 0-2.435-.804-4.935-2.345-7.465-1.543-2.533-3.824-5.12-6.866-7.797-10.368-9.127-23.382-22.484-33.6-45.313-7.79-17.403-12.37-38.594-14.986-59.137-2.62-20.544-3.28-40.44-3.28-55.278 0-7.555.17-13.8.34-18.15.087-2.177.173-3.88.236-5.038l.078-1.32.03-.445-2.138-.16" fill="#2B3F22"/><path d="M177.07 116.565s-1.134 49.08 8.272 94.834c10.64 51.755 33.542 68.852 45.44 73.064 10.807 3.827 11.75-2.044 11.75-2.044s2.142 11.412-12.545 7.822c-14.687-3.59-34.037-28.408-39.886-46.81-5.848-18.4-13.815-48.065-15.215-81.834-1.4-33.77-1.104-48.64-1.104-48.64l3.29 3.606" fill="#A5B98C"/><path d="M182.053 82.7c0 .02-.69 9.935-.69 25.114 0 14.907.663 34.89 3.3 55.572 2.637 20.68 7.24 42.06 15.166 59.784 10.37 23.19 23.672 36.85 34.158 46.076 2.925 2.573 5.058 5.016 6.44 7.287 1.382 2.275 2.01 4.357 2.01 6.274 0 1.515-.386 2.95-1.178 4.377-.51.913-1.234 1.62-2.203 2.124-.97.503-2.194.794-3.677.794-2.32.003-5.255-.725-8.653-2.403-3.398-1.676-7.257-4.295-11.445-8.03-9.286-8.292-19.437-20.678-27.352-45.723-7.906-25.04-13.508-62.724-13.507-121.374 0-9.525.147-19.6.457-30.266l-2.142-.068c-.312 10.685-.46 20.784-.46 30.332.002 58.796 5.608 96.694 13.615 122.07 7.997 25.37 18.464 38.234 27.995 46.72 4.306 3.838 8.31 6.57 11.92 8.35 3.61 1.78 6.827 2.617 9.572 2.62 1.75 0 3.313-.345 4.633-1.03 1.318-.68 2.385-1.71 3.1-3 .963-1.722 1.47-3.576 1.47-5.496 0-2.435-.804-4.935-2.345-7.465-1.543-2.533-3.824-5.12-6.866-7.797-10.368-9.127-23.382-22.484-33.6-45.313-7.79-17.403-12.37-38.594-14.986-59.137-2.62-20.544-3.28-40.44-3.28-55.278 0-7.555.17-13.8.34-18.15.087-2.177.173-3.88.236-5.038l.078-1.32.03-.445-2.138-.16M183.155 132.715c-.012-.005-2.702-1.543-5.573-1.546-1.432-.003-2.92.387-4.115 1.565l.245.27c1.113-1.098 2.496-1.466 3.87-1.466 1.375 0 2.73.373 3.738.75.504.188.922.377 1.212.518l.45.232.173-.324m3.815 39.108c-.318-.488-1.01-.876-1.922-1.18-.91-.3-2.04-.495-3.216-.495-1.242 0-2.535.216-3.667.765-1.132.55-2.105 1.44-2.67 2.767l.385.177c.522-1.222 1.403-2.032 2.463-2.547 1.06-.514 2.294-.724 3.49-.724 1.13 0 2.222.188 3.088.473.866.28 1.502.68 1.7 1.004l.35-.243m10.166 40.291c-.374-.245-.96-.454-1.71-.612-.748-.157-1.655-.257-2.645-.257-1.827.002-3.937.342-5.842 1.315-1.903.97-3.6 2.588-4.55 5.11l.425.174c.91-2.406 2.505-3.926 4.327-4.86 1.82-.93 3.868-1.264 5.64-1.264.96 0 1.84.097 2.555.247.714.148 1.267.356 1.554.547l.246-.4m17.75 34.69c-.334-.12-.732-.174-1.187-.175-2.23.007-5.924 1.3-9.124 3.887-3.19 2.583-5.874 6.495-5.885 11.705l.628.002c.013-4.965 2.555-8.687 5.644-11.194 3.08-2.504 6.723-3.755 8.74-3.748.405 0 .74.05.98.138l.206-.614m22.578 24.601l-.214-.01c-.8.004-1.817.374-2.928 1.035-1.662.995-3.522 2.663-4.978 4.853-1.454 2.19-2.502 4.905-2.502 7.976 0 1.403.22 2.88.716 4.408l.568-.2c-.477-1.466-.685-2.872-.685-4.208-.002-3.893 1.773-7.21 3.907-9.56 1.066-1.172 2.22-2.1 3.274-2.73 1.05-.632 2.01-.957 2.63-.953l.16.008.055-.62h-.002" fill="#2B3F22"/><path d="M240.242 114.177l-141.497 10.043c-3.002.213-5.602-2.146-5.807-5.27l-6.648-101.34c-.204-3.125 2.064-5.83 5.066-6.042l141.497-10.043c3.002-.213 5.602 2.147 5.808 5.27l6.647 101.34c.205 3.125-2.064 5.83-5.065 6.042" fill="#405533"/><path d="M240.242 114.177l-.064-.975-141.496 10.043-.313.012c-2.35 0-4.334-1.896-4.495-4.372l-6.644-101.34-.012-.327c0-2.443 1.823-4.508 4.203-4.674l141.497-10.044.313-.01c2.347 0 4.332 1.895 4.494 4.372l6.646 101.34.01.325c.002 2.442-1.822 4.508-4.202 4.675l.065.975.064.975c3.37-.242 5.953-3.158 5.953-6.625l-.015-.457-6.647-101.34c-.232-3.51-3.035-6.193-6.367-6.193l-.44.016-141.499 10.043c-3.372.24-5.953 3.156-5.954 6.623l.016.46 6.646 101.338c.232 3.507 3.034 6.192 6.368 6.193l.44-.015 141.498-10.043-.064-.975" fill="#2B3F22"/><path d="M101.218 12.7l129.602-9.163 7.15 108.97-129.6 9.2-7.154-109.007" fill="#A5B98C"/><path d="M229.19 5.483l6.908 105.327-126.1 8.95-6.91-105.363 126.1-8.914m3.265-3.89l-133.106 9.41 7.39 112.65 133.103-9.448-7.386-112.613" fill="#202C1C"/><path d="M100.44 68.49c.11 1.677-1.11 3.13-2.72 3.244-1.612.114-3.008-1.152-3.12-2.83-.11-1.676 1.11-3.13 2.72-3.243 1.613-.113 3.01 1.153 3.12 2.83" fill="#5B6B4A"/><path d="M100.44 68.49l-.815.057.004.153c0 1.14-.853 2.108-1.966 2.187l-.147.005c-1.097 0-2.027-.887-2.1-2.044l-.006-.152c0-1.14.854-2.108 1.967-2.186l.147-.005c1.096 0 2.026.887 2.1 2.045l.816-.058.815-.058c-.137-2.055-1.778-3.628-3.73-3.628l-.26.01c-1.975.14-3.486 1.848-3.487 3.88l.01.27c.135 2.052 1.777 3.626 3.73 3.626l.256-.008c1.977-.142 3.49-1.85 3.49-3.882l-.01-.266-.814.057" fill="#2B3F22"/><path d="M177.844 9.113l-28.304 2-44.495 33.087 1.606 24.492 71.194-59.58" fill="#B0C298"/><path d="M105.044 44.2l-1.56 1.16 1.615 24.63 1.55-1.298-1.605-24.493m75.02-36.946l-27.995 1.98-2.53 1.88 28.304-2 2.222-1.86" fill="#3B4632"/><path d="M230.708 3.674l7.13 108.715-129.355 9.18-7.134-108.75 129.358-9.146m1.746-2.082l-133.106 9.41 7.39 112.65 133.103-9.447-7.385-112.613" fill="#2B3F22"/><path d="M187.777 51.523c-.908-9.908-9.507-17.126-19.07-15.872-8.607 1.13-15.103 8.987-14.862 18.01.134 5.044 2.25 9.475 5.51 12.582 3.71 3.534 6.145 8.28 6.623 13.49l.193 2.11 13.163-1.305-.065-.71c-.51-5.576 1.273-11.05 4.698-15.372 2.767-3.49 4.254-8.074 3.81-12.93" fill="#DBE3CB"/><path d="M187.777 51.523l.664-.066c-.872-9.515-8.566-16.642-17.573-16.642-.74 0-1.49.047-2.244.148-8.79 1.156-15.448 9.037-15.452 18.208l.01.51v-.003c.14 5.236 2.338 9.85 5.726 13.075 3.6 3.43 5.948 8.02 6.41 13.044l.193 2.11c.015.184.103.354.238.47.136.116.313.173.488.155l13.162-1.304c.177-.017.338-.106.45-.248.114-.143.167-.324.15-.51l-.065-.708c-.056-.61-.083-1.216-.083-1.822 0-4.74 1.686-9.328 4.633-13.043 2.537-3.2 4.04-7.288 4.04-11.675 0-.583-.027-1.17-.082-1.764l-.663.066-.664.065c.05.55.075 1.094.075 1.633 0 4.055-1.39 7.83-3.735 10.792-3.13 3.945-4.938 8.84-4.938 13.926 0 .648.03 1.3.09 1.953v.02l-11.833 1.173-.13-1.42c-.494-5.393-3.016-10.295-6.836-13.935-3.134-2.987-5.165-7.24-5.295-12.09v-.005l-.005-.465c-.004-8.46 6.17-15.772 14.286-16.832.7-.092 1.392-.136 2.077-.136 8.323 0 15.442 6.59 16.247 15.385l.664-.065" fill="#405533"/><path d="M180.306 86.41l-14.284 1.416-.315-3.434 14.285-1.417.314 3.435" fill="#5F8C45"/><path d="M180.306 86.41l-.063-.69-13.62 1.35-.19-2.054 12.958-1.285.252 2.745.664-.066-.063-.69.063.69.664-.067-.314-3.435c-.035-.38-.36-.66-.728-.625l-14.286 1.417c-.367.036-.635.374-.6.756l.314 3.434c.017.183.104.352.24.47.135.115.313.172.488.154l14.285-1.416c.177-.016.338-.105.45-.248.114-.143.167-.324.15-.508l-.664.066m-10.806-4.896l-.463-1.972c-.276-1.258-.705-3.05-1.16-5.212-.45-2.163-1.01-4.678-1.546-7.387l-.407-2.06-.1-.555c-.025-.22-.005-.51.073-.72.154-.452.488-.838.93-1.015.22-.09.465-.128.705-.105.25.022.473.13.608.176.307.116.632.212.957.28.662.14 1.305.18 1.987.115.663-.054 1.318-.213 1.938-.466.31-.127.613-.275.902-.446l.134-.077.118-.06c.07-.04.23-.098.335-.123.223-.058.457-.06.683-.024.45.08.867.348 1.123.744.132.194.22.422.258.652.047.24.026.467.022.625l-.078 2.106c-.1 2.763-.262 5.34-.367 7.55-.106 2.21-.25 4.05-.325 5.34l-.147 2.023-.023-2.03c.004-1.292-.026-3.137.003-5.35.032-2.213.028-4.796.098-7.56l.05-2.106c.005-.195.014-.328-.015-.44-.02-.122-.066-.237-.136-.333-.132-.202-.357-.34-.593-.38-.117-.014-.24-.015-.355.02l-.16.057-.117.063-.094.058c-.32.193-.655.363-1 .51-.692.292-1.43.485-2.18.553-.73.062-1.518.006-2.236-.16-.366-.084-.72-.195-1.073-.332-.194-.075-.293-.123-.398-.133-.11-.01-.22.005-.326.045-.213.077-.39.277-.468.498-.04.13-.05.207-.042.34l.084.5.38 2.068c.5 2.716.905 5.264 1.284 7.44.375 2.18.636 4.006.843 5.278l.298 2.006" fill="#405533"/><path d="M149.51 45.976s-.564.086-1.366.037c-.803-.04-1.848-.195-2.86-.477-1.017-.273-2-.672-2.718-1.05-.72-.368-1.17-.732-1.17-.732s.564-.087 1.365-.038c.805.04 1.85.196 2.862.478 1.016.275 2 .675 2.716 1.052.72.368 1.17.73 1.17.73m.179 11.21s-.474.33-1.217.645c-.74.325-1.748.653-2.78.854-1.03.21-2.08.29-2.886.27-.802-.007-1.36-.135-1.36-.135s.474-.332 1.218-.647c.74-.325 1.748-.652 2.78-.85 1.03-.21 2.082-.29 2.886-.27.802.008 1.36.134 1.36.134m1.891 10.226s-.3.504-.85 1.11c-.545.616-1.332 1.35-2.19 1.977-.852.635-1.778 1.163-2.517 1.493-.734.338-1.29.463-1.29.463s.297-.506.848-1.113c.545-.616 1.332-1.35 2.19-1.975.855-.633 1.78-1.16 2.52-1.49.733-.34 1.29-.465 1.29-.465m39.163-26.383s.43-.39 1.13-.798c.697-.42 1.658-.874 2.657-1.207.997-.34 2.032-.558 2.833-.643.797-.095 1.365-.04 1.365-.04s-.43.39-1.13.8c-.696.417-1.657.872-2.656 1.203-.997.34-2.032.556-2.832.64-.797.097-1.365.044-1.365.044m.417 11.203s.55-.158 1.35-.213c.802-.066 1.858-.047 2.897.1 1.04.14 2.064.408 2.82.69.76.273 1.25.577 1.25.577s-.55.158-1.35.214c-.802.066-1.858.046-2.896-.104-1.04-.14-2.064-.41-2.82-.69-.76-.273-1.25-.574-1.25-.574m-1.344 10.318s.562.094 1.312.39c.756.287 1.708.76 2.595 1.343.892.576 1.715 1.262 2.292 1.845.58.574.906 1.063.906 1.063s-.563-.09-1.314-.386c-.756-.287-1.708-.76-2.593-1.346-.892-.577-1.715-1.264-2.293-1.846-.582-.575-.907-1.06-.907-1.06" fill="#DBE3CB"/><path d="M176.2 39.356c.212 1.455-2.575 3.104-6.227 3.682-3.65.578-6.785-.133-6.997-1.59-.213-1.454 2.574-3.102 6.226-3.68 3.65-.578 6.784.132 6.997 1.588" fill="#EAEEDD"/><path d="M196.925 67.192s-.563-.092-1.314-.387c-.755-.287-1.707-.76-2.592-1.346-.89-.578-1.714-1.265-2.292-1.847-.582-.575-.907-1.06-.907-1.06s.56.092 1.31.388c.757.288 1.71.762 2.596 1.344.892.576 1.715 1.262 2.292 1.845.58.573.907 1.062.907 1.062m.28-13.555c-.614 0-1.297-.042-1.972-.14-1.04-.14-2.064-.41-2.82-.69-.76-.273-1.25-.574-1.25-.574s.55-.158 1.35-.213c.282-.023.595-.036.928-.036.615 0 1.296.042 1.97.138 1.04.14 2.064.407 2.82.69.76.272 1.25.576 1.25.576s-.55.158-1.35.214c-.28.023-.592.035-.924.035m32.734-34.855l-41.441 35.359c-.193 4.037-1.658 7.783-4.017 10.757-2.947 3.715-4.633 8.302-4.633 13.043 0 .605.027 1.212.083 1.822l.066.71c.015.183-.038.364-.15.508-.114.142-.275.23-.452.248l-13.162 1.305-.06.004c-.155 0-.307-.057-.428-.16-.135-.115-.223-.286-.24-.468l-.193-2.112c-.156-1.706-.53-3.362-1.098-4.94l-52.41 44.717 21.78-1.487 8.293-.59 34.144-29.965-9.94.985-.06.004c-.155 0-.308-.057-.428-.16-.135-.116-.223-.286-.24-.468l-.314-3.434c-.035-.382.233-.72.6-.757l14.285-1.416.065-.003c.34 0 .63.27.663.627l.047.517 50.682-44.482-.104-1.594-1.34-18.568" fill="#B0C298"/><path d="M141.88 117.498l-8.294.59 8.267-.565.027-.025m89.4-80.148l.104 1.594.01-.008-.114-1.586" fill="#3B4632"/><path d="M167.412 72.13l-2.11 1.8c.7 1.82 1.158 3.744 1.34 5.736l.13 1.42 2.568-.256-.304-1.29c-.276-1.258-.705-3.05-1.16-5.212-.145-.698-.3-1.433-.465-2.198m8.37-7.14l-7.85 6.7c.148.888.29 1.738.43 2.538.375 2.18.636 4.005.843 5.277l.195 1.318 6.273-.622-.014-1.332c.004-1.29-.026-3.136.003-5.35.03-2.212.027-4.795.097-7.56l.024-.97m11.277-9.62l-10.476 8.937-.06 1.68c-.1 2.763-.263 5.34-.368 7.55-.107 2.21-.25 4.05-.326 5.34l-.097 1.32 2.875-.285v-.02c-.06-.652-.09-1.304-.09-1.952 0-5.086 1.807-9.98 4.937-13.926 1.927-2.43 3.206-5.412 3.604-8.645" fill="#DBE4CC"/><path d="M188.5 54.138l-1.443 1.23c-.398 3.234-1.677 6.215-3.604 8.646-3.13 3.945-4.938 8.84-4.938 13.926 0 .648.03 1.3.09 1.953v.02l-2.875.284-.05.703-.01-.697-6.272.622.102.688-.16-.682-2.568.256-.13-1.42c-.183-1.99-.642-3.915-1.34-5.734l-1.086.926c.567 1.578.942 3.233 1.098 4.94l.194 2.11c.016.184.104.354.24.47.12.102.27.16.426.16l.06-.005 13.163-1.305c.177-.017.338-.106.45-.248.114-.143.167-.324.15-.51l-.065-.708c-.056-.61-.083-1.216-.083-1.822 0-4.74 1.685-9.328 4.632-13.043 2.36-2.975 3.824-6.72 4.017-10.758" fill="#5A6B48"/><path d="M179.39 83.732l-12.957 1.285.188 2.053 11.194-1.11 1.647-1.445-.07-.782" fill="#779B5B"/><path d="M179.992 82.282l-.065.003-14.285 1.416c-.367.038-.635.376-.6.758l.314 3.434c.017.183.104.352.24.47.12.1.272.158.427.158l.06-.004 9.94-.985 1.79-1.57-11.192 1.11-.187-2.054 12.957-1.285.07.783 1.242-1.088-.047-.516c-.032-.36-.323-.628-.663-.628m-12.063-10.594l-.518.44c.164.765.32 1.5.466 2.198.454 2.162.882 3.953 1.16 5.212l.303 1.29.16.682-.1-.688-.196-1.318c-.206-1.273-.468-3.1-.843-5.277-.14-.8-.28-1.65-.43-2.54m8.652-7.383l-.8.683-.024.97c-.07 2.765-.066 5.348-.098 7.56-.03 2.213 0 4.058-.003 5.35l.015 1.333.008.697.05-.703.098-1.32c.075-1.29.22-3.13.326-5.34.104-2.21.267-4.787.367-7.55l.063-1.68" fill="#5A6B48"/><path d="M193.44 51.984c-.332 0-.645.013-.926.036-.8.055-1.35.213-1.35.213s.49.3 1.25.573c.756.282 1.78.55 2.82.69.674.1 1.357.14 1.97.14.333 0 .644-.01.925-.034.8-.056 1.35-.214 1.35-.214s-.49-.304-1.25-.576c-.757-.283-1.78-.55-2.82-.69-.675-.096-1.356-.138-1.97-.138m-3.619 10.566s.325.487.907 1.062c.578.583 1.4 1.27 2.292 1.846.884.584 1.836 1.06 2.592 1.346.75.295 1.314.387 1.314.387s-.326-.487-.907-1.062c-.578-.583-1.4-1.27-2.293-1.845-.886-.583-1.84-1.056-2.595-1.343-.75-.296-1.312-.39-1.312-.39" fill="#DBE4CC"/><path d="M101.132 59.014c-3.963-.114-8.747-.455-13.59-1.218-4.644-.732-8.84-1.715-12.537-2.772 1.26-8.773 5.014-29.526 6.27-38.3 3.783.796 8.606 1.622 13.374 2.347 4.388.668 8.557 1.122 12.468 1.418l-5.986 38.526" fill="#DBE3CB"/><path d="M101.132 59.014l.03-1.115c-3.928-.113-8.674-.452-13.46-1.206-4.597-.725-8.753-1.698-12.413-2.746l-.285 1.076 1.06.164c.625-4.358 1.878-11.74 3.13-19.12 1.254-7.383 2.508-14.763 3.14-19.178l-1.06-.164-.21 1.092c3.813.803 8.648 1.63 13.43 2.357 4.416.672 8.61 1.13 12.545 1.426l.078-1.11-1.06-.166c-1.254 8.75-4.724 29.73-5.986 38.527l1.06.165.03-1.115-.03 1.115 1.06.164c1.254-8.75 4.724-29.73 5.986-38.527l.17-1.19-1.153-.087c-3.887-.294-8.03-.745-12.392-1.408-4.755-.723-9.564-1.547-13.315-2.336l-1.106-.233-.167 1.16c-.624 4.357-1.877 11.74-3.13 19.12-1.254 7.383-2.508 14.763-3.14 19.177l-.14.978.915.262c3.732 1.068 7.97 2.06 12.66 2.8 4.9.77 9.723 1.114 13.72 1.23l.95.027.14-.978-1.058-.164M83.09 36.273l.077-.264c.057-.17.142-.426.306-.724.16-.3.384-.663.762-1.003.362-.34.95-.664 1.656-.625.346.016.7.106 1.02.26.15.073.335.18.45.254.162.108.313.22.448.334.564.454 1.005 1.063 1.41 1.515.202.227.407.378.51.403.087.03.16.034.378-.06.204-.092.45-.265.69-.47.262-.223.614-.497 1.01-.72.208-.11.437-.22.738-.285.29-.07.7-.052 1.003.082.616.3.715.454.81.467.09.042.323.02.584-.08.266-.083.49-.25.968-.42.406-.14.95-.217 1.454.004.5.22.776.603.973.903.365.625.556 1.17.837 1.458.248.293.59.345 1.02.24.328-.077.64-.278.8-.522.175-.238.25-.488.29-.655l.04-.266.04.272c.01.177.027.457-.1.798-.126.342-.403.722-.9.967-.183.086-.48.207-.79.213-.316.014-.698-.092-.974-.314-.568-.434-.87-1.038-1.232-1.447-.17-.208-.342-.342-.46-.357-.112-.026-.27.005-.49.11-.157.073-.505.32-.887.5-.377.173-.85.362-1.468.27-.625-.103-1.064-.51-1.112-.488l-.055.01-.263.12c-.237.142-.453.33-.755.57-.323.256-.674.505-1.126.696-.43.194-1.11.288-1.668.022-.544-.257-.832-.638-1.07-.94-.46-.622-.768-1.138-1.125-1.55l-.26-.273-.298-.24c-.19-.133-.378-.24-.57-.292-.773-.226-1.565.36-2 .777-.452.436-.673.75-.673.75m-.638 4.084l.16.107c.108.067.254.156.438.228.19.068.37.078.52-.028.17-.07.385-.305.813-.51.214-.102.496-.195.816-.2.32-.014.642.095.913.227.548.275.935.67 1.272 1.086l.24.32.2.277.125.15.086.067c.037.044.354.044.76-.118.397-.154.837-.35 1.263-.562.43-.197.833-.463 1.345-.65.3-.11.588-.175.936-.164.34.007.7.135.953.333.496.415.662.863.834 1.212.296.727.53 1.21.886 1.39.35.19.642.136.634.15l-.17.075c-.113.036-.292.106-.542.082-.248-.02-.555-.152-.824-.378-.264-.23-.51-.524-.746-.816-.226-.29-.49-.586-.71-.66-.183-.078-.373-.03-.672.143l-1.18.738c-.433.258-.873.534-1.398.755-.27.107-.545.217-.9.27-.343.06-.793.04-1.2-.154-.2-.1-.37-.22-.515-.353-.138-.128-.312-.332-.358-.403l-.222-.318-.183-.26c-.24-.334-.48-.63-.676-.79-.204-.14-.29-.22-.58-.194-.274.03-.657.167-1.093.17-.46-.02-.788-.292-.922-.506-.29-.44-.282-.722-.303-.717m13.086-15.028c-.316.838-1.224 1.25-2.03.923-.805-.327-1.202-1.272-.886-2.11.315-.837 1.224-1.25 2.028-.923.806.33 1.203 1.273.888 2.11" fill="#2B3F22"/><path d="M253.638 51.435s9.24 1.94 11.474 14.052c2.557 13.867-5.86 34.604-64.1 36.87-6.2.672-4.477-11.178 7.232-6.558 11.208 4.422 35.785-1.147 46.72-10.28 9.81-8.194 11.117-25.398-1.036-31.014" fill="#7A9C5E"/><path d="M253.466 52.318l.02-.1-.02.1.02-.1-.02.1c.058.01 2.257.51 4.67 2.414 2.412 1.91 5.06 5.182 6.125 10.925.244 1.322.384 2.707.384 4.132 0 3.234-.717 6.66-2.584 10.045-2.8 5.07-8.225 10.085-17.9 14.04-9.67 3.954-23.57 6.82-43.18 7.583h-.023l-.033.004-.408.023c-.802-.005-1.298-.265-1.636-.624-.334-.36-.524-.874-.526-1.475 0-.803.354-1.732 1.137-2.464.784-.73 2.003-1.29 3.793-1.292 1.267 0 2.815.288 4.655 1.014 2.836 1.116 6.38 1.602 10.304 1.604 6.216 0 13.384-1.237 20.075-3.348 6.69-2.116 12.896-5.096 17.19-8.677 5.15-4.31 8.035-10.942 8.042-17.287 0-3.134-.712-6.206-2.236-8.872-1.52-2.666-3.86-4.914-7.034-6.378l-.702 1.646c2.863 1.326 4.9 3.3 6.248 5.653 1.345 2.355 1.992 5.1 1.992 7.954.005 5.777-2.674 11.95-7.395 15.883-4.02 3.363-10.07 6.295-16.608 8.357-6.54 2.066-13.576 3.272-19.572 3.27-3.783.003-7.15-.48-9.69-1.486-2-.79-3.752-1.13-5.27-1.13-2.14-.004-3.82.693-4.95 1.754-1.13 1.06-1.71 2.46-1.71 3.804 0 1 .327 1.988 1.01 2.725.677.742 1.696 1.182 2.883 1.178.19 0 .385-.01.586-.033l-.09-.896.032.9c26.318-1.03 42.577-5.8 52.35-12.126 4.883-3.164 8.14-6.73 10.167-10.4 2.03-3.67 2.817-7.432 2.816-10.944 0-1.547-.152-3.045-.414-4.47-1.15-6.278-4.173-10.02-6.91-12.122-2.735-2.11-5.162-2.626-5.243-2.644l-.343 1.766" fill="#2B3F22"/><path d="M250.042 63.74l1.517-.065c.54-.023 2.38-4.044 1.862-11.363-.424-6.11-1.916-12.568-2.966-12.544l-1.538.034" fill="#405533"/><path d="M250.078 64.64l1.516-.065c.255-.014.42-.107.542-.187.222-.158.34-.317.47-.5.215-.32.412-.725.612-1.25.59-1.565 1.16-4.188 1.16-7.81 0-.812-.03-1.673-.092-2.58-.216-3.103-.7-6.274-1.27-8.708-.286-1.22-.59-2.25-.918-3.03-.166-.392-.333-.72-.55-1.01-.11-.143-.232-.28-.404-.403-.168-.12-.406-.23-.688-.23l-1.557.036.037 1.8 1.538-.033-.018-.9v.9-.516l-.284.434c.03.023.133.082.284.082v-.516l-.284.434.118-.18-.133.168.016.012.118-.18-.133.168.015-.018-.016.017.016-.017-.016.017c.015.01.117.144.222.362.19.383.42 1.013.64 1.793.667 2.35 1.295 6.077 1.54 9.65.062.865.09 1.683.09 2.45 0 2.778-.36 4.905-.763 6.303-.2.698-.413 1.217-.576 1.52l-.17.267.01.01-.01-.01.01.01-.01-.01.29.337-.202-.4-.088.062.29.337-.202-.4.323.64-.026-.72c-.147.007-.24.05-.296.08l.323.638-.026-.718-1.517.064.07 1.8" fill="#2B3F22"/><path d="M240.268 35.814l6.657-.148c1.388-.03 3.358 8.5 3.92 16.573.684 9.668-1.75 14.98-2.462 15.01l-6.383.371" fill="#7A9C5E"/><path d="M240.286 36.714l6.657-.148-.018-.9v.9-.393l-.22.335c.01.007.09.058.22.058v-.394l-.22.335c.026.016.17.185.313.47.263.5.572 1.33.872 2.368.904 3.125 1.757 8.142 2.09 12.956.082 1.153.118 2.24.118 3.26 0 3.697-.48 6.532-1.02 8.41-.27.938-.556 1.64-.785 2.065-.112.212-.214.356-.26.407l-.02.02.198.23-.136-.27-.06.04.196.23-.137-.27.298.587-.025-.66c-.14.005-.225.046-.27.07l.297.59-.026-.66c-2.436.102-3.995.264-6.38.365l.07 1.8 6.382-.366c.265-.017.44-.114.573-.202.245-.173.39-.362.547-.586.265-.393.52-.912.777-1.59.764-2.025 1.513-5.46 1.515-10.212 0-1.066-.04-2.196-.123-3.39-.284-4.082-.92-8.26-1.67-11.456-.376-1.6-.776-2.95-1.198-3.956-.214-.504-.428-.922-.69-1.27-.132-.174-.278-.334-.47-.472-.19-.136-.45-.253-.755-.253h-.01l-6.665.148.037 1.802" fill="#2B3F22"/><path d="M239.576 20.758l3.623 55.245" fill="#7A9C5E"/><path d="M238.712 20.82l3.624 55.244 1.727-.122-3.624-55.246" fill="#2B3F22"/></g></svg>