<svg width="30" height="25" viewBox="0 0 30 25" xmlns="http://www.w3.org/2000/svg"><title>Twitter_Icon</title><path d="M29.5 3.087c-1.067.488-2.215.82-3.42.967 1.23-.76 2.173-1.965 2.62-3.4-1.153.705-2.428 1.217-3.78 1.493-1.087-1.194-2.635-1.942-4.347-1.942-3.286 0-5.95 2.75-5.95 6.145 0 .482.05.952.152 1.4-4.947-.257-9.33-2.702-12.268-6.42-.51.907-.806 1.96-.806 3.09 0 2.13 1.404 4.01 3 5.112-.976-.032-2.342-.308-2.342-.767 0 .027 1.7 5.536 4.422 6.104-.5.137-1.203.213-1.746.213-.383 0-.844-.04-1.207-.11.756 2.44 2.908 4.217 5.514 4.267-2.036 1.65-4.626 2.63-7.412 2.63-.482 0-.968-.028-1.433-.086 2.635 1.744 5.758 2.76 9.118 2.76 10.947 0 16.93-9.362 16.93-17.482 0-.266-.006-.53-.017-.795 1.163-.865 2.17-1.95 2.97-3.18l192.44-33.056" fill="#75BBF1"/></svg>