<svg xmlns="http://www.w3.org/2000/svg" viewBox="0 0 175.5 108.3" enable-background="new 0 0 175.5 108.3"><style type="text/css">.st0{display:none;} .st1{display:inline;fill:none;stroke:#333433;stroke-width:0.75;stroke-linecap:round;stroke-linejoin:round;stroke-miterlimit:10;} .st2{display:inline;} .st3{fill:none;stroke:#020202;stroke-width:0.5;stroke-linecap:round;stroke-linejoin:round;stroke-miterlimit:10;} .st4{fill:none;stroke:#020202;stroke-width:0.1;stroke-miterlimit:10;} .st5{fill:none;stroke:#020202;stroke-width:0.1;stroke-linecap:round;stroke-linejoin:round;stroke-miterlimit:10;} .st6{display:inline;fill:none;stroke:#333433;stroke-linecap:round;stroke-linejoin:round;stroke-miterlimit:10;} .st7{fill:none;stroke:#333433;stroke-linecap:round;stroke-linejoin:round;stroke-miterlimit:10;} .st8{fill:none;stroke:#333433;stroke-width:0.5;stroke-linecap:round;stroke-linejoin:round;stroke-miterlimit:10;} .st9{fill:#C0503E;} .st10{fill:none;stroke:#333433;stroke-width:0.75;stroke-linecap:round;stroke-linejoin:round;stroke-miterlimit:10;} .st11{fill:#FFFFFF;stroke:#333433;stroke-width:0.75;stroke-linecap:round;stroke-linejoin:round;stroke-miterlimit:10;} .st12{fill:#333433;} .st13{fill:#C0503E;stroke:#333433;stroke-width:0.75;stroke-linecap:round;stroke-linejoin:round;stroke-miterlimit:10;} .st14{fill:#FFFFFF;} .st15{fill:none;stroke:#333433;stroke-width:0.25;stroke-linecap:round;stroke-linejoin:round;stroke-miterlimit:10;} .st16{fill:#C0503E;stroke:#333433;stroke-width:0.25;stroke-linecap:round;stroke-linejoin:round;stroke-miterlimit:10;}</style><g id="Layer_1" class="st0"><path class="st1" d="M105.1 4.9h42.7v27.6h-42.7z"/><g class="st2"><path class="st3" d="M131.2 7.8c-11.9 0-21.5 9.6-21.5 21.5"/><path class="st4" d="M131.2 21.1h13.5v8.2h-13.5z"/><path class="st3" d="M144.7 21.1c0-7.4-6-13.4-13.4-13.4m5.2 21.7c4.5 0 8.2-3.7 8.2-8.2m-13.5 2.9c0 2.9 2.3 5.2 5.2 5.2m-2.2-8.2c-1.6 0-3 1.3-3 3"/><path class="st5" d="M109.7 7.8h21.5v21.6h-21.5zm21.5 0h13.5v13.4h-13.5zm0 16.3h5.3v5.2h-5.3zm0-3h3v3h-3zm3 0h2.3v2.3h-2.3z"/><path class="st3" d="M136.5 23.4c0-1.3-1-2.3-2.3-2.3"/></g><path class="st6" d="M28 64.1v37.9c0 .7.6 1.3 1.3 1.3s1.3-.6 1.3-1.3v-37.9m37.9 0v37.9c0 .7.6 1.3 1.3 1.3s1.3-.6 1.3-1.3v-37.9m57.6 0v37.9c0 .7.6 1.3 1.3 1.3.7 0 1.3-.6 1.3-1.3v-37.9m37.7 0v37.9c0 .7.6 1.3 1.3 1.3.7 0 1.3-.6 1.3-1.3v-37.9"/><path class="st7" d="M28.2 4.3c0 6.8-5.5 12.2-12.2 12.2s-12.3-5.5-12.3-12.2h24.5zm-16.8 11.7s.2 2.8 3.2 2.8h1.8c3 0 3.2-2.8 3.2-2.8m-4.9 2.7v76.5c0 2.1-1.7 3.8-3.8 3.8h-.1c-1.5 0-2.7 1.2-2.7 2.7 0 0-.1 1.5 7.5 1.5l7.5-1.5c0-1.5-1.2-2.7-2.7-2.7h-.1c-2.1 0-3.8-1.7-3.8-3.8v-76.5"/><g class="st2"><path class="st7" d="M83 54h-39.8c-.4 0-.7-.3-.7-.7v-6.9m0-17.2v-3.5c0-.4.3-.7.7-.7h44.4c.4 0 .7.3.7.7v13.9"/><path class="st8" d="M42.5 27.7h45.9m-45.9 21h41.1"/><circle class="st8" cx="65.4" cy="51.3" r=".8"/><path class="st7" d="M63 54s.6 5.8-2 5.8m6.8-5.8s-.6 5.8 2 5.8"/><path class="st9" d="M66.7 31.7l.4 5.3 5.1 1.3-4.9 2 .3 5.3-3.4-4-5 1.9 2.8-4.5-3.4-4.1 5.2 1.2z"/></g><g class="st2"><path class="st10" d="M41.8 30l-2.7.3.9 7.4 7.4-.9-1-7.4-3 .4"/><path class="st11" d="M46.9 35.1l-6.9.8"/><circle class="st10" cx="42.7" cy="30" r=".6"/></g><g class="st2"><path class="st10" d="M42.1 38.4l-3-.9-2.1 7.1 7.1 2.1 2.1-7.1-2.8-.8"/><path class="st11" d="M44.3 45l-6.7-2"/><circle class="st10" cx="42.7" cy="38.4" r=".6"/></g><path class="st6" d="M27.3 59.7h145.7v4.3h-145.7zm101.4 12.9h-57.3m57.3-3.9h-57.3m-3.1-4.6v25h-37.6"/><path class="st12" d="M67.3 76.5s-2.2.1-5.6.2c-1.7 0-3.6.1-5.7.1h-13c-2.1 0-4-.1-5.7-.1-3.3-.1-5.6-.2-5.6-.2s2.2-.1 5.6-.2c1.7 0 3.6-.1 5.7-.1h13c2.1 0 4 .1 5.7.1 3.3.1 5.6.2 5.6.2z"/><path class="st6" d="M44.4 71.1h10.8c.3 0 .6-.3.6-.6v-.6c0-.3-.3-.6-.6-.6h-10.8c-.3 0-.6.3-.6.6v.6c-.1.3.2.6.6.6zm0 12.5h10.8c.3 0 .6-.3.6-.6v-.6c0-.3-.3-.6-.6-.6h-10.8c-.3 0-.6.3-.6.6v.6c-.1.3.2.6.6.6zm87-19.5v25h37.6"/><path class="st12" d="M132.4 76.5s2.2-.1 5.6-.2c1.7 0 3.6-.1 5.7-.1h13c2.1 0 4 .1 5.7.1 3.3.1 5.6.2 5.6.2s-2.2.1-5.6.2c-1.7 0-3.6.1-5.7.1h-13c-2.1 0-4-.1-5.7-.1-3.4-.1-5.6-.2-5.6-.2z"/><path class="st6" d="M155.3 71.1h-10.8c-.3 0-.6-.3-.6-.6v-.6c0-.3.3-.6.6-.6h10.8c.3 0 .6.3.6.6v.6c0 .3-.3.6-.6.6zm0 12.5h-10.8c-.3 0-.6-.3-.6-.6v-.6c0-.3.3-.6.6-.6h10.8c.3 0 .6.3.6.6v.6c0 .3-.3.6-.6.6z"/><g class="st2"><path class="st10" d="M37.8 53.3h-.9l.1-3.7h.7z"/><path class="st8" d="M37.1 49.6s-.1-.8.2-.8h.1c.3 0 .2.8.2.8"/><path class="st10" d="M36.9 53.3s.1 2-.2 4.4v.6m1.1-5s-.1 2 .2 4.4v.6m-2.6 1.1c0-1 .8-1.2 1.8-1.2s1.8.2 1.8 1.2"/></g><g class="st2"><path class="st7" d="M116.4 56.9h-33.7l2-17.3h29.2z"/><path class="st13" d="M113.2 54.9h-28.2l1.5-13.4h25.1z"/><path class="st7" d="M114 49.5l.7 5.4m-1-7.3l.1.6m-.5-3.8l.2 1.7m-.6-4.6l.3 1.7m-22.7 13.7s-1.9.4-2.1 2.4h3.2s0-2.4 3-2.4m14.7 0s1.9.4 2.1 2.4h-3.2s0-2.4-3-2.4"/><path class="st14" d="M100.3 43.9l.2 3 3 .8-2.9 1.2.2 3-2-2.3-2.8 1.1 1.6-2.6-1.9-2.4 2.9.8z"/></g><path class="st7" d="M135.2 59.7h7.1l.9-9h-9zm-1-7.1h-2.4s.2 4.7 3.1 4.5"/><path class="st6" d="M160.9 43.3h4.2v16.4h-4.2zm-12.5 16.2l-1.8-.2 2.6-18.6 1.8.2z"/><g class="st2"><path class="st7" d="M151.9 38h8.5v21.6h-8.5z"/><circle class="st8" cx="156.2" cy="55.2" r="1.1"/></g><g class="st2"><path class="st10" d="M97.394 31.259l-1.959-23.921 5.681-.465 1.959 23.921z"/><path class="st15" d="M101.5 10.7l-5.7.5"/><path class="st12" d="M96.8 8.8s0-.1.1-.2.1-.2.3-.3c.1-.1.3-.1.4 0l.2.2c.2.1.4 0 .6-.1.1 0 .2-.1.4-.1s.3.1.4.1h.2s.1-.2.2-.2c.2-.1.4 0 .5 0 .1 0 .2.1.2.1h-.2c-.1 0-.3 0-.4.1-.1 0-.1.1-.2.2s-.3.1-.4.1l-.3-.1s-.2.1-.3.1c-.2.1-.5.1-.8 0l-.3-.2c0-.1-.1-.1-.2 0l-.4.3z"/><path class="st15" d="M103 29.8l-5.6.4m5.2-5.2l-5.6.5m5.2-5.4l-5.6.4m5.2-5.2l-5.6.5"/><path class="st12" d="M96.9 9.7s.2-.1.5-.1c.3-.1.7-.1 1.1-.1h1.6s-.2.1-.5.1c-.3.1-.7.1-1.1.1h-1.6z"/><circle class="st10" cx="98.1" cy="6.7" r=".7"/></g></g><g id="Layer_2"><path class="st7" d="M72 64.2v37.8c0 .7.6 1.3 1.3 1.3s1.3-.6 1.3-1.3v-37.9m53.8.1v37.8c0 .7.6 1.3 1.3 1.3.7 0 1.3-.6 1.3-1.3v-37.8m36.1.1v37.9c0 .7.6 1.3 1.3 1.3.7 0 1.3-.6 1.3-1.3v-37.9M70.7 59.8h100v4.3h-100zm4.1 12.9h53.6m2.7-8.5v25h36"/><path class="st12" d="M132.1 76.6s2.1-.1 5.4-.2c1.6 0 3.5-.1 5.5-.1h12.6c2 0 3.9.1 5.5.1 3.2.1 5.4.2 5.4.2s-2.1.1-5.4.2c-1.6 0-3.5.1-5.5.1h-12.6c-2 0-3.9-.1-5.5-.1-3.3-.1-5.4-.2-5.4-.2z"/><path class="st7" d="M154.7 71.2h-10.8c-.3 0-.6-.3-.6-.6v-.6c0-.3.3-.6.6-.6h10.8c.3 0 .6.3.6.6v.6c0 .3-.3.6-.6.6zm0 12.5h-10.8c-.3 0-.6-.3-.6-.6v-.6c0-.3.3-.6.6-.6h10.8c.3 0 .6.3.6.6v.5c0 .4-.3.7-.6.7zm-28.1-29.6h-43c-.4 0-.7-.3-.7-.7v-27.6c0-.4.3-.7.7-.7h44.4c.4 0 .7.3.7.7v24.6"/><path class="st8" d="M82.8 27.8h45.9m-45.9 21h45.9"/><circle class="st8" cx="105.8" cy="51.4" r=".8"/><path class="st7" d="M103.4 54.1s.6 5.8-2 5.8m6.8-5.8s-.6 5.8 2 5.8"/><path class="st16" d="M106.6 31.2h20.5v15.8h-20.5z"/><path class="st8" d="M106.6 29.4h20.5v17.7h-20.5z"/><path class="st14" d="M117.8 34.4l.2 2.9 2.8.8-2.6 1.1.1 2.8-1.8-2.2-2.7 1.1 1.5-2.5-1.8-2.2 2.8.7z"/><path class="st8" d="M85.5 30.7h18.5m-18.5 1.1h12.3m-12.3 3.4h14.1m-14.1 1.1h12.3m-12.3 2.3h12.3m-12.3-1.1h16.3m-16.3 2.2h14.1m-14.1 1.2h12.3m-12.3 2.2h12.3m-12.3-1.1h16.3m-16.3-9.1h1m-1 1.2h1m-1 10.2h1m-1 1.1h1m-1 1.1h1"/><path class="st7" d="M137.1 22.9c0-5.1 4.2-9.3 9.3-9.3s9.3 4.2 9.3 9.3h-18.6zm12.4-8.8s-.2-2.1-2.5-2.1h-1.3c-2.3 0-2.5 2.1-2.5 2.1m3.9-2.1v-2.7c0-2.3 1.8-4 4.1-4h4.9c2.3 0 4.1 1.7 4.1 4v43.9c0 2.1-1.7 3.8-3.8 3.8h-.1c-1.5 0-2.7 1.2-2.7 2.7m-8.1-47.7v-2.9c0-3 2.4-5.4 5.4-5.4h5.8c3 0 5.4 2.4 5.4 5.4v44.2c0 2.1 1.7 3.8 3.8 3.8h.1c1.5 0 2.7 1.2 2.7 2.7"/><path class="st7" d="M30.5 103.4h-17c-1.2 0-2.2-1-2.2-2.2v-42.2c0-1.2 1-2.2 2.2-2.2h16.9c1.2 0 2.2 1 2.2 2.2v42.1c0 1.3-.9 2.3-2.1 2.3zm-17.2-42.6h17.5v25.5h-17.5z"/><path class="st10" d="M13.3 66.4h17.4m-17.4 6.8h17.4m-17.4 6.9h17.4"/><circle class="st7" cx="22" cy="97.4" r="1.2"/><path class="st10" d="M15 90.4h13.9m-13.9 1.7h13.9m-13.9 1.7h13.9m-5.7-27.4v-1.6h7.5m-7.5 21.6v-1.7h7.5m-7.5-11.5v-1.6h7.5m-7.5 8.3v-1.6h7.5"/><path class="st7" d="M56.5 103.4h-16.9c-1.2 0-2.2-1-2.2-2.2v-42.2c0-1.2 1-2.2 2.2-2.2h16.9c1.2 0 2.2 1 2.2 2.2v42.1c0 1.3-1 2.3-2.2 2.3zm-17.2-42.6h17.5v25.5h-17.5z"/><path class="st10" d="M39.3 66.4h17.5m-17.5 6.8h17.5m-17.5 6.9h17.5"/><circle class="st7" cx="48" cy="97.4" r="1.2"/><path class="st10" d="M41.1 90.4h13.9m-13.9 1.7h13.9m-13.9 1.7h13.9m-5.8-27.4v-1.6h7.6m-7.6 21.6v-1.7h7.6m-7.6-11.5v-1.6h7.6m-7.6 8.3v-1.6h7.6"/><path class="st7" d="M6.9 33.3h54.8v3.9h-54.8zm8 4l2.5 4.5v-4.5m36.8 0l-2.5 4.5v-4.5"/><path class="st7" d="M27.61 32.914l-4.109-.87 3.604-17.022 4.109.87z"/><path class="st8" d="M29.3 16l-3.7 16.6"/><path class="st7" d="M46.6 10.9h8.5v22.3h-8.5zm-8.4 0h8.5v22.3h-8.5zm-7 2.2h7v20.1h-7z"/><circle class="st8" cx="50.9" cy="29" r="1.1"/><circle class="st8" cx="42.5" cy="29" r="1.1"/><path class="st8" d="M38.2 15.3s-2.5.6-7 0"/><path class="st12" d="M6.9 35.3s3.4-.1 8.6-.1c2.6 0 5.6 0 8.8-.1h20.2c3.2 0 6.2.1 8.8.1 5.1.1 8.6.1 8.6.1s-3.4.1-8.6.1c-2.6 0-5.6 0-8.8.1h-20.2c-3.2 0-6.2-.1-8.8-.1-5.2-.1-8.6-.1-8.6-.1z"/><path class="st7" d="M128.4 68.8h-53.6M134.5 59.8h-7.1l-.9-9.1h9zm1-7.1h2.4s-.2 4.7-3.1 4.5"/></g></svg>