<svg xmlns="http://www.w3.org/2000/svg" xmlns:xlink="http://www.w3.org/1999/xlink" width="100" height="100" viewBox="0 0 100 100"><defs><path id="a" d="M0 0h100v100h-100z"/></defs><clipPath id="b"><use xlink:href="#a" overflow="visible"/></clipPath><path clip-path="url(#b)" fill="#333433" d="M98.875 50.096c0 26.993-21.882 48.875-48.875 48.875s-48.875-21.882-48.875-48.875 21.882-48.875 48.875-48.875 48.875 21.883 48.875 48.875"/><path clip-path="url(#b)" fill="#fff" d="M31.753 74.42v2.829h34.201v-2.829"/><path clip-path="url(#b)" fill="#333433" d="M66.482 77.777h-35.255v-3.357h1.055v2.303h33.146v-2.303h1.054z"/><path clip-path="url(#b)" fill="#fff" d="M67.057 63.301c-.363 0-.729-.013-1.103-.04l.358-4.986c2.463.176 4.538-.519 6.351-2.124 4.188-3.705 6.023-11.537 6.654-16.296h-9.707v-5h15.087l-.133 2.626c-.032.634-.872 15.587-8.586 22.415-2.558 2.261-5.555 3.405-8.921 3.405"/><path clip-path="url(#b)" fill="#333433" d="M67.057 63.801c-.375 0-.753-.013-1.139-.041l-.497-.037.429-5.982.498.035c2.323.172 4.272-.482 5.985-1.999 4.314-3.819 5.93-12.167 6.409-15.423h-9.632v-6h16.113l-.16 3.152c-.032.641-.89 15.804-8.754 22.764-2.648 2.342-5.761 3.531-9.252 3.531m-.567-1.011c3.468.125 6.554-.967 9.157-3.271 7.553-6.684 8.386-21.44 8.418-22.065l.105-2.101h-14.06v4h9.777l-.074.566c-.478 3.601-2.096 12.428-6.818 16.605-1.797 1.592-3.812 2.324-6.219 2.273l-.286 3.993z"/><path clip-path="url(#b)" fill="#fff" d="M67.209 74.42h-36.758l-4.901-46.978h46.56z"/><path clip-path="url(#b)" fill="#333433" d="M67.659 74.92h-37.658l-5.006-47.977h47.669l-5.005 47.977zm-36.758-1h35.857l4.797-45.977h-45.451l4.797 45.977zM52.336 37.279l.747 9.627 9.339 2.457-8.926 3.686.548 9.639-6.263-7.349-8.999 3.501 5.055-8.227-6.109-7.477 9.385 2.263z"/></svg>