<svg xmlns="http://www.w3.org/2000/svg" xmlns:xlink="http://www.w3.org/1999/xlink" width="100" height="100" viewBox="0 0 100 100"><defs><path id="a" d="M0 0h100v100h-100z"/></defs><clipPath id="b"><use xlink:href="#a" overflow="visible"/></clipPath><path clip-path="url(#b)" fill="#333433" d="M98.875 50.096c0 26.993-21.882 48.875-48.875 48.875s-48.875-21.882-48.875-48.875 21.882-48.875 48.875-48.875 48.875 21.883 48.875 48.875"/><path clip-path="url(#b)" fill="#fff" d="M63.117 82.688v-.033c0-1.377-1.116-2.49-2.491-2.488l-1.793.003c-2.17.004-3.931-1.754-3.931-3.925v-11.606h-2.685v11.613c0 2.167-1.759 3.925-3.925 3.925h-1.792c-1.373 0-2.487 1.113-2.487 2.487v.024s8.29 2.073 19.104 0"/><path clip-path="url(#b)" fill="#333433" d="M53.359 84.119c-5.659 0-9.317-.897-9.47-.937l-.386-.096v-.398c0-1.677 1.345-3.021 2.997-3.021h1.792c1.883 0 3.415-1.532 3.415-3.415v-12.123h3.705v12.116c0 .912.355 1.77 1.001 2.415.644.645 1.501 1 2.414 1l1.798-.003c1.658 0 3.002 1.345 3.002 2.997v.422l-.414.113c-3.22.618-6.537.93-9.854.93m-8.8-1.832c1.114.231 4.354.812 8.799.812h.001c3.097 0 6.191-.277 9.207-.826-.188-.92-.985-1.596-1.937-1.596l-1.796.003c-1.191 0-2.305-.461-3.143-1.299s-1.299-1.951-1.299-3.136v-11.097h-1.665v11.104c0 2.445-1.989 4.435-4.436 4.435h-1.79c-.962 0-1.764.689-1.941 1.6"/><path clip-path="url(#b)" fill="#fff" d="M56.435 64.308c0 1.588-1.288 2.876-2.876 2.876s-2.875-1.288-2.875-2.876 1.287-2.876 2.875-2.876 2.876 1.288 2.876 2.876"/><path clip-path="url(#b)" fill="#333433" d="M53.56 67.693c-1.867 0-3.387-1.519-3.387-3.386s1.52-3.386 3.387-3.386c1.866 0 3.386 1.519 3.386 3.386s-1.52 3.386-3.386 3.386m0-5.752c-1.306 0-2.366 1.062-2.366 2.366s1.061 2.366 2.366 2.366c1.305 0 2.365-1.062 2.365-2.366s-1.061-2.366-2.365-2.366"/><path clip-path="url(#b)" fill="#fff" d="M78.056 34.235c.233 0 .369.263.234.453l-19.398 27.372c-2.553 3.716-8.04 3.716-10.594 0l-19.398-27.372c-.134-.19.001-.453.234-.453h48.922z"/><path clip-path="url(#b)" fill="#333433" d="M53.595 65.356c-2.285 0-4.423-1.124-5.717-3.008l-19.394-27.365c-.173-.245-.195-.561-.058-.827.138-.265.409-.431.708-.431h48.922c.298 0 .57.165.707.43.139.265.116.582-.055.826l-19.4 27.374c-1.29 1.877-3.428 3.001-5.713 3.001m-24.03-30.611l19.148 27.02c1.125 1.637 2.904 2.572 4.882 2.572 1.979 0 3.756-.936 4.877-2.566l19.154-27.025h-48.061z"/><path clip-path="url(#b)" fill="#fff" d="M53.036 78.069s-.768 2.029.523 2.072c1.29.043.513-2.072.513-2.072"/><path clip-path="url(#b)" fill="#333433" d="M53.036 78.069s-.043.328-.051.788c-.01.226.018.497.099.716.051.098.102.189.185.23l.134.06.146.02.22-.019.101-.049c.072-.041.129-.125.169-.234.073-.223.097-.496.084-.723-.012-.461-.05-.789-.05-.789s.196.266.338.744c.057.24.14.532.068.889-.041.17-.121.387-.315.518-.083.075-.203.112-.32.148l-.251.031c-.248-.012-.419-.054-.611-.188-.193-.123-.273-.333-.332-.504-.082-.356-.005-.652.05-.894.138-.479.336-.744.336-.744"/><path clip-path="url(#b)" fill="#fff" d="M66.833 25.423l-11.732 35.059"/><path clip-path="url(#b)" fill="#333433" d="M66.264 25.234l1.148.385-11.745 35.054-1.148-.385z"/><path clip-path="url(#b)" fill="#fff" d="M67.89 25.739l-11.73 35.06c-.176.584-.79.915-1.374.741l-.188-.076c-.464-.237-.708-.78-.553-1.298l11.731-35.06"/><path clip-path="url(#b)" fill="#333433" d="M55.101 62.191c-.161 0-.325-.023-.488-.071l-.289-.117c-.735-.375-1.095-1.221-.859-2.011l11.737-35.079 1.147.384-11.73 35.061c-.064.212.041.458.253.566.347.114.627-.036.707-.3l11.737-35.079 1.147.385-11.73 35.06c-.217.725-.898 1.201-1.632 1.201"/><path clip-path="url(#b)" fill="#fff" d="M73.171 22.004c-.806 2.694-3.644 4.225-6.338 3.418-2.695-.806-4.225-3.644-3.419-6.338s3.644-4.225 6.339-3.418c2.694.806 4.225 3.645 3.418 6.338"/><path clip-path="url(#b)" fill="#333433" d="M68.295 26.244c-.553 0-1.104-.082-1.637-.241-1.458-.436-2.657-1.415-3.381-2.755-.721-1.338-.88-2.88-.442-4.338.716-2.392 2.959-4.064 5.454-4.064.554 0 1.104.081 1.638.24 3.009.902 4.724 4.082 3.825 7.092-.718 2.394-2.962 4.066-5.457 4.066m-.006-10.188c-1.965 0-3.73 1.316-4.295 3.202-.344 1.149-.22 2.361.35 3.416.568 1.056 1.514 1.825 2.663 2.169.42.126.853.191 1.288.191 1.966 0 3.731-1.318 4.297-3.204.709-2.369-.644-4.875-3.014-5.584-.421-.126-.853-.19-1.289-.19"/><path clip-path="url(#b)" fill="#333433" d="M53.595 65.356c-2.285 0-4.423-1.124-5.717-3.008l-19.394-27.365c-.173-.245-.195-.561-.058-.827.138-.265.409-.431.708-.431h48.922c.298 0 .57.165.707.43.139.265.116.582-.055.826l-19.4 27.374c-1.29 1.877-3.428 3.001-5.713 3.001m-24.03-30.611l19.148 27.02c1.125 1.637 2.904 2.572 4.882 2.572 1.979 0 3.756-.936 4.877-2.566l19.154-27.025h-48.061zM47.774 46.386c-6.686 0-11.896-1.473-11.974-1.495l.284-.981c.114.034 11.562 3.262 22.156.003 8.435-2.594 13.741-1.036 13.962-.968l-.297.976c-.053-.016-5.259-1.527-13.364.967-3.651 1.123-7.397 1.498-10.767 1.498"/><path clip-path="url(#b)" fill="#fff" d="M37.967 40.25c3.712-5.17 2.392-12.428-3.003-15.938-4.789-3.116-11.342-2.04-14.884 2.442-3.991 5.05-2.922 12.35 2.248 16.062 3.23 2.32 7.275 2.675 10.712 1.298l-4.304-10.16c-.075-.147.093-.298.231-.208l9 6.504z"/><path clip-path="url(#b)" fill="#333433" d="M28.855 45.341c-2.441 0-4.783-.756-6.773-2.184-2.606-1.871-4.285-4.651-4.733-7.828-.446-3.175.407-6.314 2.4-8.837 2.168-2.743 5.593-4.381 9.161-4.381 2.252 0 4.424.639 6.282 1.847 2.696 1.755 4.506 4.456 5.098 7.607.593 3.153-.111 6.324-1.982 8.929l-.246.343-8.583-6.203 4.115 9.711-.398.159c-1.385.555-2.846.837-4.341.837m.056-22.39c-3.313 0-6.491 1.519-8.501 4.062-1.851 2.342-2.642 5.253-2.228 8.199.416 2.947 1.974 5.526 4.391 7.262 1.846 1.326 4.019 2.026 6.283 2.026 1.243 0 2.461-.21 3.627-.624l-4.134-9.759c-.08-.157-.071-.368.035-.541.106-.172.296-.278.496-.278h.125l.192.095 8.669 6.264c1.555-2.349 2.122-5.15 1.6-7.936-.55-2.924-2.23-5.431-4.732-7.058-1.72-1.12-3.734-1.712-5.823-1.712M30.338 42.306l-.52.085c-.336.064-.845.113-1.493.098-.648-.009-1.432-.126-2.309-.372-.866-.273-1.816-.711-2.711-1.403-.895-.683-1.742-1.605-2.381-2.744-.321-.568-.575-1.192-.781-1.848-.076-.34-.178-.657-.228-1.028-.033-.342-.107-.657-.101-1.033-.053-1.451.203-2.94.875-4.299.651-1.358 1.648-2.584 2.905-3.471 1.25-.897 2.743-1.432 4.237-1.59 1.492-.177 3.016.047 4.335.589 1.334.524 2.48 1.362 3.333 2.347.864.979 1.456 2.082 1.803 3.155.182.541.29 1.052.357 1.588.022.501.057.974.065 1.423l-.153 1.274c-.051.39-.198.725-.277 1.037-.146.635-.444 1.063-.583 1.376l-.238.47.197-.49c.115-.323.359-.768.466-1.4.058-.312.181-.648.206-1.026l.07-1.218c-.036-.441-.102-.915-.157-1.413-.087-.45-.206-.974-.4-1.466-.368-1.002-.967-2.015-1.807-2.895-.832-.888-1.923-1.606-3.148-2.084-1.23-.483-2.602-.668-3.976-.488-1.372.162-2.717.668-3.844 1.495-1.152.79-2.076 1.895-2.687 3.129-.632 1.223-.881 2.619-.854 3.905.046 1.367.359 2.574.923 3.674.553 1.083 1.314 1.982 2.137 2.663.826.679 1.7 1.157 2.518 1.477.827.29 1.584.455 2.218.504.631.049 1.134.058 1.477.019l.526-.04M28.841 33.729s-.093-.252-.216-.705c-.11-.454-.295-1.102-.404-1.903-.102-.8-.23-1.745-.118-2.791.065-.519.159-1.082.498-1.622.173-.264.423-.519.747-.671.333-.161.665-.176 1.019-.14l.199.035.28.096c.174.083.332.183.46.329.262.285.364.64.401.948.062.626-.082 1.164-.226 1.663-.305.997-.765 1.828-1.147 2.536-.388.707-.787 1.251-1.048 1.638-.272.382-.445.587-.445.587m0 0l.303-.669c.202-.419.451-1.038.765-1.763.31-.726.626-1.598.858-2.523.115-.459.18-.95.134-1.371-.08-.433-.215-.624-.671-.677-.388-.06-.726.082-.952.428-.228.349-.369.816-.444 1.279-.152.932-.172 1.86-.144 2.646.031.789.052 1.455.096 1.918l.055.732M28.84 33.716s-.252.093-.705.216c-.454.11-1.102.295-1.903.404-.8.102-1.745.23-2.791.118-.519-.065-1.082-.159-1.622-.498-.264-.173-.519-.423-.671-.747-.161-.333-.176-.665-.14-1.019l.035-.199.096-.28c.083-.174.183-.332.329-.46.285-.262.64-.364.948-.401.625-.062 1.164.082 1.663.226.997.305 1.828.765 2.536 1.147.707.388 1.251.787 1.638 1.048.382.272.587.445.587.445m0 0l-.669-.303c-.419-.202-1.038-.451-1.763-.765-.726-.31-1.598-.626-2.523-.858-.459-.115-.95-.18-1.371-.134-.433.08-.624.215-.677.671-.06.388.082.726.428.952.349.228.816.37 1.279.444.932.153 1.86.173 2.646.144.789-.031 1.455-.052 1.918-.096l.732-.055M28.885 33.727s.093.252.216.705c.11.454.295 1.102.404 1.903.102.8.23 1.745.118 2.791-.065.519-.159 1.082-.498 1.622-.173.264-.423.519-.747.671-.333.161-.665.177-1.019.14l-.199-.035-.28-.096c-.174-.083-.332-.183-.46-.329-.262-.285-.364-.64-.401-.948-.062-.625.082-1.164.226-1.663.305-.997.765-1.828 1.147-2.536.388-.707.787-1.251 1.048-1.638.272-.382.445-.587.445-.587m0 0l-.303.669c-.202.419-.451 1.038-.765 1.763-.31.726-.626 1.598-.858 2.523-.115.459-.18.95-.134 1.371.08.433.215.624.671.677.388.06.726-.082.952-.428.228-.349.37-.816.444-1.279.153-.932.173-1.86.144-2.646-.031-.789-.052-1.455-.096-1.918l-.055-.732M28.882 33.671s.252-.093.705-.216c.454-.11 1.102-.295 1.903-.404.8-.102 1.745-.23 2.791-.118.519.065 1.082.159 1.622.498.264.173.519.423.671.747.161.333.177.665.14 1.019l-.035.199-.096.28c-.083.174-.183.332-.329.46-.285.262-.64.364-.948.401-.625.062-1.164-.082-1.663-.226-.997-.305-1.828-.765-2.536-1.147-.707-.388-1.251-.787-1.638-1.048-.383-.272-.587-.445-.587-.445m0 0l.669.303c.419.202 1.038.451 1.763.765.726.31 1.598.626 2.523.858.459.115.95.18 1.371.134.433-.08.624-.215.677-.671.06-.388-.082-.726-.428-.952-.349-.228-.816-.37-1.279-.444-.932-.153-1.86-.173-2.646-.144-.789.031-1.455.052-1.918.096l-.732.055M28.825 33.714s.113-.244.346-.651c.242-.399.57-.989 1.06-1.632.493-.638 1.07-1.396 1.89-2.057.413-.32.877-.652 1.499-.794.309-.065.666-.069 1.003.053.349.122.595.346.819.622l.116.165.131.267c.064.181.104.363.092.557-.016.387-.195.71-.387.954-.399.486-.881.765-1.336 1.016-.921.489-1.833.752-2.604.982-.775.226-1.44.328-1.899.417-.463.078-.73.101-.73.101m0 0l.687-.259c.44-.153 1.053-.415 1.788-.706.732-.294 1.572-.687 2.39-1.177.407-.243.8-.545 1.065-.875.249-.362.289-.593.004-.952-.232-.317-.571-.455-.976-.371-.407.085-.838.316-1.218.59-.767.552-1.438 1.194-1.973 1.77-.536.579-.992 1.065-1.288 1.423l-.479.557M28.833 33.704s-.244-.113-.651-.346c-.399-.242-.989-.57-1.632-1.06-.638-.493-1.396-1.07-2.057-1.89-.32-.413-.652-.877-.794-1.499-.065-.309-.069-.666.053-1.003.122-.349.346-.595.622-.819l.165-.116.267-.131c.181-.064.363-.104.557-.092.387.016.71.195.954.387.486.399.765.881 1.016 1.336.489.921.752 1.833.982 2.604.226.775.328 1.44.417 1.899.078.462.101.73.101.73m0 0l-.259-.687c-.153-.44-.415-1.053-.706-1.788-.294-.732-.687-1.572-1.177-2.39-.243-.407-.545-.8-.875-1.065-.362-.249-.593-.289-.952-.004-.317.232-.455.571-.371.976.085.407.316.838.59 1.218.552.767 1.194 1.437 1.77 1.973.579.536 1.065.992 1.423 1.288l.557.479M28.857 33.743s-.113.244-.346.651c-.243.399-.57.989-1.06 1.632-.493.638-1.07 1.396-1.89 2.057-.413.32-.877.652-1.499.794-.309.065-.666.069-1.003-.053-.349-.122-.595-.346-.819-.622l-.116-.165-.131-.267c-.064-.181-.104-.363-.092-.557.016-.387.195-.71.387-.954.399-.486.881-.765 1.336-1.016.921-.489 1.833-.752 2.604-.982.775-.226 1.44-.328 1.899-.417.462-.078.73-.101.73-.101m0 0l-.687.259c-.44.153-1.053.415-1.788.706-.732.294-1.572.687-2.391 1.177-.406.243-.799.545-1.064.875-.249.362-.289.593-.004.952.232.317.571.455.976.371.407-.085.838-.316 1.218-.59.767-.552 1.437-1.194 1.973-1.77.536-.579.992-1.065 1.288-1.423l.479-.557"/></svg>