<svg xmlns="http://www.w3.org/2000/svg" xmlns:xlink="http://www.w3.org/1999/xlink" width="100" height="100" viewBox="0 0 100 100"><defs><path id="a" d="M0 0h100v100h-100z"/></defs><clipPath id="b"><use xlink:href="#a" overflow="visible"/></clipPath><path clip-path="url(#b)" fill="#333433" d="M98.875 50.096c0 26.993-21.882 48.875-48.875 48.875s-48.875-21.882-48.875-48.875 21.882-48.875 48.875-48.875 48.875 21.883 48.875 48.875"/><path clip-path="url(#b)" fill="#fff" d="M74.153 32.936l-.219.185c-1.958 1.498-4.76 1.126-6.259-.832s-1.126-4.76.832-6.259l.235-.162-8.372-10.937c-.388-.507-1.113-.603-1.62-.216l-44.934 34.396c-.506.387-.603 1.112-.215 1.619l22.154 28.943c.388.507 1.113.604 1.62.215l44.935-34.395c.507-.388.604-1.113.216-1.62l-8.373-10.937z"/><path clip-path="url(#b)" fill="#333433" d="M36.673 80.626c-.521 0-1-.236-1.316-.649l-22.154-28.943c-.555-.725-.416-1.767.31-2.322l44.934-34.395c.704-.54 1.781-.395 2.321.309l8.696 11.362-.444.296-.208.141c-1.736 1.329-2.068 3.823-.739 5.56.756.988 1.905 1.554 3.15 1.554.878 0 1.709-.282 2.408-.817l.134-.113.403-.354.382.376 8.372 10.938c.269.351.383.786.326 1.224-.059.439-.284.829-.636 1.097l-44.933 34.395c-.292.223-.64.341-1.006.341m22.779-65.648c-.146 0-.282.046-.397.135l-44.935 34.394c-.287.22-.342.632-.122.919l22.154 28.943c.212.277.637.337.919.121l44.935-34.395c.139-.106.229-.261.251-.433.023-.174-.022-.347-.129-.486l-8.062-10.532c-.836.586-1.814.895-2.843.895-1.56 0-2.997-.709-3.945-1.947-1.619-2.117-1.269-5.133.758-6.826l-8.063-10.532c-.125-.163-.315-.256-.521-.256"/><path clip-path="url(#b)" fill="#fff" d="M54.545 24.156l18.015 23.536-32.975 25.239-18.015-23.536z"/><path clip-path="url(#b)" fill="#333433" d="M39.494 73.633l-18.624-24.331 33.768-25.847 18.623 24.329-33.767 25.849zm-17.223-24.145l17.408 22.742 32.18-24.632-17.407-22.741-32.181 24.631z"/><path clip-path="url(#b)" fill="#fff" d="M38.244 74.547l-18.299-23.907"/><path clip-path="url(#b)" fill="#333433" d="M38.244 74.547l-.863-.969c-.533-.63-1.325-1.504-2.219-2.597-.893-1.094-1.96-2.351-3.057-3.731-1.106-1.375-2.255-2.865-3.407-4.354-1.136-1.5-2.274-2.998-3.313-4.425-1.048-1.419-1.981-2.778-2.804-3.925-.823-1.148-1.459-2.143-1.927-2.82l-.709-1.087.863.968c.533.63 1.326 1.503 2.22 2.598.892 1.094 1.961 2.349 3.056 3.731 1.106 1.375 2.255 2.865 3.407 4.354 1.136 1.501 2.273 2.999 3.312 4.426 1.047 1.42 1.981 2.777 2.804 3.925.822 1.148 1.459 2.142 1.928 2.82l.709 1.086"/><path clip-path="url(#b)" fill="#fff" d="M74.151 47.062l-18.298-23.907"/><path clip-path="url(#b)" fill="#333433" d="M74.151 47.062l-.863-.968c-.533-.63-1.325-1.504-2.219-2.597-.893-1.094-1.96-2.351-3.057-3.732-1.106-1.375-2.256-2.865-3.407-4.353-1.136-1.5-2.274-2.998-3.313-4.425-1.048-1.419-1.98-2.778-2.804-3.925-.823-1.148-1.459-2.142-1.927-2.82l-.709-1.087.862.968c.533.63 1.326 1.503 2.221 2.597.892 1.094 1.961 2.349 3.056 3.732 1.106 1.375 2.255 2.865 3.407 4.353 1.136 1.501 2.272 2.999 3.312 4.426 1.047 1.42 1.982 2.778 2.805 3.925.821 1.148 1.459 2.142 1.928 2.82l.708 1.086"/><path clip-path="url(#b)" fill="#333433" d="M46.747 56.851l-7.284 5.576-1.366-1.786.553-4.353c.141-1.27.215-2.119.226-2.553.009-.432-.017-.776-.079-1.033-.062-.258-.174-.491-.335-.702-.2-.261-.442-.401-.728-.423-.284-.021-.58.085-.887.319-.316.242-.565.577-.75 1.005-.184.428-.346.974-.483 1.638l-2.825-.604c.164-.857.345-1.521.546-1.991.2-.469.466-.913.8-1.335.334-.423.759-.832 1.276-1.227.65-.498 1.318-.828 2.004-.989.685-.162 1.33-.14 1.936.069.605.208 1.11.575 1.513 1.102.301.393.531.795.688 1.204.157.409.256.854.297 1.334.041.48.027 1.03-.04 1.648-.068.618-.276 1.851-.624 3.701l.052.067 3.797-2.905 1.713 2.238zM51.195 45.508c1.359 1.776 2.058 3.305 2.095 4.586.037 1.282-.558 2.392-1.784 3.331-1.199.918-2.434 1.179-3.702.782-1.269-.396-2.554-1.447-3.858-3.15-1.366-1.784-2.071-3.319-2.114-4.608-.042-1.289.55-2.402 1.777-3.341 1.194-.915 2.429-1.173 3.704-.772 1.274.398 2.568 1.456 3.882 3.172m-4.551 3.484c.869 1.135 1.537 1.862 2.005 2.178.467.318.868.349 1.202.093.339-.26.41-.663.214-1.208-.197-.546-.719-1.373-1.567-2.481-.851-1.112-1.519-1.836-2.002-2.174-.484-.338-.893-.378-1.227-.123-.334.256-.408.653-.22 1.192.186.538.72 1.379 1.595 2.523M59.434 39.203c1.359 1.776 2.057 3.305 2.095 4.586.037 1.282-.558 2.392-1.785 3.331-1.198.918-2.433 1.178-3.702.782-1.269-.397-2.554-1.447-3.857-3.15-1.366-1.784-2.071-3.32-2.114-4.609-.042-1.289.55-2.402 1.777-3.341 1.193-.915 2.429-1.173 3.704-.772 1.273.398 2.567 1.456 3.882 3.173m-4.552 3.484c.869 1.135 1.537 1.862 2.005 2.178.467.318.868.348 1.202.093.339-.26.409-.663.214-1.209-.197-.546-.719-1.373-1.567-2.481-.851-1.112-1.519-1.836-2.002-2.174-.484-.338-.893-.378-1.227-.123-.334.256-.408.653-.221 1.192.188.538.721 1.379 1.596 2.524"/><path clip-path="url(#b)" fill="#fff" d="M78.764 43.505l-.261.117c-2.299.892-4.886-.248-5.778-2.546-.893-2.299.247-4.886 2.546-5.779l.271-.089-5.198-13.388c-.113-.292-.442-.437-.734-.324l-53.846 20.91c-.293.113-.437.442-.324.734l13.619 35.073c.114.292.443.437.735.322l53.846-20.908c.292-.113.437-.442.323-.734l-5.199-13.388z"/><path clip-path="url(#b)" fill="#333433" d="M29.587 79.076c-.438 0-.838-.274-.996-.683l-13.618-35.072c-.213-.549.059-1.168.608-1.381l53.847-20.909c.536-.212 1.177.078 1.381.609l5.39 13.88-.502.164-.243.08c-2.04.792-3.055 3.093-2.264 5.132.599 1.537 2.05 2.53 3.698 2.53.49 0 .973-.091 1.435-.27l.175-.078.483-.225.249.472 5.198 13.388c.213.547-.06 1.167-.606 1.381l-53.849 20.909c-.124.049-.254.073-.386.073m40.29-57.075l-53.935 20.871 13.581 35.16.064.044.024-.005 53.847-20.909-4.979-13c-.516.176-1.05.264-1.592.264-2.064 0-3.882-1.243-4.629-3.169-.965-2.485.214-5.282 2.632-6.343l-5.013-12.913z"/><path clip-path="url(#b)" fill="#fff" d="M34.2 71.732l-10.318-26.57c-.113-.292.031-.621.324-.735l37.651-14.62c.292-.114.621.031.734.323l10.318 26.572c.113.292-.031.621-.323.734l-37.652 14.621c-.292.113-.622-.033-.734-.325"/><path clip-path="url(#b)" fill="#333433" d="M34.729 72.595c-.444 0-.834-.268-.995-.682l-10.318-26.572c-.104-.265-.097-.555.018-.816.115-.261.325-.462.59-.565l37.652-14.62c.535-.211 1.177.079 1.381.609l10.318 26.571c.104.266.097.556-.019.816-.115.262-.325.462-.591.564l-37.65 14.62c-.123.05-.254.075-.386.075m27.396-42.284l-37.739 14.582 10.28 26.659.063.043.024-.005 37.651-14.62-10.279-26.659z"/><path clip-path="url(#b)" fill="#fff" d="M32.666 73.438l-10.898-28.065"/><path clip-path="url(#b)" fill="#333433" d="M32.666 73.438l-.559-1.171c-.335-.753-.852-1.812-1.405-3.113-.552-1.299-1.226-2.804-1.894-4.437-.678-1.629-1.366-3.38-2.057-5.13-.671-1.758-1.346-3.515-1.945-5.174-.611-1.656-1.127-3.222-1.597-4.553s-.803-2.464-1.063-3.246l-.378-1.241.559 1.171c.336.753.854 1.813 1.406 3.113.552 1.299 1.227 2.803 1.894 4.437.678 1.629 1.365 3.38 2.056 5.131.671 1.758 1.345 3.515 1.944 5.174.609 1.656 1.128 3.222 1.598 4.553.468 1.332.803 2.464 1.063 3.246l.378 1.24"/><path clip-path="url(#b)" fill="#fff" d="M74.818 57.069l-10.898-28.065"/><path clip-path="url(#b)" fill="#333433" d="M74.818 57.069l-.559-1.171c-.336-.753-.853-1.812-1.405-3.113-.552-1.299-1.227-2.804-1.895-4.437-.678-1.629-1.365-3.38-2.057-5.13-.671-1.758-1.346-3.515-1.945-5.174-.61-1.656-1.127-3.221-1.597-4.553-.47-1.331-.803-2.464-1.063-3.246l-.378-1.241.56 1.171c.336.753.854 1.813 1.406 3.113.552 1.299 1.227 2.803 1.894 4.437.678 1.629 1.365 3.38 2.056 5.131.671 1.758 1.346 3.514 1.944 5.174.609 1.656 1.128 3.222 1.597 4.552.47 1.332.805 2.465 1.064 3.246l.378 1.241M45.241 59.024l-7.493 2.91c-.292.113-.621-.032-.734-.324l-.524-1.349c-.054-.14-.051-.294.008-.433l1.655-3.812c.488-1.179.797-1.976.928-2.387.13-.412.201-.75.213-1.016.012-.264-.03-.52-.126-.767-.119-.308-.312-.509-.58-.61-.267-.1-.581-.08-.941.061-.371.144-.704.396-1.001.755-.214.26-.434.582-.659.966-.152.261-.488.35-.754.207l-1.555-.836c-.275-.147-.383-.495-.232-.769.293-.533.565-.953.814-1.259.323-.394.704-.747 1.142-1.059.438-.313.961-.587 1.568-.822.763-.296 1.497-.427 2.2-.391.703.036 1.317.238 1.84.607.523.369.905.862 1.145 1.48.179.462.288.913.324 1.349.037.438.008.892-.087 1.364-.094.473-.261.997-.498 1.571-.238.574-.782 1.7-1.632 3.38l.031.08 3.928-1.525c.292-.114.621.031.734.323l.61 1.569c.113.295-.032.624-.324.737M53.208 49.169c.811 2.085 1.054 3.748.732 4.989-.322 1.241-1.203 2.141-2.644 2.7-1.408.547-2.666.451-3.772-.283-1.108-.735-2.05-2.103-2.826-4.102-.814-2.095-1.062-3.767-.743-5.016.319-1.25 1.198-2.153 2.638-2.713 1.403-.544 2.66-.447 3.773.293s2.06 2.118 2.842 4.132m-5.343 2.075c.518 1.333.956 2.217 1.317 2.65.36.437.737.577 1.129.426.397-.155.578-.522.542-1.102-.036-.58-.308-1.519-.812-2.82-.507-1.305-.945-2.187-1.315-2.647-.37-.459-.752-.612-1.144-.46-.392.152-.574.513-.544 1.083.029.571.306 1.527.827 2.87M62.879 45.414c.811 2.085 1.054 3.748.732 4.989-.322 1.241-1.203 2.141-2.644 2.7-1.408.547-2.666.452-3.772-.283-1.108-.734-2.051-2.102-2.826-4.101-.814-2.095-1.062-3.767-.743-5.016.319-1.25 1.198-2.153 2.638-2.713 1.403-.544 2.66-.447 3.773.293 1.113.738 2.06 2.117 2.842 4.131m-5.343 2.075c.518 1.333.956 2.217 1.316 2.651.36.436.737.577 1.13.425.397-.155.577-.522.542-1.101-.036-.58-.308-1.519-.812-2.82-.507-1.305-.945-2.187-1.314-2.647-.37-.459-.753-.612-1.145-.46s-.574.513-.544 1.083c.029.57.306 1.526.827 2.869"/></svg>