<svg xmlns="http://www.w3.org/2000/svg" xmlns:xlink="http://www.w3.org/1999/xlink" width="100" height="100" viewBox="0 0 100 100"><defs><path id="a" d="M0 0h100v100h-100z"/></defs><clipPath id="b"><use xlink:href="#a" overflow="visible"/></clipPath><path clip-path="url(#b)" fill="#333433" d="M98.694 50.096c0 26.993-21.882 48.875-48.875 48.875s-48.875-21.883-48.875-48.875 21.883-48.875 48.876-48.875c26.992 0 48.874 21.883 48.874 48.875"/><path clip-path="url(#b)" fill="#fff" d="M45.901 65.36v13.281h7.837v-13.281"/><path clip-path="url(#b)" fill="#333433" d="M54.238 79.14h-8.837v-13.78h1v12.78h6.837v-12.78h1z"/><path clip-path="url(#b)" fill="#fff" d="M66.483 54.642c0 5.92-4.799 10.719-10.719 10.719h-11.785c-5.92 0-10.719-4.799-10.719-10.719v-26.5c0-5.92 4.799-10.719 10.719-10.719h11.785c5.92 0 10.719 4.799 10.719 10.719v26.5z"/><path clip-path="url(#b)" fill="#333433" d="M55.764 65.861h-11.785c-6.187 0-11.219-5.033-11.219-11.22v-26.5c0-6.187 5.032-11.219 11.219-11.219h11.785c6.188 0 11.22 5.032 11.22 11.219v26.5c-.001 6.187-5.033 11.22-11.22 11.22m-11.785-47.938c-5.635 0-10.219 4.584-10.219 10.219v26.5c0 5.636 4.584 10.22 10.219 10.22h11.785c5.636 0 10.22-4.584 10.22-10.22v-26.5c0-5.635-4.584-10.219-10.22-10.219h-11.785zM43.438 30.127h-10.401v-1h10.402c.129 0 .234-.105.234-.234v-1.469c0-.129-.105-.235-.234-.235h-10.456v-1h10.455c.681 0 1.234.554 1.234 1.235v1.469c0 .68-.552 1.234-1.234 1.234M43.438 35.658h-10.401v-1h10.402c.129 0 .234-.105.234-.234v-1.469c0-.129-.105-.234-.234-.234h-10.402v-1h10.402c.681 0 1.234.554 1.234 1.234v1.469c-.001.68-.553 1.234-1.235 1.234M43.438 41.189h-10.401v-1h10.402c.129 0 .234-.105.234-.234v-1.468c0-.129-.105-.235-.234-.235h-10.402v-1h10.402c.681 0 1.234.554 1.234 1.235v1.468c-.001.681-.553 1.234-1.235 1.234M43.438 46.721h-10.401v-1h10.402c.129 0 .234-.105.234-.234v-1.468c0-.129-.105-.235-.234-.235h-10.402v-1h10.402c.681 0 1.234.554 1.234 1.235v1.468c-.001.68-.553 1.234-1.235 1.234M43.438 52.252h-10.401v-1h10.402c.129 0 .234-.104.234-.233v-1.469c0-.129-.105-.235-.234-.235h-10.402v-1h10.402c.681 0 1.234.554 1.234 1.235v1.469c-.001.679-.553 1.233-1.235 1.233M43.438 57.784h-9.955v-1h9.955c.129 0 .234-.104.234-.234v-1.469c0-.129-.105-.234-.234-.234h-10.401v-1h10.402c.681 0 1.234.554 1.234 1.234v1.469c-.001.68-.553 1.234-1.235 1.234"/><path clip-path="url(#b)" fill="#333433" d="M66.604 30.127h-10.403c-.681 0-1.235-.554-1.235-1.234v-1.469c0-.681.555-1.235 1.235-1.235h10.455v1h-10.455c-.13 0-.235.106-.235.235v1.469c0 .129.105.234.235.234h10.402v1zM66.604 35.658h-10.403c-.681 0-1.235-.554-1.235-1.234v-1.469c0-.68.555-1.234 1.235-1.234h10.402v1h-10.402c-.13 0-.235.105-.235.234v1.469c0 .129.105.234.235.234h10.402v1zM66.604 41.189h-10.403c-.681 0-1.235-.554-1.235-1.234v-1.468c0-.681.555-1.235 1.235-1.235h10.402v1h-10.402c-.13 0-.235.106-.235.235v1.468c0 .129.105.234.235.234h10.402v1zM66.604 46.721h-10.403c-.681 0-1.235-.554-1.235-1.234v-1.468c0-.681.555-1.235 1.235-1.235h10.402v1h-10.402c-.13 0-.235.106-.235.235v1.468c0 .129.105.234.235.234h10.402v1zM66.604 52.252h-10.403c-.681 0-1.235-.554-1.235-1.233v-1.469c0-.681.555-1.235 1.235-1.235h10.402v1h-10.402c-.13 0-.235.106-.235.235v1.469c0 .13.105.233.235.233h10.402v1zM66.656 57.784h-10.455c-.682 0-1.234-.554-1.234-1.234v-1.469c0-.681.553-1.234 1.234-1.234h10.401v1h-10.401c-.129 0-.234.105-.234.234v1.469c0 .13.105.234.234.234h10.455v1zM49.869 42.71c-.727 0-1.319-.592-1.319-1.319s.592-1.319 1.319-1.319c.728 0 1.319.592 1.319 1.319s-.591 1.319-1.319 1.319m0-1.638c-.176 0-.319.144-.319.319 0 .176.143.319.319.319s.319-.143.319-.319c0-.175-.143-.319-.319-.319"/><path clip-path="url(#b)" fill="#fff" d="M66.598 82.702c0-2.243-9.264-4.062-17.907-4.062s-15.649 1.819-15.649 4.062h33.556z"/><path clip-path="url(#b)" fill="#333433" d="M67.099 83.202h-34.557v-.5c0-2.964 8.321-4.562 16.15-4.562 7.717 0 18.407 1.586 18.407 4.562v.5zm-33.358-1h32.1c-1.455-1.463-8.895-3.063-17.149-3.063-8.372 0-13.862 1.651-14.951 3.063"/><path clip-path="url(#b)" fill="#fff" d="M44.268 72.094h-1.926c-7.725 0-13.987-6.262-13.987-13.985v-19.337c0-1.604 1.301-2.905 2.905-2.905h.029v21.451c0 6.602 5.353 11.955 11.955 11.955h13.296000000000001c6.602 0 11.955-5.354 11.955-11.955v-21.451h.028c1.604 0 2.905 1.301 2.905 2.905v19.336c0 7.724-6.262 13.985-13.986 13.985h-13.174z"/><path clip-path="url(#b)" fill="#333433" d="M57.442 72.594h-15.101c-7.988 0-14.486-6.499-14.486-14.486v-19.337c0-1.876 1.527-3.404 3.405-3.404h.5l.029.5v21.45c0 6.316 5.139 11.455 11.455 11.455h13.295c6.317 0 11.456-5.139 11.456-11.455v-21.95h.5c1.906 0 3.433 1.528 3.433 3.404v19.336c0 7.988-6.497 14.487-14.486 14.487m-26.653-36.177c-1.111.228-1.934 1.196-1.934 2.354v19.336c0 7.437 6.05 13.486 13.486 13.486h15.101c7.436 0 13.485-6.05 13.485-13.486v-19.336c0-1.165-.831-2.138-1.933-2.358v20.904c0 6.868-5.588 12.455-12.456 12.455h-13.294c-6.868 0-12.455-5.587-12.455-12.455v-20.9z"/><path clip-path="url(#b)" fill="#fff" d="M28.165 42.1c-.873 0-1.58-.707-1.58-1.58s.707-1.58 1.58-1.58"/><path clip-path="url(#b)" fill="#333433" d="M28.165 42.601c-1.146 0-2.08-.934-2.08-2.08 0-1.147.934-2.08 2.08-2.08v1c-.595 0-1.08.484-1.08 1.08 0 .596.485 1.08 1.08 1.08v1z"/><path clip-path="url(#b)" fill="#fff" d="M71.475 38.94c.873 0 1.58.707 1.58 1.58s-.707 1.58-1.58 1.58"/><path clip-path="url(#b)" fill="#333433" d="M71.475 42.601v-1c.596 0 1.079-.484 1.079-1.08 0-.596-.483-1.08-1.079-1.08v-1c1.146 0 2.079.933 2.079 2.08 0 1.146-.934 2.08-2.079 2.08"/></svg>