<svg xmlns="http://www.w3.org/2000/svg" xmlns:xlink="http://www.w3.org/1999/xlink" width="100" height="100" viewBox="0 0 100 100"><defs><path id="a" d="M0 0h100v100h-100z"/></defs><clipPath id="b"><use xlink:href="#a" overflow="visible"/></clipPath><path clip-path="url(#b)" fill="#333433" d="M98.875 50.096c0 26.993-21.882 48.875-48.875 48.875s-48.875-21.882-48.875-48.875 21.882-48.875 48.875-48.875 48.875 21.883 48.875 48.875"/><path clip-path="url(#b)" fill="#fff" d="M17.587 74.42s32.931-13.988 66 1.829c0 0-10.75 15.614-32.596 15.5-23.469-.12-33.404-17.329-33.404-17.329"/><path clip-path="url(#b)" fill="#333433" d="M51.228 92.251l-.239-.001c-23.484-.122-33.733-17.405-33.834-17.58l-.283-.489.521-.221c.134-.058 13.743-5.748 31.961-5.748 12.333 0 23.924 2.553 34.45 7.587l.528.253-.332.481c-.109.157-11.076 15.718-32.772 15.718m-32.896-17.59c1.852 2.79 11.997 16.481 32.662 16.589l.233.001c19.018 0 29.576-12.229 31.592-14.811-10.242-4.798-21.498-7.229-33.466-7.229-15.954.001-28.318 4.407-31.021 5.45"/><path clip-path="url(#b)" fill="#fff" d="M32.206 30.708c-.358-.665-.567-1.424-.574-2.232-.025-2.657 2.109-4.83 4.765-4.854.854-.008 1.657.209 2.356.594-.017-.204-.035-.408-.037-.616-.043-4.648 3.691-8.451 8.34-8.494 4.649-.043 8.452 3.691 8.494 8.34.008.839-.111 1.649-.333 2.417l.175-.011c2.977-.027 5.413 2.364 5.441 5.342.021 2.463-1.612 4.551-3.863 5.216.584 1.188.927 2.518.939 3.93.013 1.267-.235 2.475-.692 3.575.723 1.206 1.15 2.61 1.165 4.118.041 4.517-3.586 8.211-8.104 8.252-1.478.015-2.864-.371-4.067-1.046-.962 1.617-2.716 2.712-4.736 2.731-3.077.027-5.595-2.444-5.623-5.522-.01-1.023.263-1.983.737-2.812-.252.022-.505.044-.763.046-5.423.05-9.86-4.306-9.91-9.73-.038-4.209 2.582-7.814 6.29-9.244"/><path clip-path="url(#b)" fill="#333433" d="M61.233 31.189c-.028-3.077-2.465-5.58-5.499-5.732.149-.664.223-1.341.217-2.016-.045-4.863-4.037-8.782-8.899-8.737-4.851.044-8.764 4.018-8.737 8.865-.612-.235-1.266-.355-1.922-.349-2.873.026-5.189 2.385-5.163 5.258.006.704.15 1.381.429 2.02-3.729 1.627-6.18 5.373-6.143 9.457.052 5.666 4.729 10.262 10.407 10.125-.317.75-.479 1.557-.471 2.372.029 3.18 2.554 5.758 5.693 5.903-.063-.262-.066-.538-.01-.802-2.696-.15-4.856-2.372-4.882-5.11-.008-.909.229-1.812.685-2.607l.381-.665-.764.066c-.242.021-.484.042-.732.044-5.193.048-9.457-4.139-9.505-9.333-.036-3.897 2.388-7.46 6.032-8.867l.424-.163-.215-.401c-.344-.636-.521-1.324-.527-2.045-.023-2.431 1.937-4.427 4.368-4.45.752-.007 1.499.181 2.16.544l.65.309-.062-.744c-.015-.177-.03-.355-.031-.535-.041-4.42 3.522-8.049 7.942-8.09 4.419-.04 8.05 3.523 8.09 7.943.007.773-.101 1.548-.318 2.302l-.153.532.717-.03c2.753-.026 5.012 2.193 5.036 4.944.021 2.215-1.448 4.201-3.574 4.829l-.457.134.21.427c.584 1.188.887 2.452.898 3.756.011 1.183-.212 2.332-.662 3.418l-.077.187.104.173c.712 1.188 1.095 2.542 1.108 3.915.038 4.288-3.417 7.809-7.706 7.848-1.349.012-2.686-.332-3.867-.995l-.341-.191-.2.337c-.385.646-.895 1.181-1.485 1.593.101.285.128.599.08.898.737-.437 1.387-1.024 1.888-1.759 1.22.614 2.571.931 3.933.919 4.729-.044 8.543-3.928 8.499-8.658-.014-1.449-.4-2.878-1.12-4.146.441-1.13.66-2.322.648-3.546-.012-1.275-.277-2.515-.789-3.69 2.228-.859 3.734-3.041 3.712-5.457"/><path clip-path="url(#b)" fill="#fff" d="M45.113 43.583s-2.664 15.457 2.121 34.453c0 0-4.033 1.476-7.816.072 3.374-18.336 1.672-36.091 1.672-36.091"/><path clip-path="url(#b)" fill="#333433" d="M39.024 78.13c3.199-17.211 1.682-35.894 1.666-36.08l.606-.116c.015.184 1.707 18.585-1.397 35.769 0 0 3.427 1.286 6.823-.062-4.582-18.64-1.833-33.938-1.807-34.091l.593.102c-.027.154-2.642 15.594 2.065 34.282 0 0-3.627 2.102-8.549.196M48.06 44.425c-.316.072-.647.075-.975.046-.325-.038-.66-.086-.974-.203-.316-.108-.628-.246-.912-.429-.146-.087-.289-.178-.417-.288-.13-.108-.275-.202-.392-.324-.245-.235-.474-.485-.671-.759-.222-.259-.374-.559-.549-.846-.157-.295-.285-.604-.427-.906-.114-.311-.21-.629-.315-.943l.757-.01c-.101.307-.212.545-.359.791-.073.118-.133.247-.226.352l-.26.325c-.16.228-.387.394-.588.581-.107.086-.2.19-.319.258l-.354.209-.352.204c-.114.075-.243.115-.373.156-.256.083-.509.172-.764.243-.251.088-.527.07-.785.108-.261.029-.522.044-.779.057.249-.087.494-.173.738-.246.239-.089.495-.121.714-.255l.666-.343c.232-.091.407-.276.609-.41l.293-.217.254-.257c.16-.18.353-.329.474-.538l.205-.292.174-.308c.118-.198.213-.435.272-.618l.367-1.141.39 1.131c.101.291.21.579.302.872.126.278.236.565.373.836.157.258.276.543.457.783.158.26.352.488.548.717l.314.323c.104.111.221.204.342.295.231.194.487.362.758.501.537.299 1.142.487 1.784.545"/><path clip-path="url(#b)" fill="#fff" d="M57.783 41.934s-.725 2.943-2.457 3.56"/><path clip-path="url(#b)" fill="#333433" d="M58.172 42.033s-.099.29-.279.682c-.181.396-.455.91-.795 1.38-.167.236-.359.456-.548.649-.195.191-.395.345-.575.463-.189.104-.344.191-.466.223l-.182.064.168-.095c.109-.051.245-.164.403-.292.15-.142.311-.319.457-.527.144-.213.283-.445.398-.691.235-.49.403-1.009.502-1.403.102-.398.139-.651.139-.651l.778.198z"/><path clip-path="url(#b)" fill="#fff" d="M38.792 22.418s-.256 2.36 1.297 4.15"/><path clip-path="url(#b)" fill="#333433" d="M39.191 22.452c.002.015-.054.245-.066.646-.018.198.003.43.004.682.037.246.043.521.109.781.069.259.107.536.216.766.103.232.159.476.279.644l.356.598-.461-.53c-.155-.152-.253-.382-.404-.605-.157-.222-.247-.495-.37-.758-.12-.265-.179-.548-.267-.809-.05-.267-.117-.517-.138-.736-.065-.434-.053-.761-.057-.745l.799.066z"/><path clip-path="url(#b)" fill="#fff" d="M33.75 49.48s3.882.66 4.324-1.223"/><path clip-path="url(#b)" fill="#333433" d="M33.814 49.084s.274.072.716.143c.437.067 1.03.137 1.617.103.291-.022.587-.053.845-.138.135-.032.254-.085.366-.142.12-.044.204-.127.296-.189.098-.057.142-.152.207-.216.067-.065.096-.139.123-.199l.09-.189-.058.202c-.018.066-.036.148-.092.226-.055.076-.091.189-.183.265-.085.082-.167.19-.285.258-.111.082-.233.162-.37.22-.268.139-.575.224-.883.299-1.243.27-2.517.148-2.517.148l.128-.791zM46.318 78.13c-.053-.108-5.251-11.197-2.758-36.271l.399.041c-2.482 24.961 2.667 35.949 2.719 36.057l-.36.173z"/><path clip-path="url(#b)" fill="#fff" d="M71.37 38.562c.3-.556.475-1.19.48-1.866.021-2.22-1.764-4.037-3.983-4.057-.714-.007-1.385.175-1.969.496l.03-.514c.035-3.886-3.085-7.064-6.971-7.1s-7.064 3.085-7.101 6.971c-.006.701.094 1.379.279 2.02l-.146-.009c-2.489-.023-4.525 1.976-4.548 4.465-.019 2.059 1.348 3.804 3.229 4.36-.488.993-.774 2.104-.786 3.285-.01 1.059.197 2.069.579 2.988-.604 1.008-.961 2.182-.973 3.442-.035 3.774 2.997 6.862 6.772 6.897 1.235.011 2.394-.311 3.399-.875.805 1.353 2.271 2.268 3.958 2.283 2.573.022 4.677-2.043 4.701-4.615.008-.855-.22-1.658-.617-2.351.211.019.423.037.639.038 4.532.042 8.241-3.6 8.283-8.132.034-3.517-2.155-6.53-5.255-7.726"/><path clip-path="url(#b)" fill="#333433" d="M47.107 38.966c.024-2.572 2.06-4.664 4.596-4.791-.125-.556-.186-1.121-.181-1.686.038-4.064 3.374-7.34 7.438-7.302 4.056.037 7.326 3.359 7.304 7.41.511-.197 1.058-.297 1.606-.292 2.401.022 4.337 1.994 4.315 4.395-.005.588-.126 1.155-.358 1.688 3.117 1.36 5.166 4.491 5.134 7.905-.043 4.736-3.952 8.578-8.698 8.463.266.627.4 1.302.394 1.981-.023 2.658-2.134 4.813-4.758 4.936.052-.219.055-.45.008-.67 2.254-.126 4.06-1.983 4.08-4.271.007-.761-.189-1.515-.572-2.181l-.317-.556.638.056c.202.018.405.034.612.036 4.341.04 7.904-3.459 7.944-7.8.03-3.258-1.996-6.236-5.042-7.412l-.354-.137.181-.334c.287-.532.436-1.108.44-1.71.019-2.032-1.619-3.701-3.651-3.719-.629-.006-1.253.151-1.805.454l-.544.258.052-.621.026-.447c.033-3.695-2.944-6.728-6.64-6.762-3.693-.034-6.728 2.944-6.762 6.639-.006.646.084 1.293.266 1.923l.128.445-.599-.025c-2.3-.021-4.189 1.833-4.21 4.133-.017 1.851 1.212 3.511 2.989 4.036l.381.112-.176.357c-.488.993-.741 2.05-.751 3.14-.01.988.177 1.949.553 2.856l.065.157-.088.144c-.595.993-.915 2.125-.926 3.273-.032 3.584 2.856 6.526 6.441 6.56 1.127.011 2.244-.276 3.231-.832l.285-.159.168.28c.322.541.748.987 1.241 1.332-.085.238-.107.5-.067.752-.615-.366-1.158-.856-1.577-1.471-1.02.513-2.149.778-3.287.768-3.954-.037-7.141-3.282-7.105-7.235.012-1.212.335-2.406.938-3.466-.369-.945-.552-1.941-.542-2.964.009-1.066.232-2.103.66-3.085-1.864-.719-3.123-2.542-3.104-4.561"/><path clip-path="url(#b)" fill="#fff" d="M60.582 49.325s2.227 12.92-1.772 28.798c0 0 3.37 1.234 6.532.06-2.82-15.325-1.397-30.167-1.397-30.167"/><path clip-path="url(#b)" fill="#333433" d="M65.671 78.201c-2.674-14.386-1.405-30.002-1.393-30.158l-.668-.056c-.013.155-1.265 15.494 1.329 29.857 0 0-2.863 1.074-5.702-.053 3.83-15.579 1.696-28.395 1.675-28.524l-.661.115c.022.128 2.209 13.034-1.726 28.654 0 0 3.033 1.758 7.146.165M58.118 50.028c.264.06.541.063.815.039.271-.032.552-.072.813-.17.265-.091.525-.206.764-.359.12-.073.24-.149.348-.241l.327-.271c.205-.196.396-.405.562-.634.186-.216.312-.467.458-.707.132-.247.238-.504.357-.757l.264-.788-.633-.009c.084.257.177.456.3.661l.189.294.217.272c.134.191.324.33.491.486l.268.215.295.175.294.171c.096.062.204.096.312.13l.639.203c.21.074.44.058.656.091.218.024.436.036.65.048l-.616-.206c-.2-.075-.414-.102-.597-.214l-.557-.286c-.194-.076-.341-.231-.509-.343l-.245-.181-.213-.215c-.133-.151-.294-.275-.396-.45l-.171-.244-.146-.258c-.099-.165-.179-.363-.228-.516l-.306-.953-.327.945-.252.729c-.105.232-.197.472-.312.698-.131.216-.229.454-.382.655-.132.217-.294.407-.458.599l-.263.27c-.086.093-.184.171-.285.247-.194.161-.407.303-.634.419-.446.25-.953.407-1.489.455"/><path clip-path="url(#b)" fill="#fff" d="M49.991 47.946s.606 2.46 2.054 2.976"/><path clip-path="url(#b)" fill="#333433" d="M49.666 48.029s.083.242.233.57c.15.331.381.761.665 1.154.14.197.3.38.458.542.163.159.33.288.48.387.158.087.287.159.39.186l.151.054-.14-.08c-.093-.042-.206-.136-.338-.243-.125-.12-.259-.267-.382-.441-.12-.178-.237-.372-.333-.578-.196-.409-.336-.843-.42-1.172-.085-.333-.116-.545-.116-.545l-.648.166z"/><path clip-path="url(#b)" fill="#fff" d="M65.865 31.634s.214 1.973-1.084 3.469"/><path clip-path="url(#b)" fill="#333433" d="M65.531 31.662c-.002.013.045.204.056.54.015.166-.003.359-.003.57-.031.205-.036.435-.093.653-.057.216-.088.448-.18.64-.085.194-.132.398-.233.539l-.297.499.385-.443c.13-.127.213-.319.339-.505.131-.186.206-.414.308-.634.101-.221.15-.458.223-.676.042-.223.1-.432.116-.616.055-.362.045-.636.048-.623l-.669.056z"/><path clip-path="url(#b)" fill="#fff" d="M70.079 54.254s-3.244.552-3.614-1.021"/><path clip-path="url(#b)" fill="#333433" d="M70.025 53.924s-.229.06-.599.118c-.365.058-.86.115-1.352.088-.243-.02-.49-.045-.707-.115-.111-.027-.211-.072-.305-.119l-.247-.159-.174-.18-.104-.166-.073-.158.048.169.077.188.151.222c.071.068.141.159.239.216.093.068.195.135.309.184.225.116.481.188.738.25 1.039.226 2.104.123 2.104.123l-.105-.661zM59.574 78.201c.045-.091 4.389-9.359 2.305-30.318l-.333.034c2.074 20.864-2.229 30.048-2.272 30.139l.3.145z"/></svg>