<svg xmlns="http://www.w3.org/2000/svg" xmlns:xlink="http://www.w3.org/1999/xlink" width="100" height="100" viewBox="0 0 100 100"><defs><path id="a" d="M0 0h100v100h-100z"/></defs><clipPath id="b"><use xlink:href="#a" overflow="visible"/></clipPath><path clip-path="url(#b)" fill="#333433" d="M98.991 50.096c0 26.993-21.882 48.875-48.875 48.875s-48.875-21.882-48.875-48.875 21.882-48.875 48.875-48.875 48.875 21.883 48.875 48.875"/><path clip-path="url(#b)" fill="#fff" d="M80.033 47.016c0-4.943-3.685-9.068-8.588-10.042-1.368-5.64-6.682-9.85-13.04-9.85-3.853 0-7.314 1.552-9.757 4.022-2.211-1.53-4.926-2.443-7.872-2.443-5.808 0-10.738 3.514-12.594 8.419-4.597 1.183-7.982 5.158-7.982 9.894 0 4.611 3.204 8.51 7.615 9.804l3.515 16.403s4.059 2.259 18.873 2.101c14.813-.157 18.7-2.101 18.7-2.101l3.515-16.403c4.41-1.295 7.615-5.193 7.615-9.804"/><path clip-path="url(#b)" fill="#333433" d="M43.539 61.076c-3.615 0-7.018-1.306-9.616-3.683-.958.243-1.935.367-2.909.367-6.229 0-11.298-4.82-11.298-10.746 0-4.757 3.321-8.957 8.105-10.297 2.042-5.093 7.215-8.499 12.955-8.499 2.804 0 5.496.796 7.814 2.306 2.626-2.508 6.095-3.885 9.815-3.885 6.389 0 11.866 4.066 13.434 9.924 5.047 1.14 8.679 5.489 8.679 10.451 0 5.925-5.068 10.746-11.298 10.746-1.894 0-3.767-.463-5.437-1.337-3.136 2.275-7.477 2.829-11.14 1.396-2.535 2.103-5.756 3.257-9.104 3.257m-9.348-4.757l.198.189c2.442 2.322 5.691 3.601 9.149 3.601 3.217 0 6.306-1.141 8.699-3.212l.228-.196.276.116c3.512 1.477 7.744.932 10.704-1.348l.253-.194.277.155c1.596.893 3.408 1.363 5.243 1.363 5.696 0 10.331-4.387 10.331-9.779 0-4.6-3.448-8.624-8.199-9.567l-.303-.06-.073-.299c-1.354-5.583-6.523-9.482-12.57-9.482-3.596 0-6.939 1.377-9.413 3.878l-.285.288-.333-.23c-2.23-1.542-4.857-2.357-7.598-2.357-5.428 0-10.307 3.258-12.142 8.107l-.088.234-.244.063c-4.486 1.154-7.619 5.03-7.619 9.425 0 5.392 4.635 9.779 10.331 9.779.976 0 1.956-.135 2.913-.401l.265-.073z"/><path clip-path="url(#b)" fill="#fff" d="M37.367 33.574c-1.564-.818-1.983.892.496 1.785 2.478.892.595-1.215-.496-1.785"/><path clip-path="url(#b)" fill="#333433" d="M38.776 35.931c-.25 0-.588-.078-1.034-.238-1.521-.547-2.093-1.414-1.986-2.029.112-.638.903-.859 1.775-.404.628.328 2.07 1.522 1.892 2.246-.025.1-.145.425-.647.425m-2.146-2.217c-.061 0-.163.01-.174.072-.036.203.3.797 1.527 1.239.338.122.551.169.678.187-.213-.353-.885-1.022-1.46-1.323-.215-.113-.418-.175-.571-.175"/><path clip-path="url(#b)" fill="#fff" d="M62.974 33.106c-1.759.15-1.194 1.817 1.376 1.24s-.151-1.344-1.376-1.24"/><path clip-path="url(#b)" fill="#333433" d="M63.35 34.823c-1.176 0-1.725-.523-1.747-1.043-.018-.42.322-.94 1.341-1.027l.275-.012c.484 0 2.459.179 2.551 1.004.07.631-.919.853-1.342.948-.384.086-.746.13-1.078.13m-.131-1.371l-.215.008c-.528.046-.694.231-.691.29.005.107.31.362 1.037.362.28 0 .59-.038.922-.112.352-.079.557-.152.673-.206-.319-.157-1.063-.342-1.726-.342"/><path clip-path="url(#b)" fill="#fff" d="M30.478 40.306c-1.503.926-.248 2.16 1.787.487s-.739-1.132-1.787-.487"/><path clip-path="url(#b)" fill="#333433" d="M30.467 41.974c-.496 0-.87-.234-.977-.612-.131-.461.169-.97.801-1.359.598-.367 1.63-.679 2.256-.679.517 0 .703.218.769.401.128.36-.119.761-.826 1.342-.711.585-1.429.907-2.023.907m2.078-1.939c-.49.001-1.403.278-1.881.573-.418.257-.511.489-.49.561.011.04.109.095.293.095.2 0 .754-.073 1.572-.746.276-.226.425-.382.506-.483"/><path clip-path="url(#b)" fill="#fff" d="M67.324 40.995c-1.503.926-.248 2.16 1.787.487s-.739-1.132-1.787-.487"/><path clip-path="url(#b)" fill="#333433" d="M67.312 42.663c-.495 0-.869-.234-.976-.611-.131-.462.168-.971.801-1.36.598-.367 1.631-.678 2.256-.678.518 0 .703.218.769.4.129.36-.118.761-.825 1.342-.712.585-1.431.907-2.025.907m2.079-1.939c-.489.001-1.402.279-1.88.573-.418.257-.511.489-.49.561.011.04.109.095.292.095.2 0 .755-.073 1.573-.746.275-.226.424-.382.505-.483"/><path clip-path="url(#b)" fill="#fff" d="M56.81 40.272c1.245 1.252 2.16-.252.066-1.851-2.095-1.598-.935.978-.066 1.851"/><path clip-path="url(#b)" fill="#333433" d="M57.666 41.09c-.354 0-.738-.196-1.108-.569-.547-.55-1.425-2.004-1.164-2.633.193-.465.732-.485 1.698.25 1.26.962 1.506 1.902 1.333 2.412-.113.333-.404.54-.759.54m-1.597-2.771c.096.4.535 1.242.992 1.702.387.389.647.434.689.302.082-.241-.142-.896-1.091-1.62-.286-.219-.473-.328-.59-.384"/><path clip-path="url(#b)" fill="#fff" d="M43.875 40.047c-.991 1.461.66 2.072 1.829-.288 1.17-2.361-1.138-.73-1.829.288"/><path clip-path="url(#b)" fill="#333433" d="M44.036 41.693c-.318 0-.579-.15-.719-.412-.197-.373-.101-.896.265-1.434.397-.585 1.547-1.658 2.233-1.658.205 0 .379.092.479.253.179.288.098.73-.271 1.475-.648 1.309-1.453 1.776-1.987 1.776m1.613-2.745c-.375.171-1.117.764-1.48 1.298-.265.39-.263.63-.225.702l.091.035c.23 0 .809-.289 1.35-1.382.16-.323.234-.528.264-.653"/><path clip-path="url(#b)" fill="#fff" d="M53.418 23.42c2.591 2.368 2.772 6.388.404 8.979-2.366 2.591-6.387 2.773-8.979.405-2.591-2.368-2.772-6.388-.405-8.979 2.369-2.591 6.388-2.773 8.98-.405"/><path clip-path="url(#b)" fill="#333433" d="M49.129 34.886c-1.694 0-3.316-.63-4.567-1.773-1.336-1.22-2.117-2.888-2.199-4.696-.081-1.807.546-3.538 1.767-4.874 1.28-1.401 3.104-2.205 5.002-2.205 1.694 0 3.316.63 4.568 1.774 1.336 1.219 2.117 2.887 2.197 4.695.082 1.807-.546 3.538-1.767 4.874-1.279 1.401-3.102 2.205-5.001 2.205m.003-12.711c-1.664 0-3.263.704-4.385 1.933-1.069 1.171-1.619 2.687-1.548 4.272.072 1.584.756 3.046 1.927 4.115 1.097 1.002 2.518 1.555 4.003 1.555 1.664 0 3.263-.705 4.385-1.934 1.069-1.17 1.62-2.687 1.548-4.272-.071-1.584-.755-3.046-1.926-4.115-1.097-1.002-2.519-1.554-4.004-1.554"/><path clip-path="url(#b)" fill="#fff" d="M50.146 24.022c1.512 1.38-.657 1.647-2.037 3.157-1.38 1.511-1.45 3.693-2.961 2.313-1.001-.915-.692-2.879.688-4.389 1.382-1.511 3.348-1.961 4.31-1.081"/><path clip-path="url(#b)" fill="#333433" d="M45.975 30.404c-.362 0-.726-.178-1.146-.562-1.211-1.107-.922-3.329.658-5.059.963-1.053 2.227-1.682 3.38-1.682.638 0 1.19.198 1.599.571.306.279.707.714.665 1.263-.047.63-.623 1.014-1.289 1.461-.452.302-.963.645-1.382 1.103-.419.458-.714.999-.975 1.476-.401.735-.781 1.429-1.51 1.429m2.892-6.356c-.879 0-1.906.526-2.681 1.374-1.18 1.293-1.509 2.997-.718 3.721.32.292.469.314.507.314.167 0 .463-.541.679-.936.272-.498.61-1.119 1.107-1.66.495-.543 1.082-.936 1.553-1.251.363-.244.86-.577.873-.747.001-.015.001-.162-.359-.492-.293-.266-.685-.323-.961-.323"/><path clip-path="url(#b)" fill="#fff" d="M32.846 57.24l2.509 15.982"/><path clip-path="url(#b)" fill="#333433" d="M33.314 57.167l2.042 16.056-2.978-15.91z"/><path clip-path="url(#b)" fill="#fff" d="M39.13 59.738l1.07 13.991"/><path clip-path="url(#b)" fill="#333433" d="M39.603 59.702l.597 14.027-1.542-13.956z"/><path clip-path="url(#b)" fill="#fff" d="M44.958 60.593l.346 13.151"/><path clip-path="url(#b)" fill="#333433" d="M45.431 60.58l-.127 13.163-.82-13.138z"/><path clip-path="url(#b)" fill="#fff" d="M67.136 57.24l-2.509 15.982"/><path clip-path="url(#b)" fill="#333433" d="M67.604 57.313l-2.977 15.91 2.041-16.057z"/><path clip-path="url(#b)" fill="#fff" d="M61.372 57.24l-1.591 16.489"/><path clip-path="url(#b)" fill="#333433" d="M61.844 57.285l-2.063 16.444 1.119-16.535z"/><path clip-path="url(#b)" fill="#fff" d="M55.917 58.045l-.766 15.698"/><path clip-path="url(#b)" fill="#333433" d="M56.391 58.068l-1.24 15.675.293-15.721z"/><path clip-path="url(#b)" fill="#fff" d="M50.289 58.849l-.173 15.369"/><path clip-path="url(#b)" fill="#333433" d="M50.763 58.854l-.647 15.365-.3-15.375zM71.966 56.667h-.01l-3.472 16.207c-.975.369-5.619 1.832-18.286 1.966l-1.462.008c-11.662 0-16.073-1.572-16.985-1.961l-3.506-16.363c-.216.015-.434-.007-.644-.095l-.412-.221 3.713 17.33.193.106c.159.089 4.056 2.17 17.641 2.17l1.472-.008c14.756-.157 18.749-2.07 18.911-2.152l.208-.104 3.681-17.184c-.305.196-.66.312-1.042.301"/></svg>